G75*
%MOIN*%
%OFA0B0*%
%FSLAX24Y24*%
%IPPOS*%
%LPD*%
%AMOC8*
5,1,8,0,0,1.08239X$1,22.5*
%
%ADD10OC8,0.0630*%
%ADD11R,0.0236X0.0610*%
%ADD12R,0.0472X0.0709*%
%ADD13R,0.0600X0.0180*%
%ADD14R,0.0551X0.0118*%
%ADD15R,0.0118X0.0551*%
%ADD16R,0.0540X0.1340*%
%ADD17R,0.0512X0.0591*%
%ADD18R,0.0690X0.0940*%
%ADD19R,0.0433X0.0394*%
%ADD20R,0.0394X0.0433*%
%ADD21R,0.0394X0.0453*%
%ADD22C,0.0560*%
%ADD23R,0.0591X0.0512*%
%ADD24R,0.0940X0.0690*%
%ADD25C,0.0060*%
%ADD26C,0.0100*%
%ADD27C,0.0220*%
%ADD28C,0.0160*%
D10*
X000800Y001800D03*
X000800Y002800D03*
X000800Y003800D03*
X000800Y004800D03*
X000800Y005800D03*
X000800Y006800D03*
X000800Y007830D03*
X000800Y008800D03*
X000800Y009800D03*
X000800Y010800D03*
X000800Y011800D03*
X000800Y012800D03*
X000800Y013800D03*
X000800Y014800D03*
X000800Y015800D03*
X000800Y016800D03*
X000800Y017800D03*
X009800Y017800D03*
X009800Y016800D03*
X009800Y015800D03*
X009800Y014800D03*
X009800Y013800D03*
X009800Y012800D03*
X009800Y011800D03*
X009800Y010800D03*
X009800Y009800D03*
X009800Y008800D03*
X009800Y007800D03*
X009800Y006800D03*
X009800Y005800D03*
X009800Y004800D03*
X009800Y003800D03*
X009800Y002800D03*
X009800Y001800D03*
D11*
X004284Y002622D03*
X003891Y002622D03*
X003497Y002622D03*
X003103Y002622D03*
X002709Y002622D03*
X002316Y002622D03*
D12*
X001804Y001096D03*
X004796Y001096D03*
D13*
X006550Y016270D03*
X006550Y016520D03*
X006550Y016780D03*
X006550Y017030D03*
X006550Y017920D03*
X006550Y018170D03*
X006550Y018430D03*
X006550Y018680D03*
X008150Y018680D03*
X008150Y018430D03*
X008150Y018170D03*
X008150Y017920D03*
X008150Y017030D03*
X008150Y016780D03*
X008150Y016520D03*
X008150Y016270D03*
D14*
X007883Y011027D03*
X007883Y010830D03*
X007883Y010633D03*
X007883Y010436D03*
X007883Y010239D03*
X007883Y010042D03*
X007883Y009846D03*
X007883Y009649D03*
X007883Y009452D03*
X007883Y009255D03*
X007883Y009058D03*
X007883Y008861D03*
X007883Y008664D03*
X007883Y008468D03*
X007883Y008271D03*
X007883Y008074D03*
X003317Y008074D03*
X003317Y008271D03*
X003317Y008468D03*
X003317Y008664D03*
X003317Y008861D03*
X003317Y009058D03*
X003317Y009255D03*
X003317Y009452D03*
X003317Y009649D03*
X003317Y009846D03*
X003317Y010042D03*
X003317Y010239D03*
X003317Y010436D03*
X003317Y010633D03*
X003317Y010830D03*
X003317Y011027D03*
D15*
X004124Y011834D03*
X004320Y011834D03*
X004517Y011834D03*
X004714Y011834D03*
X004911Y011834D03*
X005108Y011834D03*
X005305Y011834D03*
X005502Y011834D03*
X005698Y011834D03*
X005895Y011834D03*
X006092Y011834D03*
X006289Y011834D03*
X006486Y011834D03*
X006683Y011834D03*
X006880Y011834D03*
X007076Y011834D03*
X007076Y007267D03*
X006880Y007267D03*
X006683Y007267D03*
X006486Y007267D03*
X006289Y007267D03*
X006092Y007267D03*
X005895Y007267D03*
X005698Y007267D03*
X005502Y007267D03*
X005305Y007267D03*
X005108Y007267D03*
X004911Y007267D03*
X004714Y007267D03*
X004517Y007267D03*
X004320Y007267D03*
X004124Y007267D03*
D16*
X003910Y016050D03*
X002290Y016050D03*
D17*
X007826Y013750D03*
X007826Y012950D03*
X007826Y012150D03*
X008574Y012150D03*
X008574Y012950D03*
X008574Y013750D03*
D18*
X008490Y014950D03*
X007610Y014950D03*
D19*
X008750Y009585D03*
X008750Y008916D03*
X008500Y004385D03*
X008500Y003716D03*
D20*
X003435Y017150D03*
X002765Y017150D03*
D21*
X005866Y002913D03*
X006850Y002913D03*
X007834Y002913D03*
X007834Y000688D03*
X006850Y000688D03*
X005866Y000688D03*
D22*
X003150Y006720D02*
X003150Y007280D01*
X002150Y007280D02*
X002150Y006720D01*
D23*
X004950Y018376D03*
X004950Y019124D03*
D24*
X003650Y019040D03*
X003650Y018160D03*
D25*
X003750Y018000D01*
X003800Y017950D01*
X004524Y017950D01*
X004950Y018376D01*
X004524Y017950D01*
X004500Y017926D01*
X004500Y017000D01*
X004650Y016700D02*
X005500Y017550D01*
X005500Y018100D01*
X005850Y018450D01*
X006360Y018450D01*
X006380Y018430D01*
X006550Y018430D01*
X006550Y018170D02*
X006530Y018150D01*
X006050Y018150D01*
X005950Y018050D01*
X005950Y017650D01*
X006050Y017550D01*
X007000Y017550D01*
X007100Y017450D01*
X007350Y017310D02*
X007070Y017030D01*
X007580Y016520D01*
X008150Y016520D01*
X008150Y017030D02*
X009170Y017030D01*
X009300Y016900D01*
X009300Y016300D01*
X009800Y015800D01*
X009800Y016800D02*
X009200Y017400D01*
X009200Y018400D01*
X008920Y018680D01*
X008150Y018680D01*
X008170Y018450D02*
X008150Y018430D01*
X008150Y018170D02*
X007580Y018170D01*
X007570Y018170D01*
X007350Y017950D01*
X007350Y017310D01*
X007070Y017030D02*
X006550Y017030D01*
X006520Y017000D01*
X005700Y017000D01*
X005380Y016780D02*
X005050Y016450D01*
X005380Y016780D02*
X006550Y016780D01*
X006580Y016550D02*
X006550Y016520D01*
X006120Y016520D01*
X005900Y016300D01*
X005900Y014950D01*
X005600Y014650D01*
X005600Y014350D02*
X007010Y014350D01*
X007610Y014950D01*
X007803Y014982D01*
X007826Y014959D01*
X007826Y013750D01*
X007076Y012901D01*
X007076Y011834D01*
X006880Y011834D02*
X006880Y010798D01*
X006879Y010797D01*
X006800Y010550D02*
X006350Y011000D01*
X005900Y011450D01*
X005900Y011829D01*
X005895Y011834D01*
X006092Y011834D02*
X006092Y012814D01*
X006091Y012815D01*
X006289Y012544D02*
X006289Y012544D01*
X006289Y011834D01*
X006486Y011834D02*
X006486Y012317D01*
X006485Y012318D01*
X006683Y011834D02*
X006683Y011177D01*
X006683Y011176D01*
X006800Y010550D02*
X007000Y010550D01*
X007100Y010650D01*
X007100Y011350D01*
X007300Y011550D01*
X007300Y011950D01*
X007500Y012150D01*
X007826Y012150D01*
X007826Y012950D01*
X007926Y014834D02*
X007610Y014950D01*
X007803Y014982D02*
X007850Y014990D01*
X007850Y015800D01*
X008000Y015950D01*
X009050Y015950D01*
X009200Y015800D01*
X009200Y014350D01*
X009100Y014250D01*
X009100Y011450D01*
X008676Y011027D01*
X008800Y010903D01*
X008800Y010620D01*
X009164Y010436D02*
X009800Y009800D01*
X009350Y010000D02*
X009350Y009250D01*
X009800Y008800D01*
X009200Y008400D02*
X009800Y007800D01*
X009350Y007950D02*
X009350Y007250D01*
X009800Y006800D01*
X009200Y006400D02*
X009800Y005800D01*
X009050Y005550D02*
X009800Y004800D01*
X009350Y004900D02*
X009350Y004250D01*
X009800Y003800D01*
X009800Y002800D02*
X009450Y002450D01*
X006950Y002450D01*
X006800Y002300D01*
X005700Y002300D01*
X005200Y001800D01*
X004500Y001550D02*
X005450Y002500D01*
X006750Y002500D01*
X006850Y002600D01*
X006850Y002913D01*
X008000Y004063D01*
X008000Y005150D01*
X007700Y005500D02*
X006950Y005500D01*
X004284Y002835D01*
X004284Y002622D01*
X003891Y002622D02*
X003891Y002060D01*
X004150Y001800D01*
X004400Y001800D01*
X004500Y001550D02*
X003000Y001550D01*
X002709Y001841D01*
X002709Y002622D01*
X002316Y002622D02*
X002350Y002456D01*
X002350Y002950D01*
X002950Y003550D01*
X002950Y005150D01*
X002600Y005500D01*
X002600Y005200D02*
X002400Y005200D01*
X000800Y006800D01*
X000800Y005800D02*
X001700Y004900D01*
X002600Y004900D01*
X002600Y004600D02*
X001000Y004600D01*
X000800Y004800D01*
X001300Y004300D02*
X000800Y003800D01*
X001300Y004300D02*
X002600Y004300D01*
X002600Y004000D02*
X002000Y004000D01*
X000800Y002800D01*
X001550Y002550D02*
X000800Y001800D01*
X001550Y002550D02*
X001550Y003100D01*
X002150Y003700D01*
X002600Y003700D01*
X003100Y003100D02*
X003200Y003200D01*
X003200Y005350D01*
X002850Y005700D01*
X002350Y005700D01*
X002150Y005900D01*
X002150Y007000D01*
X002150Y007350D01*
X002550Y007750D01*
X002750Y007750D01*
X003074Y008074D01*
X003317Y008074D01*
X003874Y008074D01*
X004150Y008000D02*
X003900Y007750D01*
X003050Y007750D01*
X002600Y007300D01*
X002600Y005900D01*
X003150Y006000D02*
X003450Y005700D01*
X003450Y002468D01*
X003497Y002622D01*
X003150Y002468D02*
X003100Y002518D01*
X003100Y003100D01*
X003103Y002622D02*
X003150Y002468D01*
X003750Y003350D02*
X005800Y005400D01*
X006250Y005400D01*
X006880Y006030D01*
X006880Y007267D01*
X007076Y007267D02*
X007076Y006874D01*
X007750Y006200D01*
X008050Y006200D01*
X009350Y004900D01*
X009050Y005550D02*
X009050Y007750D01*
X008726Y008074D01*
X007883Y008074D01*
X007883Y008271D02*
X008780Y008271D01*
X009200Y007850D01*
X009200Y006400D01*
X008550Y005300D02*
X008000Y005850D01*
X006950Y005850D01*
X006300Y005200D01*
X005900Y005200D01*
X004550Y003850D01*
X004550Y003750D01*
X003750Y003650D02*
X005700Y005600D01*
X006150Y005600D01*
X006683Y006133D01*
X006683Y007267D01*
X006486Y007267D02*
X006486Y006186D01*
X006100Y005800D01*
X005600Y005800D01*
X003750Y003950D01*
X003750Y004250D02*
X005500Y006000D01*
X006050Y006000D01*
X006289Y006239D01*
X006289Y007267D01*
X006092Y007267D02*
X006092Y006480D01*
X006091Y006400D01*
X005894Y006700D02*
X005895Y006786D01*
X005895Y007267D01*
X005698Y007267D02*
X005698Y006442D01*
X005698Y006400D01*
X005502Y006700D02*
X005502Y006747D01*
X005502Y007267D01*
X005305Y007267D02*
X005305Y006457D01*
X005305Y006400D01*
X005108Y006700D02*
X005108Y006721D01*
X005108Y007267D01*
X004911Y007267D02*
X004911Y006386D01*
X004911Y006400D01*
X004713Y006700D02*
X004714Y006715D01*
X004714Y007267D01*
X004517Y007267D02*
X004517Y005318D01*
X003750Y004550D01*
X003750Y004850D02*
X004320Y005421D01*
X004320Y007267D01*
X004124Y007267D02*
X004124Y007724D01*
X004200Y007800D01*
X004650Y007800D01*
X005020Y008271D02*
X005350Y008600D01*
X005350Y010600D01*
X005250Y011100D02*
X005500Y011100D01*
X006550Y010050D01*
X006550Y008750D01*
X008000Y007300D01*
X007883Y008468D02*
X008833Y008468D01*
X009350Y007950D01*
X009200Y008400D02*
X009200Y009900D01*
X009058Y010042D01*
X007883Y010042D01*
X007883Y009846D02*
X007105Y009846D01*
X007100Y009850D01*
X007348Y009649D02*
X007100Y009400D01*
X007348Y009649D02*
X007883Y009649D01*
X008686Y009649D01*
X008750Y009585D01*
X009350Y010000D02*
X009111Y010239D01*
X007883Y010239D01*
X007883Y010436D02*
X009164Y010436D01*
X008676Y011027D02*
X007883Y011027D01*
X007883Y010830D02*
X007883Y010633D01*
X005698Y011834D02*
X005698Y013149D01*
X005700Y013150D01*
X005502Y012849D02*
X005500Y012850D01*
X005502Y012849D02*
X005502Y011834D01*
X005305Y011834D02*
X005305Y014055D01*
X005600Y014350D01*
X005302Y014658D02*
X005302Y012581D01*
X005305Y012579D01*
X005305Y011834D01*
X005100Y012400D02*
X004450Y013050D01*
X003500Y013050D01*
X003150Y013400D01*
X003150Y015000D01*
X002765Y015385D01*
X002765Y017150D01*
X002715Y017100D01*
X002150Y017100D01*
X002290Y016050D02*
X001550Y016050D01*
X000800Y016800D01*
X000800Y015800D02*
X001200Y015800D01*
X001900Y015100D01*
X002600Y015100D01*
X002850Y014850D01*
X002850Y014100D01*
X003900Y013500D02*
X003900Y013300D01*
X003900Y013500D02*
X004950Y014550D01*
X005302Y014658D02*
X003910Y016050D01*
X003910Y016690D01*
X003450Y017150D01*
X003900Y016060D02*
X003910Y016050D01*
X004150Y012850D02*
X001750Y012850D01*
X000800Y013800D01*
X000800Y012800D02*
X001050Y012550D01*
X004000Y012550D01*
X004320Y012230D01*
X004320Y011834D01*
X004124Y011834D02*
X004090Y011800D01*
X000800Y011800D01*
X000800Y010800D02*
X001300Y010300D01*
X001300Y009600D01*
X001500Y009400D01*
X001500Y008750D01*
X001586Y008664D01*
X003317Y008664D01*
X003317Y008468D02*
X001433Y008468D01*
X001300Y008600D01*
X001300Y009300D01*
X000800Y009800D01*
X000800Y008800D02*
X001350Y008250D01*
X003100Y008250D01*
X003120Y008271D01*
X003317Y008271D01*
X005020Y008271D01*
X005100Y008000D02*
X004150Y008000D01*
X004124Y007267D02*
X003857Y007000D01*
X003150Y007000D01*
X003150Y006000D01*
X002700Y008000D02*
X000970Y008000D01*
X000800Y007830D01*
X002400Y010600D02*
X002433Y010633D01*
X003317Y010633D01*
X003317Y010830D02*
X002180Y010830D01*
X002150Y010800D01*
X001876Y011027D02*
X001850Y011000D01*
X001876Y011027D02*
X003317Y011027D01*
X003317Y010436D02*
X002686Y010436D01*
X002650Y010400D01*
X002700Y009450D02*
X003317Y009452D01*
X003317Y009649D02*
X003318Y009650D01*
X004350Y009650D01*
X004650Y009750D02*
X004358Y010042D01*
X003317Y010042D01*
X003317Y009846D02*
X003845Y009846D01*
X004000Y009850D01*
X004239Y010239D02*
X004250Y010250D01*
X004239Y010239D02*
X003317Y010239D01*
X003317Y009058D02*
X004342Y009058D01*
X004350Y009050D01*
X004650Y008800D02*
X004650Y009750D01*
X005100Y008800D02*
X005100Y011050D01*
X004714Y011436D01*
X004714Y011834D01*
X004911Y011834D02*
X004911Y011439D01*
X005250Y011100D01*
X003317Y008861D02*
X002539Y008861D01*
X002529Y008862D01*
X002520Y008866D01*
X002511Y008872D01*
X002505Y008881D01*
X002501Y008890D01*
X002500Y008900D01*
X001450Y014400D02*
X001450Y015200D01*
X006550Y016270D02*
X007080Y016270D01*
X007100Y016250D01*
X007000Y016500D02*
X007100Y016600D01*
X007000Y016500D02*
X006630Y016500D01*
X006580Y016550D01*
X006570Y017900D02*
X006550Y017920D01*
X006570Y017900D02*
X007100Y017900D01*
X007580Y018170D02*
X007070Y018680D01*
X006550Y018680D01*
X006550Y018170D02*
X006470Y018170D01*
X008490Y014950D02*
X008674Y014934D01*
X008550Y005300D02*
X008550Y004450D01*
X008500Y004400D01*
X008500Y004385D01*
X008500Y003716D02*
X008500Y003578D01*
X007834Y002913D01*
X002316Y002622D02*
X002300Y002406D01*
D26*
X002144Y002186D02*
X002488Y002186D01*
X002513Y002211D01*
X002537Y002186D01*
X002549Y002186D01*
X002549Y001775D01*
X002840Y001484D01*
X002934Y001390D01*
X004430Y001390D01*
X004430Y000780D01*
X002170Y000780D01*
X002170Y001504D01*
X002094Y001580D01*
X001514Y001580D01*
X001464Y001530D01*
X001378Y001616D01*
X001245Y001671D01*
X001245Y001985D01*
X001228Y002002D01*
X001710Y002484D01*
X001710Y003034D01*
X002216Y003540D01*
X002421Y003540D01*
X002464Y003497D01*
X002552Y003460D01*
X002634Y003460D01*
X002230Y003057D01*
X002144Y003057D01*
X002068Y002981D01*
X002068Y002263D01*
X002144Y002186D01*
X002068Y002270D02*
X001496Y002270D01*
X001398Y002172D02*
X002549Y002172D01*
X002549Y002073D02*
X001299Y002073D01*
X001245Y001975D02*
X002549Y001975D01*
X002549Y001876D02*
X001245Y001876D01*
X001245Y001778D02*
X002549Y001778D01*
X002645Y001679D02*
X001245Y001679D01*
X001413Y001581D02*
X002743Y001581D01*
X002842Y001482D02*
X002170Y001482D01*
X002170Y001384D02*
X004430Y001384D01*
X004430Y001285D02*
X002170Y001285D01*
X002170Y001187D02*
X004430Y001187D01*
X004430Y001088D02*
X002170Y001088D01*
X002170Y000990D02*
X004430Y000990D01*
X004430Y000891D02*
X002170Y000891D01*
X002170Y000793D02*
X004430Y000793D01*
X004756Y001580D02*
X004960Y001784D01*
X004960Y001753D01*
X004997Y001664D01*
X005064Y001597D01*
X005152Y001560D01*
X005248Y001560D01*
X005336Y001597D01*
X005403Y001664D01*
X005440Y001753D01*
X005440Y001814D01*
X005708Y002082D01*
X005642Y001923D01*
X005642Y001678D01*
X005736Y001451D01*
X005910Y001277D01*
X006137Y001183D01*
X006382Y001183D01*
X006609Y001277D01*
X006783Y001451D01*
X006850Y001613D01*
X006917Y001451D01*
X007091Y001277D01*
X007318Y001183D01*
X007563Y001183D01*
X007790Y001277D01*
X007964Y001451D01*
X008058Y001678D01*
X008058Y001923D01*
X007964Y002150D01*
X007824Y002290D01*
X009516Y002290D01*
X009598Y002373D01*
X009616Y002355D01*
X009820Y002355D01*
X009820Y001840D01*
X009760Y001840D01*
X009760Y001760D01*
X009335Y001760D01*
X009335Y001662D01*
X009222Y001616D01*
X008985Y001378D01*
X008856Y001068D01*
X008856Y000780D01*
X008161Y000780D01*
X008161Y000968D01*
X008085Y001044D01*
X007584Y001044D01*
X007507Y000968D01*
X007507Y000780D01*
X007177Y000780D01*
X007177Y000968D01*
X007101Y001044D01*
X006599Y001044D01*
X006523Y000968D01*
X006523Y000780D01*
X006193Y000780D01*
X006193Y000968D01*
X006116Y001044D01*
X005615Y001044D01*
X005539Y000968D01*
X005539Y000780D01*
X005162Y000780D01*
X005162Y001504D01*
X005086Y001580D01*
X004756Y001580D01*
X004757Y001581D02*
X005103Y001581D01*
X005162Y001482D02*
X005723Y001482D01*
X005682Y001581D02*
X005297Y001581D01*
X005410Y001679D02*
X005642Y001679D01*
X005642Y001778D02*
X005440Y001778D01*
X005502Y001876D02*
X005642Y001876D01*
X005664Y001975D02*
X005601Y001975D01*
X005699Y002073D02*
X005704Y002073D01*
X005521Y002660D02*
X005384Y002660D01*
X004620Y001896D01*
X004603Y001936D01*
X004536Y002004D01*
X004448Y002040D01*
X004352Y002040D01*
X004264Y002004D01*
X004221Y001960D01*
X004216Y001960D01*
X004051Y002126D01*
X004051Y002186D01*
X004063Y002186D01*
X004087Y002211D01*
X004112Y002186D01*
X004456Y002186D01*
X004532Y002263D01*
X004532Y002856D01*
X007016Y005340D01*
X007521Y005340D01*
X007564Y005297D01*
X007652Y005260D01*
X007748Y005260D01*
X007794Y005279D01*
X007760Y005198D01*
X007760Y005103D01*
X007797Y005014D01*
X007840Y004971D01*
X007840Y004129D01*
X006980Y003269D01*
X006599Y003269D01*
X006523Y003193D01*
X006523Y002660D01*
X006211Y002660D01*
X006213Y002666D01*
X006213Y002864D01*
X005914Y002864D01*
X005914Y002961D01*
X005817Y002961D01*
X005817Y002864D01*
X005519Y002864D01*
X005519Y002666D01*
X005521Y002660D01*
X005519Y002664D02*
X004532Y002664D01*
X004532Y002566D02*
X005289Y002566D01*
X005191Y002467D02*
X004532Y002467D01*
X004532Y002369D02*
X005092Y002369D01*
X004994Y002270D02*
X004532Y002270D01*
X004565Y001975D02*
X004698Y001975D01*
X004797Y002073D02*
X004103Y002073D01*
X004051Y002172D02*
X004895Y002172D01*
X004954Y001778D02*
X004960Y001778D01*
X004990Y001679D02*
X004855Y001679D01*
X005162Y001384D02*
X005803Y001384D01*
X005901Y001285D02*
X005162Y001285D01*
X005162Y001187D02*
X006127Y001187D01*
X006171Y000990D02*
X006545Y000990D01*
X006523Y000891D02*
X006193Y000891D01*
X006193Y000793D02*
X006523Y000793D01*
X006391Y001187D02*
X007309Y001187D01*
X007155Y000990D02*
X007529Y000990D01*
X007507Y000891D02*
X007177Y000891D01*
X007177Y000793D02*
X007507Y000793D01*
X007573Y001187D02*
X008905Y001187D01*
X008946Y001285D02*
X007799Y001285D01*
X007897Y001384D02*
X008990Y001384D01*
X009089Y001482D02*
X007977Y001482D01*
X008018Y001581D02*
X009187Y001581D01*
X009335Y001679D02*
X008058Y001679D01*
X008058Y001778D02*
X009760Y001778D01*
X009760Y001840D02*
X009335Y001840D01*
X009335Y001993D01*
X009607Y002265D01*
X009760Y002265D01*
X009760Y001840D01*
X009760Y001876D02*
X009820Y001876D01*
X009820Y001975D02*
X009760Y001975D01*
X009760Y002073D02*
X009820Y002073D01*
X009820Y002172D02*
X009760Y002172D01*
X009820Y002270D02*
X007844Y002270D01*
X007942Y002172D02*
X009514Y002172D01*
X009415Y002073D02*
X007996Y002073D01*
X008036Y001975D02*
X009335Y001975D01*
X009335Y001876D02*
X008058Y001876D01*
X008139Y002610D02*
X008161Y002632D01*
X008161Y003013D01*
X008537Y003389D01*
X008770Y003389D01*
X008847Y003465D01*
X008847Y003966D01*
X008770Y004043D01*
X008230Y004043D01*
X008153Y003966D01*
X008153Y003465D01*
X008157Y003461D01*
X007964Y003269D01*
X007584Y003269D01*
X007507Y003193D01*
X007507Y002632D01*
X007529Y002610D01*
X007155Y002610D01*
X007177Y002632D01*
X007177Y003013D01*
X008160Y003996D01*
X008160Y004128D01*
X008230Y004058D01*
X008770Y004058D01*
X008847Y004134D01*
X008847Y004636D01*
X008770Y004712D01*
X008710Y004712D01*
X008710Y005121D01*
X008753Y005164D01*
X008785Y005239D01*
X009190Y004834D01*
X009190Y004184D01*
X009372Y004002D01*
X009355Y003985D01*
X009355Y003616D01*
X009616Y003355D01*
X009820Y003355D01*
X009820Y003245D01*
X009616Y003245D01*
X009355Y002985D01*
X009355Y002616D01*
X009361Y002610D01*
X008139Y002610D01*
X008161Y002664D02*
X009355Y002664D01*
X009355Y002763D02*
X008161Y002763D01*
X008161Y002861D02*
X009355Y002861D01*
X009355Y002960D02*
X008161Y002960D01*
X008206Y003058D02*
X009429Y003058D01*
X009527Y003157D02*
X008305Y003157D01*
X008403Y003255D02*
X009820Y003255D01*
X009820Y003354D02*
X008502Y003354D01*
X008148Y003452D02*
X007616Y003452D01*
X007518Y003354D02*
X008049Y003354D01*
X008153Y003551D02*
X007715Y003551D01*
X007813Y003649D02*
X008153Y003649D01*
X008153Y003748D02*
X007912Y003748D01*
X008010Y003846D02*
X008153Y003846D01*
X008153Y003945D02*
X008109Y003945D01*
X008160Y004043D02*
X009331Y004043D01*
X009355Y003945D02*
X008847Y003945D01*
X008847Y003846D02*
X009355Y003846D01*
X009355Y003748D02*
X008847Y003748D01*
X008847Y003649D02*
X009355Y003649D01*
X009420Y003551D02*
X008847Y003551D01*
X008834Y003452D02*
X009519Y003452D01*
X009232Y004142D02*
X008847Y004142D01*
X008847Y004240D02*
X009190Y004240D01*
X009190Y004339D02*
X008847Y004339D01*
X008847Y004437D02*
X009190Y004437D01*
X009190Y004536D02*
X008847Y004536D01*
X008847Y004634D02*
X009190Y004634D01*
X009190Y004733D02*
X008710Y004733D01*
X008710Y004831D02*
X009190Y004831D01*
X009094Y004930D02*
X008710Y004930D01*
X008710Y005028D02*
X008996Y005028D01*
X008897Y005127D02*
X008716Y005127D01*
X008779Y005225D02*
X008799Y005225D01*
X008890Y005587D02*
X008116Y006360D01*
X007816Y006360D01*
X007252Y006924D01*
X007265Y006937D01*
X007265Y007596D01*
X007189Y007672D01*
X004857Y007672D01*
X004890Y007753D01*
X004890Y007840D01*
X004921Y007840D01*
X004964Y007797D01*
X005052Y007760D01*
X005148Y007760D01*
X005236Y007797D01*
X005303Y007864D01*
X005340Y007953D01*
X005340Y008048D01*
X005303Y008136D01*
X005236Y008204D01*
X005196Y008220D01*
X005416Y008440D01*
X005510Y008534D01*
X005510Y010421D01*
X005553Y010464D01*
X005590Y010553D01*
X005590Y010648D01*
X005553Y010736D01*
X005486Y010804D01*
X005398Y010840D01*
X005302Y010840D01*
X005260Y010823D01*
X005260Y010940D01*
X005434Y010940D01*
X006390Y009984D01*
X006390Y008684D01*
X006484Y008590D01*
X007760Y007314D01*
X007760Y007253D01*
X007797Y007164D01*
X007864Y007097D01*
X007952Y007060D01*
X008048Y007060D01*
X008136Y007097D01*
X008203Y007164D01*
X008240Y007253D01*
X008240Y007348D01*
X008203Y007436D01*
X008136Y007504D01*
X008048Y007540D01*
X007986Y007540D01*
X007642Y007885D01*
X008689Y007885D01*
X008660Y007914D02*
X008890Y007684D01*
X008890Y005587D01*
X008890Y005619D02*
X008857Y005619D01*
X008890Y005718D02*
X008759Y005718D01*
X008660Y005816D02*
X008890Y005816D01*
X008890Y005915D02*
X008562Y005915D01*
X008463Y006013D02*
X008890Y006013D01*
X008890Y006112D02*
X008365Y006112D01*
X008266Y006210D02*
X008890Y006210D01*
X008890Y006309D02*
X008168Y006309D01*
X007984Y006040D02*
X008014Y006010D01*
X007934Y006010D01*
X007040Y006010D01*
X007040Y006685D01*
X007590Y006134D01*
X007684Y006040D01*
X007984Y006040D01*
X008011Y006013D02*
X007040Y006013D01*
X007040Y006112D02*
X007612Y006112D01*
X007514Y006210D02*
X007040Y006210D01*
X007040Y006309D02*
X007415Y006309D01*
X007317Y006407D02*
X007040Y006407D01*
X007040Y006506D02*
X007218Y006506D01*
X007120Y006604D02*
X007040Y006604D01*
X007277Y006900D02*
X008890Y006900D01*
X008890Y006998D02*
X007265Y006998D01*
X007265Y007097D02*
X007864Y007097D01*
X007784Y007195D02*
X007265Y007195D01*
X007265Y007294D02*
X007760Y007294D01*
X007682Y007392D02*
X007265Y007392D01*
X007265Y007491D02*
X007583Y007491D01*
X007485Y007589D02*
X007265Y007589D01*
X007386Y007688D02*
X004863Y007688D01*
X004890Y007786D02*
X004989Y007786D01*
X005211Y007786D02*
X007288Y007786D01*
X007189Y007885D02*
X005312Y007885D01*
X005340Y007983D02*
X007091Y007983D01*
X006992Y008082D02*
X005326Y008082D01*
X005259Y008180D02*
X006894Y008180D01*
X006795Y008279D02*
X005255Y008279D01*
X005353Y008377D02*
X006697Y008377D01*
X006598Y008476D02*
X005452Y008476D01*
X005510Y008574D02*
X006500Y008574D01*
X006484Y008590D02*
X006484Y008590D01*
X006401Y008673D02*
X005510Y008673D01*
X005510Y008771D02*
X006390Y008771D01*
X006390Y008870D02*
X005510Y008870D01*
X005510Y008968D02*
X006390Y008968D01*
X006390Y009067D02*
X005510Y009067D01*
X005510Y009165D02*
X006390Y009165D01*
X006390Y009264D02*
X005510Y009264D01*
X005510Y009362D02*
X006390Y009362D01*
X006390Y009461D02*
X005510Y009461D01*
X005510Y009559D02*
X006390Y009559D01*
X006390Y009658D02*
X005510Y009658D01*
X005510Y009756D02*
X006390Y009756D01*
X006390Y009855D02*
X005510Y009855D01*
X005510Y009953D02*
X006390Y009953D01*
X006322Y010052D02*
X005510Y010052D01*
X005510Y010150D02*
X006224Y010150D01*
X006125Y010249D02*
X005510Y010249D01*
X005510Y010347D02*
X006027Y010347D01*
X005928Y010446D02*
X005535Y010446D01*
X005587Y010544D02*
X005830Y010544D01*
X005731Y010643D02*
X005590Y010643D01*
X005548Y010741D02*
X005633Y010741D01*
X005534Y010840D02*
X005399Y010840D01*
X005301Y010840D02*
X005260Y010840D01*
X005260Y010938D02*
X005436Y010938D01*
X005691Y011135D02*
X005989Y011135D01*
X006087Y011037D02*
X005790Y011037D01*
X005888Y010938D02*
X006116Y010938D01*
X006110Y010953D02*
X006147Y010864D01*
X006214Y010797D01*
X006302Y010760D01*
X006364Y010760D01*
X006734Y010390D01*
X007066Y010390D01*
X007160Y010484D01*
X007260Y010584D01*
X007260Y011284D01*
X007460Y011484D01*
X007460Y011781D01*
X007516Y011725D01*
X008136Y011725D01*
X008189Y011778D01*
X008198Y011763D01*
X008226Y011735D01*
X008260Y011715D01*
X008298Y011705D01*
X008524Y011705D01*
X008524Y012100D01*
X008624Y012100D01*
X008624Y011705D01*
X008850Y011705D01*
X008888Y011715D01*
X008922Y011735D01*
X008940Y011753D01*
X008940Y011517D01*
X008610Y011187D01*
X008242Y011187D01*
X008213Y011216D01*
X007554Y011216D01*
X007478Y011140D01*
X007478Y010964D01*
X007468Y010947D01*
X007458Y010909D01*
X007458Y010830D01*
X007547Y010830D01*
X007547Y010830D01*
X007458Y010830D01*
X007458Y010751D01*
X007463Y010731D01*
X007458Y010712D01*
X007458Y010633D01*
X007547Y010633D01*
X007458Y010633D01*
X007458Y010554D01*
X007468Y010516D01*
X007478Y010499D01*
X007478Y010006D01*
X007284Y010006D01*
X007236Y010054D01*
X007148Y010090D01*
X007052Y010090D01*
X006964Y010054D01*
X006897Y009986D01*
X006860Y009898D01*
X006860Y009803D01*
X006897Y009714D01*
X006964Y009647D01*
X007016Y009625D01*
X006964Y009604D01*
X006897Y009536D01*
X006860Y009448D01*
X006860Y009353D01*
X006897Y009264D01*
X006710Y009264D01*
X006710Y009362D02*
X006860Y009362D01*
X006865Y009461D02*
X006710Y009461D01*
X006710Y009559D02*
X006920Y009559D01*
X006953Y009658D02*
X006710Y009658D01*
X006710Y009756D02*
X006879Y009756D01*
X006860Y009855D02*
X006710Y009855D01*
X006710Y009953D02*
X006883Y009953D01*
X006962Y010052D02*
X006710Y010052D01*
X006710Y010117D02*
X006616Y010210D01*
X005566Y011260D01*
X005316Y011260D01*
X005168Y011408D01*
X005187Y011408D01*
X005225Y011418D01*
X005242Y011428D01*
X005740Y011428D01*
X005740Y011384D01*
X005834Y011290D01*
X006110Y011014D01*
X006110Y010953D01*
X006171Y010840D02*
X005987Y010840D01*
X006085Y010741D02*
X006383Y010741D01*
X006481Y010643D02*
X006184Y010643D01*
X006282Y010544D02*
X006580Y010544D01*
X006678Y010446D02*
X006381Y010446D01*
X006479Y010347D02*
X007478Y010347D01*
X007478Y010249D02*
X006578Y010249D01*
X006676Y010150D02*
X007478Y010150D01*
X007478Y010052D02*
X007238Y010052D01*
X007122Y010446D02*
X007478Y010446D01*
X007461Y010544D02*
X007220Y010544D01*
X007260Y010643D02*
X007458Y010643D01*
X007547Y010633D02*
X007547Y010633D01*
X007460Y010741D02*
X007260Y010741D01*
X007260Y010840D02*
X007458Y010840D01*
X007420Y010830D02*
X007400Y010850D01*
X007420Y010830D02*
X007883Y010830D01*
X007883Y010633D01*
X007883Y010633D01*
X007883Y010830D01*
X007883Y010830D01*
X007883Y010741D02*
X007883Y010741D01*
X007883Y010643D02*
X007883Y010643D01*
X007466Y010938D02*
X007260Y010938D01*
X007260Y011037D02*
X007478Y011037D01*
X007478Y011135D02*
X007260Y011135D01*
X007260Y011234D02*
X008657Y011234D01*
X008756Y011332D02*
X007308Y011332D01*
X007407Y011431D02*
X008854Y011431D01*
X008940Y011529D02*
X007460Y011529D01*
X007460Y011628D02*
X008940Y011628D01*
X008940Y011726D02*
X008907Y011726D01*
X008624Y011726D02*
X008524Y011726D01*
X008524Y011825D02*
X008624Y011825D01*
X008624Y011923D02*
X008524Y011923D01*
X008524Y012022D02*
X008624Y012022D01*
X008624Y012200D02*
X008524Y012200D01*
X008524Y012900D01*
X008624Y012900D01*
X008624Y012596D01*
X008624Y012200D01*
X008624Y012219D02*
X008524Y012219D01*
X008524Y012317D02*
X008624Y012317D01*
X008624Y012416D02*
X008524Y012416D01*
X008524Y012514D02*
X008624Y012514D01*
X008624Y012613D02*
X008524Y012613D01*
X008524Y012711D02*
X008624Y012711D01*
X008624Y012810D02*
X008524Y012810D01*
X008524Y013000D02*
X008524Y013700D01*
X008624Y013700D01*
X008624Y013305D01*
X008624Y013000D01*
X008524Y013000D01*
X008524Y013007D02*
X008624Y013007D01*
X008624Y013105D02*
X008524Y013105D01*
X008524Y013204D02*
X008624Y013204D01*
X008624Y013302D02*
X008524Y013302D01*
X008524Y013401D02*
X008624Y013401D01*
X008624Y013499D02*
X008524Y013499D01*
X008524Y013598D02*
X008624Y013598D01*
X008624Y013696D02*
X008524Y013696D01*
X008524Y013800D02*
X008524Y014196D01*
X008298Y014196D01*
X008260Y014185D01*
X008226Y014166D01*
X008198Y014138D01*
X008189Y014122D01*
X008136Y014176D01*
X007986Y014176D01*
X007986Y014350D01*
X008009Y014350D01*
X008036Y014377D01*
X008053Y014360D01*
X008087Y014341D01*
X008125Y014330D01*
X008440Y014330D01*
X008440Y014900D01*
X008540Y014900D01*
X008540Y014330D01*
X008855Y014330D01*
X008893Y014341D01*
X008927Y014360D01*
X008955Y014388D01*
X008975Y014422D01*
X008985Y014461D01*
X008985Y014900D01*
X008540Y014900D01*
X008540Y015000D01*
X008985Y015000D01*
X008985Y015440D01*
X008975Y015478D01*
X008955Y015512D01*
X008927Y015540D01*
X008893Y015560D01*
X008855Y015570D01*
X008540Y015570D01*
X008540Y015000D01*
X008440Y015000D01*
X008440Y015570D01*
X008125Y015570D01*
X008087Y015560D01*
X008053Y015540D01*
X008036Y015523D01*
X008010Y015549D01*
X008010Y015734D01*
X008066Y015790D01*
X008871Y015790D01*
X008914Y015747D01*
X009002Y015710D01*
X009040Y015710D01*
X009040Y014417D01*
X008940Y014317D01*
X008940Y014148D01*
X008922Y014166D01*
X008888Y014185D01*
X008850Y014196D01*
X008624Y014196D01*
X008624Y013800D01*
X008524Y013800D01*
X008524Y013893D02*
X008624Y013893D01*
X008624Y013992D02*
X008524Y013992D01*
X008524Y014090D02*
X008624Y014090D01*
X008624Y014189D02*
X008524Y014189D01*
X008540Y014386D02*
X008440Y014386D01*
X008440Y014484D02*
X008540Y014484D01*
X008540Y014583D02*
X008440Y014583D01*
X008440Y014681D02*
X008540Y014681D01*
X008540Y014780D02*
X008440Y014780D01*
X008440Y014878D02*
X008540Y014878D01*
X008540Y014977D02*
X009040Y014977D01*
X009040Y015075D02*
X008985Y015075D01*
X008985Y015174D02*
X009040Y015174D01*
X009040Y015272D02*
X008985Y015272D01*
X008985Y015371D02*
X009040Y015371D01*
X009040Y015469D02*
X008977Y015469D01*
X009040Y015568D02*
X008864Y015568D01*
X008896Y015765D02*
X008041Y015765D01*
X008010Y015666D02*
X009040Y015666D01*
X009290Y015937D02*
X009290Y015998D01*
X009253Y016086D01*
X009186Y016154D01*
X009098Y016190D01*
X009002Y016190D01*
X008914Y016154D01*
X008871Y016110D01*
X008583Y016110D01*
X008590Y016122D01*
X008600Y016161D01*
X008600Y016270D01*
X008150Y016270D01*
X008150Y016270D01*
X007700Y016270D01*
X007700Y016161D01*
X007710Y016122D01*
X007730Y016088D01*
X007758Y016060D01*
X007792Y016041D01*
X007830Y016030D01*
X007854Y016030D01*
X007840Y016017D01*
X007690Y015867D01*
X007690Y015550D01*
X007211Y015550D01*
X007135Y015474D01*
X007135Y014702D01*
X006944Y014510D01*
X005799Y014510D01*
X005803Y014514D01*
X005840Y014603D01*
X005840Y014664D01*
X006060Y014884D01*
X006060Y016234D01*
X006120Y016294D01*
X006120Y016126D01*
X006196Y016050D01*
X006904Y016050D01*
X006932Y016079D01*
X006964Y016047D01*
X007052Y016010D01*
X007148Y016010D01*
X007236Y016047D01*
X007303Y016114D01*
X007340Y016203D01*
X007340Y016298D01*
X007303Y016386D01*
X007264Y016425D01*
X007303Y016464D01*
X007335Y016539D01*
X007420Y016454D01*
X007514Y016360D01*
X007700Y016360D01*
X007700Y016270D01*
X008150Y016270D01*
X008150Y016270D01*
X008600Y016270D01*
X008600Y016380D01*
X008590Y016418D01*
X008580Y016435D01*
X008580Y016615D01*
X008590Y016632D01*
X008600Y016671D01*
X008600Y016780D01*
X008150Y016780D01*
X008150Y016780D01*
X007700Y016780D01*
X007700Y016680D01*
X007646Y016680D01*
X007296Y017030D01*
X007416Y017150D01*
X007510Y017244D01*
X007510Y017884D01*
X007636Y018010D01*
X007700Y018010D01*
X007700Y017920D01*
X007700Y017811D01*
X007710Y017772D01*
X007730Y017738D01*
X007758Y017710D01*
X007792Y017691D01*
X007830Y017680D01*
X008150Y017680D01*
X008470Y017680D01*
X008508Y017691D01*
X008542Y017710D01*
X008570Y017738D01*
X008590Y017772D01*
X008600Y017811D01*
X008600Y017920D01*
X008150Y017920D01*
X008150Y017680D01*
X008150Y017920D01*
X008150Y017920D01*
X008150Y017920D01*
X007700Y017920D01*
X008150Y017920D01*
X008150Y017920D01*
X008600Y017920D01*
X008600Y018030D01*
X008590Y018068D01*
X008580Y018085D01*
X008580Y018265D01*
X008590Y018282D01*
X008600Y018321D01*
X008600Y018430D01*
X008150Y018430D01*
X008150Y018430D01*
X007700Y018430D01*
X007700Y018330D01*
X007646Y018330D01*
X007136Y018840D01*
X006964Y018840D01*
X006904Y018900D01*
X006196Y018900D01*
X006120Y018824D01*
X006120Y018610D01*
X005784Y018610D01*
X005375Y018202D01*
X005375Y018686D01*
X005322Y018739D01*
X005337Y018748D01*
X005365Y018776D01*
X005385Y018811D01*
X005395Y018849D01*
X005395Y019074D01*
X005000Y019074D01*
X005000Y019174D01*
X005395Y019174D01*
X005395Y019400D01*
X005385Y019438D01*
X005365Y019472D01*
X005337Y019500D01*
X005329Y019505D01*
X008856Y019505D01*
X008856Y019218D01*
X008985Y018907D01*
X009222Y018670D01*
X009532Y018542D01*
X009820Y018542D01*
X009820Y018245D01*
X009616Y018245D01*
X009360Y017990D01*
X009360Y018467D01*
X009266Y018560D01*
X008986Y018840D01*
X008564Y018840D01*
X008504Y018900D01*
X007796Y018900D01*
X007720Y018824D01*
X007720Y018595D01*
X007710Y018578D01*
X007700Y018540D01*
X007700Y018430D01*
X008150Y018430D01*
X008150Y018430D01*
X008600Y018430D01*
X008600Y018520D01*
X008854Y018520D01*
X009040Y018334D01*
X009040Y017334D01*
X009184Y017190D01*
X008564Y017190D01*
X008504Y017250D01*
X007796Y017250D01*
X007720Y017174D01*
X007720Y016945D01*
X007710Y016928D01*
X007700Y016890D01*
X007700Y016780D01*
X008150Y016780D01*
X008150Y016780D01*
X008600Y016780D01*
X008600Y016870D01*
X009104Y016870D01*
X009140Y016834D01*
X009140Y016234D01*
X009372Y016002D01*
X009355Y015985D01*
X009355Y015872D01*
X009290Y015937D01*
X009290Y015962D02*
X009355Y015962D01*
X009314Y016060D02*
X009264Y016060D01*
X009215Y016159D02*
X009174Y016159D01*
X009140Y016257D02*
X008600Y016257D01*
X008600Y016159D02*
X008926Y016159D01*
X009140Y016356D02*
X008600Y016356D01*
X008580Y016454D02*
X009140Y016454D01*
X009140Y016553D02*
X008580Y016553D01*
X008595Y016651D02*
X009140Y016651D01*
X009140Y016750D02*
X008600Y016750D01*
X008600Y016848D02*
X009126Y016848D01*
X009132Y017242D02*
X008512Y017242D01*
X008567Y017735D02*
X009040Y017735D01*
X009040Y017833D02*
X008600Y017833D01*
X008600Y017932D02*
X009040Y017932D01*
X009040Y018030D02*
X008600Y018030D01*
X008580Y018129D02*
X009040Y018129D01*
X009040Y018227D02*
X008580Y018227D01*
X008600Y018326D02*
X009040Y018326D01*
X008950Y018424D02*
X008600Y018424D01*
X009008Y018818D02*
X009074Y018818D01*
X009107Y018720D02*
X009172Y018720D01*
X009205Y018621D02*
X009340Y018621D01*
X009304Y018523D02*
X009820Y018523D01*
X009820Y018424D02*
X009360Y018424D01*
X009360Y018326D02*
X009820Y018326D01*
X009598Y018227D02*
X009360Y018227D01*
X009360Y018129D02*
X009499Y018129D01*
X009401Y018030D02*
X009360Y018030D01*
X009040Y017636D02*
X007510Y017636D01*
X007510Y017538D02*
X009040Y017538D01*
X009040Y017439D02*
X007510Y017439D01*
X007510Y017341D02*
X009040Y017341D01*
X008150Y017735D02*
X008150Y017735D01*
X008150Y017833D02*
X008150Y017833D01*
X007733Y017735D02*
X007510Y017735D01*
X007510Y017833D02*
X007700Y017833D01*
X007700Y017932D02*
X007558Y017932D01*
X007552Y018424D02*
X007700Y018424D01*
X007700Y018523D02*
X007454Y018523D01*
X007355Y018621D02*
X007720Y018621D01*
X007720Y018720D02*
X007257Y018720D01*
X007158Y018818D02*
X007720Y018818D01*
X007788Y017242D02*
X007508Y017242D01*
X007410Y017144D02*
X007720Y017144D01*
X007720Y017045D02*
X007311Y017045D01*
X007380Y016947D02*
X007720Y016947D01*
X007700Y016848D02*
X007478Y016848D01*
X007577Y016750D02*
X007700Y016750D01*
X007700Y016356D02*
X007316Y016356D01*
X007293Y016454D02*
X007420Y016454D01*
X007340Y016257D02*
X007700Y016257D01*
X007700Y016159D02*
X007322Y016159D01*
X007249Y016060D02*
X007758Y016060D01*
X007785Y015962D02*
X006060Y015962D01*
X006060Y016060D02*
X006186Y016060D01*
X006120Y016159D02*
X006060Y016159D01*
X006083Y016257D02*
X006120Y016257D01*
X006060Y015863D02*
X007690Y015863D01*
X007690Y015765D02*
X006060Y015765D01*
X006060Y015666D02*
X007690Y015666D01*
X007690Y015568D02*
X006060Y015568D01*
X006060Y015469D02*
X007135Y015469D01*
X007135Y015371D02*
X006060Y015371D01*
X006060Y015272D02*
X007135Y015272D01*
X007135Y015174D02*
X006060Y015174D01*
X006060Y015075D02*
X007135Y015075D01*
X007135Y014977D02*
X006060Y014977D01*
X006054Y014878D02*
X007135Y014878D01*
X007135Y014780D02*
X005956Y014780D01*
X005857Y014681D02*
X007115Y014681D01*
X007016Y014583D02*
X005832Y014583D01*
X005666Y014190D02*
X007076Y014190D01*
X007236Y014350D01*
X007666Y014350D01*
X007666Y014176D01*
X007516Y014176D01*
X007440Y014099D01*
X007440Y013555D01*
X006960Y013010D01*
X006916Y012967D01*
X006916Y012961D01*
X006913Y012957D01*
X006916Y012896D01*
X006916Y012239D01*
X006712Y012239D01*
X006725Y012271D01*
X006725Y012366D01*
X006688Y012454D01*
X006621Y012522D01*
X006533Y012558D01*
X006529Y012558D01*
X006529Y012592D01*
X006492Y012680D01*
X006425Y012748D01*
X006337Y012784D01*
X006331Y012784D01*
X006331Y012863D01*
X006294Y012951D01*
X006227Y013019D01*
X006139Y013055D01*
X006043Y013055D01*
X005955Y013019D01*
X005888Y012951D01*
X005858Y012881D01*
X005858Y012969D01*
X005903Y013014D01*
X005940Y013103D01*
X005940Y013198D01*
X005903Y013286D01*
X005836Y013354D01*
X005748Y013390D01*
X005652Y013390D01*
X005564Y013354D01*
X005497Y013286D01*
X005465Y013209D01*
X005465Y013989D01*
X005666Y014190D01*
X005665Y014189D02*
X007666Y014189D01*
X007666Y014287D02*
X007173Y014287D01*
X007440Y014090D02*
X005566Y014090D01*
X005468Y013992D02*
X007440Y013992D01*
X007440Y013893D02*
X005465Y013893D01*
X005465Y013795D02*
X007440Y013795D01*
X007440Y013696D02*
X005465Y013696D01*
X005465Y013598D02*
X007440Y013598D01*
X007391Y013499D02*
X005465Y013499D01*
X005465Y013401D02*
X007304Y013401D01*
X007217Y013302D02*
X005887Y013302D01*
X005938Y013204D02*
X007130Y013204D01*
X007044Y013105D02*
X005940Y013105D01*
X005943Y013007D02*
X005896Y013007D01*
X005870Y012908D02*
X005858Y012908D01*
X005513Y013302D02*
X005465Y013302D01*
X006239Y013007D02*
X006956Y013007D01*
X006916Y012908D02*
X006312Y012908D01*
X006331Y012810D02*
X006916Y012810D01*
X006916Y012711D02*
X006461Y012711D01*
X006520Y012613D02*
X006916Y012613D01*
X006916Y012514D02*
X006628Y012514D01*
X006704Y012416D02*
X006916Y012416D01*
X006916Y012317D02*
X006725Y012317D01*
X007460Y011726D02*
X007515Y011726D01*
X008137Y011726D02*
X008241Y011726D01*
X008913Y011037D02*
X009407Y011037D01*
X009355Y010985D02*
X009355Y010616D01*
X009616Y010355D01*
X009820Y010355D01*
X009820Y010245D01*
X009616Y010245D01*
X009598Y010228D01*
X009230Y010596D01*
X009040Y010596D01*
X009040Y010668D01*
X009003Y010756D01*
X008960Y010800D01*
X008960Y010969D01*
X008903Y011027D01*
X009166Y011290D01*
X009260Y011384D01*
X009260Y014184D01*
X009266Y014190D01*
X009360Y014284D01*
X009360Y014611D01*
X009616Y014355D01*
X009820Y014355D01*
X009820Y014245D01*
X009616Y014245D01*
X009355Y013985D01*
X009355Y013616D01*
X009616Y013355D01*
X009820Y013355D01*
X009820Y013245D01*
X009616Y013245D01*
X009355Y012985D01*
X009355Y012616D01*
X009616Y012355D01*
X009820Y012355D01*
X009820Y012245D01*
X009616Y012245D01*
X009355Y011985D01*
X009355Y011616D01*
X009616Y011355D01*
X009820Y011355D01*
X009820Y011245D01*
X009616Y011245D01*
X009355Y010985D01*
X009355Y010938D02*
X008960Y010938D01*
X008960Y010840D02*
X009355Y010840D01*
X009355Y010741D02*
X009010Y010741D01*
X009040Y010643D02*
X009355Y010643D01*
X009427Y010544D02*
X009282Y010544D01*
X009381Y010446D02*
X009525Y010446D01*
X009479Y010347D02*
X009820Y010347D01*
X009820Y010249D02*
X009578Y010249D01*
X009506Y011135D02*
X009011Y011135D01*
X009110Y011234D02*
X009604Y011234D01*
X009540Y011431D02*
X009260Y011431D01*
X009260Y011529D02*
X009442Y011529D01*
X009355Y011628D02*
X009260Y011628D01*
X009260Y011726D02*
X009355Y011726D01*
X009355Y011825D02*
X009260Y011825D01*
X009260Y011923D02*
X009355Y011923D01*
X009392Y012022D02*
X009260Y012022D01*
X009260Y012120D02*
X009491Y012120D01*
X009589Y012219D02*
X009260Y012219D01*
X009260Y012317D02*
X009820Y012317D01*
X009555Y012416D02*
X009260Y012416D01*
X009260Y012514D02*
X009457Y012514D01*
X009358Y012613D02*
X009260Y012613D01*
X009260Y012711D02*
X009355Y012711D01*
X009355Y012810D02*
X009260Y012810D01*
X009260Y012908D02*
X009355Y012908D01*
X009377Y013007D02*
X009260Y013007D01*
X009260Y013105D02*
X009476Y013105D01*
X009574Y013204D02*
X009260Y013204D01*
X009260Y013302D02*
X009820Y013302D01*
X009570Y013401D02*
X009260Y013401D01*
X009260Y013499D02*
X009472Y013499D01*
X009373Y013598D02*
X009260Y013598D01*
X009260Y013696D02*
X009355Y013696D01*
X009355Y013795D02*
X009260Y013795D01*
X009260Y013893D02*
X009355Y013893D01*
X009362Y013992D02*
X009260Y013992D01*
X009260Y014090D02*
X009461Y014090D01*
X009559Y014189D02*
X009265Y014189D01*
X009360Y014287D02*
X009820Y014287D01*
X009585Y014386D02*
X009360Y014386D01*
X009360Y014484D02*
X009487Y014484D01*
X009388Y014583D02*
X009360Y014583D01*
X009040Y014583D02*
X008985Y014583D01*
X008985Y014681D02*
X009040Y014681D01*
X009040Y014780D02*
X008985Y014780D01*
X008985Y014878D02*
X009040Y014878D01*
X009040Y014484D02*
X008985Y014484D01*
X009009Y014386D02*
X008953Y014386D01*
X008940Y014287D02*
X007986Y014287D01*
X007986Y014189D02*
X008273Y014189D01*
X008440Y015075D02*
X008540Y015075D01*
X008540Y015174D02*
X008440Y015174D01*
X008440Y015272D02*
X008540Y015272D01*
X008540Y015371D02*
X008440Y015371D01*
X008440Y015469D02*
X008540Y015469D01*
X008540Y015568D02*
X008440Y015568D01*
X008116Y015568D02*
X008010Y015568D01*
X008875Y014189D02*
X008940Y014189D01*
X009208Y011332D02*
X009820Y011332D01*
X008403Y009489D02*
X008403Y009334D01*
X008480Y009258D01*
X008497Y009258D01*
X008476Y009252D01*
X008441Y009233D01*
X008413Y009205D01*
X008394Y009170D01*
X008383Y009132D01*
X008383Y008964D01*
X008702Y008964D01*
X008702Y008867D01*
X008383Y008867D01*
X008383Y008699D01*
X008394Y008661D01*
X008413Y008628D01*
X008289Y008628D01*
X008289Y008727D01*
X008299Y008744D01*
X008309Y008783D01*
X008309Y008861D01*
X007883Y008861D01*
X007458Y008861D01*
X007458Y008783D01*
X007468Y008744D01*
X007478Y008727D01*
X007478Y008049D01*
X006710Y008817D01*
X006710Y010117D01*
X006897Y009264D02*
X006964Y009197D01*
X007052Y009160D01*
X007148Y009160D01*
X007236Y009197D01*
X007303Y009264D01*
X007478Y009264D01*
X007478Y009362D02*
X007340Y009362D01*
X007340Y009353D02*
X007340Y009414D01*
X007415Y009489D01*
X007478Y009489D01*
X007478Y008995D01*
X007468Y008978D01*
X007458Y008940D01*
X007458Y008861D01*
X007883Y008861D01*
X007883Y008861D01*
X007883Y008861D01*
X008309Y008861D01*
X008309Y008940D01*
X008299Y008978D01*
X008289Y008995D01*
X008289Y009489D01*
X008403Y009489D01*
X008403Y009461D02*
X008289Y009461D01*
X008289Y009362D02*
X008403Y009362D01*
X008474Y009264D02*
X008289Y009264D01*
X008289Y009165D02*
X008392Y009165D01*
X008383Y009067D02*
X008289Y009067D01*
X008301Y008968D02*
X008383Y008968D01*
X008309Y008870D02*
X008702Y008870D01*
X008383Y008771D02*
X008306Y008771D01*
X008289Y008673D02*
X008390Y008673D01*
X008242Y007914D02*
X008660Y007914D01*
X008788Y007786D02*
X007740Y007786D01*
X007839Y007688D02*
X008886Y007688D01*
X008890Y007589D02*
X007937Y007589D01*
X008149Y007491D02*
X008890Y007491D01*
X008890Y007392D02*
X008222Y007392D01*
X008240Y007294D02*
X008890Y007294D01*
X008890Y007195D02*
X008216Y007195D01*
X008136Y007097D02*
X008890Y007097D01*
X008890Y006801D02*
X007375Y006801D01*
X007474Y006703D02*
X008890Y006703D01*
X008890Y006604D02*
X007572Y006604D01*
X007671Y006506D02*
X008890Y006506D01*
X008890Y006407D02*
X007769Y006407D01*
X007537Y005324D02*
X007000Y005324D01*
X006901Y005225D02*
X007771Y005225D01*
X007760Y005127D02*
X006803Y005127D01*
X006704Y005028D02*
X007791Y005028D01*
X007840Y004930D02*
X006606Y004930D01*
X006507Y004831D02*
X007840Y004831D01*
X007840Y004733D02*
X006409Y004733D01*
X006310Y004634D02*
X007840Y004634D01*
X007840Y004536D02*
X006212Y004536D01*
X006113Y004437D02*
X007840Y004437D01*
X007840Y004339D02*
X006015Y004339D01*
X005916Y004240D02*
X007840Y004240D01*
X007840Y004142D02*
X005818Y004142D01*
X005719Y004043D02*
X007755Y004043D01*
X007656Y003945D02*
X005621Y003945D01*
X005522Y003846D02*
X007558Y003846D01*
X007459Y003748D02*
X005424Y003748D01*
X005325Y003649D02*
X007361Y003649D01*
X007262Y003551D02*
X005227Y003551D01*
X005128Y003452D02*
X007164Y003452D01*
X007065Y003354D02*
X005030Y003354D01*
X004931Y003255D02*
X005573Y003255D01*
X005577Y003259D02*
X005549Y003231D01*
X005529Y003197D01*
X005519Y003159D01*
X005519Y002961D01*
X005817Y002961D01*
X005817Y003289D01*
X005649Y003289D01*
X005611Y003279D01*
X005577Y003259D01*
X005519Y003157D02*
X004833Y003157D01*
X004734Y003058D02*
X005519Y003058D01*
X005519Y002861D02*
X004537Y002861D01*
X004532Y002763D02*
X005519Y002763D01*
X005817Y002960D02*
X004636Y002960D01*
X004479Y003255D02*
X003970Y003255D01*
X003953Y003214D02*
X003990Y003303D01*
X003990Y003364D01*
X004315Y003689D01*
X004347Y003614D01*
X004414Y003547D01*
X004502Y003510D01*
X004598Y003510D01*
X004686Y003547D01*
X004753Y003614D01*
X004790Y003703D01*
X004790Y003798D01*
X004771Y003845D01*
X005966Y005040D01*
X006264Y005040D01*
X004280Y003057D01*
X004112Y003057D01*
X004087Y003032D01*
X004063Y003057D01*
X003719Y003057D01*
X003694Y003032D01*
X003669Y003057D01*
X003610Y003057D01*
X003610Y003151D01*
X003614Y003147D01*
X003702Y003110D01*
X003798Y003110D01*
X003886Y003147D01*
X003953Y003214D01*
X003896Y003157D02*
X004380Y003157D01*
X004282Y003058D02*
X003610Y003058D01*
X003990Y003354D02*
X004577Y003354D01*
X004676Y003452D02*
X004078Y003452D01*
X004177Y003551D02*
X004410Y003551D01*
X004332Y003649D02*
X004275Y003649D01*
X004690Y003551D02*
X004774Y003551D01*
X004768Y003649D02*
X004873Y003649D01*
X004790Y003748D02*
X004971Y003748D01*
X005070Y003846D02*
X004772Y003846D01*
X004871Y003945D02*
X005168Y003945D01*
X005267Y004043D02*
X004969Y004043D01*
X005068Y004142D02*
X005365Y004142D01*
X005464Y004240D02*
X005166Y004240D01*
X005265Y004339D02*
X005562Y004339D01*
X005661Y004437D02*
X005363Y004437D01*
X005462Y004536D02*
X005759Y004536D01*
X005858Y004634D02*
X005560Y004634D01*
X005659Y004733D02*
X005956Y004733D01*
X006055Y004831D02*
X005757Y004831D01*
X005856Y004930D02*
X006153Y004930D01*
X006252Y005028D02*
X005954Y005028D01*
X005914Y003289D02*
X005914Y002961D01*
X006213Y002961D01*
X006213Y003159D01*
X006202Y003197D01*
X006183Y003231D01*
X006155Y003259D01*
X006120Y003279D01*
X006082Y003289D01*
X005914Y003289D01*
X005914Y003255D02*
X005817Y003255D01*
X005817Y003157D02*
X005914Y003157D01*
X005914Y003058D02*
X005817Y003058D01*
X005914Y002960D02*
X006523Y002960D01*
X006523Y003058D02*
X006213Y003058D01*
X006213Y003157D02*
X006523Y003157D01*
X006586Y003255D02*
X006158Y003255D01*
X006213Y002861D02*
X006523Y002861D01*
X006523Y002763D02*
X006213Y002763D01*
X006212Y002664D02*
X006523Y002664D01*
X007177Y002664D02*
X007507Y002664D01*
X007507Y002763D02*
X007177Y002763D01*
X007177Y002861D02*
X007507Y002861D01*
X007507Y002960D02*
X007177Y002960D01*
X007222Y003058D02*
X007507Y003058D01*
X007507Y003157D02*
X007321Y003157D01*
X007419Y003255D02*
X007570Y003255D01*
X006863Y001581D02*
X006837Y001581D01*
X006796Y001482D02*
X006904Y001482D01*
X006984Y001384D02*
X006716Y001384D01*
X006617Y001285D02*
X007083Y001285D01*
X008140Y000990D02*
X008856Y000990D01*
X008865Y001088D02*
X005162Y001088D01*
X005162Y000990D02*
X005560Y000990D01*
X005539Y000891D02*
X005162Y000891D01*
X005162Y000793D02*
X005539Y000793D01*
X004235Y001975D02*
X004202Y001975D01*
X003946Y001778D02*
X002999Y001778D01*
X003066Y001710D02*
X004014Y001710D01*
X003824Y001900D01*
X003731Y001993D01*
X003731Y002186D01*
X003719Y002186D01*
X003694Y002211D01*
X003669Y002186D01*
X003325Y002186D01*
X003300Y002211D01*
X003275Y002186D01*
X002931Y002186D01*
X002906Y002211D01*
X002881Y002186D01*
X002869Y002186D01*
X002869Y001907D01*
X003066Y001710D01*
X002900Y001876D02*
X003848Y001876D01*
X003749Y001975D02*
X002869Y001975D01*
X002869Y002073D02*
X003731Y002073D01*
X003731Y002172D02*
X002869Y002172D01*
X002330Y003157D02*
X001833Y003157D01*
X001931Y003255D02*
X002429Y003255D01*
X002527Y003354D02*
X002030Y003354D01*
X002128Y003452D02*
X002626Y003452D01*
X002232Y003058D02*
X001734Y003058D01*
X001710Y002960D02*
X002068Y002960D01*
X002068Y002861D02*
X001710Y002861D01*
X001710Y002763D02*
X002068Y002763D01*
X002068Y002664D02*
X001710Y002664D01*
X001710Y002566D02*
X002068Y002566D01*
X002068Y002467D02*
X001693Y002467D01*
X001595Y002369D02*
X002068Y002369D01*
X002272Y008824D02*
X001660Y008824D01*
X001660Y009467D01*
X001460Y009667D01*
X001460Y010367D01*
X001228Y010599D01*
X001245Y010616D01*
X001245Y010985D01*
X000984Y011245D01*
X000780Y011245D01*
X000780Y011355D01*
X000984Y011355D01*
X001245Y011616D01*
X001245Y011640D01*
X003935Y011640D01*
X003935Y011504D01*
X004011Y011428D01*
X004554Y011428D01*
X004554Y011370D01*
X004648Y011276D01*
X004940Y010984D01*
X004940Y008980D01*
X004897Y008936D01*
X004875Y008884D01*
X004853Y008936D01*
X004810Y008980D01*
X004810Y009817D01*
X004471Y010156D01*
X004490Y010203D01*
X004490Y010298D01*
X004453Y010386D01*
X004386Y010454D01*
X004298Y010490D01*
X004202Y010490D01*
X004114Y010454D01*
X004060Y010399D01*
X003722Y010399D01*
X003722Y011140D01*
X003646Y011216D01*
X002987Y011216D01*
X002958Y011187D01*
X002003Y011187D01*
X001986Y011204D01*
X001898Y011240D01*
X001802Y011240D01*
X001714Y011204D01*
X001647Y011136D01*
X001610Y011048D01*
X001610Y010953D01*
X001647Y010864D01*
X001714Y010797D01*
X001802Y010760D01*
X001898Y010760D01*
X001910Y010765D01*
X001910Y010753D01*
X001947Y010664D01*
X002014Y010597D01*
X002102Y010560D01*
X002160Y010560D01*
X002160Y010553D01*
X002197Y010464D01*
X002264Y010397D01*
X002352Y010360D01*
X002410Y010360D01*
X002410Y010353D01*
X002447Y010264D01*
X002514Y010197D01*
X002602Y010160D01*
X002698Y010160D01*
X002786Y010197D01*
X002853Y010264D01*
X002858Y010276D01*
X002911Y010276D01*
X002911Y009611D01*
X002879Y009611D01*
X002836Y009654D01*
X002748Y009690D01*
X002652Y009690D01*
X002564Y009654D01*
X002497Y009586D01*
X002460Y009498D01*
X002460Y009403D01*
X002497Y009314D01*
X002564Y009247D01*
X002652Y009210D01*
X002748Y009210D01*
X002836Y009247D01*
X002880Y009291D01*
X002911Y009291D01*
X002911Y009021D01*
X002710Y009021D01*
X002703Y009036D01*
X002636Y009104D01*
X002548Y009140D01*
X002452Y009140D01*
X002364Y009104D01*
X002297Y009036D01*
X002260Y008948D01*
X002260Y008853D01*
X002272Y008824D01*
X002260Y008870D02*
X001660Y008870D01*
X001660Y008968D02*
X002268Y008968D01*
X002327Y009067D02*
X001660Y009067D01*
X001660Y009165D02*
X002911Y009165D01*
X002911Y009067D02*
X002673Y009067D01*
X002547Y009264D02*
X001660Y009264D01*
X001660Y009362D02*
X002477Y009362D01*
X002460Y009461D02*
X001660Y009461D01*
X001567Y009559D02*
X002485Y009559D01*
X002574Y009658D02*
X001469Y009658D01*
X001460Y009756D02*
X002911Y009756D01*
X002911Y009658D02*
X002826Y009658D01*
X002911Y009855D02*
X001460Y009855D01*
X001460Y009953D02*
X002911Y009953D01*
X002911Y010052D02*
X001460Y010052D01*
X001460Y010150D02*
X002911Y010150D01*
X002911Y010249D02*
X002838Y010249D01*
X002462Y010249D02*
X001460Y010249D01*
X001460Y010347D02*
X002412Y010347D01*
X002215Y010446D02*
X001381Y010446D01*
X001282Y010544D02*
X002163Y010544D01*
X001968Y010643D02*
X001245Y010643D01*
X001245Y010741D02*
X001915Y010741D01*
X001671Y010840D02*
X001245Y010840D01*
X001245Y010938D02*
X001616Y010938D01*
X001610Y011037D02*
X001193Y011037D01*
X001094Y011135D02*
X001646Y011135D01*
X001787Y011234D02*
X000996Y011234D01*
X001060Y011431D02*
X004008Y011431D01*
X003935Y011529D02*
X001158Y011529D01*
X001245Y011628D02*
X003935Y011628D01*
X003935Y011960D02*
X001245Y011960D01*
X001245Y011985D01*
X000984Y012245D01*
X000780Y012245D01*
X000780Y012355D01*
X000984Y012355D01*
X001019Y012390D01*
X003934Y012390D01*
X004085Y012239D01*
X004011Y012239D01*
X003935Y012163D01*
X003935Y011960D01*
X003935Y012022D02*
X001208Y012022D01*
X001109Y012120D02*
X003935Y012120D01*
X003990Y012219D02*
X001011Y012219D01*
X000780Y012317D02*
X004007Y012317D01*
X003678Y013210D02*
X003566Y013210D01*
X003310Y013467D01*
X003310Y015067D01*
X003216Y015160D01*
X002925Y015451D01*
X002925Y016804D01*
X003016Y016804D01*
X003092Y016880D01*
X003092Y017421D01*
X003016Y017497D01*
X002515Y017497D01*
X002439Y017421D01*
X002439Y017260D01*
X002329Y017260D01*
X002286Y017304D01*
X002198Y017340D01*
X002102Y017340D01*
X002014Y017304D01*
X001947Y017236D01*
X001910Y017148D01*
X001910Y017053D01*
X001947Y016964D01*
X002014Y016897D01*
X002102Y016860D01*
X002198Y016860D01*
X002286Y016897D01*
X002329Y016940D01*
X002439Y016940D01*
X002439Y016880D01*
X002468Y016850D01*
X001966Y016850D01*
X001890Y016774D01*
X001890Y016210D01*
X001616Y016210D01*
X001228Y016599D01*
X001245Y016616D01*
X001245Y016985D01*
X000984Y017245D01*
X000780Y017245D01*
X000780Y017760D01*
X000840Y017760D01*
X000840Y017335D01*
X000993Y017335D01*
X001265Y017608D01*
X001265Y017760D01*
X000840Y017760D01*
X000840Y017840D01*
X001265Y017840D01*
X001265Y017993D01*
X000993Y018265D01*
X000840Y018265D01*
X000840Y017840D01*
X000780Y017840D01*
X000780Y018542D01*
X001068Y018542D01*
X001378Y018670D01*
X001615Y018907D01*
X001744Y019218D01*
X001744Y019505D01*
X003088Y019505D01*
X003060Y019477D01*
X003040Y019443D01*
X003030Y019405D01*
X003030Y019090D01*
X003600Y019090D01*
X003600Y018990D01*
X003030Y018990D01*
X003030Y018676D01*
X003040Y018637D01*
X003060Y018603D01*
X003077Y018586D01*
X003050Y018559D01*
X003050Y017761D01*
X003126Y017685D01*
X004174Y017685D01*
X004250Y017761D01*
X004250Y017790D01*
X004340Y017790D01*
X004340Y017180D01*
X004297Y017136D01*
X004260Y017048D01*
X004260Y016953D01*
X004297Y016864D01*
X004364Y016797D01*
X004421Y016773D01*
X004410Y016748D01*
X004410Y016653D01*
X004447Y016564D01*
X004514Y016497D01*
X004602Y016460D01*
X004698Y016460D01*
X004786Y016497D01*
X004826Y016537D01*
X004810Y016498D01*
X004810Y016403D01*
X004847Y016314D01*
X004914Y016247D01*
X005002Y016210D01*
X005098Y016210D01*
X005186Y016247D01*
X005253Y016314D01*
X005290Y016403D01*
X005290Y016464D01*
X005446Y016620D01*
X005994Y016620D01*
X005960Y016587D01*
X005960Y016587D01*
X005834Y016460D01*
X005740Y016367D01*
X005740Y015017D01*
X005614Y014890D01*
X005552Y014890D01*
X005464Y014854D01*
X005398Y014788D01*
X005368Y014818D01*
X004310Y015877D01*
X004310Y016774D01*
X004234Y016850D01*
X003976Y016850D01*
X003761Y017065D01*
X003761Y017421D01*
X003685Y017497D01*
X003184Y017497D01*
X003108Y017421D01*
X003108Y016880D01*
X003184Y016804D01*
X003540Y016804D01*
X003510Y016774D01*
X003510Y015326D01*
X003586Y015250D01*
X004234Y015250D01*
X004310Y015326D01*
X004310Y015424D01*
X004944Y014790D01*
X004902Y014790D01*
X004814Y014754D01*
X004747Y014686D01*
X004710Y014598D01*
X004710Y014537D01*
X003834Y013660D01*
X003740Y013567D01*
X003740Y013480D01*
X003697Y013436D01*
X003660Y013348D01*
X003660Y013253D01*
X003678Y013210D01*
X003660Y013302D02*
X003474Y013302D01*
X003376Y013401D02*
X003682Y013401D01*
X003740Y013499D02*
X003310Y013499D01*
X003310Y013598D02*
X003771Y013598D01*
X003870Y013696D02*
X003310Y013696D01*
X003310Y013795D02*
X003968Y013795D01*
X004067Y013893D02*
X003310Y013893D01*
X003310Y013992D02*
X004165Y013992D01*
X004264Y014090D02*
X003310Y014090D01*
X003310Y014189D02*
X004362Y014189D01*
X004461Y014287D02*
X003310Y014287D01*
X003310Y014386D02*
X004559Y014386D01*
X004658Y014484D02*
X003310Y014484D01*
X003310Y014583D02*
X004710Y014583D01*
X004745Y014681D02*
X003310Y014681D01*
X003310Y014780D02*
X004877Y014780D01*
X004856Y014878D02*
X003310Y014878D01*
X003310Y014977D02*
X004757Y014977D01*
X004659Y015075D02*
X003301Y015075D01*
X003203Y015174D02*
X004560Y015174D01*
X004462Y015272D02*
X004256Y015272D01*
X004310Y015371D02*
X004363Y015371D01*
X004520Y015666D02*
X005740Y015666D01*
X005740Y015568D02*
X004619Y015568D01*
X004717Y015469D02*
X005740Y015469D01*
X005740Y015371D02*
X004816Y015371D01*
X004914Y015272D02*
X005740Y015272D01*
X005740Y015174D02*
X005013Y015174D01*
X005111Y015075D02*
X005740Y015075D01*
X005700Y014977D02*
X005210Y014977D01*
X005308Y014878D02*
X005523Y014878D01*
X005740Y015765D02*
X004422Y015765D01*
X004323Y015863D02*
X005740Y015863D01*
X005740Y015962D02*
X004310Y015962D01*
X004310Y016060D02*
X005740Y016060D01*
X005740Y016159D02*
X004310Y016159D01*
X004310Y016257D02*
X004904Y016257D01*
X004829Y016356D02*
X004310Y016356D01*
X004310Y016454D02*
X004810Y016454D01*
X004874Y016614D02*
X004890Y016653D01*
X004890Y016714D01*
X005566Y017390D01*
X005660Y017484D01*
X005660Y018034D01*
X005916Y018290D01*
X005964Y018290D01*
X005890Y018217D01*
X005890Y018217D01*
X005884Y018210D01*
X005790Y018117D01*
X005790Y017584D01*
X005884Y017490D01*
X005984Y017390D01*
X006865Y017390D01*
X006897Y017314D01*
X006964Y017247D01*
X007032Y017219D01*
X007004Y017190D01*
X006964Y017190D01*
X006904Y017250D01*
X006196Y017250D01*
X006120Y017174D01*
X006120Y017160D01*
X005879Y017160D01*
X005836Y017204D01*
X005748Y017240D01*
X005652Y017240D01*
X005564Y017204D01*
X005497Y017136D01*
X005460Y017048D01*
X005460Y016953D01*
X005465Y016940D01*
X005314Y016940D01*
X005064Y016690D01*
X005002Y016690D01*
X004914Y016654D01*
X004874Y016614D01*
X004889Y016651D02*
X004912Y016651D01*
X004926Y016750D02*
X005123Y016750D01*
X005024Y016848D02*
X005222Y016848D01*
X005123Y016947D02*
X005462Y016947D01*
X005460Y017045D02*
X005221Y017045D01*
X005320Y017144D02*
X005504Y017144D01*
X005418Y017242D02*
X006188Y017242D01*
X005935Y017439D02*
X005615Y017439D01*
X005660Y017538D02*
X005836Y017538D01*
X005884Y017490D02*
X005884Y017490D01*
X005790Y017636D02*
X005660Y017636D01*
X005660Y017735D02*
X005790Y017735D01*
X005790Y017833D02*
X005660Y017833D01*
X005660Y017932D02*
X005790Y017932D01*
X005790Y018030D02*
X005660Y018030D01*
X005755Y018129D02*
X005802Y018129D01*
X005853Y018227D02*
X005901Y018227D01*
X005884Y018210D02*
X005884Y018210D01*
X006120Y018621D02*
X005375Y018621D01*
X005375Y018523D02*
X005696Y018523D01*
X005598Y018424D02*
X005375Y018424D01*
X005375Y018326D02*
X005499Y018326D01*
X005401Y018227D02*
X005375Y018227D01*
X005340Y018031D02*
X005299Y017990D01*
X004790Y017990D01*
X004660Y017860D01*
X004660Y017180D01*
X004703Y017136D01*
X004740Y017048D01*
X004740Y017017D01*
X005340Y017617D01*
X005340Y018031D01*
X005339Y018030D02*
X005340Y018030D01*
X005340Y017932D02*
X004732Y017932D01*
X004660Y017833D02*
X005340Y017833D01*
X005340Y017735D02*
X004660Y017735D01*
X004660Y017636D02*
X005340Y017636D01*
X005261Y017538D02*
X004660Y017538D01*
X004660Y017439D02*
X005163Y017439D01*
X005064Y017341D02*
X004660Y017341D01*
X004660Y017242D02*
X004966Y017242D01*
X004867Y017144D02*
X004696Y017144D01*
X004740Y017045D02*
X004769Y017045D01*
X004411Y016750D02*
X004310Y016750D01*
X004313Y016848D02*
X004236Y016848D01*
X004262Y016947D02*
X003880Y016947D01*
X003781Y017045D02*
X004260Y017045D01*
X004304Y017144D02*
X003761Y017144D01*
X003761Y017242D02*
X004340Y017242D01*
X004340Y017341D02*
X003761Y017341D01*
X003743Y017439D02*
X004340Y017439D01*
X004340Y017538D02*
X001195Y017538D01*
X001265Y017636D02*
X004340Y017636D01*
X004340Y017735D02*
X004223Y017735D01*
X004250Y018110D02*
X004250Y018559D01*
X004223Y018586D01*
X004240Y018603D01*
X004260Y018637D01*
X004270Y018676D01*
X004270Y018990D01*
X003700Y018990D01*
X003700Y019090D01*
X004270Y019090D01*
X004270Y019405D01*
X004260Y019443D01*
X004240Y019477D01*
X004212Y019505D01*
X004212Y019505D01*
X004571Y019505D01*
X004563Y019500D01*
X004535Y019472D01*
X004515Y019438D01*
X004505Y019400D01*
X004505Y019174D01*
X004900Y019174D01*
X004900Y019074D01*
X004505Y019074D01*
X004505Y018849D01*
X004515Y018811D01*
X004535Y018776D01*
X004563Y018748D01*
X004578Y018739D01*
X004525Y018686D01*
X004525Y018177D01*
X004458Y018110D01*
X004250Y018110D01*
X004250Y018129D02*
X004476Y018129D01*
X004525Y018227D02*
X004250Y018227D01*
X004250Y018326D02*
X004525Y018326D01*
X004525Y018424D02*
X004250Y018424D01*
X004250Y018523D02*
X004525Y018523D01*
X004525Y018621D02*
X004251Y018621D01*
X004270Y018720D02*
X004559Y018720D01*
X004513Y018818D02*
X004270Y018818D01*
X004270Y018917D02*
X004505Y018917D01*
X004505Y019015D02*
X003700Y019015D01*
X003600Y019015D02*
X001660Y019015D01*
X001619Y018917D02*
X003030Y018917D01*
X003030Y018818D02*
X001526Y018818D01*
X001428Y018720D02*
X003030Y018720D01*
X003049Y018621D02*
X001260Y018621D01*
X001031Y018227D02*
X003050Y018227D01*
X003050Y018129D02*
X001129Y018129D01*
X001228Y018030D02*
X003050Y018030D01*
X003050Y017932D02*
X001265Y017932D01*
X001265Y017735D02*
X003077Y017735D01*
X003050Y017833D02*
X000840Y017833D01*
X000840Y017735D02*
X000780Y017735D01*
X000780Y017636D02*
X000840Y017636D01*
X000840Y017538D02*
X000780Y017538D01*
X000780Y017439D02*
X000840Y017439D01*
X000840Y017341D02*
X000780Y017341D01*
X000998Y017341D02*
X002439Y017341D01*
X002457Y017439D02*
X001097Y017439D01*
X000987Y017242D02*
X001953Y017242D01*
X001910Y017144D02*
X001086Y017144D01*
X001184Y017045D02*
X001913Y017045D01*
X001964Y016947D02*
X001245Y016947D01*
X001245Y016848D02*
X001964Y016848D01*
X001890Y016750D02*
X001245Y016750D01*
X001245Y016651D02*
X001890Y016651D01*
X001890Y016553D02*
X001274Y016553D01*
X001372Y016454D02*
X001890Y016454D01*
X001890Y016356D02*
X001471Y016356D01*
X001569Y016257D02*
X001890Y016257D01*
X001202Y015573D02*
X001354Y015420D01*
X001314Y015404D01*
X001247Y015336D01*
X001210Y015248D01*
X001210Y015153D01*
X001247Y015064D01*
X001290Y015021D01*
X001290Y014580D01*
X001247Y014536D01*
X001210Y014448D01*
X001210Y014353D01*
X001247Y014264D01*
X001314Y014197D01*
X001402Y014160D01*
X001498Y014160D01*
X001586Y014197D01*
X001653Y014264D01*
X001690Y014353D01*
X001690Y014448D01*
X001653Y014536D01*
X001610Y014580D01*
X001610Y015021D01*
X001653Y015064D01*
X001670Y015104D01*
X001740Y015034D01*
X001834Y014940D01*
X002534Y014940D01*
X002690Y014784D01*
X002690Y014280D01*
X002647Y014236D01*
X002610Y014148D01*
X002610Y014053D01*
X002647Y013964D01*
X002714Y013897D01*
X002802Y013860D01*
X002898Y013860D01*
X002986Y013897D01*
X002990Y013901D01*
X002990Y013334D01*
X003314Y013010D01*
X001816Y013010D01*
X001228Y013599D01*
X001245Y013616D01*
X001245Y013985D01*
X000984Y014245D01*
X000780Y014245D01*
X000780Y014355D01*
X000984Y014355D01*
X001245Y014616D01*
X001245Y014985D01*
X000984Y015245D01*
X000780Y015245D01*
X000780Y015355D01*
X000984Y015355D01*
X001202Y015573D01*
X001206Y015568D02*
X001197Y015568D01*
X001098Y015469D02*
X001305Y015469D01*
X001281Y015371D02*
X001000Y015371D01*
X001056Y015174D02*
X001210Y015174D01*
X001220Y015272D02*
X000780Y015272D01*
X001154Y015075D02*
X001242Y015075D01*
X001245Y014977D02*
X001290Y014977D01*
X001290Y014878D02*
X001245Y014878D01*
X001245Y014780D02*
X001290Y014780D01*
X001290Y014681D02*
X001245Y014681D01*
X001212Y014583D02*
X001290Y014583D01*
X001225Y014484D02*
X001113Y014484D01*
X001210Y014386D02*
X001015Y014386D01*
X001041Y014189D02*
X001333Y014189D01*
X001237Y014287D02*
X000780Y014287D01*
X001139Y014090D02*
X002610Y014090D01*
X002627Y014189D02*
X001567Y014189D01*
X001663Y014287D02*
X002690Y014287D01*
X002690Y014386D02*
X001690Y014386D01*
X001675Y014484D02*
X002690Y014484D01*
X002690Y014583D02*
X001610Y014583D01*
X001610Y014681D02*
X002690Y014681D01*
X002690Y014780D02*
X001610Y014780D01*
X001610Y014878D02*
X002596Y014878D01*
X002925Y015469D02*
X003510Y015469D01*
X003510Y015371D02*
X003006Y015371D01*
X003104Y015272D02*
X003564Y015272D01*
X003510Y015568D02*
X002925Y015568D01*
X002925Y015666D02*
X003510Y015666D01*
X003510Y015765D02*
X002925Y015765D01*
X002925Y015863D02*
X003510Y015863D01*
X003510Y015962D02*
X002925Y015962D01*
X002925Y016060D02*
X003510Y016060D01*
X003510Y016159D02*
X002925Y016159D01*
X002925Y016257D02*
X003510Y016257D01*
X003510Y016356D02*
X002925Y016356D01*
X002925Y016454D02*
X003510Y016454D01*
X003510Y016553D02*
X002925Y016553D01*
X002925Y016651D02*
X003510Y016651D01*
X003510Y016750D02*
X002925Y016750D01*
X003061Y016848D02*
X003139Y016848D01*
X003108Y016947D02*
X003092Y016947D01*
X003092Y017045D02*
X003108Y017045D01*
X003108Y017144D02*
X003092Y017144D01*
X003092Y017242D02*
X003108Y017242D01*
X003108Y017341D02*
X003092Y017341D01*
X003074Y017439D02*
X003126Y017439D01*
X003050Y018326D02*
X000780Y018326D01*
X000780Y018424D02*
X003050Y018424D01*
X003050Y018523D02*
X000780Y018523D01*
X000780Y018227D02*
X000840Y018227D01*
X000840Y018129D02*
X000780Y018129D01*
X000780Y018030D02*
X000840Y018030D01*
X000840Y017932D02*
X000780Y017932D01*
X001701Y019114D02*
X003030Y019114D01*
X003030Y019212D02*
X001742Y019212D01*
X001744Y019311D02*
X003030Y019311D01*
X003031Y019409D02*
X001744Y019409D01*
X003088Y019505D02*
X003088Y019505D01*
X004269Y019409D02*
X004507Y019409D01*
X004505Y019311D02*
X004270Y019311D01*
X004270Y019212D02*
X004505Y019212D01*
X004270Y019114D02*
X004900Y019114D01*
X005000Y019114D02*
X008899Y019114D01*
X008858Y019212D02*
X005395Y019212D01*
X005395Y019311D02*
X008856Y019311D01*
X008856Y019409D02*
X005393Y019409D01*
X005395Y019015D02*
X008940Y019015D01*
X008981Y018917D02*
X005395Y018917D01*
X005387Y018818D02*
X006120Y018818D01*
X006120Y018720D02*
X005341Y018720D01*
X005517Y017341D02*
X006886Y017341D01*
X006912Y017242D02*
X006975Y017242D01*
X006951Y016060D02*
X006914Y016060D01*
X005926Y016553D02*
X005379Y016553D01*
X005290Y016454D02*
X005828Y016454D01*
X005834Y016460D02*
X005834Y016460D01*
X005740Y016356D02*
X005271Y016356D01*
X005196Y016257D02*
X005740Y016257D01*
X004458Y016553D02*
X004310Y016553D01*
X004310Y016651D02*
X004411Y016651D01*
X002990Y013893D02*
X002977Y013893D01*
X002990Y013795D02*
X001245Y013795D01*
X001245Y013893D02*
X002723Y013893D01*
X002635Y013992D02*
X001238Y013992D01*
X001245Y013696D02*
X002990Y013696D01*
X002990Y013598D02*
X001229Y013598D01*
X001327Y013499D02*
X002990Y013499D01*
X002990Y013401D02*
X001426Y013401D01*
X001524Y013302D02*
X003022Y013302D01*
X003120Y013204D02*
X001623Y013204D01*
X001721Y013105D02*
X003219Y013105D01*
X003722Y011135D02*
X004789Y011135D01*
X004887Y011037D02*
X003722Y011037D01*
X003722Y010938D02*
X004940Y010938D01*
X004940Y010840D02*
X003722Y010840D01*
X003722Y010741D02*
X004940Y010741D01*
X004940Y010643D02*
X003722Y010643D01*
X003722Y010544D02*
X004940Y010544D01*
X004940Y010446D02*
X004394Y010446D01*
X004470Y010347D02*
X004940Y010347D01*
X004940Y010249D02*
X004490Y010249D01*
X004476Y010150D02*
X004940Y010150D01*
X004940Y010052D02*
X004575Y010052D01*
X004673Y009953D02*
X004940Y009953D01*
X004940Y009855D02*
X004772Y009855D01*
X004810Y009756D02*
X004940Y009756D01*
X004940Y009658D02*
X004810Y009658D01*
X004810Y009559D02*
X004940Y009559D01*
X004940Y009461D02*
X004810Y009461D01*
X004810Y009362D02*
X004940Y009362D01*
X004940Y009264D02*
X004810Y009264D01*
X004810Y009165D02*
X004940Y009165D01*
X004940Y009067D02*
X004810Y009067D01*
X004821Y008968D02*
X004929Y008968D01*
X004106Y010446D02*
X003722Y010446D01*
X004592Y011332D02*
X000780Y011332D01*
X001913Y011234D02*
X004690Y011234D01*
X005108Y011469D02*
X005108Y011834D01*
X005108Y011492D01*
X005250Y011350D01*
X005244Y011332D02*
X005792Y011332D01*
X005834Y011290D02*
X005834Y011290D01*
X005890Y011234D02*
X005593Y011234D01*
X005108Y011469D02*
X005108Y011469D01*
X005108Y011834D01*
X005108Y011834D01*
X005108Y011825D02*
X005108Y011825D01*
X005108Y011726D02*
X005108Y011726D01*
X005108Y011628D02*
X005108Y011628D01*
X005108Y011529D02*
X005108Y011529D01*
X006710Y009165D02*
X007040Y009165D01*
X007160Y009165D02*
X007478Y009165D01*
X007478Y009067D02*
X006710Y009067D01*
X006710Y008968D02*
X007465Y008968D01*
X007458Y008870D02*
X006710Y008870D01*
X006755Y008771D02*
X007461Y008771D01*
X007478Y008673D02*
X006854Y008673D01*
X006952Y008574D02*
X007478Y008574D01*
X007478Y008476D02*
X007051Y008476D01*
X007149Y008377D02*
X007478Y008377D01*
X007478Y008279D02*
X007248Y008279D01*
X007346Y008180D02*
X007478Y008180D01*
X007478Y008082D02*
X007445Y008082D01*
X007642Y007885D02*
X008213Y007885D01*
X008242Y007914D01*
X007478Y009461D02*
X007387Y009461D01*
X007340Y009353D02*
X007303Y009264D01*
X009595Y002369D02*
X009602Y002369D01*
X008856Y000891D02*
X008161Y000891D01*
X008161Y000793D02*
X008856Y000793D01*
X002911Y009264D02*
X002853Y009264D01*
X001797Y014977D02*
X001610Y014977D01*
X001658Y015075D02*
X001699Y015075D01*
D27*
X001450Y015200D03*
X001450Y014400D03*
X002375Y013300D03*
X002850Y014100D03*
X003900Y013300D03*
X004150Y012850D03*
X005100Y012400D03*
X005500Y012850D03*
X005700Y013150D03*
X006091Y012815D03*
X006289Y012544D03*
X006485Y012318D03*
X006683Y011176D03*
X006350Y011000D03*
X006879Y010797D03*
X007100Y010250D03*
X007100Y009850D03*
X007100Y009400D03*
X006850Y008950D03*
X005900Y008800D03*
X005100Y008800D03*
X004875Y009100D03*
X004650Y008800D03*
X004350Y009050D03*
X004350Y009650D03*
X004250Y010250D03*
X004000Y009850D03*
X004000Y010700D03*
X004700Y010250D03*
X005350Y010600D03*
X005100Y008000D03*
X004650Y007800D03*
X004713Y006700D03*
X004911Y006400D03*
X005108Y006700D03*
X005305Y006400D03*
X005502Y006700D03*
X005698Y006400D03*
X005894Y006700D03*
X006091Y006400D03*
X007200Y006150D03*
X007700Y005500D03*
X008000Y005150D03*
X008550Y005300D03*
X008800Y006700D03*
X008000Y007300D03*
X007550Y007000D03*
X008800Y010620D03*
X008200Y011500D03*
X009350Y012300D03*
X008500Y015700D03*
X009050Y015950D03*
X008850Y016550D03*
X008750Y017450D03*
X007100Y017450D03*
X007100Y017900D03*
X007100Y016600D03*
X007100Y016250D03*
X006050Y017300D03*
X005700Y017000D03*
X005050Y016450D03*
X004650Y016700D03*
X004500Y017000D03*
X005000Y017650D03*
X005750Y018950D03*
X005600Y014650D03*
X004950Y014550D03*
X007050Y013850D03*
X003874Y008074D03*
X002700Y008000D03*
X002500Y008900D03*
X002700Y009450D03*
X002650Y010400D03*
X002400Y010600D03*
X002150Y010800D03*
X001850Y011000D03*
X002375Y011400D03*
X002375Y012150D03*
X002150Y017100D03*
X001450Y018450D03*
X002600Y005900D03*
X002600Y005500D03*
X002600Y005200D03*
X002600Y004900D03*
X002600Y004600D03*
X002600Y004300D03*
X002600Y004000D03*
X002600Y003700D03*
X003750Y003650D03*
X003750Y003950D03*
X003750Y004250D03*
X003750Y004550D03*
X003750Y004850D03*
X004550Y003750D03*
X005150Y004050D03*
X004850Y002650D03*
X005200Y001800D03*
X004400Y001800D03*
X003750Y003350D03*
X003400Y001900D03*
X003000Y001200D03*
X008850Y002950D03*
X009000Y001950D03*
D28*
X003450Y017150D02*
X003435Y017150D01*
M02*
