G75*
%MOIN*%
%OFA0B0*%
%FSLAX24Y24*%
%IPPOS*%
%LPD*%
%AMOC8*
5,1,8,0,0,1.08239X$1,22.5*
%
%ADD10C,0.0060*%
%ADD11C,0.0030*%
D10*
X000591Y018654D02*
X000593Y018682D01*
X000599Y018710D01*
X000608Y018736D01*
X000621Y018762D01*
X000637Y018785D01*
X000657Y018805D01*
X000679Y018823D01*
X000703Y018838D01*
X000729Y018849D01*
X000756Y018857D01*
X000784Y018861D01*
X000812Y018861D01*
X000840Y018857D01*
X000867Y018849D01*
X000893Y018838D01*
X000917Y018823D01*
X000939Y018805D01*
X000959Y018785D01*
X000975Y018762D01*
X000988Y018736D01*
X000997Y018710D01*
X001003Y018682D01*
X001005Y018654D01*
X001003Y018626D01*
X000997Y018598D01*
X000988Y018572D01*
X000975Y018546D01*
X000959Y018523D01*
X000939Y018503D01*
X000917Y018485D01*
X000893Y018470D01*
X000867Y018459D01*
X000840Y018451D01*
X000812Y018447D01*
X000784Y018447D01*
X000756Y018451D01*
X000729Y018459D01*
X000703Y018470D01*
X000679Y018485D01*
X000657Y018503D01*
X000637Y018523D01*
X000621Y018546D01*
X000608Y018572D01*
X000599Y018598D01*
X000593Y018626D01*
X000591Y018654D01*
D11*
X003480Y019681D02*
X003480Y019743D01*
X003480Y019681D02*
X003603Y019557D01*
X003603Y019372D01*
X003603Y019557D02*
X003726Y019681D01*
X003726Y019743D01*
X003848Y019743D02*
X003848Y019681D01*
X003971Y019557D01*
X003971Y019372D01*
X003971Y019557D02*
X004095Y019681D01*
X004095Y019743D01*
X004216Y019743D02*
X004216Y019681D01*
X004340Y019557D01*
X004340Y019372D01*
X004340Y019557D02*
X004463Y019681D01*
X004463Y019743D01*
X004585Y019743D02*
X004585Y019681D01*
X004708Y019557D01*
X004708Y019372D01*
X004708Y019557D02*
X004831Y019681D01*
X004831Y019743D01*
X004953Y019557D02*
X005200Y019557D01*
X005321Y019372D02*
X005568Y019743D01*
X005689Y019743D02*
X005936Y019372D01*
X006058Y019372D02*
X006305Y019743D01*
X006426Y019743D02*
X006673Y019372D01*
X006426Y019372D02*
X006673Y019743D01*
X006305Y019372D02*
X006058Y019743D01*
X005936Y019743D02*
X005689Y019372D01*
X005568Y019372D02*
X005321Y019743D01*
X007531Y019681D02*
X007531Y019619D01*
X007593Y019557D01*
X007531Y019496D01*
X007531Y019434D01*
X007593Y019372D01*
X007716Y019372D01*
X007778Y019434D01*
X007900Y019434D02*
X007900Y019372D01*
X007962Y019372D01*
X007962Y019434D01*
X007900Y019434D01*
X008083Y019372D02*
X008330Y019372D01*
X008207Y019372D02*
X008207Y019743D01*
X008330Y019619D01*
X008820Y019496D02*
X008820Y019743D01*
X009067Y019743D02*
X009067Y019496D01*
X008944Y019372D01*
X008820Y019496D01*
X007778Y019681D02*
X007716Y019743D01*
X007593Y019743D01*
X007531Y019681D01*
X007593Y019557D02*
X007654Y019557D01*
M02*
