G75*
%MOIN*%
%OFA0B0*%
%FSLAX24Y24*%
%IPPOS*%
%LPD*%
%AMOC8*
5,1,8,0,0,1.08239X$1,22.5*
%
%ADD10C,0.0060*%
%ADD11C,0.0000*%
D10*
X000300Y000300D02*
X000300Y019985D01*
X010300Y019985D01*
X010300Y000300D01*
X000300Y000300D01*
D11*
X000506Y000900D02*
X000508Y000939D01*
X000514Y000978D01*
X000524Y001016D01*
X000537Y001053D01*
X000554Y001088D01*
X000574Y001122D01*
X000598Y001153D01*
X000625Y001182D01*
X000654Y001208D01*
X000686Y001231D01*
X000720Y001251D01*
X000756Y001267D01*
X000793Y001279D01*
X000832Y001288D01*
X000871Y001293D01*
X000910Y001294D01*
X000949Y001291D01*
X000988Y001284D01*
X001025Y001273D01*
X001062Y001259D01*
X001097Y001241D01*
X001130Y001220D01*
X001161Y001195D01*
X001189Y001168D01*
X001214Y001138D01*
X001236Y001105D01*
X001255Y001071D01*
X001270Y001035D01*
X001282Y000997D01*
X001290Y000959D01*
X001294Y000920D01*
X001294Y000880D01*
X001290Y000841D01*
X001282Y000803D01*
X001270Y000765D01*
X001255Y000729D01*
X001236Y000695D01*
X001214Y000662D01*
X001189Y000632D01*
X001161Y000605D01*
X001130Y000580D01*
X001097Y000559D01*
X001062Y000541D01*
X001025Y000527D01*
X000988Y000516D01*
X000949Y000509D01*
X000910Y000506D01*
X000871Y000507D01*
X000832Y000512D01*
X000793Y000521D01*
X000756Y000533D01*
X000720Y000549D01*
X000686Y000569D01*
X000654Y000592D01*
X000625Y000618D01*
X000598Y000647D01*
X000574Y000678D01*
X000554Y000712D01*
X000537Y000747D01*
X000524Y000784D01*
X000514Y000822D01*
X000508Y000861D01*
X000506Y000900D01*
X006092Y001800D02*
X006094Y001825D01*
X006100Y001850D01*
X006109Y001874D01*
X006122Y001896D01*
X006139Y001916D01*
X006158Y001933D01*
X006179Y001947D01*
X006203Y001957D01*
X006227Y001964D01*
X006253Y001967D01*
X006278Y001966D01*
X006303Y001961D01*
X006327Y001952D01*
X006350Y001940D01*
X006370Y001925D01*
X006388Y001906D01*
X006403Y001885D01*
X006414Y001862D01*
X006422Y001838D01*
X006426Y001813D01*
X006426Y001787D01*
X006422Y001762D01*
X006414Y001738D01*
X006403Y001715D01*
X006388Y001694D01*
X006370Y001675D01*
X006350Y001660D01*
X006327Y001648D01*
X006303Y001639D01*
X006278Y001634D01*
X006253Y001633D01*
X006227Y001636D01*
X006203Y001643D01*
X006179Y001653D01*
X006158Y001667D01*
X006139Y001684D01*
X006122Y001704D01*
X006109Y001726D01*
X006100Y001750D01*
X006094Y001775D01*
X006092Y001800D01*
X007274Y001800D02*
X007276Y001825D01*
X007282Y001850D01*
X007291Y001874D01*
X007304Y001896D01*
X007321Y001916D01*
X007340Y001933D01*
X007361Y001947D01*
X007385Y001957D01*
X007409Y001964D01*
X007435Y001967D01*
X007460Y001966D01*
X007485Y001961D01*
X007509Y001952D01*
X007532Y001940D01*
X007552Y001925D01*
X007570Y001906D01*
X007585Y001885D01*
X007596Y001862D01*
X007604Y001838D01*
X007608Y001813D01*
X007608Y001787D01*
X007604Y001762D01*
X007596Y001738D01*
X007585Y001715D01*
X007570Y001694D01*
X007552Y001675D01*
X007532Y001660D01*
X007509Y001648D01*
X007485Y001639D01*
X007460Y001634D01*
X007435Y001633D01*
X007409Y001636D01*
X007385Y001643D01*
X007361Y001653D01*
X007340Y001667D01*
X007321Y001684D01*
X007304Y001704D01*
X007291Y001726D01*
X007282Y001750D01*
X007276Y001775D01*
X007274Y001800D01*
X009306Y000900D02*
X009308Y000939D01*
X009314Y000978D01*
X009324Y001016D01*
X009337Y001053D01*
X009354Y001088D01*
X009374Y001122D01*
X009398Y001153D01*
X009425Y001182D01*
X009454Y001208D01*
X009486Y001231D01*
X009520Y001251D01*
X009556Y001267D01*
X009593Y001279D01*
X009632Y001288D01*
X009671Y001293D01*
X009710Y001294D01*
X009749Y001291D01*
X009788Y001284D01*
X009825Y001273D01*
X009862Y001259D01*
X009897Y001241D01*
X009930Y001220D01*
X009961Y001195D01*
X009989Y001168D01*
X010014Y001138D01*
X010036Y001105D01*
X010055Y001071D01*
X010070Y001035D01*
X010082Y000997D01*
X010090Y000959D01*
X010094Y000920D01*
X010094Y000880D01*
X010090Y000841D01*
X010082Y000803D01*
X010070Y000765D01*
X010055Y000729D01*
X010036Y000695D01*
X010014Y000662D01*
X009989Y000632D01*
X009961Y000605D01*
X009930Y000580D01*
X009897Y000559D01*
X009862Y000541D01*
X009825Y000527D01*
X009788Y000516D01*
X009749Y000509D01*
X009710Y000506D01*
X009671Y000507D01*
X009632Y000512D01*
X009593Y000521D01*
X009556Y000533D01*
X009520Y000549D01*
X009486Y000569D01*
X009454Y000592D01*
X009425Y000618D01*
X009398Y000647D01*
X009374Y000678D01*
X009354Y000712D01*
X009337Y000747D01*
X009324Y000784D01*
X009314Y000822D01*
X009308Y000861D01*
X009306Y000900D01*
X009306Y019385D02*
X009308Y019424D01*
X009314Y019463D01*
X009324Y019501D01*
X009337Y019538D01*
X009354Y019573D01*
X009374Y019607D01*
X009398Y019638D01*
X009425Y019667D01*
X009454Y019693D01*
X009486Y019716D01*
X009520Y019736D01*
X009556Y019752D01*
X009593Y019764D01*
X009632Y019773D01*
X009671Y019778D01*
X009710Y019779D01*
X009749Y019776D01*
X009788Y019769D01*
X009825Y019758D01*
X009862Y019744D01*
X009897Y019726D01*
X009930Y019705D01*
X009961Y019680D01*
X009989Y019653D01*
X010014Y019623D01*
X010036Y019590D01*
X010055Y019556D01*
X010070Y019520D01*
X010082Y019482D01*
X010090Y019444D01*
X010094Y019405D01*
X010094Y019365D01*
X010090Y019326D01*
X010082Y019288D01*
X010070Y019250D01*
X010055Y019214D01*
X010036Y019180D01*
X010014Y019147D01*
X009989Y019117D01*
X009961Y019090D01*
X009930Y019065D01*
X009897Y019044D01*
X009862Y019026D01*
X009825Y019012D01*
X009788Y019001D01*
X009749Y018994D01*
X009710Y018991D01*
X009671Y018992D01*
X009632Y018997D01*
X009593Y019006D01*
X009556Y019018D01*
X009520Y019034D01*
X009486Y019054D01*
X009454Y019077D01*
X009425Y019103D01*
X009398Y019132D01*
X009374Y019163D01*
X009354Y019197D01*
X009337Y019232D01*
X009324Y019269D01*
X009314Y019307D01*
X009308Y019346D01*
X009306Y019385D01*
X000506Y019385D02*
X000508Y019424D01*
X000514Y019463D01*
X000524Y019501D01*
X000537Y019538D01*
X000554Y019573D01*
X000574Y019607D01*
X000598Y019638D01*
X000625Y019667D01*
X000654Y019693D01*
X000686Y019716D01*
X000720Y019736D01*
X000756Y019752D01*
X000793Y019764D01*
X000832Y019773D01*
X000871Y019778D01*
X000910Y019779D01*
X000949Y019776D01*
X000988Y019769D01*
X001025Y019758D01*
X001062Y019744D01*
X001097Y019726D01*
X001130Y019705D01*
X001161Y019680D01*
X001189Y019653D01*
X001214Y019623D01*
X001236Y019590D01*
X001255Y019556D01*
X001270Y019520D01*
X001282Y019482D01*
X001290Y019444D01*
X001294Y019405D01*
X001294Y019365D01*
X001290Y019326D01*
X001282Y019288D01*
X001270Y019250D01*
X001255Y019214D01*
X001236Y019180D01*
X001214Y019147D01*
X001189Y019117D01*
X001161Y019090D01*
X001130Y019065D01*
X001097Y019044D01*
X001062Y019026D01*
X001025Y019012D01*
X000988Y019001D01*
X000949Y018994D01*
X000910Y018991D01*
X000871Y018992D01*
X000832Y018997D01*
X000793Y019006D01*
X000756Y019018D01*
X000720Y019034D01*
X000686Y019054D01*
X000654Y019077D01*
X000625Y019103D01*
X000598Y019132D01*
X000574Y019163D01*
X000554Y019197D01*
X000537Y019232D01*
X000524Y019269D01*
X000514Y019307D01*
X000508Y019346D01*
X000506Y019385D01*
M02*
