%
M48
M72
T01C0.0060
T02C0.0335
T03C0.0360
T04C0.0787
%
T01
X2600Y3700
X2600Y4000
X2600Y4300
X2600Y4600
X2600Y4900
X2600Y5200
X2600Y5500
X2600Y5900
X3750Y4850
X3750Y4550
X3750Y4250
X3750Y3950
X3750Y3650
X3750Y3350
X4550Y3750
X5150Y4050
X4850Y2650
X5200Y1800
X4400Y1800
X3400Y1900
X3000Y1200
X4911Y6400
X5108Y6700
X5305Y6400
X5502Y6700
X5698Y6400
X5894Y6700
X6091Y6400
X5100Y8000
X4650Y7800
X4650Y8800
X4875Y9100
X5100Y8800
X4350Y9050
X4350Y9650
X4250Y10250
X4000Y9850
X4000Y10700
X4700Y10250
X5350Y10600
X6350Y11000
X6683Y11176
X6879Y10797
X7100Y10250
X7100Y9850
X7100Y9400
X6850Y8950
X5900Y8800
X4713Y6700
X3874Y8074
X2700Y8000
X2500Y8900
X2700Y9450
X2650Y10400
X2400Y10600
X2150Y10800
X1850Y11000
X2375Y11400
X2375Y12150
X2375Y13300
X2850Y14100
X3900Y13300
X4150Y12850
X5100Y12400
X5500Y12850
X5700Y13150
X6091Y12815
X6289Y12544
X6485Y12318
X7050Y13850
X8200Y11500
X8800Y10620
X9350Y12300
X8500Y15700
X9050Y15950
X8850Y16550
X8750Y17450
X7100Y17450
X7100Y17900
X7100Y16600
X7100Y16250
X6050Y17300
X5700Y17000
X5050Y16450
X4650Y16700
X4500Y17000
X5000Y17650
X5750Y18950
X5600Y14650
X4950Y14550
X2150Y17100
X1450Y18450
X1450Y15200
X1450Y14400
X7200Y6150
X7700Y5500
X8000Y5150
X8550Y5300
X8800Y6700
X8000Y7300
X7550Y7000
X8850Y2950
X9000Y1950
T02
X7441Y1800
X6259Y1800
T03
X3150Y7000
X2150Y7000
X800Y6800
X800Y5800
X800Y4800
X800Y3800
X800Y2800
X800Y1800
X800Y7830
X800Y8800
X800Y9800
X800Y10800
X800Y11800
X800Y12800
X800Y13800
X800Y14800
X800Y15800
X800Y16800
X800Y17800
X9800Y17800
X9800Y16800
X9800Y15800
X9800Y14800
X9800Y13800
X9800Y12800
X9800Y11800
X9800Y10800
X9800Y9800
X9800Y8800
X9800Y7800
X9800Y6800
X9800Y5800
X9800Y4800
X9800Y3800
X9800Y2800
X9800Y1800
T04
X900Y900
X9700Y900
X9700Y19385
X900Y19385
M30
