%
M48
M72
T01C0.02362
T02C0.03200
T03C0.04000
T04C0.12992
%
T01
X225657Y70657
X225657Y105657
T02
X213157Y88157
X203157Y88157
X193157Y88157
X183157Y88157
X173157Y88157
X163157Y88157
X153157Y88157
X143157Y88157
X113157Y87157
X103157Y87157
X93157Y87157
X83157Y87157
X73157Y87157
X63157Y87157
X53157Y87157
X43157Y87157
X143157Y43157
X153157Y43157
X163157Y43157
X173157Y43157
X183157Y43157
X193157Y43157
X203157Y43157
X213157Y43157
X238157Y18157
X248157Y18157
X258157Y18157
X268157Y18157
X278157Y18157
X288157Y18157
X298157Y18157
X308157Y18157
X308157Y88157
X298157Y88157
X288157Y88157
X278157Y88157
X268157Y88157
X258157Y88157
X248157Y88157
X238157Y88157
X213157Y133157
X203157Y133157
X193157Y133157
X183157Y133157
X173157Y133157
X163157Y133157
X153157Y133157
X143157Y133157
X113157Y155157
X103157Y155157
X93157Y155157
X83157Y155157
X73157Y155157
X63157Y155157
X53157Y155157
X43157Y155157
X238157Y158157
X248157Y158157
X258157Y158157
X268157Y158157
X278157Y158157
X288157Y158157
X298157Y158157
X308157Y158157
X113157Y19157
X103157Y19157
X93157Y19157
X83157Y19157
X73157Y19157
X63157Y19157
X53157Y19157
X43157Y19157
T03
X43157Y32157
X53157Y32157
X63157Y32157
X73157Y32157
X83157Y32157
X93157Y32157
X103157Y32157
X113157Y32157
X113157Y42157
X103157Y42157
X93157Y42157
X83157Y42157
X73157Y42157
X63157Y42157
X53157Y42157
X43157Y42157
X43157Y52157
X53157Y52157
X63157Y52157
X73157Y52157
X83157Y52157
X93157Y52157
X103157Y52157
X113157Y52157
X113157Y62157
X103157Y62157
X93157Y62157
X83157Y62157
X73157Y62157
X63157Y62157
X53157Y62157
X43157Y62157
X43157Y72157
X53157Y72157
X63157Y72157
X73157Y72157
X83157Y72157
X93157Y72157
X103157Y72157
X113157Y72157
X143157Y75657
X153157Y75657
X163157Y75657
X173157Y75657
X183157Y75657
X193157Y75657
X203157Y75657
X213157Y75657
X213157Y65657
X203157Y65657
X193157Y65657
X183157Y65657
X173157Y65657
X163157Y65657
X153157Y65657
X143157Y65657
X143157Y55657
X153157Y55657
X163157Y55657
X173157Y55657
X183157Y55657
X193157Y55657
X203157Y55657
X213157Y55657
X238157Y53157
X248157Y53157
X258157Y53157
X268157Y53157
X278157Y53157
X288157Y53157
X298157Y53157
X308157Y53157
X308157Y43157
X298157Y43157
X288157Y43157
X278157Y43157
X268157Y43157
X258157Y43157
X248157Y43157
X238157Y43157
X238157Y33157
X248157Y33157
X258157Y33157
X268157Y33157
X278157Y33157
X288157Y33157
X298157Y33157
X308157Y33157
X308157Y63157
X298157Y63157
X288157Y63157
X278157Y63157
X268157Y63157
X258157Y63157
X248157Y63157
X238157Y63157
X238157Y73157
X248157Y73157
X258157Y73157
X268157Y73157
X278157Y73157
X288157Y73157
X298157Y73157
X308157Y73157
X308157Y103157
X298157Y103157
X288157Y103157
X278157Y103157
X268157Y103157
X258157Y103157
X248157Y103157
X238157Y103157
X238157Y113157
X248157Y113157
X258157Y113157
X268157Y113157
X278157Y113157
X288157Y113157
X298157Y113157
X308157Y113157
X308157Y123157
X298157Y123157
X288157Y123157
X278157Y123157
X268157Y123157
X258157Y123157
X248157Y123157
X238157Y123157
X238157Y133157
X248157Y133157
X258157Y133157
X268157Y133157
X278157Y133157
X288157Y133157
X298157Y133157
X308157Y133157
X308157Y143157
X298157Y143157
X288157Y143157
X278157Y143157
X268157Y143157
X258157Y143157
X248157Y143157
X238157Y143157
X213157Y120657
X203157Y120657
X193157Y120657
X183157Y120657
X173157Y120657
X163157Y120657
X153157Y120657
X143157Y120657
X143157Y110657
X153157Y110657
X163157Y110657
X173157Y110657
X183157Y110657
X193157Y110657
X203157Y110657
X213157Y110657
X213157Y100657
X203157Y100657
X193157Y100657
X183157Y100657
X173157Y100657
X163157Y100657
X153157Y100657
X143157Y100657
X113157Y102157
X103157Y102157
X93157Y102157
X83157Y102157
X73157Y102157
X63157Y102157
X53157Y102157
X43157Y102157
X43157Y112157
X53157Y112157
X63157Y112157
X73157Y112157
X83157Y112157
X93157Y112157
X103157Y112157
X113157Y112157
X113157Y122157
X103157Y122157
X93157Y122157
X83157Y122157
X73157Y122157
X63157Y122157
X53157Y122157
X43157Y122157
X43157Y132157
X53157Y132157
X63157Y132157
X73157Y132157
X83157Y132157
X93157Y132157
X103157Y132157
X113157Y132157
X113157Y142157
X103157Y142157
X93157Y142157
X83157Y142157
X73157Y142157
X63157Y142157
X53157Y142157
X43157Y142157
T04
X18000Y18000
X155795Y18000
X195165Y18000
X332961Y18000
X332961Y155795
X195165Y155795
X155795Y155795
X18000Y155795
M30
