G75*
%MOIN*%
%OFA0B0*%
%FSLAX25Y25*%
%IPPOS*%
%LPD*%
%AMOC8*
5,1,8,0,0,1.08239X$1,22.5*
%
%ADD10C,0.23800*%
%ADD11R,0.23800X0.23800*%
%ADD12C,0.13792*%
%ADD13R,0.07800X0.07800*%
%ADD14C,0.07800*%
%ADD15C,0.06000*%
%ADD16C,0.06800*%
%ADD17C,0.04762*%
D10*
X0018000Y0018000D03*
X0155795Y0155795D03*
X0195165Y0155795D03*
X0332961Y0018000D03*
D11*
X0332961Y0155795D03*
X0018000Y0155795D03*
D12*
X0155795Y0018000D03*
X0195165Y0018000D03*
D13*
X0238157Y0018157D03*
X0248157Y0018157D03*
X0258157Y0018157D03*
X0268157Y0018157D03*
X0278157Y0018157D03*
X0288157Y0018157D03*
X0298157Y0018157D03*
X0308157Y0018157D03*
X0213157Y0043157D03*
X0203157Y0043157D03*
X0193157Y0043157D03*
X0183157Y0043157D03*
X0173157Y0043157D03*
X0163157Y0043157D03*
X0153157Y0043157D03*
X0143157Y0043157D03*
X0113157Y0019157D03*
X0103157Y0019157D03*
X0093157Y0019157D03*
X0083157Y0019157D03*
X0073157Y0019157D03*
X0063157Y0019157D03*
X0053157Y0019157D03*
X0043157Y0019157D03*
X0143157Y0133157D03*
X0153157Y0133157D03*
X0163157Y0133157D03*
X0173157Y0133157D03*
X0183157Y0133157D03*
X0193157Y0133157D03*
X0203157Y0133157D03*
X0213157Y0133157D03*
X0238157Y0158157D03*
X0248157Y0158157D03*
X0258157Y0158157D03*
X0268157Y0158157D03*
X0278157Y0158157D03*
X0288157Y0158157D03*
X0298157Y0158157D03*
X0308157Y0158157D03*
X0113157Y0155157D03*
X0103157Y0155157D03*
X0093157Y0155157D03*
X0083157Y0155157D03*
X0073157Y0155157D03*
X0063157Y0155157D03*
X0053157Y0155157D03*
X0043157Y0155157D03*
D14*
X0043157Y0142157D03*
X0053157Y0142157D03*
X0063157Y0142157D03*
X0073157Y0142157D03*
X0083157Y0142157D03*
X0093157Y0142157D03*
X0103157Y0142157D03*
X0113157Y0142157D03*
X0113157Y0132157D03*
X0103157Y0132157D03*
X0093157Y0132157D03*
X0083157Y0132157D03*
X0073157Y0132157D03*
X0063157Y0132157D03*
X0053157Y0132157D03*
X0043157Y0132157D03*
X0043157Y0122157D03*
X0053157Y0122157D03*
X0063157Y0122157D03*
X0073157Y0122157D03*
X0083157Y0122157D03*
X0093157Y0122157D03*
X0103157Y0122157D03*
X0113157Y0122157D03*
X0113157Y0112157D03*
X0103157Y0112157D03*
X0093157Y0112157D03*
X0083157Y0112157D03*
X0073157Y0112157D03*
X0063157Y0112157D03*
X0053157Y0112157D03*
X0043157Y0112157D03*
X0043157Y0102157D03*
X0053157Y0102157D03*
X0063157Y0102157D03*
X0073157Y0102157D03*
X0083157Y0102157D03*
X0093157Y0102157D03*
X0103157Y0102157D03*
X0113157Y0102157D03*
X0113157Y0072157D03*
X0103157Y0072157D03*
X0093157Y0072157D03*
X0083157Y0072157D03*
X0073157Y0072157D03*
X0063157Y0072157D03*
X0053157Y0072157D03*
X0043157Y0072157D03*
X0043157Y0062157D03*
X0053157Y0062157D03*
X0063157Y0062157D03*
X0073157Y0062157D03*
X0083157Y0062157D03*
X0093157Y0062157D03*
X0103157Y0062157D03*
X0113157Y0062157D03*
X0113157Y0052157D03*
X0103157Y0052157D03*
X0093157Y0052157D03*
X0083157Y0052157D03*
X0073157Y0052157D03*
X0063157Y0052157D03*
X0053157Y0052157D03*
X0043157Y0052157D03*
X0043157Y0042157D03*
X0053157Y0042157D03*
X0063157Y0042157D03*
X0073157Y0042157D03*
X0083157Y0042157D03*
X0093157Y0042157D03*
X0103157Y0042157D03*
X0113157Y0042157D03*
X0113157Y0032157D03*
X0103157Y0032157D03*
X0093157Y0032157D03*
X0083157Y0032157D03*
X0073157Y0032157D03*
X0063157Y0032157D03*
X0053157Y0032157D03*
X0043157Y0032157D03*
X0238157Y0033157D03*
X0248157Y0033157D03*
X0258157Y0033157D03*
X0268157Y0033157D03*
X0278157Y0033157D03*
X0288157Y0033157D03*
X0298157Y0033157D03*
X0308157Y0033157D03*
X0308157Y0043157D03*
X0298157Y0043157D03*
X0288157Y0043157D03*
X0278157Y0043157D03*
X0268157Y0043157D03*
X0258157Y0043157D03*
X0248157Y0043157D03*
X0238157Y0043157D03*
X0238157Y0053157D03*
X0248157Y0053157D03*
X0258157Y0053157D03*
X0268157Y0053157D03*
X0278157Y0053157D03*
X0288157Y0053157D03*
X0298157Y0053157D03*
X0308157Y0053157D03*
X0308157Y0063157D03*
X0298157Y0063157D03*
X0288157Y0063157D03*
X0278157Y0063157D03*
X0268157Y0063157D03*
X0258157Y0063157D03*
X0248157Y0063157D03*
X0238157Y0063157D03*
X0238157Y0073157D03*
X0248157Y0073157D03*
X0258157Y0073157D03*
X0268157Y0073157D03*
X0278157Y0073157D03*
X0288157Y0073157D03*
X0298157Y0073157D03*
X0308157Y0073157D03*
X0308157Y0103157D03*
X0298157Y0103157D03*
X0288157Y0103157D03*
X0278157Y0103157D03*
X0268157Y0103157D03*
X0258157Y0103157D03*
X0248157Y0103157D03*
X0238157Y0103157D03*
X0238157Y0113157D03*
X0248157Y0113157D03*
X0258157Y0113157D03*
X0268157Y0113157D03*
X0278157Y0113157D03*
X0288157Y0113157D03*
X0298157Y0113157D03*
X0308157Y0113157D03*
X0308157Y0123157D03*
X0298157Y0123157D03*
X0288157Y0123157D03*
X0278157Y0123157D03*
X0268157Y0123157D03*
X0258157Y0123157D03*
X0248157Y0123157D03*
X0238157Y0123157D03*
X0238157Y0133157D03*
X0248157Y0133157D03*
X0258157Y0133157D03*
X0268157Y0133157D03*
X0278157Y0133157D03*
X0288157Y0133157D03*
X0298157Y0133157D03*
X0308157Y0133157D03*
X0308157Y0143157D03*
X0298157Y0143157D03*
X0288157Y0143157D03*
X0278157Y0143157D03*
X0268157Y0143157D03*
X0258157Y0143157D03*
X0248157Y0143157D03*
X0238157Y0143157D03*
D15*
X0238157Y0090757D02*
X0238157Y0085557D01*
X0248157Y0085557D02*
X0248157Y0090757D01*
X0258157Y0090757D02*
X0258157Y0085557D01*
X0268157Y0085557D02*
X0268157Y0090757D01*
X0278157Y0090757D02*
X0278157Y0085557D01*
X0288157Y0085557D02*
X0288157Y0090757D01*
X0298157Y0090757D02*
X0298157Y0085557D01*
X0308157Y0085557D02*
X0308157Y0090757D01*
X0213157Y0090757D02*
X0213157Y0085557D01*
X0203157Y0085557D02*
X0203157Y0090757D01*
X0193157Y0090757D02*
X0193157Y0085557D01*
X0183157Y0085557D02*
X0183157Y0090757D01*
X0173157Y0090757D02*
X0173157Y0085557D01*
X0163157Y0085557D02*
X0163157Y0090757D01*
X0153157Y0090757D02*
X0153157Y0085557D01*
X0143157Y0085557D02*
X0143157Y0090757D01*
X0113157Y0089757D02*
X0113157Y0084557D01*
X0103157Y0084557D02*
X0103157Y0089757D01*
X0093157Y0089757D02*
X0093157Y0084557D01*
X0083157Y0084557D02*
X0083157Y0089757D01*
X0073157Y0089757D02*
X0073157Y0084557D01*
X0063157Y0084557D02*
X0063157Y0089757D01*
X0053157Y0089757D02*
X0053157Y0084557D01*
X0043157Y0084557D02*
X0043157Y0089757D01*
D16*
X0143157Y0100657D03*
X0153157Y0100657D03*
X0163157Y0100657D03*
X0173157Y0100657D03*
X0183157Y0100657D03*
X0193157Y0100657D03*
X0203157Y0100657D03*
X0213157Y0100657D03*
X0213157Y0110657D03*
X0203157Y0110657D03*
X0193157Y0110657D03*
X0183157Y0110657D03*
X0173157Y0110657D03*
X0163157Y0110657D03*
X0153157Y0110657D03*
X0143157Y0110657D03*
X0143157Y0120657D03*
X0153157Y0120657D03*
X0163157Y0120657D03*
X0173157Y0120657D03*
X0183157Y0120657D03*
X0193157Y0120657D03*
X0203157Y0120657D03*
X0213157Y0120657D03*
X0213157Y0075657D03*
X0203157Y0075657D03*
X0193157Y0075657D03*
X0183157Y0075657D03*
X0173157Y0075657D03*
X0163157Y0075657D03*
X0153157Y0075657D03*
X0143157Y0075657D03*
X0143157Y0065657D03*
X0153157Y0065657D03*
X0163157Y0065657D03*
X0173157Y0065657D03*
X0183157Y0065657D03*
X0193157Y0065657D03*
X0203157Y0065657D03*
X0213157Y0065657D03*
X0213157Y0055657D03*
X0203157Y0055657D03*
X0193157Y0055657D03*
X0183157Y0055657D03*
X0173157Y0055657D03*
X0163157Y0055657D03*
X0153157Y0055657D03*
X0143157Y0055657D03*
D17*
X0225657Y0070657D03*
X0225657Y0105657D03*
M02*
