%
M48
M72
T01C0.01969
T02C0.02362
T03C0.02756
T04C0.03200
T05C0.03543
T06C0.04000
T07C0.12992
%
T01
X128157Y25657
X128157Y33157
X148157Y40957
X175157Y28157
X236157Y23157
X148157Y68157
X158157Y71157
X154157Y88157
X193157Y111157
X256157Y113457
X298157Y108157
X308157Y103157
X321504Y104811
X327657Y112157
X336657Y93157
X293157Y88157
X334417Y69417
X211157Y143657
X133157Y138157
T02
X228157Y138157
X313157Y138157
T03
X333157Y108157
X298157Y98157
X308157Y88157
X332157Y88157
X293157Y68157
X313157Y58157
X333157Y48157
X313157Y34857
X232157Y32157
X223157Y25157
X223157Y63157
X138157Y43157
X233157Y109157
T04
X228157Y102157
X228157Y92157
X228157Y82157
X228157Y72157
X230957Y54157
X220957Y54157
X210957Y54157
X200957Y54157
X190957Y54157
X180957Y54157
X170957Y54157
X160957Y54157
X212157Y29857
X242157Y29857
X246157Y23757
X276157Y23757
X280957Y54157
X290957Y54157
X270957Y54157
X260957Y54157
X250957Y54157
X240957Y54157
X113157Y87157
X103157Y87157
X93157Y87157
X83157Y87157
X73157Y87157
X63157Y87157
X53157Y87157
X43157Y87157
X160937Y120157
X170937Y120157
X180937Y120157
X190937Y120157
X200937Y120157
X210937Y120157
X220937Y120157
X230937Y120157
X240937Y120157
X250937Y120157
X260937Y120157
X270937Y120157
X280937Y120157
X290937Y120157
X300937Y120157
X310937Y120157
X320937Y120157
X113157Y155157
X103157Y155157
X93157Y155157
X83157Y155157
X73157Y155157
X63157Y155157
X53157Y155157
X43157Y155157
X43157Y19157
X53157Y19157
X63157Y19157
X73157Y19157
X83157Y19157
X93157Y19157
X103157Y19157
X113157Y19157
T05
X160953Y41898
X170953Y41898
X180953Y41898
X190953Y41898
X200953Y41898
X210953Y41898
X220953Y41898
X230953Y41898
X240953Y41898
X250953Y41898
X260953Y41898
X270953Y41898
X280953Y41898
X290953Y41898
X300953Y41898
X310953Y41898
X320953Y41898
X320953Y131898
X310953Y131898
X300953Y131898
X290953Y131898
X280953Y131898
X270953Y131898
X260953Y131898
X250953Y131898
X240953Y131898
X230953Y131898
X220953Y131898
X210953Y131898
X200953Y131898
X190953Y131898
X180953Y131898
X170953Y131898
X160953Y131898
T06
X138157Y122157
X128157Y122157
X113157Y122157
X103157Y122157
X93157Y122157
X83157Y122157
X73157Y122157
X63157Y122157
X53157Y122157
X43157Y122157
X43157Y112157
X53157Y112157
X63157Y112157
X73157Y112157
X83157Y112157
X93157Y112157
X103157Y112157
X113157Y112157
X128157Y112157
X138157Y112157
X138157Y102157
X128157Y102157
X113157Y102157
X103157Y102157
X93157Y102157
X83157Y102157
X73157Y102157
X63157Y102157
X53157Y102157
X43157Y102157
X43157Y72157
X53157Y72157
X63157Y72157
X73157Y72157
X83157Y72157
X93157Y72157
X103157Y72157
X113157Y72157
X128157Y72157
X138157Y72157
X138157Y62157
X128157Y62157
X113157Y62157
X103157Y62157
X93157Y62157
X83157Y62157
X73157Y62157
X63157Y62157
X53157Y62157
X43157Y62157
X43157Y52157
X53157Y52157
X63157Y52157
X73157Y52157
X83157Y52157
X93157Y52157
X103157Y52157
X113157Y52157
X128157Y52157
X138157Y52157
X113157Y42157
X103157Y42157
X93157Y42157
X83157Y42157
X73157Y42157
X63157Y42157
X53157Y42157
X43157Y42157
X43157Y32157
X53157Y32157
X63157Y32157
X73157Y32157
X83157Y32157
X93157Y32157
X103157Y32157
X113157Y32157
X173157Y72157
X183157Y72157
X193157Y72157
X203157Y72157
X213157Y72157
X213157Y82157
X203157Y82157
X193157Y82157
X183157Y82157
X173157Y82157
X173157Y92157
X183157Y92157
X193157Y92157
X203157Y92157
X213157Y92157
X213157Y102157
X203157Y102157
X193157Y102157
X183157Y102157
X173157Y102157
X138157Y92157
X128157Y92157
X128157Y82157
X138157Y82157
X113157Y132157
X103157Y132157
X93157Y132157
X83157Y132157
X73157Y132157
X63157Y132157
X53157Y132157
X43157Y132157
X43157Y142157
X53157Y142157
X63157Y142157
X73157Y142157
X83157Y142157
X93157Y142157
X103157Y142157
X113157Y142157
X218157Y146157
X228157Y146157
X238157Y146157
X248157Y146157
X258157Y146157
X268157Y146157
X278157Y146157
X288157Y146157
X298157Y146157
X308157Y146157
X308157Y156157
X298157Y156157
X288157Y156157
X278157Y156157
X268157Y156157
X258157Y156157
X248157Y156157
X238157Y156157
X228157Y156157
X218157Y156157
X243157Y102157
X253157Y102157
X263157Y102157
X273157Y102157
X283157Y102157
X283157Y92157
X273157Y92157
X263157Y92157
X253157Y92157
X243157Y92157
X243157Y82157
X253157Y82157
X263157Y82157
X273157Y82157
X283157Y82157
X283157Y72157
X273157Y72157
X263157Y72157
X253157Y72157
X243157Y72157
X288157Y28157
X298157Y28157
X308157Y28157
X308157Y18157
X298157Y18157
X288157Y18157
X248906Y15157
X241031Y15157
X233157Y15157
X225283Y15157
X217409Y15157
T07
X18000Y18000
X155795Y18000
X195165Y18000
X332961Y18000
X332961Y155795
X195165Y155795
X155795Y155795
X18000Y155795
M30
