G75*
%MOIN*%
%OFA0B0*%
%FSLAX25Y25*%
%IPPOS*%
%LPD*%
%AMOC8*
5,1,8,0,0,1.08239X$1,22.5*
%
%ADD10OC8,0.06800*%
%ADD11C,0.23800*%
%ADD12R,0.23800X0.23800*%
%ADD13C,0.13792*%
%ADD14C,0.06343*%
%ADD15R,0.06343X0.06343*%
%ADD16R,0.07800X0.07800*%
%ADD17R,0.06800X0.06800*%
%ADD18C,0.06800*%
%ADD19C,0.06000*%
%ADD20OC8,0.06000*%
%ADD21C,0.07800*%
%ADD22R,0.04369X0.04369*%
%ADD23C,0.05156*%
%ADD24C,0.04369*%
%ADD25C,0.04762*%
D10*
X0288157Y0018157D03*
X0298157Y0018157D03*
X0308157Y0018157D03*
X0308157Y0028157D03*
X0298157Y0028157D03*
X0288157Y0028157D03*
D11*
X0018000Y0018000D03*
X0155795Y0155795D03*
X0195165Y0155795D03*
X0332961Y0018000D03*
D12*
X0332961Y0155795D03*
X0018000Y0155795D03*
D13*
X0155795Y0018000D03*
X0195165Y0018000D03*
D14*
X0190953Y0041898D03*
X0200953Y0041898D03*
X0210953Y0041898D03*
X0220953Y0041898D03*
X0230953Y0041898D03*
X0240953Y0041898D03*
X0250953Y0041898D03*
X0260953Y0041898D03*
X0270953Y0041898D03*
X0280953Y0041898D03*
X0290953Y0041898D03*
X0300953Y0041898D03*
X0310953Y0041898D03*
X0180953Y0041898D03*
X0170953Y0041898D03*
X0160953Y0041898D03*
X0170953Y0131898D03*
X0180953Y0131898D03*
X0190953Y0131898D03*
X0200953Y0131898D03*
X0210953Y0131898D03*
X0220953Y0131898D03*
X0230953Y0131898D03*
X0240953Y0131898D03*
X0250953Y0131898D03*
X0260953Y0131898D03*
X0270953Y0131898D03*
X0280953Y0131898D03*
X0290953Y0131898D03*
X0300953Y0131898D03*
X0310953Y0131898D03*
X0320953Y0131898D03*
D15*
X0160953Y0131898D03*
X0320953Y0041898D03*
D16*
X0160937Y0120157D03*
X0113157Y0155157D03*
X0103157Y0155157D03*
X0093157Y0155157D03*
X0083157Y0155157D03*
X0073157Y0155157D03*
X0063157Y0155157D03*
X0053157Y0155157D03*
X0043157Y0155157D03*
X0043157Y0019157D03*
X0053157Y0019157D03*
X0063157Y0019157D03*
X0073157Y0019157D03*
X0083157Y0019157D03*
X0093157Y0019157D03*
X0103157Y0019157D03*
X0113157Y0019157D03*
D17*
X0217409Y0015157D03*
D18*
X0225283Y0015157D03*
X0233157Y0015157D03*
X0241031Y0015157D03*
X0248906Y0015157D03*
D19*
X0248757Y0023757D02*
X0243557Y0023757D01*
X0273557Y0023757D02*
X0278757Y0023757D01*
X0280957Y0051557D02*
X0280957Y0056757D01*
X0290957Y0056757D02*
X0290957Y0051557D01*
X0270957Y0051557D02*
X0270957Y0056757D01*
X0260957Y0056757D02*
X0260957Y0051557D01*
X0250957Y0051557D02*
X0250957Y0056757D01*
X0240957Y0056757D02*
X0240957Y0051557D01*
X0230957Y0051557D02*
X0230957Y0056757D01*
X0220957Y0056757D02*
X0220957Y0051557D01*
X0210957Y0051557D02*
X0210957Y0056757D01*
X0200957Y0056757D02*
X0200957Y0051557D01*
X0190957Y0051557D02*
X0190957Y0056757D01*
X0180957Y0056757D02*
X0180957Y0051557D01*
X0170957Y0051557D02*
X0170957Y0056757D01*
X0160957Y0056757D02*
X0160957Y0051557D01*
X0113157Y0084557D02*
X0113157Y0089757D01*
X0103157Y0089757D02*
X0103157Y0084557D01*
X0093157Y0084557D02*
X0093157Y0089757D01*
X0083157Y0089757D02*
X0083157Y0084557D01*
X0073157Y0084557D02*
X0073157Y0089757D01*
X0063157Y0089757D02*
X0063157Y0084557D01*
X0053157Y0084557D02*
X0053157Y0089757D01*
X0043157Y0089757D02*
X0043157Y0084557D01*
X0170937Y0117557D02*
X0170937Y0122757D01*
X0180937Y0122757D02*
X0180937Y0117557D01*
X0190937Y0117557D02*
X0190937Y0122757D01*
X0200937Y0122757D02*
X0200937Y0117557D01*
X0210937Y0117557D02*
X0210937Y0122757D01*
X0220937Y0122757D02*
X0220937Y0117557D01*
X0230937Y0117557D02*
X0230937Y0122757D01*
X0240937Y0122757D02*
X0240937Y0117557D01*
X0250937Y0117557D02*
X0250937Y0122757D01*
X0260937Y0122757D02*
X0260937Y0117557D01*
X0270937Y0117557D02*
X0270937Y0122757D01*
X0280937Y0122757D02*
X0280937Y0117557D01*
X0290937Y0117557D02*
X0290937Y0122757D01*
X0300937Y0122757D02*
X0300937Y0117557D01*
X0310937Y0117557D02*
X0310937Y0122757D01*
X0320937Y0122757D02*
X0320937Y0117557D01*
X0230757Y0102157D02*
X0225557Y0102157D01*
X0225557Y0092157D02*
X0230757Y0092157D01*
X0230757Y0082157D02*
X0225557Y0082157D01*
X0225557Y0072157D02*
X0230757Y0072157D01*
D20*
X0242157Y0029857D03*
X0212157Y0029857D03*
D21*
X0138157Y0052157D03*
X0128157Y0052157D03*
X0113157Y0052157D03*
X0103157Y0052157D03*
X0093157Y0052157D03*
X0083157Y0052157D03*
X0073157Y0052157D03*
X0063157Y0052157D03*
X0053157Y0052157D03*
X0043157Y0052157D03*
X0043157Y0062157D03*
X0053157Y0062157D03*
X0063157Y0062157D03*
X0073157Y0062157D03*
X0083157Y0062157D03*
X0093157Y0062157D03*
X0103157Y0062157D03*
X0113157Y0062157D03*
X0128157Y0062157D03*
X0138157Y0062157D03*
X0138157Y0072157D03*
X0128157Y0072157D03*
X0113157Y0072157D03*
X0103157Y0072157D03*
X0093157Y0072157D03*
X0083157Y0072157D03*
X0073157Y0072157D03*
X0063157Y0072157D03*
X0053157Y0072157D03*
X0043157Y0072157D03*
X0043157Y0042157D03*
X0053157Y0042157D03*
X0063157Y0042157D03*
X0073157Y0042157D03*
X0083157Y0042157D03*
X0093157Y0042157D03*
X0103157Y0042157D03*
X0113157Y0042157D03*
X0113157Y0032157D03*
X0103157Y0032157D03*
X0093157Y0032157D03*
X0083157Y0032157D03*
X0073157Y0032157D03*
X0063157Y0032157D03*
X0053157Y0032157D03*
X0043157Y0032157D03*
X0128157Y0082157D03*
X0138157Y0082157D03*
X0138157Y0092157D03*
X0128157Y0092157D03*
X0128157Y0102157D03*
X0138157Y0102157D03*
X0138157Y0112157D03*
X0128157Y0112157D03*
X0113157Y0112157D03*
X0103157Y0112157D03*
X0093157Y0112157D03*
X0083157Y0112157D03*
X0073157Y0112157D03*
X0063157Y0112157D03*
X0053157Y0112157D03*
X0043157Y0112157D03*
X0043157Y0102157D03*
X0053157Y0102157D03*
X0063157Y0102157D03*
X0073157Y0102157D03*
X0083157Y0102157D03*
X0093157Y0102157D03*
X0103157Y0102157D03*
X0113157Y0102157D03*
X0113157Y0122157D03*
X0103157Y0122157D03*
X0093157Y0122157D03*
X0083157Y0122157D03*
X0073157Y0122157D03*
X0063157Y0122157D03*
X0053157Y0122157D03*
X0043157Y0122157D03*
X0043157Y0132157D03*
X0053157Y0132157D03*
X0063157Y0132157D03*
X0073157Y0132157D03*
X0083157Y0132157D03*
X0093157Y0132157D03*
X0103157Y0132157D03*
X0113157Y0132157D03*
X0113157Y0142157D03*
X0103157Y0142157D03*
X0093157Y0142157D03*
X0083157Y0142157D03*
X0073157Y0142157D03*
X0063157Y0142157D03*
X0053157Y0142157D03*
X0043157Y0142157D03*
X0128157Y0122157D03*
X0138157Y0122157D03*
X0173157Y0102157D03*
X0183157Y0102157D03*
X0193157Y0102157D03*
X0203157Y0102157D03*
X0213157Y0102157D03*
X0213157Y0092157D03*
X0203157Y0092157D03*
X0193157Y0092157D03*
X0183157Y0092157D03*
X0173157Y0092157D03*
X0173157Y0082157D03*
X0183157Y0082157D03*
X0193157Y0082157D03*
X0203157Y0082157D03*
X0213157Y0082157D03*
X0213157Y0072157D03*
X0203157Y0072157D03*
X0193157Y0072157D03*
X0183157Y0072157D03*
X0173157Y0072157D03*
X0243157Y0072157D03*
X0253157Y0072157D03*
X0263157Y0072157D03*
X0273157Y0072157D03*
X0283157Y0072157D03*
X0283157Y0082157D03*
X0273157Y0082157D03*
X0263157Y0082157D03*
X0253157Y0082157D03*
X0243157Y0082157D03*
X0243157Y0092157D03*
X0253157Y0092157D03*
X0263157Y0092157D03*
X0273157Y0092157D03*
X0283157Y0092157D03*
X0283157Y0102157D03*
X0273157Y0102157D03*
X0263157Y0102157D03*
X0253157Y0102157D03*
X0243157Y0102157D03*
X0238157Y0146157D03*
X0228157Y0146157D03*
X0218157Y0146157D03*
X0218157Y0156157D03*
X0228157Y0156157D03*
X0238157Y0156157D03*
X0248157Y0156157D03*
X0258157Y0156157D03*
X0268157Y0156157D03*
X0278157Y0156157D03*
X0288157Y0156157D03*
X0298157Y0156157D03*
X0308157Y0156157D03*
X0308157Y0146157D03*
X0298157Y0146157D03*
X0288157Y0146157D03*
X0278157Y0146157D03*
X0268157Y0146157D03*
X0258157Y0146157D03*
X0248157Y0146157D03*
D22*
X0211157Y0143657D03*
X0256157Y0113457D03*
X0293157Y0088157D03*
X0308157Y0103157D03*
X0327657Y0112157D03*
X0193157Y0111157D03*
X0154157Y0088157D03*
X0158157Y0071157D03*
X0128157Y0033157D03*
X0175157Y0028157D03*
X0236157Y0023157D03*
X0133157Y0138157D03*
D23*
X0233157Y0109157D03*
X0298157Y0098157D03*
X0308157Y0088157D03*
X0332157Y0088157D03*
X0293157Y0068157D03*
X0313157Y0058157D03*
X0333157Y0048157D03*
X0313157Y0034857D03*
X0232157Y0032157D03*
X0223157Y0025157D03*
X0223157Y0063157D03*
X0138157Y0043157D03*
X0333157Y0108157D03*
D24*
X0321504Y0104811D03*
X0336657Y0093157D03*
X0298157Y0108157D03*
X0334417Y0069417D03*
X0148157Y0068157D03*
X0148157Y0040957D03*
X0128157Y0025657D03*
D25*
X0228157Y0138157D03*
X0313157Y0138157D03*
M02*
