G75*
%MOIN*%
%OFA0B0*%
%FSLAX25Y25*%
%IPPOS*%
%LPD*%
%AMOC8*
5,1,8,0,0,1.08239X$1,22.5*
%
%ADD10OC8,0.06800*%
%ADD11C,0.23800*%
%ADD12R,0.23800X0.23800*%
%ADD13C,0.13792*%
%ADD14C,0.06343*%
%ADD15R,0.06343X0.06343*%
%ADD16R,0.06800X0.06800*%
%ADD17C,0.06800*%
%ADD18C,0.06000*%
%ADD19OC8,0.06000*%
%ADD20C,0.08300*%
%ADD21C,0.11300*%
%ADD22R,0.05950X0.05950*%
%ADD23OC8,0.07100*%
%ADD24R,0.06902X0.03162*%
%ADD25R,0.07887X0.05524*%
%ADD26C,0.04762*%
%ADD27C,0.05156*%
%ADD28C,0.04369*%
D10*
X0288157Y0018157D03*
X0298157Y0018157D03*
X0308157Y0018157D03*
X0308157Y0028157D03*
X0298157Y0028157D03*
X0288157Y0028157D03*
D11*
X0018000Y0018000D03*
X0155795Y0155795D03*
X0195165Y0155795D03*
X0332961Y0018000D03*
D12*
X0332961Y0155795D03*
X0018000Y0155795D03*
D13*
X0155795Y0018000D03*
X0195165Y0018000D03*
D14*
X0190953Y0041898D03*
X0200953Y0041898D03*
X0210953Y0041898D03*
X0220953Y0041898D03*
X0230953Y0041898D03*
X0240953Y0041898D03*
X0250953Y0041898D03*
X0260953Y0041898D03*
X0270953Y0041898D03*
X0280953Y0041898D03*
X0290953Y0041898D03*
X0300953Y0041898D03*
X0310953Y0041898D03*
X0180953Y0041898D03*
X0170953Y0041898D03*
X0160953Y0041898D03*
X0118122Y0115157D03*
X0118122Y0125157D03*
X0118122Y0145157D03*
X0170953Y0131898D03*
X0180953Y0131898D03*
X0190953Y0131898D03*
X0200953Y0131898D03*
X0210953Y0131898D03*
X0220953Y0131898D03*
X0230953Y0131898D03*
X0240953Y0131898D03*
X0250953Y0131898D03*
X0260953Y0131898D03*
X0270953Y0131898D03*
X0280953Y0131898D03*
X0290953Y0131898D03*
X0300953Y0131898D03*
X0310953Y0131898D03*
X0320953Y0131898D03*
D15*
X0160953Y0131898D03*
X0118122Y0135157D03*
X0320953Y0041898D03*
D16*
X0217409Y0015157D03*
D17*
X0225283Y0015157D03*
X0233157Y0015157D03*
X0241031Y0015157D03*
X0248906Y0015157D03*
D18*
X0248757Y0023757D02*
X0243557Y0023757D01*
X0273557Y0023757D02*
X0278757Y0023757D01*
D19*
X0242157Y0029857D03*
X0212157Y0029857D03*
D20*
X0026157Y0122157D03*
D21*
X0016119Y0112119D03*
X0036196Y0112119D03*
X0036196Y0132196D03*
X0016119Y0132196D03*
D22*
X0177657Y0104157D03*
X0177657Y0094157D03*
X0177657Y0084157D03*
X0177657Y0074157D03*
D23*
X0118157Y0073157D03*
X0118157Y0063157D03*
X0118157Y0053157D03*
X0118157Y0043157D03*
X0243157Y0153157D03*
X0253157Y0153157D03*
X0263157Y0153157D03*
D24*
X0155736Y0100000D03*
X0155736Y0096063D03*
X0155736Y0092126D03*
X0155736Y0088189D03*
X0155736Y0084252D03*
X0155736Y0080315D03*
D25*
X0144614Y0074016D03*
X0144614Y0106299D03*
D26*
X0166857Y0079557D03*
X0167057Y0074157D03*
X0166657Y0067657D03*
X0190657Y0067657D03*
X0206157Y0074157D03*
X0190257Y0079557D03*
X0210157Y0083157D03*
X0210953Y0065157D03*
X0218157Y0060657D03*
X0252157Y0074157D03*
X0284157Y0074157D03*
X0310057Y0087157D03*
X0296157Y0107157D03*
X0286157Y0138157D03*
X0215157Y0138157D03*
X0313157Y0058157D03*
X0039157Y0067157D03*
X0026157Y0105657D03*
D27*
X0313157Y0034857D03*
X0328157Y0050157D03*
X0332157Y0088157D03*
X0329157Y0115157D03*
D28*
X0336657Y0093157D03*
X0334417Y0069417D03*
M02*
