%
M48
M72
T01C0.01969
T02C0.02362
T03C0.02756
T04C0.03150
T05C0.03200
T06C0.03543
T07C0.03600
T08C0.04000
T09C0.05000
T10C0.07000
T11C0.12992
%
T01
X334417Y69417
X336657Y93157
T02
X310057Y87157
X284157Y74157
X252157Y74157
X218157Y60657
X210953Y65157
X206157Y74157
X190257Y79557
X210157Y83157
X190657Y67657
X166657Y67657
X167057Y74157
X166857Y79557
X215157Y138157
X286157Y138157
X296157Y107157
X313157Y58157
X39157Y67157
X26157Y105657
T03
X313157Y34857
X328157Y50157
X332157Y88157
X329157Y115157
T04
X177657Y104157
X177657Y94157
X177657Y84157
X177657Y74157
T05
X212157Y29857
X242157Y29857
X246157Y23757
X276157Y23757
T06
X280953Y41898
X290953Y41898
X300953Y41898
X310953Y41898
X320953Y41898
X270953Y41898
X260953Y41898
X250953Y41898
X240953Y41898
X230953Y41898
X220953Y41898
X210953Y41898
X200953Y41898
X190953Y41898
X180953Y41898
X170953Y41898
X160953Y41898
X118122Y115157
X118122Y125157
X118122Y135157
X118122Y145157
X160953Y131898
X170953Y131898
X180953Y131898
X190953Y131898
X200953Y131898
X210953Y131898
X220953Y131898
X230953Y131898
X240953Y131898
X250953Y131898
X260953Y131898
X270953Y131898
X280953Y131898
X290953Y131898
X300953Y131898
X310953Y131898
X320953Y131898
T07
X263157Y153157
X253157Y153157
X243157Y153157
X118157Y73157
X118157Y63157
X118157Y53157
X118157Y43157
T08
X217409Y15157
X225283Y15157
X233157Y15157
X241031Y15157
X248906Y15157
X288157Y18157
X298157Y18157
X308157Y18157
X308157Y28157
X298157Y28157
X288157Y28157
T09
X26157Y122157
T10
X16119Y112119
X36196Y112119
X36196Y132196
X16119Y132196
T11
X18000Y18000
X155795Y18000
X195165Y18000
X332961Y18000
X332961Y155795
X195165Y155795
X155795Y155795
X18000Y155795
M30
