G75*
%MOIN*%
%OFA0B0*%
%FSLAX25Y25*%
%IPPOS*%
%LPD*%
%AMOC8*
5,1,8,0,0,1.08239X$1,22.5*
%
%ADD10C,0.00000*%
%ADD11C,0.00300*%
%ADD12C,0.00600*%
%ADD13C,0.00800*%
%ADD14C,0.00500*%
%ADD15R,0.02000X0.08000*%
%ADD16R,0.02500X0.02000*%
%ADD17C,0.00100*%
%ADD18C,0.00400*%
D10*
X0008157Y0008157D02*
X0008157Y0165638D01*
X0342803Y0165638D01*
X0342803Y0008157D01*
X0008157Y0008157D01*
X0149299Y0018000D02*
X0149301Y0018161D01*
X0149307Y0018321D01*
X0149317Y0018482D01*
X0149331Y0018642D01*
X0149349Y0018801D01*
X0149370Y0018961D01*
X0149396Y0019119D01*
X0149426Y0019277D01*
X0149459Y0019434D01*
X0149497Y0019591D01*
X0149538Y0019746D01*
X0149583Y0019900D01*
X0149632Y0020053D01*
X0149685Y0020205D01*
X0149741Y0020355D01*
X0149801Y0020504D01*
X0149865Y0020652D01*
X0149932Y0020798D01*
X0150003Y0020942D01*
X0150078Y0021084D01*
X0150156Y0021225D01*
X0150237Y0021363D01*
X0150322Y0021500D01*
X0150411Y0021634D01*
X0150502Y0021766D01*
X0150597Y0021896D01*
X0150695Y0022023D01*
X0150796Y0022148D01*
X0150900Y0022271D01*
X0151007Y0022390D01*
X0151117Y0022507D01*
X0151230Y0022622D01*
X0151346Y0022733D01*
X0151464Y0022842D01*
X0151585Y0022947D01*
X0151709Y0023050D01*
X0151835Y0023150D01*
X0151964Y0023246D01*
X0152095Y0023339D01*
X0152228Y0023429D01*
X0152363Y0023516D01*
X0152501Y0023599D01*
X0152640Y0023678D01*
X0152782Y0023755D01*
X0152925Y0023828D01*
X0153070Y0023897D01*
X0153217Y0023962D01*
X0153365Y0024024D01*
X0153515Y0024083D01*
X0153666Y0024137D01*
X0153818Y0024188D01*
X0153972Y0024235D01*
X0154127Y0024278D01*
X0154282Y0024317D01*
X0154439Y0024353D01*
X0154597Y0024385D01*
X0154755Y0024412D01*
X0154914Y0024436D01*
X0155073Y0024456D01*
X0155233Y0024472D01*
X0155394Y0024484D01*
X0155554Y0024492D01*
X0155715Y0024496D01*
X0155875Y0024496D01*
X0156036Y0024492D01*
X0156196Y0024484D01*
X0156357Y0024472D01*
X0156517Y0024456D01*
X0156676Y0024436D01*
X0156835Y0024412D01*
X0156993Y0024385D01*
X0157151Y0024353D01*
X0157308Y0024317D01*
X0157463Y0024278D01*
X0157618Y0024235D01*
X0157772Y0024188D01*
X0157924Y0024137D01*
X0158075Y0024083D01*
X0158225Y0024024D01*
X0158373Y0023962D01*
X0158520Y0023897D01*
X0158665Y0023828D01*
X0158808Y0023755D01*
X0158950Y0023678D01*
X0159089Y0023599D01*
X0159227Y0023516D01*
X0159362Y0023429D01*
X0159495Y0023339D01*
X0159626Y0023246D01*
X0159755Y0023150D01*
X0159881Y0023050D01*
X0160005Y0022947D01*
X0160126Y0022842D01*
X0160244Y0022733D01*
X0160360Y0022622D01*
X0160473Y0022507D01*
X0160583Y0022390D01*
X0160690Y0022271D01*
X0160794Y0022148D01*
X0160895Y0022023D01*
X0160993Y0021896D01*
X0161088Y0021766D01*
X0161179Y0021634D01*
X0161268Y0021500D01*
X0161353Y0021363D01*
X0161434Y0021225D01*
X0161512Y0021084D01*
X0161587Y0020942D01*
X0161658Y0020798D01*
X0161725Y0020652D01*
X0161789Y0020504D01*
X0161849Y0020355D01*
X0161905Y0020205D01*
X0161958Y0020053D01*
X0162007Y0019900D01*
X0162052Y0019746D01*
X0162093Y0019591D01*
X0162131Y0019434D01*
X0162164Y0019277D01*
X0162194Y0019119D01*
X0162220Y0018961D01*
X0162241Y0018801D01*
X0162259Y0018642D01*
X0162273Y0018482D01*
X0162283Y0018321D01*
X0162289Y0018161D01*
X0162291Y0018000D01*
X0162289Y0017839D01*
X0162283Y0017679D01*
X0162273Y0017518D01*
X0162259Y0017358D01*
X0162241Y0017199D01*
X0162220Y0017039D01*
X0162194Y0016881D01*
X0162164Y0016723D01*
X0162131Y0016566D01*
X0162093Y0016409D01*
X0162052Y0016254D01*
X0162007Y0016100D01*
X0161958Y0015947D01*
X0161905Y0015795D01*
X0161849Y0015645D01*
X0161789Y0015496D01*
X0161725Y0015348D01*
X0161658Y0015202D01*
X0161587Y0015058D01*
X0161512Y0014916D01*
X0161434Y0014775D01*
X0161353Y0014637D01*
X0161268Y0014500D01*
X0161179Y0014366D01*
X0161088Y0014234D01*
X0160993Y0014104D01*
X0160895Y0013977D01*
X0160794Y0013852D01*
X0160690Y0013729D01*
X0160583Y0013610D01*
X0160473Y0013493D01*
X0160360Y0013378D01*
X0160244Y0013267D01*
X0160126Y0013158D01*
X0160005Y0013053D01*
X0159881Y0012950D01*
X0159755Y0012850D01*
X0159626Y0012754D01*
X0159495Y0012661D01*
X0159362Y0012571D01*
X0159227Y0012484D01*
X0159089Y0012401D01*
X0158950Y0012322D01*
X0158808Y0012245D01*
X0158665Y0012172D01*
X0158520Y0012103D01*
X0158373Y0012038D01*
X0158225Y0011976D01*
X0158075Y0011917D01*
X0157924Y0011863D01*
X0157772Y0011812D01*
X0157618Y0011765D01*
X0157463Y0011722D01*
X0157308Y0011683D01*
X0157151Y0011647D01*
X0156993Y0011615D01*
X0156835Y0011588D01*
X0156676Y0011564D01*
X0156517Y0011544D01*
X0156357Y0011528D01*
X0156196Y0011516D01*
X0156036Y0011508D01*
X0155875Y0011504D01*
X0155715Y0011504D01*
X0155554Y0011508D01*
X0155394Y0011516D01*
X0155233Y0011528D01*
X0155073Y0011544D01*
X0154914Y0011564D01*
X0154755Y0011588D01*
X0154597Y0011615D01*
X0154439Y0011647D01*
X0154282Y0011683D01*
X0154127Y0011722D01*
X0153972Y0011765D01*
X0153818Y0011812D01*
X0153666Y0011863D01*
X0153515Y0011917D01*
X0153365Y0011976D01*
X0153217Y0012038D01*
X0153070Y0012103D01*
X0152925Y0012172D01*
X0152782Y0012245D01*
X0152640Y0012322D01*
X0152501Y0012401D01*
X0152363Y0012484D01*
X0152228Y0012571D01*
X0152095Y0012661D01*
X0151964Y0012754D01*
X0151835Y0012850D01*
X0151709Y0012950D01*
X0151585Y0013053D01*
X0151464Y0013158D01*
X0151346Y0013267D01*
X0151230Y0013378D01*
X0151117Y0013493D01*
X0151007Y0013610D01*
X0150900Y0013729D01*
X0150796Y0013852D01*
X0150695Y0013977D01*
X0150597Y0014104D01*
X0150502Y0014234D01*
X0150411Y0014366D01*
X0150322Y0014500D01*
X0150237Y0014637D01*
X0150156Y0014775D01*
X0150078Y0014916D01*
X0150003Y0015058D01*
X0149932Y0015202D01*
X0149865Y0015348D01*
X0149801Y0015496D01*
X0149741Y0015645D01*
X0149685Y0015795D01*
X0149632Y0015947D01*
X0149583Y0016100D01*
X0149538Y0016254D01*
X0149497Y0016409D01*
X0149459Y0016566D01*
X0149426Y0016723D01*
X0149396Y0016881D01*
X0149370Y0017039D01*
X0149349Y0017199D01*
X0149331Y0017358D01*
X0149317Y0017518D01*
X0149307Y0017679D01*
X0149301Y0017839D01*
X0149299Y0018000D01*
X0188669Y0018000D02*
X0188671Y0018161D01*
X0188677Y0018321D01*
X0188687Y0018482D01*
X0188701Y0018642D01*
X0188719Y0018801D01*
X0188740Y0018961D01*
X0188766Y0019119D01*
X0188796Y0019277D01*
X0188829Y0019434D01*
X0188867Y0019591D01*
X0188908Y0019746D01*
X0188953Y0019900D01*
X0189002Y0020053D01*
X0189055Y0020205D01*
X0189111Y0020355D01*
X0189171Y0020504D01*
X0189235Y0020652D01*
X0189302Y0020798D01*
X0189373Y0020942D01*
X0189448Y0021084D01*
X0189526Y0021225D01*
X0189607Y0021363D01*
X0189692Y0021500D01*
X0189781Y0021634D01*
X0189872Y0021766D01*
X0189967Y0021896D01*
X0190065Y0022023D01*
X0190166Y0022148D01*
X0190270Y0022271D01*
X0190377Y0022390D01*
X0190487Y0022507D01*
X0190600Y0022622D01*
X0190716Y0022733D01*
X0190834Y0022842D01*
X0190955Y0022947D01*
X0191079Y0023050D01*
X0191205Y0023150D01*
X0191334Y0023246D01*
X0191465Y0023339D01*
X0191598Y0023429D01*
X0191733Y0023516D01*
X0191871Y0023599D01*
X0192010Y0023678D01*
X0192152Y0023755D01*
X0192295Y0023828D01*
X0192440Y0023897D01*
X0192587Y0023962D01*
X0192735Y0024024D01*
X0192885Y0024083D01*
X0193036Y0024137D01*
X0193188Y0024188D01*
X0193342Y0024235D01*
X0193497Y0024278D01*
X0193652Y0024317D01*
X0193809Y0024353D01*
X0193967Y0024385D01*
X0194125Y0024412D01*
X0194284Y0024436D01*
X0194443Y0024456D01*
X0194603Y0024472D01*
X0194764Y0024484D01*
X0194924Y0024492D01*
X0195085Y0024496D01*
X0195245Y0024496D01*
X0195406Y0024492D01*
X0195566Y0024484D01*
X0195727Y0024472D01*
X0195887Y0024456D01*
X0196046Y0024436D01*
X0196205Y0024412D01*
X0196363Y0024385D01*
X0196521Y0024353D01*
X0196678Y0024317D01*
X0196833Y0024278D01*
X0196988Y0024235D01*
X0197142Y0024188D01*
X0197294Y0024137D01*
X0197445Y0024083D01*
X0197595Y0024024D01*
X0197743Y0023962D01*
X0197890Y0023897D01*
X0198035Y0023828D01*
X0198178Y0023755D01*
X0198320Y0023678D01*
X0198459Y0023599D01*
X0198597Y0023516D01*
X0198732Y0023429D01*
X0198865Y0023339D01*
X0198996Y0023246D01*
X0199125Y0023150D01*
X0199251Y0023050D01*
X0199375Y0022947D01*
X0199496Y0022842D01*
X0199614Y0022733D01*
X0199730Y0022622D01*
X0199843Y0022507D01*
X0199953Y0022390D01*
X0200060Y0022271D01*
X0200164Y0022148D01*
X0200265Y0022023D01*
X0200363Y0021896D01*
X0200458Y0021766D01*
X0200549Y0021634D01*
X0200638Y0021500D01*
X0200723Y0021363D01*
X0200804Y0021225D01*
X0200882Y0021084D01*
X0200957Y0020942D01*
X0201028Y0020798D01*
X0201095Y0020652D01*
X0201159Y0020504D01*
X0201219Y0020355D01*
X0201275Y0020205D01*
X0201328Y0020053D01*
X0201377Y0019900D01*
X0201422Y0019746D01*
X0201463Y0019591D01*
X0201501Y0019434D01*
X0201534Y0019277D01*
X0201564Y0019119D01*
X0201590Y0018961D01*
X0201611Y0018801D01*
X0201629Y0018642D01*
X0201643Y0018482D01*
X0201653Y0018321D01*
X0201659Y0018161D01*
X0201661Y0018000D01*
X0201659Y0017839D01*
X0201653Y0017679D01*
X0201643Y0017518D01*
X0201629Y0017358D01*
X0201611Y0017199D01*
X0201590Y0017039D01*
X0201564Y0016881D01*
X0201534Y0016723D01*
X0201501Y0016566D01*
X0201463Y0016409D01*
X0201422Y0016254D01*
X0201377Y0016100D01*
X0201328Y0015947D01*
X0201275Y0015795D01*
X0201219Y0015645D01*
X0201159Y0015496D01*
X0201095Y0015348D01*
X0201028Y0015202D01*
X0200957Y0015058D01*
X0200882Y0014916D01*
X0200804Y0014775D01*
X0200723Y0014637D01*
X0200638Y0014500D01*
X0200549Y0014366D01*
X0200458Y0014234D01*
X0200363Y0014104D01*
X0200265Y0013977D01*
X0200164Y0013852D01*
X0200060Y0013729D01*
X0199953Y0013610D01*
X0199843Y0013493D01*
X0199730Y0013378D01*
X0199614Y0013267D01*
X0199496Y0013158D01*
X0199375Y0013053D01*
X0199251Y0012950D01*
X0199125Y0012850D01*
X0198996Y0012754D01*
X0198865Y0012661D01*
X0198732Y0012571D01*
X0198597Y0012484D01*
X0198459Y0012401D01*
X0198320Y0012322D01*
X0198178Y0012245D01*
X0198035Y0012172D01*
X0197890Y0012103D01*
X0197743Y0012038D01*
X0197595Y0011976D01*
X0197445Y0011917D01*
X0197294Y0011863D01*
X0197142Y0011812D01*
X0196988Y0011765D01*
X0196833Y0011722D01*
X0196678Y0011683D01*
X0196521Y0011647D01*
X0196363Y0011615D01*
X0196205Y0011588D01*
X0196046Y0011564D01*
X0195887Y0011544D01*
X0195727Y0011528D01*
X0195566Y0011516D01*
X0195406Y0011508D01*
X0195245Y0011504D01*
X0195085Y0011504D01*
X0194924Y0011508D01*
X0194764Y0011516D01*
X0194603Y0011528D01*
X0194443Y0011544D01*
X0194284Y0011564D01*
X0194125Y0011588D01*
X0193967Y0011615D01*
X0193809Y0011647D01*
X0193652Y0011683D01*
X0193497Y0011722D01*
X0193342Y0011765D01*
X0193188Y0011812D01*
X0193036Y0011863D01*
X0192885Y0011917D01*
X0192735Y0011976D01*
X0192587Y0012038D01*
X0192440Y0012103D01*
X0192295Y0012172D01*
X0192152Y0012245D01*
X0192010Y0012322D01*
X0191871Y0012401D01*
X0191733Y0012484D01*
X0191598Y0012571D01*
X0191465Y0012661D01*
X0191334Y0012754D01*
X0191205Y0012850D01*
X0191079Y0012950D01*
X0190955Y0013053D01*
X0190834Y0013158D01*
X0190716Y0013267D01*
X0190600Y0013378D01*
X0190487Y0013493D01*
X0190377Y0013610D01*
X0190270Y0013729D01*
X0190166Y0013852D01*
X0190065Y0013977D01*
X0189967Y0014104D01*
X0189872Y0014234D01*
X0189781Y0014366D01*
X0189692Y0014500D01*
X0189607Y0014637D01*
X0189526Y0014775D01*
X0189448Y0014916D01*
X0189373Y0015058D01*
X0189302Y0015202D01*
X0189235Y0015348D01*
X0189171Y0015496D01*
X0189111Y0015645D01*
X0189055Y0015795D01*
X0189002Y0015947D01*
X0188953Y0016100D01*
X0188908Y0016254D01*
X0188867Y0016409D01*
X0188829Y0016566D01*
X0188796Y0016723D01*
X0188766Y0016881D01*
X0188740Y0017039D01*
X0188719Y0017199D01*
X0188701Y0017358D01*
X0188687Y0017518D01*
X0188677Y0017679D01*
X0188671Y0017839D01*
X0188669Y0018000D01*
D11*
X0215591Y0020307D02*
X0215591Y0023210D01*
X0217526Y0023210D01*
X0218537Y0023210D02*
X0220472Y0023210D01*
X0219505Y0023210D02*
X0219505Y0020307D01*
X0221484Y0020307D02*
X0222935Y0020307D01*
X0223419Y0020791D01*
X0223419Y0022726D01*
X0222935Y0023210D01*
X0221484Y0023210D01*
X0221484Y0020307D01*
X0224430Y0020307D02*
X0225398Y0020307D01*
X0224914Y0020307D02*
X0224914Y0023210D01*
X0224430Y0023210D02*
X0225398Y0023210D01*
X0216558Y0021759D02*
X0215591Y0021759D01*
X0226307Y0030907D02*
X0226307Y0033810D01*
X0227759Y0033810D01*
X0228242Y0033326D01*
X0228242Y0032359D01*
X0227759Y0031875D01*
X0226307Y0031875D01*
X0227275Y0031875D02*
X0228242Y0030907D01*
X0229254Y0030907D02*
X0231189Y0030907D01*
X0230221Y0030907D02*
X0230221Y0033810D01*
X0229254Y0032842D01*
X0257307Y0026810D02*
X0257307Y0023907D01*
X0258759Y0023907D01*
X0259242Y0024391D01*
X0259242Y0026326D01*
X0258759Y0026810D01*
X0257307Y0026810D01*
X0260254Y0025842D02*
X0261221Y0026810D01*
X0261221Y0023907D01*
X0260254Y0023907D02*
X0262189Y0023907D01*
X0274468Y0014542D02*
X0275435Y0015510D01*
X0275435Y0012607D01*
X0274468Y0012607D02*
X0276403Y0012607D01*
X0277414Y0012607D02*
X0277414Y0015510D01*
X0279349Y0015510D02*
X0279349Y0012607D01*
X0278382Y0013575D01*
X0277414Y0012607D01*
X0280361Y0012607D02*
X0280361Y0015510D01*
X0281812Y0015510D01*
X0282296Y0015026D01*
X0282296Y0014059D01*
X0281812Y0013575D01*
X0280361Y0013575D01*
X0281328Y0013575D02*
X0282296Y0012607D01*
X0311289Y0049914D02*
X0313224Y0049914D01*
X0313707Y0050398D01*
X0313707Y0051366D01*
X0313224Y0051849D01*
X0313707Y0052861D02*
X0311773Y0054796D01*
X0311289Y0054796D01*
X0310805Y0054312D01*
X0310805Y0053345D01*
X0311289Y0052861D01*
X0311289Y0051849D02*
X0310805Y0051366D01*
X0310805Y0050398D01*
X0311289Y0049914D01*
X0313707Y0052861D02*
X0313707Y0054796D01*
X0313224Y0059914D02*
X0311289Y0059914D01*
X0310805Y0060398D01*
X0310805Y0061366D01*
X0311289Y0061849D01*
X0311289Y0062861D02*
X0310805Y0063345D01*
X0310805Y0064312D01*
X0311289Y0064796D01*
X0311773Y0064796D01*
X0312256Y0064312D01*
X0312740Y0064796D01*
X0313224Y0064796D01*
X0313707Y0064312D01*
X0313707Y0063345D01*
X0313224Y0062861D01*
X0313224Y0061849D02*
X0313707Y0061366D01*
X0313707Y0060398D01*
X0313224Y0059914D01*
X0312256Y0063828D02*
X0312256Y0064312D01*
X0333305Y0061328D02*
X0336207Y0061328D01*
X0336207Y0060361D02*
X0336207Y0062296D01*
X0334273Y0060361D02*
X0333305Y0061328D01*
X0333789Y0059349D02*
X0333305Y0058866D01*
X0333305Y0057898D01*
X0333789Y0057414D01*
X0335724Y0057414D01*
X0336207Y0057898D01*
X0336207Y0058866D01*
X0335724Y0059349D01*
X0336007Y0071307D02*
X0336007Y0072275D01*
X0336007Y0071791D02*
X0333105Y0071791D01*
X0333105Y0071307D02*
X0333105Y0072275D01*
X0333589Y0073272D02*
X0333105Y0073756D01*
X0333105Y0074723D01*
X0333589Y0075207D01*
X0334073Y0076218D02*
X0333105Y0077186D01*
X0336007Y0077186D01*
X0336007Y0078153D02*
X0336007Y0076218D01*
X0335524Y0075207D02*
X0336007Y0074723D01*
X0336007Y0073756D01*
X0335524Y0073272D01*
X0333589Y0073272D01*
X0328707Y0084914D02*
X0325805Y0084914D01*
X0325805Y0086366D01*
X0326289Y0086849D01*
X0327256Y0086849D01*
X0327740Y0086366D01*
X0327740Y0084914D01*
X0327740Y0085882D02*
X0328707Y0086849D01*
X0328707Y0087861D02*
X0326773Y0089796D01*
X0326289Y0089796D01*
X0325805Y0089312D01*
X0325805Y0088345D01*
X0326289Y0087861D01*
X0328707Y0087861D02*
X0328707Y0089796D01*
X0328707Y0094914D02*
X0325805Y0094914D01*
X0325805Y0096366D01*
X0326289Y0096849D01*
X0327256Y0096849D01*
X0327740Y0096366D01*
X0327740Y0094914D01*
X0327740Y0095882D02*
X0328707Y0096849D01*
X0328224Y0097861D02*
X0328707Y0098345D01*
X0328707Y0099312D01*
X0328224Y0099796D01*
X0327740Y0099796D01*
X0327256Y0099312D01*
X0327256Y0098828D01*
X0327256Y0099312D02*
X0326773Y0099796D01*
X0326289Y0099796D01*
X0325805Y0099312D01*
X0325805Y0098345D01*
X0326289Y0097861D01*
X0305205Y0088710D02*
X0303754Y0087259D01*
X0305689Y0087259D01*
X0305205Y0088710D02*
X0305205Y0085807D01*
X0302742Y0086291D02*
X0302259Y0085807D01*
X0301291Y0085807D01*
X0300807Y0086291D01*
X0300807Y0088226D01*
X0301291Y0088710D01*
X0302259Y0088710D01*
X0302742Y0088226D01*
D12*
X0320350Y0079236D02*
X0325961Y0079236D01*
X0325961Y0067079D01*
X0320350Y0067079D01*
X0320350Y0079236D01*
X0310657Y0033157D02*
X0305657Y0033157D01*
X0303157Y0030657D01*
X0303157Y0015657D01*
X0300657Y0013157D01*
X0295657Y0013157D01*
X0293157Y0015657D01*
X0290657Y0013157D01*
X0285657Y0013157D01*
X0283157Y0015657D01*
X0283157Y0030657D01*
X0285657Y0033157D01*
X0290657Y0033157D01*
X0293157Y0030657D01*
X0293157Y0015657D01*
X0303157Y0015657D02*
X0305657Y0013157D01*
X0310657Y0013157D01*
X0313157Y0015657D01*
X0313157Y0030657D01*
X0310657Y0033157D01*
X0303157Y0030657D02*
X0300657Y0033157D01*
X0295657Y0033157D01*
X0293157Y0030657D01*
X0270157Y0026757D02*
X0270157Y0020757D01*
X0270155Y0020697D01*
X0270150Y0020636D01*
X0270141Y0020577D01*
X0270128Y0020518D01*
X0270112Y0020459D01*
X0270092Y0020402D01*
X0270069Y0020347D01*
X0270042Y0020292D01*
X0270013Y0020240D01*
X0269980Y0020189D01*
X0269944Y0020140D01*
X0269906Y0020094D01*
X0269864Y0020050D01*
X0269820Y0020008D01*
X0269774Y0019970D01*
X0269725Y0019934D01*
X0269674Y0019901D01*
X0269622Y0019872D01*
X0269567Y0019845D01*
X0269512Y0019822D01*
X0269455Y0019802D01*
X0269396Y0019786D01*
X0269337Y0019773D01*
X0269278Y0019764D01*
X0269217Y0019759D01*
X0269157Y0019757D01*
X0253157Y0019757D01*
X0253097Y0019759D01*
X0253036Y0019764D01*
X0252977Y0019773D01*
X0252918Y0019786D01*
X0252859Y0019802D01*
X0252802Y0019822D01*
X0252747Y0019845D01*
X0252692Y0019872D01*
X0252640Y0019901D01*
X0252589Y0019934D01*
X0252540Y0019970D01*
X0252494Y0020008D01*
X0252450Y0020050D01*
X0252408Y0020094D01*
X0252370Y0020140D01*
X0252334Y0020189D01*
X0252301Y0020240D01*
X0252272Y0020292D01*
X0252245Y0020347D01*
X0252222Y0020402D01*
X0252202Y0020459D01*
X0252186Y0020518D01*
X0252173Y0020577D01*
X0252164Y0020636D01*
X0252159Y0020697D01*
X0252157Y0020757D01*
X0252157Y0026757D01*
X0252159Y0026817D01*
X0252164Y0026878D01*
X0252173Y0026937D01*
X0252186Y0026996D01*
X0252202Y0027055D01*
X0252222Y0027112D01*
X0252245Y0027167D01*
X0252272Y0027222D01*
X0252301Y0027274D01*
X0252334Y0027325D01*
X0252370Y0027374D01*
X0252408Y0027420D01*
X0252450Y0027464D01*
X0252494Y0027506D01*
X0252540Y0027544D01*
X0252589Y0027580D01*
X0252640Y0027613D01*
X0252692Y0027642D01*
X0252747Y0027669D01*
X0252802Y0027692D01*
X0252859Y0027712D01*
X0252918Y0027728D01*
X0252977Y0027741D01*
X0253036Y0027750D01*
X0253097Y0027755D01*
X0253157Y0027757D01*
X0269157Y0027757D01*
X0269217Y0027755D01*
X0269278Y0027750D01*
X0269337Y0027741D01*
X0269396Y0027728D01*
X0269455Y0027712D01*
X0269512Y0027692D01*
X0269567Y0027669D01*
X0269622Y0027642D01*
X0269674Y0027613D01*
X0269725Y0027580D01*
X0269774Y0027544D01*
X0269820Y0027506D01*
X0269864Y0027464D01*
X0269906Y0027420D01*
X0269944Y0027374D01*
X0269980Y0027325D01*
X0270013Y0027274D01*
X0270042Y0027222D01*
X0270069Y0027167D01*
X0270092Y0027112D01*
X0270112Y0027055D01*
X0270128Y0026996D01*
X0270141Y0026937D01*
X0270150Y0026878D01*
X0270155Y0026817D01*
X0270157Y0026757D01*
X0265157Y0026257D02*
X0261157Y0023757D01*
X0261157Y0021257D01*
X0261157Y0023757D02*
X0258657Y0023757D01*
X0261157Y0023757D02*
X0261157Y0026257D01*
X0265157Y0026257D02*
X0265157Y0021257D01*
X0261157Y0023757D01*
X0267157Y0023757D01*
X0252843Y0017126D02*
X0252843Y0013189D01*
X0250874Y0011220D01*
X0246937Y0011220D01*
X0244969Y0013189D01*
X0244969Y0017126D01*
X0246937Y0019094D01*
X0250874Y0019094D01*
X0252843Y0017126D01*
X0244969Y0017126D02*
X0243000Y0019094D01*
X0239063Y0019094D01*
X0237094Y0017126D01*
X0237094Y0013189D01*
X0239063Y0011220D01*
X0243000Y0011220D01*
X0244969Y0013189D01*
X0237094Y0013189D02*
X0235126Y0011220D01*
X0231189Y0011220D01*
X0229220Y0013189D01*
X0229220Y0017126D01*
X0231189Y0019094D01*
X0235126Y0019094D01*
X0237094Y0017126D01*
X0229220Y0017126D02*
X0227252Y0019094D01*
X0223315Y0019094D01*
X0221346Y0017126D01*
X0221346Y0013189D01*
X0223315Y0011220D01*
X0227252Y0011220D01*
X0229220Y0013189D01*
X0221346Y0013189D02*
X0219378Y0011220D01*
X0215441Y0011220D01*
X0213472Y0013189D01*
X0213472Y0017126D01*
X0215441Y0019094D01*
X0219378Y0019094D01*
X0221346Y0017126D01*
X0217157Y0025357D02*
X0215657Y0025357D01*
X0215597Y0025359D01*
X0215536Y0025364D01*
X0215477Y0025373D01*
X0215418Y0025386D01*
X0215359Y0025402D01*
X0215302Y0025422D01*
X0215247Y0025445D01*
X0215192Y0025472D01*
X0215140Y0025501D01*
X0215089Y0025534D01*
X0215040Y0025570D01*
X0214994Y0025608D01*
X0214950Y0025650D01*
X0214908Y0025694D01*
X0214870Y0025740D01*
X0214834Y0025789D01*
X0214801Y0025840D01*
X0214772Y0025892D01*
X0214745Y0025947D01*
X0214722Y0026002D01*
X0214702Y0026059D01*
X0214686Y0026118D01*
X0214673Y0026177D01*
X0214664Y0026236D01*
X0214659Y0026297D01*
X0214657Y0026357D01*
X0217157Y0025357D02*
X0217657Y0025857D01*
X0236657Y0025857D01*
X0237157Y0025357D01*
X0238657Y0025357D01*
X0238717Y0025359D01*
X0238778Y0025364D01*
X0238837Y0025373D01*
X0238896Y0025386D01*
X0238955Y0025402D01*
X0239012Y0025422D01*
X0239067Y0025445D01*
X0239122Y0025472D01*
X0239174Y0025501D01*
X0239225Y0025534D01*
X0239274Y0025570D01*
X0239320Y0025608D01*
X0239364Y0025650D01*
X0239406Y0025694D01*
X0239444Y0025740D01*
X0239480Y0025789D01*
X0239513Y0025840D01*
X0239542Y0025892D01*
X0239569Y0025947D01*
X0239592Y0026002D01*
X0239612Y0026059D01*
X0239628Y0026118D01*
X0239641Y0026177D01*
X0239650Y0026236D01*
X0239655Y0026297D01*
X0239657Y0026357D01*
X0239657Y0033357D02*
X0239655Y0033417D01*
X0239650Y0033478D01*
X0239641Y0033537D01*
X0239628Y0033596D01*
X0239612Y0033655D01*
X0239592Y0033712D01*
X0239569Y0033767D01*
X0239542Y0033822D01*
X0239513Y0033874D01*
X0239480Y0033925D01*
X0239444Y0033974D01*
X0239406Y0034020D01*
X0239364Y0034064D01*
X0239320Y0034106D01*
X0239274Y0034144D01*
X0239225Y0034180D01*
X0239174Y0034213D01*
X0239122Y0034242D01*
X0239067Y0034269D01*
X0239012Y0034292D01*
X0238955Y0034312D01*
X0238896Y0034328D01*
X0238837Y0034341D01*
X0238778Y0034350D01*
X0238717Y0034355D01*
X0238657Y0034357D01*
X0237157Y0034357D01*
X0236657Y0033857D01*
X0217657Y0033857D01*
X0217157Y0034357D01*
X0215657Y0034357D01*
X0215597Y0034355D01*
X0215536Y0034350D01*
X0215477Y0034341D01*
X0215418Y0034328D01*
X0215359Y0034312D01*
X0215302Y0034292D01*
X0215247Y0034269D01*
X0215192Y0034242D01*
X0215140Y0034213D01*
X0215089Y0034180D01*
X0215040Y0034144D01*
X0214994Y0034106D01*
X0214950Y0034064D01*
X0214908Y0034020D01*
X0214870Y0033974D01*
X0214834Y0033925D01*
X0214801Y0033874D01*
X0214772Y0033822D01*
X0214745Y0033767D01*
X0214722Y0033712D01*
X0214702Y0033655D01*
X0214686Y0033596D01*
X0214673Y0033537D01*
X0214664Y0033478D01*
X0214659Y0033417D01*
X0214657Y0033357D01*
X0181665Y0018000D02*
X0181669Y0018331D01*
X0181681Y0018662D01*
X0181702Y0018993D01*
X0181730Y0019323D01*
X0181767Y0019653D01*
X0181811Y0019981D01*
X0181864Y0020308D01*
X0181924Y0020634D01*
X0181993Y0020958D01*
X0182070Y0021280D01*
X0182154Y0021601D01*
X0182246Y0021919D01*
X0182346Y0022235D01*
X0182454Y0022548D01*
X0182570Y0022859D01*
X0182693Y0023166D01*
X0182823Y0023471D01*
X0182961Y0023772D01*
X0183106Y0024070D01*
X0183259Y0024364D01*
X0183419Y0024654D01*
X0183586Y0024940D01*
X0183759Y0025222D01*
X0183940Y0025500D01*
X0184128Y0025773D01*
X0184322Y0026042D01*
X0184522Y0026306D01*
X0184729Y0026564D01*
X0184943Y0026818D01*
X0185162Y0027066D01*
X0185388Y0027309D01*
X0185619Y0027546D01*
X0185856Y0027777D01*
X0186099Y0028003D01*
X0186347Y0028222D01*
X0186601Y0028436D01*
X0186859Y0028643D01*
X0187123Y0028843D01*
X0187392Y0029037D01*
X0187665Y0029225D01*
X0187943Y0029406D01*
X0188225Y0029579D01*
X0188511Y0029746D01*
X0188801Y0029906D01*
X0189095Y0030059D01*
X0189393Y0030204D01*
X0189694Y0030342D01*
X0189999Y0030472D01*
X0190306Y0030595D01*
X0190617Y0030711D01*
X0190930Y0030819D01*
X0191246Y0030919D01*
X0191564Y0031011D01*
X0191885Y0031095D01*
X0192207Y0031172D01*
X0192531Y0031241D01*
X0192857Y0031301D01*
X0193184Y0031354D01*
X0193512Y0031398D01*
X0193842Y0031435D01*
X0194172Y0031463D01*
X0194503Y0031484D01*
X0194834Y0031496D01*
X0195165Y0031500D01*
X0195496Y0031496D01*
X0195827Y0031484D01*
X0196158Y0031463D01*
X0196488Y0031435D01*
X0196818Y0031398D01*
X0197146Y0031354D01*
X0197473Y0031301D01*
X0197799Y0031241D01*
X0198123Y0031172D01*
X0198445Y0031095D01*
X0198766Y0031011D01*
X0199084Y0030919D01*
X0199400Y0030819D01*
X0199713Y0030711D01*
X0200024Y0030595D01*
X0200331Y0030472D01*
X0200636Y0030342D01*
X0200937Y0030204D01*
X0201235Y0030059D01*
X0201529Y0029906D01*
X0201819Y0029746D01*
X0202105Y0029579D01*
X0202387Y0029406D01*
X0202665Y0029225D01*
X0202938Y0029037D01*
X0203207Y0028843D01*
X0203471Y0028643D01*
X0203729Y0028436D01*
X0203983Y0028222D01*
X0204231Y0028003D01*
X0204474Y0027777D01*
X0204711Y0027546D01*
X0204942Y0027309D01*
X0205168Y0027066D01*
X0205387Y0026818D01*
X0205601Y0026564D01*
X0205808Y0026306D01*
X0206008Y0026042D01*
X0206202Y0025773D01*
X0206390Y0025500D01*
X0206571Y0025222D01*
X0206744Y0024940D01*
X0206911Y0024654D01*
X0207071Y0024364D01*
X0207224Y0024070D01*
X0207369Y0023772D01*
X0207507Y0023471D01*
X0207637Y0023166D01*
X0207760Y0022859D01*
X0207876Y0022548D01*
X0207984Y0022235D01*
X0208084Y0021919D01*
X0208176Y0021601D01*
X0208260Y0021280D01*
X0208337Y0020958D01*
X0208406Y0020634D01*
X0208466Y0020308D01*
X0208519Y0019981D01*
X0208563Y0019653D01*
X0208600Y0019323D01*
X0208628Y0018993D01*
X0208649Y0018662D01*
X0208661Y0018331D01*
X0208665Y0018000D01*
X0208661Y0017669D01*
X0208649Y0017338D01*
X0208628Y0017007D01*
X0208600Y0016677D01*
X0208563Y0016347D01*
X0208519Y0016019D01*
X0208466Y0015692D01*
X0208406Y0015366D01*
X0208337Y0015042D01*
X0208260Y0014720D01*
X0208176Y0014399D01*
X0208084Y0014081D01*
X0207984Y0013765D01*
X0207876Y0013452D01*
X0207760Y0013141D01*
X0207637Y0012834D01*
X0207507Y0012529D01*
X0207369Y0012228D01*
X0207224Y0011930D01*
X0207071Y0011636D01*
X0206911Y0011346D01*
X0206744Y0011060D01*
X0206571Y0010778D01*
X0206390Y0010500D01*
X0206202Y0010227D01*
X0206008Y0009958D01*
X0205808Y0009694D01*
X0205601Y0009436D01*
X0205387Y0009182D01*
X0205168Y0008934D01*
X0204942Y0008691D01*
X0204711Y0008454D01*
X0204474Y0008223D01*
X0204231Y0007997D01*
X0203983Y0007778D01*
X0203729Y0007564D01*
X0203471Y0007357D01*
X0203207Y0007157D01*
X0202938Y0006963D01*
X0202665Y0006775D01*
X0202387Y0006594D01*
X0202105Y0006421D01*
X0201819Y0006254D01*
X0201529Y0006094D01*
X0201235Y0005941D01*
X0200937Y0005796D01*
X0200636Y0005658D01*
X0200331Y0005528D01*
X0200024Y0005405D01*
X0199713Y0005289D01*
X0199400Y0005181D01*
X0199084Y0005081D01*
X0198766Y0004989D01*
X0198445Y0004905D01*
X0198123Y0004828D01*
X0197799Y0004759D01*
X0197473Y0004699D01*
X0197146Y0004646D01*
X0196818Y0004602D01*
X0196488Y0004565D01*
X0196158Y0004537D01*
X0195827Y0004516D01*
X0195496Y0004504D01*
X0195165Y0004500D01*
X0194834Y0004504D01*
X0194503Y0004516D01*
X0194172Y0004537D01*
X0193842Y0004565D01*
X0193512Y0004602D01*
X0193184Y0004646D01*
X0192857Y0004699D01*
X0192531Y0004759D01*
X0192207Y0004828D01*
X0191885Y0004905D01*
X0191564Y0004989D01*
X0191246Y0005081D01*
X0190930Y0005181D01*
X0190617Y0005289D01*
X0190306Y0005405D01*
X0189999Y0005528D01*
X0189694Y0005658D01*
X0189393Y0005796D01*
X0189095Y0005941D01*
X0188801Y0006094D01*
X0188511Y0006254D01*
X0188225Y0006421D01*
X0187943Y0006594D01*
X0187665Y0006775D01*
X0187392Y0006963D01*
X0187123Y0007157D01*
X0186859Y0007357D01*
X0186601Y0007564D01*
X0186347Y0007778D01*
X0186099Y0007997D01*
X0185856Y0008223D01*
X0185619Y0008454D01*
X0185388Y0008691D01*
X0185162Y0008934D01*
X0184943Y0009182D01*
X0184729Y0009436D01*
X0184522Y0009694D01*
X0184322Y0009958D01*
X0184128Y0010227D01*
X0183940Y0010500D01*
X0183759Y0010778D01*
X0183586Y0011060D01*
X0183419Y0011346D01*
X0183259Y0011636D01*
X0183106Y0011930D01*
X0182961Y0012228D01*
X0182823Y0012529D01*
X0182693Y0012834D01*
X0182570Y0013141D01*
X0182454Y0013452D01*
X0182346Y0013765D01*
X0182246Y0014081D01*
X0182154Y0014399D01*
X0182070Y0014720D01*
X0181993Y0015042D01*
X0181924Y0015366D01*
X0181864Y0015692D01*
X0181811Y0016019D01*
X0181767Y0016347D01*
X0181730Y0016677D01*
X0181702Y0017007D01*
X0181681Y0017338D01*
X0181669Y0017669D01*
X0181665Y0018000D01*
X0142295Y0018000D02*
X0142299Y0018331D01*
X0142311Y0018662D01*
X0142332Y0018993D01*
X0142360Y0019323D01*
X0142397Y0019653D01*
X0142441Y0019981D01*
X0142494Y0020308D01*
X0142554Y0020634D01*
X0142623Y0020958D01*
X0142700Y0021280D01*
X0142784Y0021601D01*
X0142876Y0021919D01*
X0142976Y0022235D01*
X0143084Y0022548D01*
X0143200Y0022859D01*
X0143323Y0023166D01*
X0143453Y0023471D01*
X0143591Y0023772D01*
X0143736Y0024070D01*
X0143889Y0024364D01*
X0144049Y0024654D01*
X0144216Y0024940D01*
X0144389Y0025222D01*
X0144570Y0025500D01*
X0144758Y0025773D01*
X0144952Y0026042D01*
X0145152Y0026306D01*
X0145359Y0026564D01*
X0145573Y0026818D01*
X0145792Y0027066D01*
X0146018Y0027309D01*
X0146249Y0027546D01*
X0146486Y0027777D01*
X0146729Y0028003D01*
X0146977Y0028222D01*
X0147231Y0028436D01*
X0147489Y0028643D01*
X0147753Y0028843D01*
X0148022Y0029037D01*
X0148295Y0029225D01*
X0148573Y0029406D01*
X0148855Y0029579D01*
X0149141Y0029746D01*
X0149431Y0029906D01*
X0149725Y0030059D01*
X0150023Y0030204D01*
X0150324Y0030342D01*
X0150629Y0030472D01*
X0150936Y0030595D01*
X0151247Y0030711D01*
X0151560Y0030819D01*
X0151876Y0030919D01*
X0152194Y0031011D01*
X0152515Y0031095D01*
X0152837Y0031172D01*
X0153161Y0031241D01*
X0153487Y0031301D01*
X0153814Y0031354D01*
X0154142Y0031398D01*
X0154472Y0031435D01*
X0154802Y0031463D01*
X0155133Y0031484D01*
X0155464Y0031496D01*
X0155795Y0031500D01*
X0156126Y0031496D01*
X0156457Y0031484D01*
X0156788Y0031463D01*
X0157118Y0031435D01*
X0157448Y0031398D01*
X0157776Y0031354D01*
X0158103Y0031301D01*
X0158429Y0031241D01*
X0158753Y0031172D01*
X0159075Y0031095D01*
X0159396Y0031011D01*
X0159714Y0030919D01*
X0160030Y0030819D01*
X0160343Y0030711D01*
X0160654Y0030595D01*
X0160961Y0030472D01*
X0161266Y0030342D01*
X0161567Y0030204D01*
X0161865Y0030059D01*
X0162159Y0029906D01*
X0162449Y0029746D01*
X0162735Y0029579D01*
X0163017Y0029406D01*
X0163295Y0029225D01*
X0163568Y0029037D01*
X0163837Y0028843D01*
X0164101Y0028643D01*
X0164359Y0028436D01*
X0164613Y0028222D01*
X0164861Y0028003D01*
X0165104Y0027777D01*
X0165341Y0027546D01*
X0165572Y0027309D01*
X0165798Y0027066D01*
X0166017Y0026818D01*
X0166231Y0026564D01*
X0166438Y0026306D01*
X0166638Y0026042D01*
X0166832Y0025773D01*
X0167020Y0025500D01*
X0167201Y0025222D01*
X0167374Y0024940D01*
X0167541Y0024654D01*
X0167701Y0024364D01*
X0167854Y0024070D01*
X0167999Y0023772D01*
X0168137Y0023471D01*
X0168267Y0023166D01*
X0168390Y0022859D01*
X0168506Y0022548D01*
X0168614Y0022235D01*
X0168714Y0021919D01*
X0168806Y0021601D01*
X0168890Y0021280D01*
X0168967Y0020958D01*
X0169036Y0020634D01*
X0169096Y0020308D01*
X0169149Y0019981D01*
X0169193Y0019653D01*
X0169230Y0019323D01*
X0169258Y0018993D01*
X0169279Y0018662D01*
X0169291Y0018331D01*
X0169295Y0018000D01*
X0169291Y0017669D01*
X0169279Y0017338D01*
X0169258Y0017007D01*
X0169230Y0016677D01*
X0169193Y0016347D01*
X0169149Y0016019D01*
X0169096Y0015692D01*
X0169036Y0015366D01*
X0168967Y0015042D01*
X0168890Y0014720D01*
X0168806Y0014399D01*
X0168714Y0014081D01*
X0168614Y0013765D01*
X0168506Y0013452D01*
X0168390Y0013141D01*
X0168267Y0012834D01*
X0168137Y0012529D01*
X0167999Y0012228D01*
X0167854Y0011930D01*
X0167701Y0011636D01*
X0167541Y0011346D01*
X0167374Y0011060D01*
X0167201Y0010778D01*
X0167020Y0010500D01*
X0166832Y0010227D01*
X0166638Y0009958D01*
X0166438Y0009694D01*
X0166231Y0009436D01*
X0166017Y0009182D01*
X0165798Y0008934D01*
X0165572Y0008691D01*
X0165341Y0008454D01*
X0165104Y0008223D01*
X0164861Y0007997D01*
X0164613Y0007778D01*
X0164359Y0007564D01*
X0164101Y0007357D01*
X0163837Y0007157D01*
X0163568Y0006963D01*
X0163295Y0006775D01*
X0163017Y0006594D01*
X0162735Y0006421D01*
X0162449Y0006254D01*
X0162159Y0006094D01*
X0161865Y0005941D01*
X0161567Y0005796D01*
X0161266Y0005658D01*
X0160961Y0005528D01*
X0160654Y0005405D01*
X0160343Y0005289D01*
X0160030Y0005181D01*
X0159714Y0005081D01*
X0159396Y0004989D01*
X0159075Y0004905D01*
X0158753Y0004828D01*
X0158429Y0004759D01*
X0158103Y0004699D01*
X0157776Y0004646D01*
X0157448Y0004602D01*
X0157118Y0004565D01*
X0156788Y0004537D01*
X0156457Y0004516D01*
X0156126Y0004504D01*
X0155795Y0004500D01*
X0155464Y0004504D01*
X0155133Y0004516D01*
X0154802Y0004537D01*
X0154472Y0004565D01*
X0154142Y0004602D01*
X0153814Y0004646D01*
X0153487Y0004699D01*
X0153161Y0004759D01*
X0152837Y0004828D01*
X0152515Y0004905D01*
X0152194Y0004989D01*
X0151876Y0005081D01*
X0151560Y0005181D01*
X0151247Y0005289D01*
X0150936Y0005405D01*
X0150629Y0005528D01*
X0150324Y0005658D01*
X0150023Y0005796D01*
X0149725Y0005941D01*
X0149431Y0006094D01*
X0149141Y0006254D01*
X0148855Y0006421D01*
X0148573Y0006594D01*
X0148295Y0006775D01*
X0148022Y0006963D01*
X0147753Y0007157D01*
X0147489Y0007357D01*
X0147231Y0007564D01*
X0146977Y0007778D01*
X0146729Y0007997D01*
X0146486Y0008223D01*
X0146249Y0008454D01*
X0146018Y0008691D01*
X0145792Y0008934D01*
X0145573Y0009182D01*
X0145359Y0009436D01*
X0145152Y0009694D01*
X0144952Y0009958D01*
X0144758Y0010227D01*
X0144570Y0010500D01*
X0144389Y0010778D01*
X0144216Y0011060D01*
X0144049Y0011346D01*
X0143889Y0011636D01*
X0143736Y0011930D01*
X0143591Y0012228D01*
X0143453Y0012529D01*
X0143323Y0012834D01*
X0143200Y0013141D01*
X0143084Y0013452D01*
X0142976Y0013765D01*
X0142876Y0014081D01*
X0142784Y0014399D01*
X0142700Y0014720D01*
X0142623Y0015042D01*
X0142554Y0015366D01*
X0142494Y0015692D01*
X0142441Y0016019D01*
X0142397Y0016347D01*
X0142360Y0016677D01*
X0142332Y0017007D01*
X0142311Y0017338D01*
X0142299Y0017669D01*
X0142295Y0018000D01*
X0121157Y0040157D02*
X0121157Y0041157D01*
X0121157Y0040157D02*
X0120157Y0040157D01*
X0116157Y0040157D02*
X0115157Y0040157D01*
X0115157Y0041157D01*
X0115157Y0045157D02*
X0115157Y0046157D01*
X0116157Y0046157D01*
X0120157Y0046157D02*
X0121157Y0046157D01*
X0121157Y0045157D01*
X0121157Y0050157D02*
X0121157Y0051157D01*
X0121157Y0050157D02*
X0120157Y0050157D01*
X0116157Y0050157D02*
X0115157Y0050157D01*
X0115157Y0051157D01*
X0115157Y0055157D02*
X0115157Y0056157D01*
X0116157Y0056157D01*
X0120157Y0056157D02*
X0121157Y0056157D01*
X0121157Y0055157D01*
X0121157Y0060157D02*
X0121157Y0061157D01*
X0121157Y0060157D02*
X0120157Y0060157D01*
X0116157Y0060157D02*
X0115157Y0060157D01*
X0115157Y0061157D01*
X0115157Y0065157D02*
X0115157Y0066157D01*
X0116157Y0066157D01*
X0120157Y0066157D02*
X0121157Y0066157D01*
X0121157Y0065157D01*
X0121157Y0070157D02*
X0121157Y0071157D01*
X0121157Y0070157D02*
X0120157Y0070157D01*
X0116157Y0070157D02*
X0115157Y0070157D01*
X0115157Y0071157D01*
X0115157Y0075157D02*
X0115157Y0076157D01*
X0116157Y0076157D01*
X0120157Y0076157D02*
X0121157Y0076157D01*
X0121157Y0075157D01*
X0004500Y0018000D02*
X0004504Y0018331D01*
X0004516Y0018662D01*
X0004537Y0018993D01*
X0004565Y0019323D01*
X0004602Y0019653D01*
X0004646Y0019981D01*
X0004699Y0020308D01*
X0004759Y0020634D01*
X0004828Y0020958D01*
X0004905Y0021280D01*
X0004989Y0021601D01*
X0005081Y0021919D01*
X0005181Y0022235D01*
X0005289Y0022548D01*
X0005405Y0022859D01*
X0005528Y0023166D01*
X0005658Y0023471D01*
X0005796Y0023772D01*
X0005941Y0024070D01*
X0006094Y0024364D01*
X0006254Y0024654D01*
X0006421Y0024940D01*
X0006594Y0025222D01*
X0006775Y0025500D01*
X0006963Y0025773D01*
X0007157Y0026042D01*
X0007357Y0026306D01*
X0007564Y0026564D01*
X0007778Y0026818D01*
X0007997Y0027066D01*
X0008223Y0027309D01*
X0008454Y0027546D01*
X0008691Y0027777D01*
X0008934Y0028003D01*
X0009182Y0028222D01*
X0009436Y0028436D01*
X0009694Y0028643D01*
X0009958Y0028843D01*
X0010227Y0029037D01*
X0010500Y0029225D01*
X0010778Y0029406D01*
X0011060Y0029579D01*
X0011346Y0029746D01*
X0011636Y0029906D01*
X0011930Y0030059D01*
X0012228Y0030204D01*
X0012529Y0030342D01*
X0012834Y0030472D01*
X0013141Y0030595D01*
X0013452Y0030711D01*
X0013765Y0030819D01*
X0014081Y0030919D01*
X0014399Y0031011D01*
X0014720Y0031095D01*
X0015042Y0031172D01*
X0015366Y0031241D01*
X0015692Y0031301D01*
X0016019Y0031354D01*
X0016347Y0031398D01*
X0016677Y0031435D01*
X0017007Y0031463D01*
X0017338Y0031484D01*
X0017669Y0031496D01*
X0018000Y0031500D01*
X0018331Y0031496D01*
X0018662Y0031484D01*
X0018993Y0031463D01*
X0019323Y0031435D01*
X0019653Y0031398D01*
X0019981Y0031354D01*
X0020308Y0031301D01*
X0020634Y0031241D01*
X0020958Y0031172D01*
X0021280Y0031095D01*
X0021601Y0031011D01*
X0021919Y0030919D01*
X0022235Y0030819D01*
X0022548Y0030711D01*
X0022859Y0030595D01*
X0023166Y0030472D01*
X0023471Y0030342D01*
X0023772Y0030204D01*
X0024070Y0030059D01*
X0024364Y0029906D01*
X0024654Y0029746D01*
X0024940Y0029579D01*
X0025222Y0029406D01*
X0025500Y0029225D01*
X0025773Y0029037D01*
X0026042Y0028843D01*
X0026306Y0028643D01*
X0026564Y0028436D01*
X0026818Y0028222D01*
X0027066Y0028003D01*
X0027309Y0027777D01*
X0027546Y0027546D01*
X0027777Y0027309D01*
X0028003Y0027066D01*
X0028222Y0026818D01*
X0028436Y0026564D01*
X0028643Y0026306D01*
X0028843Y0026042D01*
X0029037Y0025773D01*
X0029225Y0025500D01*
X0029406Y0025222D01*
X0029579Y0024940D01*
X0029746Y0024654D01*
X0029906Y0024364D01*
X0030059Y0024070D01*
X0030204Y0023772D01*
X0030342Y0023471D01*
X0030472Y0023166D01*
X0030595Y0022859D01*
X0030711Y0022548D01*
X0030819Y0022235D01*
X0030919Y0021919D01*
X0031011Y0021601D01*
X0031095Y0021280D01*
X0031172Y0020958D01*
X0031241Y0020634D01*
X0031301Y0020308D01*
X0031354Y0019981D01*
X0031398Y0019653D01*
X0031435Y0019323D01*
X0031463Y0018993D01*
X0031484Y0018662D01*
X0031496Y0018331D01*
X0031500Y0018000D01*
X0031496Y0017669D01*
X0031484Y0017338D01*
X0031463Y0017007D01*
X0031435Y0016677D01*
X0031398Y0016347D01*
X0031354Y0016019D01*
X0031301Y0015692D01*
X0031241Y0015366D01*
X0031172Y0015042D01*
X0031095Y0014720D01*
X0031011Y0014399D01*
X0030919Y0014081D01*
X0030819Y0013765D01*
X0030711Y0013452D01*
X0030595Y0013141D01*
X0030472Y0012834D01*
X0030342Y0012529D01*
X0030204Y0012228D01*
X0030059Y0011930D01*
X0029906Y0011636D01*
X0029746Y0011346D01*
X0029579Y0011060D01*
X0029406Y0010778D01*
X0029225Y0010500D01*
X0029037Y0010227D01*
X0028843Y0009958D01*
X0028643Y0009694D01*
X0028436Y0009436D01*
X0028222Y0009182D01*
X0028003Y0008934D01*
X0027777Y0008691D01*
X0027546Y0008454D01*
X0027309Y0008223D01*
X0027066Y0007997D01*
X0026818Y0007778D01*
X0026564Y0007564D01*
X0026306Y0007357D01*
X0026042Y0007157D01*
X0025773Y0006963D01*
X0025500Y0006775D01*
X0025222Y0006594D01*
X0024940Y0006421D01*
X0024654Y0006254D01*
X0024364Y0006094D01*
X0024070Y0005941D01*
X0023772Y0005796D01*
X0023471Y0005658D01*
X0023166Y0005528D01*
X0022859Y0005405D01*
X0022548Y0005289D01*
X0022235Y0005181D01*
X0021919Y0005081D01*
X0021601Y0004989D01*
X0021280Y0004905D01*
X0020958Y0004828D01*
X0020634Y0004759D01*
X0020308Y0004699D01*
X0019981Y0004646D01*
X0019653Y0004602D01*
X0019323Y0004565D01*
X0018993Y0004537D01*
X0018662Y0004516D01*
X0018331Y0004504D01*
X0018000Y0004500D01*
X0017669Y0004504D01*
X0017338Y0004516D01*
X0017007Y0004537D01*
X0016677Y0004565D01*
X0016347Y0004602D01*
X0016019Y0004646D01*
X0015692Y0004699D01*
X0015366Y0004759D01*
X0015042Y0004828D01*
X0014720Y0004905D01*
X0014399Y0004989D01*
X0014081Y0005081D01*
X0013765Y0005181D01*
X0013452Y0005289D01*
X0013141Y0005405D01*
X0012834Y0005528D01*
X0012529Y0005658D01*
X0012228Y0005796D01*
X0011930Y0005941D01*
X0011636Y0006094D01*
X0011346Y0006254D01*
X0011060Y0006421D01*
X0010778Y0006594D01*
X0010500Y0006775D01*
X0010227Y0006963D01*
X0009958Y0007157D01*
X0009694Y0007357D01*
X0009436Y0007564D01*
X0009182Y0007778D01*
X0008934Y0007997D01*
X0008691Y0008223D01*
X0008454Y0008454D01*
X0008223Y0008691D01*
X0007997Y0008934D01*
X0007778Y0009182D01*
X0007564Y0009436D01*
X0007357Y0009694D01*
X0007157Y0009958D01*
X0006963Y0010227D01*
X0006775Y0010500D01*
X0006594Y0010778D01*
X0006421Y0011060D01*
X0006254Y0011346D01*
X0006094Y0011636D01*
X0005941Y0011930D01*
X0005796Y0012228D01*
X0005658Y0012529D01*
X0005528Y0012834D01*
X0005405Y0013141D01*
X0005289Y0013452D01*
X0005181Y0013765D01*
X0005081Y0014081D01*
X0004989Y0014399D01*
X0004905Y0014720D01*
X0004828Y0015042D01*
X0004759Y0015366D01*
X0004699Y0015692D01*
X0004646Y0016019D01*
X0004602Y0016347D01*
X0004565Y0016677D01*
X0004537Y0017007D01*
X0004516Y0017338D01*
X0004504Y0017669D01*
X0004500Y0018000D01*
X0004000Y0141795D02*
X0004000Y0169795D01*
X0032000Y0169795D01*
X0032000Y0141795D01*
X0004000Y0141795D01*
X0142295Y0155795D02*
X0142299Y0156126D01*
X0142311Y0156457D01*
X0142332Y0156788D01*
X0142360Y0157118D01*
X0142397Y0157448D01*
X0142441Y0157776D01*
X0142494Y0158103D01*
X0142554Y0158429D01*
X0142623Y0158753D01*
X0142700Y0159075D01*
X0142784Y0159396D01*
X0142876Y0159714D01*
X0142976Y0160030D01*
X0143084Y0160343D01*
X0143200Y0160654D01*
X0143323Y0160961D01*
X0143453Y0161266D01*
X0143591Y0161567D01*
X0143736Y0161865D01*
X0143889Y0162159D01*
X0144049Y0162449D01*
X0144216Y0162735D01*
X0144389Y0163017D01*
X0144570Y0163295D01*
X0144758Y0163568D01*
X0144952Y0163837D01*
X0145152Y0164101D01*
X0145359Y0164359D01*
X0145573Y0164613D01*
X0145792Y0164861D01*
X0146018Y0165104D01*
X0146249Y0165341D01*
X0146486Y0165572D01*
X0146729Y0165798D01*
X0146977Y0166017D01*
X0147231Y0166231D01*
X0147489Y0166438D01*
X0147753Y0166638D01*
X0148022Y0166832D01*
X0148295Y0167020D01*
X0148573Y0167201D01*
X0148855Y0167374D01*
X0149141Y0167541D01*
X0149431Y0167701D01*
X0149725Y0167854D01*
X0150023Y0167999D01*
X0150324Y0168137D01*
X0150629Y0168267D01*
X0150936Y0168390D01*
X0151247Y0168506D01*
X0151560Y0168614D01*
X0151876Y0168714D01*
X0152194Y0168806D01*
X0152515Y0168890D01*
X0152837Y0168967D01*
X0153161Y0169036D01*
X0153487Y0169096D01*
X0153814Y0169149D01*
X0154142Y0169193D01*
X0154472Y0169230D01*
X0154802Y0169258D01*
X0155133Y0169279D01*
X0155464Y0169291D01*
X0155795Y0169295D01*
X0156126Y0169291D01*
X0156457Y0169279D01*
X0156788Y0169258D01*
X0157118Y0169230D01*
X0157448Y0169193D01*
X0157776Y0169149D01*
X0158103Y0169096D01*
X0158429Y0169036D01*
X0158753Y0168967D01*
X0159075Y0168890D01*
X0159396Y0168806D01*
X0159714Y0168714D01*
X0160030Y0168614D01*
X0160343Y0168506D01*
X0160654Y0168390D01*
X0160961Y0168267D01*
X0161266Y0168137D01*
X0161567Y0167999D01*
X0161865Y0167854D01*
X0162159Y0167701D01*
X0162449Y0167541D01*
X0162735Y0167374D01*
X0163017Y0167201D01*
X0163295Y0167020D01*
X0163568Y0166832D01*
X0163837Y0166638D01*
X0164101Y0166438D01*
X0164359Y0166231D01*
X0164613Y0166017D01*
X0164861Y0165798D01*
X0165104Y0165572D01*
X0165341Y0165341D01*
X0165572Y0165104D01*
X0165798Y0164861D01*
X0166017Y0164613D01*
X0166231Y0164359D01*
X0166438Y0164101D01*
X0166638Y0163837D01*
X0166832Y0163568D01*
X0167020Y0163295D01*
X0167201Y0163017D01*
X0167374Y0162735D01*
X0167541Y0162449D01*
X0167701Y0162159D01*
X0167854Y0161865D01*
X0167999Y0161567D01*
X0168137Y0161266D01*
X0168267Y0160961D01*
X0168390Y0160654D01*
X0168506Y0160343D01*
X0168614Y0160030D01*
X0168714Y0159714D01*
X0168806Y0159396D01*
X0168890Y0159075D01*
X0168967Y0158753D01*
X0169036Y0158429D01*
X0169096Y0158103D01*
X0169149Y0157776D01*
X0169193Y0157448D01*
X0169230Y0157118D01*
X0169258Y0156788D01*
X0169279Y0156457D01*
X0169291Y0156126D01*
X0169295Y0155795D01*
X0169291Y0155464D01*
X0169279Y0155133D01*
X0169258Y0154802D01*
X0169230Y0154472D01*
X0169193Y0154142D01*
X0169149Y0153814D01*
X0169096Y0153487D01*
X0169036Y0153161D01*
X0168967Y0152837D01*
X0168890Y0152515D01*
X0168806Y0152194D01*
X0168714Y0151876D01*
X0168614Y0151560D01*
X0168506Y0151247D01*
X0168390Y0150936D01*
X0168267Y0150629D01*
X0168137Y0150324D01*
X0167999Y0150023D01*
X0167854Y0149725D01*
X0167701Y0149431D01*
X0167541Y0149141D01*
X0167374Y0148855D01*
X0167201Y0148573D01*
X0167020Y0148295D01*
X0166832Y0148022D01*
X0166638Y0147753D01*
X0166438Y0147489D01*
X0166231Y0147231D01*
X0166017Y0146977D01*
X0165798Y0146729D01*
X0165572Y0146486D01*
X0165341Y0146249D01*
X0165104Y0146018D01*
X0164861Y0145792D01*
X0164613Y0145573D01*
X0164359Y0145359D01*
X0164101Y0145152D01*
X0163837Y0144952D01*
X0163568Y0144758D01*
X0163295Y0144570D01*
X0163017Y0144389D01*
X0162735Y0144216D01*
X0162449Y0144049D01*
X0162159Y0143889D01*
X0161865Y0143736D01*
X0161567Y0143591D01*
X0161266Y0143453D01*
X0160961Y0143323D01*
X0160654Y0143200D01*
X0160343Y0143084D01*
X0160030Y0142976D01*
X0159714Y0142876D01*
X0159396Y0142784D01*
X0159075Y0142700D01*
X0158753Y0142623D01*
X0158429Y0142554D01*
X0158103Y0142494D01*
X0157776Y0142441D01*
X0157448Y0142397D01*
X0157118Y0142360D01*
X0156788Y0142332D01*
X0156457Y0142311D01*
X0156126Y0142299D01*
X0155795Y0142295D01*
X0155464Y0142299D01*
X0155133Y0142311D01*
X0154802Y0142332D01*
X0154472Y0142360D01*
X0154142Y0142397D01*
X0153814Y0142441D01*
X0153487Y0142494D01*
X0153161Y0142554D01*
X0152837Y0142623D01*
X0152515Y0142700D01*
X0152194Y0142784D01*
X0151876Y0142876D01*
X0151560Y0142976D01*
X0151247Y0143084D01*
X0150936Y0143200D01*
X0150629Y0143323D01*
X0150324Y0143453D01*
X0150023Y0143591D01*
X0149725Y0143736D01*
X0149431Y0143889D01*
X0149141Y0144049D01*
X0148855Y0144216D01*
X0148573Y0144389D01*
X0148295Y0144570D01*
X0148022Y0144758D01*
X0147753Y0144952D01*
X0147489Y0145152D01*
X0147231Y0145359D01*
X0146977Y0145573D01*
X0146729Y0145792D01*
X0146486Y0146018D01*
X0146249Y0146249D01*
X0146018Y0146486D01*
X0145792Y0146729D01*
X0145573Y0146977D01*
X0145359Y0147231D01*
X0145152Y0147489D01*
X0144952Y0147753D01*
X0144758Y0148022D01*
X0144570Y0148295D01*
X0144389Y0148573D01*
X0144216Y0148855D01*
X0144049Y0149141D01*
X0143889Y0149431D01*
X0143736Y0149725D01*
X0143591Y0150023D01*
X0143453Y0150324D01*
X0143323Y0150629D01*
X0143200Y0150936D01*
X0143084Y0151247D01*
X0142976Y0151560D01*
X0142876Y0151876D01*
X0142784Y0152194D01*
X0142700Y0152515D01*
X0142623Y0152837D01*
X0142554Y0153161D01*
X0142494Y0153487D01*
X0142441Y0153814D01*
X0142397Y0154142D01*
X0142360Y0154472D01*
X0142332Y0154802D01*
X0142311Y0155133D01*
X0142299Y0155464D01*
X0142295Y0155795D01*
X0181665Y0155795D02*
X0181669Y0156126D01*
X0181681Y0156457D01*
X0181702Y0156788D01*
X0181730Y0157118D01*
X0181767Y0157448D01*
X0181811Y0157776D01*
X0181864Y0158103D01*
X0181924Y0158429D01*
X0181993Y0158753D01*
X0182070Y0159075D01*
X0182154Y0159396D01*
X0182246Y0159714D01*
X0182346Y0160030D01*
X0182454Y0160343D01*
X0182570Y0160654D01*
X0182693Y0160961D01*
X0182823Y0161266D01*
X0182961Y0161567D01*
X0183106Y0161865D01*
X0183259Y0162159D01*
X0183419Y0162449D01*
X0183586Y0162735D01*
X0183759Y0163017D01*
X0183940Y0163295D01*
X0184128Y0163568D01*
X0184322Y0163837D01*
X0184522Y0164101D01*
X0184729Y0164359D01*
X0184943Y0164613D01*
X0185162Y0164861D01*
X0185388Y0165104D01*
X0185619Y0165341D01*
X0185856Y0165572D01*
X0186099Y0165798D01*
X0186347Y0166017D01*
X0186601Y0166231D01*
X0186859Y0166438D01*
X0187123Y0166638D01*
X0187392Y0166832D01*
X0187665Y0167020D01*
X0187943Y0167201D01*
X0188225Y0167374D01*
X0188511Y0167541D01*
X0188801Y0167701D01*
X0189095Y0167854D01*
X0189393Y0167999D01*
X0189694Y0168137D01*
X0189999Y0168267D01*
X0190306Y0168390D01*
X0190617Y0168506D01*
X0190930Y0168614D01*
X0191246Y0168714D01*
X0191564Y0168806D01*
X0191885Y0168890D01*
X0192207Y0168967D01*
X0192531Y0169036D01*
X0192857Y0169096D01*
X0193184Y0169149D01*
X0193512Y0169193D01*
X0193842Y0169230D01*
X0194172Y0169258D01*
X0194503Y0169279D01*
X0194834Y0169291D01*
X0195165Y0169295D01*
X0195496Y0169291D01*
X0195827Y0169279D01*
X0196158Y0169258D01*
X0196488Y0169230D01*
X0196818Y0169193D01*
X0197146Y0169149D01*
X0197473Y0169096D01*
X0197799Y0169036D01*
X0198123Y0168967D01*
X0198445Y0168890D01*
X0198766Y0168806D01*
X0199084Y0168714D01*
X0199400Y0168614D01*
X0199713Y0168506D01*
X0200024Y0168390D01*
X0200331Y0168267D01*
X0200636Y0168137D01*
X0200937Y0167999D01*
X0201235Y0167854D01*
X0201529Y0167701D01*
X0201819Y0167541D01*
X0202105Y0167374D01*
X0202387Y0167201D01*
X0202665Y0167020D01*
X0202938Y0166832D01*
X0203207Y0166638D01*
X0203471Y0166438D01*
X0203729Y0166231D01*
X0203983Y0166017D01*
X0204231Y0165798D01*
X0204474Y0165572D01*
X0204711Y0165341D01*
X0204942Y0165104D01*
X0205168Y0164861D01*
X0205387Y0164613D01*
X0205601Y0164359D01*
X0205808Y0164101D01*
X0206008Y0163837D01*
X0206202Y0163568D01*
X0206390Y0163295D01*
X0206571Y0163017D01*
X0206744Y0162735D01*
X0206911Y0162449D01*
X0207071Y0162159D01*
X0207224Y0161865D01*
X0207369Y0161567D01*
X0207507Y0161266D01*
X0207637Y0160961D01*
X0207760Y0160654D01*
X0207876Y0160343D01*
X0207984Y0160030D01*
X0208084Y0159714D01*
X0208176Y0159396D01*
X0208260Y0159075D01*
X0208337Y0158753D01*
X0208406Y0158429D01*
X0208466Y0158103D01*
X0208519Y0157776D01*
X0208563Y0157448D01*
X0208600Y0157118D01*
X0208628Y0156788D01*
X0208649Y0156457D01*
X0208661Y0156126D01*
X0208665Y0155795D01*
X0208661Y0155464D01*
X0208649Y0155133D01*
X0208628Y0154802D01*
X0208600Y0154472D01*
X0208563Y0154142D01*
X0208519Y0153814D01*
X0208466Y0153487D01*
X0208406Y0153161D01*
X0208337Y0152837D01*
X0208260Y0152515D01*
X0208176Y0152194D01*
X0208084Y0151876D01*
X0207984Y0151560D01*
X0207876Y0151247D01*
X0207760Y0150936D01*
X0207637Y0150629D01*
X0207507Y0150324D01*
X0207369Y0150023D01*
X0207224Y0149725D01*
X0207071Y0149431D01*
X0206911Y0149141D01*
X0206744Y0148855D01*
X0206571Y0148573D01*
X0206390Y0148295D01*
X0206202Y0148022D01*
X0206008Y0147753D01*
X0205808Y0147489D01*
X0205601Y0147231D01*
X0205387Y0146977D01*
X0205168Y0146729D01*
X0204942Y0146486D01*
X0204711Y0146249D01*
X0204474Y0146018D01*
X0204231Y0145792D01*
X0203983Y0145573D01*
X0203729Y0145359D01*
X0203471Y0145152D01*
X0203207Y0144952D01*
X0202938Y0144758D01*
X0202665Y0144570D01*
X0202387Y0144389D01*
X0202105Y0144216D01*
X0201819Y0144049D01*
X0201529Y0143889D01*
X0201235Y0143736D01*
X0200937Y0143591D01*
X0200636Y0143453D01*
X0200331Y0143323D01*
X0200024Y0143200D01*
X0199713Y0143084D01*
X0199400Y0142976D01*
X0199084Y0142876D01*
X0198766Y0142784D01*
X0198445Y0142700D01*
X0198123Y0142623D01*
X0197799Y0142554D01*
X0197473Y0142494D01*
X0197146Y0142441D01*
X0196818Y0142397D01*
X0196488Y0142360D01*
X0196158Y0142332D01*
X0195827Y0142311D01*
X0195496Y0142299D01*
X0195165Y0142295D01*
X0194834Y0142299D01*
X0194503Y0142311D01*
X0194172Y0142332D01*
X0193842Y0142360D01*
X0193512Y0142397D01*
X0193184Y0142441D01*
X0192857Y0142494D01*
X0192531Y0142554D01*
X0192207Y0142623D01*
X0191885Y0142700D01*
X0191564Y0142784D01*
X0191246Y0142876D01*
X0190930Y0142976D01*
X0190617Y0143084D01*
X0190306Y0143200D01*
X0189999Y0143323D01*
X0189694Y0143453D01*
X0189393Y0143591D01*
X0189095Y0143736D01*
X0188801Y0143889D01*
X0188511Y0144049D01*
X0188225Y0144216D01*
X0187943Y0144389D01*
X0187665Y0144570D01*
X0187392Y0144758D01*
X0187123Y0144952D01*
X0186859Y0145152D01*
X0186601Y0145359D01*
X0186347Y0145573D01*
X0186099Y0145792D01*
X0185856Y0146018D01*
X0185619Y0146249D01*
X0185388Y0146486D01*
X0185162Y0146729D01*
X0184943Y0146977D01*
X0184729Y0147231D01*
X0184522Y0147489D01*
X0184322Y0147753D01*
X0184128Y0148022D01*
X0183940Y0148295D01*
X0183759Y0148573D01*
X0183586Y0148855D01*
X0183419Y0149141D01*
X0183259Y0149431D01*
X0183106Y0149725D01*
X0182961Y0150023D01*
X0182823Y0150324D01*
X0182693Y0150629D01*
X0182570Y0150936D01*
X0182454Y0151247D01*
X0182346Y0151560D01*
X0182246Y0151876D01*
X0182154Y0152194D01*
X0182070Y0152515D01*
X0181993Y0152837D01*
X0181924Y0153161D01*
X0181864Y0153487D01*
X0181811Y0153814D01*
X0181767Y0154142D01*
X0181730Y0154472D01*
X0181702Y0154802D01*
X0181681Y0155133D01*
X0181669Y0155464D01*
X0181665Y0155795D01*
X0318961Y0141795D02*
X0318961Y0169795D01*
X0346961Y0169795D01*
X0346961Y0141795D01*
X0318961Y0141795D01*
X0319461Y0018000D02*
X0319465Y0018331D01*
X0319477Y0018662D01*
X0319498Y0018993D01*
X0319526Y0019323D01*
X0319563Y0019653D01*
X0319607Y0019981D01*
X0319660Y0020308D01*
X0319720Y0020634D01*
X0319789Y0020958D01*
X0319866Y0021280D01*
X0319950Y0021601D01*
X0320042Y0021919D01*
X0320142Y0022235D01*
X0320250Y0022548D01*
X0320366Y0022859D01*
X0320489Y0023166D01*
X0320619Y0023471D01*
X0320757Y0023772D01*
X0320902Y0024070D01*
X0321055Y0024364D01*
X0321215Y0024654D01*
X0321382Y0024940D01*
X0321555Y0025222D01*
X0321736Y0025500D01*
X0321924Y0025773D01*
X0322118Y0026042D01*
X0322318Y0026306D01*
X0322525Y0026564D01*
X0322739Y0026818D01*
X0322958Y0027066D01*
X0323184Y0027309D01*
X0323415Y0027546D01*
X0323652Y0027777D01*
X0323895Y0028003D01*
X0324143Y0028222D01*
X0324397Y0028436D01*
X0324655Y0028643D01*
X0324919Y0028843D01*
X0325188Y0029037D01*
X0325461Y0029225D01*
X0325739Y0029406D01*
X0326021Y0029579D01*
X0326307Y0029746D01*
X0326597Y0029906D01*
X0326891Y0030059D01*
X0327189Y0030204D01*
X0327490Y0030342D01*
X0327795Y0030472D01*
X0328102Y0030595D01*
X0328413Y0030711D01*
X0328726Y0030819D01*
X0329042Y0030919D01*
X0329360Y0031011D01*
X0329681Y0031095D01*
X0330003Y0031172D01*
X0330327Y0031241D01*
X0330653Y0031301D01*
X0330980Y0031354D01*
X0331308Y0031398D01*
X0331638Y0031435D01*
X0331968Y0031463D01*
X0332299Y0031484D01*
X0332630Y0031496D01*
X0332961Y0031500D01*
X0333292Y0031496D01*
X0333623Y0031484D01*
X0333954Y0031463D01*
X0334284Y0031435D01*
X0334614Y0031398D01*
X0334942Y0031354D01*
X0335269Y0031301D01*
X0335595Y0031241D01*
X0335919Y0031172D01*
X0336241Y0031095D01*
X0336562Y0031011D01*
X0336880Y0030919D01*
X0337196Y0030819D01*
X0337509Y0030711D01*
X0337820Y0030595D01*
X0338127Y0030472D01*
X0338432Y0030342D01*
X0338733Y0030204D01*
X0339031Y0030059D01*
X0339325Y0029906D01*
X0339615Y0029746D01*
X0339901Y0029579D01*
X0340183Y0029406D01*
X0340461Y0029225D01*
X0340734Y0029037D01*
X0341003Y0028843D01*
X0341267Y0028643D01*
X0341525Y0028436D01*
X0341779Y0028222D01*
X0342027Y0028003D01*
X0342270Y0027777D01*
X0342507Y0027546D01*
X0342738Y0027309D01*
X0342964Y0027066D01*
X0343183Y0026818D01*
X0343397Y0026564D01*
X0343604Y0026306D01*
X0343804Y0026042D01*
X0343998Y0025773D01*
X0344186Y0025500D01*
X0344367Y0025222D01*
X0344540Y0024940D01*
X0344707Y0024654D01*
X0344867Y0024364D01*
X0345020Y0024070D01*
X0345165Y0023772D01*
X0345303Y0023471D01*
X0345433Y0023166D01*
X0345556Y0022859D01*
X0345672Y0022548D01*
X0345780Y0022235D01*
X0345880Y0021919D01*
X0345972Y0021601D01*
X0346056Y0021280D01*
X0346133Y0020958D01*
X0346202Y0020634D01*
X0346262Y0020308D01*
X0346315Y0019981D01*
X0346359Y0019653D01*
X0346396Y0019323D01*
X0346424Y0018993D01*
X0346445Y0018662D01*
X0346457Y0018331D01*
X0346461Y0018000D01*
X0346457Y0017669D01*
X0346445Y0017338D01*
X0346424Y0017007D01*
X0346396Y0016677D01*
X0346359Y0016347D01*
X0346315Y0016019D01*
X0346262Y0015692D01*
X0346202Y0015366D01*
X0346133Y0015042D01*
X0346056Y0014720D01*
X0345972Y0014399D01*
X0345880Y0014081D01*
X0345780Y0013765D01*
X0345672Y0013452D01*
X0345556Y0013141D01*
X0345433Y0012834D01*
X0345303Y0012529D01*
X0345165Y0012228D01*
X0345020Y0011930D01*
X0344867Y0011636D01*
X0344707Y0011346D01*
X0344540Y0011060D01*
X0344367Y0010778D01*
X0344186Y0010500D01*
X0343998Y0010227D01*
X0343804Y0009958D01*
X0343604Y0009694D01*
X0343397Y0009436D01*
X0343183Y0009182D01*
X0342964Y0008934D01*
X0342738Y0008691D01*
X0342507Y0008454D01*
X0342270Y0008223D01*
X0342027Y0007997D01*
X0341779Y0007778D01*
X0341525Y0007564D01*
X0341267Y0007357D01*
X0341003Y0007157D01*
X0340734Y0006963D01*
X0340461Y0006775D01*
X0340183Y0006594D01*
X0339901Y0006421D01*
X0339615Y0006254D01*
X0339325Y0006094D01*
X0339031Y0005941D01*
X0338733Y0005796D01*
X0338432Y0005658D01*
X0338127Y0005528D01*
X0337820Y0005405D01*
X0337509Y0005289D01*
X0337196Y0005181D01*
X0336880Y0005081D01*
X0336562Y0004989D01*
X0336241Y0004905D01*
X0335919Y0004828D01*
X0335595Y0004759D01*
X0335269Y0004699D01*
X0334942Y0004646D01*
X0334614Y0004602D01*
X0334284Y0004565D01*
X0333954Y0004537D01*
X0333623Y0004516D01*
X0333292Y0004504D01*
X0332961Y0004500D01*
X0332630Y0004504D01*
X0332299Y0004516D01*
X0331968Y0004537D01*
X0331638Y0004565D01*
X0331308Y0004602D01*
X0330980Y0004646D01*
X0330653Y0004699D01*
X0330327Y0004759D01*
X0330003Y0004828D01*
X0329681Y0004905D01*
X0329360Y0004989D01*
X0329042Y0005081D01*
X0328726Y0005181D01*
X0328413Y0005289D01*
X0328102Y0005405D01*
X0327795Y0005528D01*
X0327490Y0005658D01*
X0327189Y0005796D01*
X0326891Y0005941D01*
X0326597Y0006094D01*
X0326307Y0006254D01*
X0326021Y0006421D01*
X0325739Y0006594D01*
X0325461Y0006775D01*
X0325188Y0006963D01*
X0324919Y0007157D01*
X0324655Y0007357D01*
X0324397Y0007564D01*
X0324143Y0007778D01*
X0323895Y0007997D01*
X0323652Y0008223D01*
X0323415Y0008454D01*
X0323184Y0008691D01*
X0322958Y0008934D01*
X0322739Y0009182D01*
X0322525Y0009436D01*
X0322318Y0009694D01*
X0322118Y0009958D01*
X0321924Y0010227D01*
X0321736Y0010500D01*
X0321555Y0010778D01*
X0321382Y0011060D01*
X0321215Y0011346D01*
X0321055Y0011636D01*
X0320902Y0011930D01*
X0320757Y0012228D01*
X0320619Y0012529D01*
X0320489Y0012834D01*
X0320366Y0013141D01*
X0320250Y0013452D01*
X0320142Y0013765D01*
X0320042Y0014081D01*
X0319950Y0014399D01*
X0319866Y0014720D01*
X0319789Y0015042D01*
X0319720Y0015366D01*
X0319660Y0015692D01*
X0319607Y0016019D01*
X0319563Y0016347D01*
X0319526Y0016677D01*
X0319498Y0017007D01*
X0319477Y0017338D01*
X0319465Y0017669D01*
X0319461Y0018000D01*
D13*
X0326268Y0018000D02*
X0326270Y0018164D01*
X0326276Y0018328D01*
X0326286Y0018492D01*
X0326300Y0018656D01*
X0326318Y0018819D01*
X0326340Y0018982D01*
X0326367Y0019144D01*
X0326397Y0019306D01*
X0326431Y0019466D01*
X0326469Y0019626D01*
X0326510Y0019785D01*
X0326556Y0019943D01*
X0326606Y0020099D01*
X0326659Y0020255D01*
X0326716Y0020409D01*
X0326777Y0020561D01*
X0326842Y0020712D01*
X0326911Y0020862D01*
X0326983Y0021009D01*
X0327058Y0021155D01*
X0327138Y0021299D01*
X0327220Y0021441D01*
X0327306Y0021581D01*
X0327396Y0021718D01*
X0327489Y0021854D01*
X0327585Y0021987D01*
X0327685Y0022118D01*
X0327787Y0022246D01*
X0327893Y0022372D01*
X0328002Y0022495D01*
X0328114Y0022615D01*
X0328228Y0022733D01*
X0328346Y0022847D01*
X0328466Y0022959D01*
X0328589Y0023068D01*
X0328715Y0023174D01*
X0328843Y0023276D01*
X0328974Y0023376D01*
X0329107Y0023472D01*
X0329243Y0023565D01*
X0329380Y0023655D01*
X0329520Y0023741D01*
X0329662Y0023823D01*
X0329806Y0023903D01*
X0329952Y0023978D01*
X0330099Y0024050D01*
X0330249Y0024119D01*
X0330400Y0024184D01*
X0330552Y0024245D01*
X0330706Y0024302D01*
X0330862Y0024355D01*
X0331018Y0024405D01*
X0331176Y0024451D01*
X0331335Y0024492D01*
X0331495Y0024530D01*
X0331655Y0024564D01*
X0331817Y0024594D01*
X0331979Y0024621D01*
X0332142Y0024643D01*
X0332305Y0024661D01*
X0332469Y0024675D01*
X0332633Y0024685D01*
X0332797Y0024691D01*
X0332961Y0024693D01*
X0333125Y0024691D01*
X0333289Y0024685D01*
X0333453Y0024675D01*
X0333617Y0024661D01*
X0333780Y0024643D01*
X0333943Y0024621D01*
X0334105Y0024594D01*
X0334267Y0024564D01*
X0334427Y0024530D01*
X0334587Y0024492D01*
X0334746Y0024451D01*
X0334904Y0024405D01*
X0335060Y0024355D01*
X0335216Y0024302D01*
X0335370Y0024245D01*
X0335522Y0024184D01*
X0335673Y0024119D01*
X0335823Y0024050D01*
X0335970Y0023978D01*
X0336116Y0023903D01*
X0336260Y0023823D01*
X0336402Y0023741D01*
X0336542Y0023655D01*
X0336679Y0023565D01*
X0336815Y0023472D01*
X0336948Y0023376D01*
X0337079Y0023276D01*
X0337207Y0023174D01*
X0337333Y0023068D01*
X0337456Y0022959D01*
X0337576Y0022847D01*
X0337694Y0022733D01*
X0337808Y0022615D01*
X0337920Y0022495D01*
X0338029Y0022372D01*
X0338135Y0022246D01*
X0338237Y0022118D01*
X0338337Y0021987D01*
X0338433Y0021854D01*
X0338526Y0021718D01*
X0338616Y0021581D01*
X0338702Y0021441D01*
X0338784Y0021299D01*
X0338864Y0021155D01*
X0338939Y0021009D01*
X0339011Y0020862D01*
X0339080Y0020712D01*
X0339145Y0020561D01*
X0339206Y0020409D01*
X0339263Y0020255D01*
X0339316Y0020099D01*
X0339366Y0019943D01*
X0339412Y0019785D01*
X0339453Y0019626D01*
X0339491Y0019466D01*
X0339525Y0019306D01*
X0339555Y0019144D01*
X0339582Y0018982D01*
X0339604Y0018819D01*
X0339622Y0018656D01*
X0339636Y0018492D01*
X0339646Y0018328D01*
X0339652Y0018164D01*
X0339654Y0018000D01*
X0339652Y0017836D01*
X0339646Y0017672D01*
X0339636Y0017508D01*
X0339622Y0017344D01*
X0339604Y0017181D01*
X0339582Y0017018D01*
X0339555Y0016856D01*
X0339525Y0016694D01*
X0339491Y0016534D01*
X0339453Y0016374D01*
X0339412Y0016215D01*
X0339366Y0016057D01*
X0339316Y0015901D01*
X0339263Y0015745D01*
X0339206Y0015591D01*
X0339145Y0015439D01*
X0339080Y0015288D01*
X0339011Y0015138D01*
X0338939Y0014991D01*
X0338864Y0014845D01*
X0338784Y0014701D01*
X0338702Y0014559D01*
X0338616Y0014419D01*
X0338526Y0014282D01*
X0338433Y0014146D01*
X0338337Y0014013D01*
X0338237Y0013882D01*
X0338135Y0013754D01*
X0338029Y0013628D01*
X0337920Y0013505D01*
X0337808Y0013385D01*
X0337694Y0013267D01*
X0337576Y0013153D01*
X0337456Y0013041D01*
X0337333Y0012932D01*
X0337207Y0012826D01*
X0337079Y0012724D01*
X0336948Y0012624D01*
X0336815Y0012528D01*
X0336679Y0012435D01*
X0336542Y0012345D01*
X0336402Y0012259D01*
X0336260Y0012177D01*
X0336116Y0012097D01*
X0335970Y0012022D01*
X0335823Y0011950D01*
X0335673Y0011881D01*
X0335522Y0011816D01*
X0335370Y0011755D01*
X0335216Y0011698D01*
X0335060Y0011645D01*
X0334904Y0011595D01*
X0334746Y0011549D01*
X0334587Y0011508D01*
X0334427Y0011470D01*
X0334267Y0011436D01*
X0334105Y0011406D01*
X0333943Y0011379D01*
X0333780Y0011357D01*
X0333617Y0011339D01*
X0333453Y0011325D01*
X0333289Y0011315D01*
X0333125Y0011309D01*
X0332961Y0011307D01*
X0332797Y0011309D01*
X0332633Y0011315D01*
X0332469Y0011325D01*
X0332305Y0011339D01*
X0332142Y0011357D01*
X0331979Y0011379D01*
X0331817Y0011406D01*
X0331655Y0011436D01*
X0331495Y0011470D01*
X0331335Y0011508D01*
X0331176Y0011549D01*
X0331018Y0011595D01*
X0330862Y0011645D01*
X0330706Y0011698D01*
X0330552Y0011755D01*
X0330400Y0011816D01*
X0330249Y0011881D01*
X0330099Y0011950D01*
X0329952Y0012022D01*
X0329806Y0012097D01*
X0329662Y0012177D01*
X0329520Y0012259D01*
X0329380Y0012345D01*
X0329243Y0012435D01*
X0329107Y0012528D01*
X0328974Y0012624D01*
X0328843Y0012724D01*
X0328715Y0012826D01*
X0328589Y0012932D01*
X0328466Y0013041D01*
X0328346Y0013153D01*
X0328228Y0013267D01*
X0328114Y0013385D01*
X0328002Y0013505D01*
X0327893Y0013628D01*
X0327787Y0013754D01*
X0327685Y0013882D01*
X0327585Y0014013D01*
X0327489Y0014146D01*
X0327396Y0014282D01*
X0327306Y0014419D01*
X0327220Y0014559D01*
X0327138Y0014701D01*
X0327058Y0014845D01*
X0326983Y0014991D01*
X0326911Y0015138D01*
X0326842Y0015288D01*
X0326777Y0015439D01*
X0326716Y0015591D01*
X0326659Y0015745D01*
X0326606Y0015901D01*
X0326556Y0016057D01*
X0326510Y0016215D01*
X0326469Y0016374D01*
X0326431Y0016534D01*
X0326397Y0016694D01*
X0326367Y0016856D01*
X0326340Y0017018D01*
X0326318Y0017181D01*
X0326300Y0017344D01*
X0326286Y0017508D01*
X0326276Y0017672D01*
X0326270Y0017836D01*
X0326268Y0018000D01*
X0188275Y0018000D02*
X0188277Y0018169D01*
X0188283Y0018338D01*
X0188294Y0018507D01*
X0188308Y0018675D01*
X0188327Y0018843D01*
X0188350Y0019011D01*
X0188376Y0019178D01*
X0188407Y0019344D01*
X0188442Y0019510D01*
X0188481Y0019674D01*
X0188525Y0019838D01*
X0188572Y0020000D01*
X0188623Y0020161D01*
X0188678Y0020321D01*
X0188737Y0020480D01*
X0188799Y0020637D01*
X0188866Y0020792D01*
X0188937Y0020946D01*
X0189011Y0021098D01*
X0189089Y0021248D01*
X0189170Y0021396D01*
X0189255Y0021542D01*
X0189344Y0021686D01*
X0189436Y0021828D01*
X0189532Y0021967D01*
X0189631Y0022104D01*
X0189733Y0022239D01*
X0189839Y0022371D01*
X0189948Y0022500D01*
X0190060Y0022627D01*
X0190175Y0022751D01*
X0190293Y0022872D01*
X0190414Y0022990D01*
X0190538Y0023105D01*
X0190665Y0023217D01*
X0190794Y0023326D01*
X0190926Y0023432D01*
X0191061Y0023534D01*
X0191198Y0023633D01*
X0191337Y0023729D01*
X0191479Y0023821D01*
X0191623Y0023910D01*
X0191769Y0023995D01*
X0191917Y0024076D01*
X0192067Y0024154D01*
X0192219Y0024228D01*
X0192373Y0024299D01*
X0192528Y0024366D01*
X0192685Y0024428D01*
X0192844Y0024487D01*
X0193004Y0024542D01*
X0193165Y0024593D01*
X0193327Y0024640D01*
X0193491Y0024684D01*
X0193655Y0024723D01*
X0193821Y0024758D01*
X0193987Y0024789D01*
X0194154Y0024815D01*
X0194322Y0024838D01*
X0194490Y0024857D01*
X0194658Y0024871D01*
X0194827Y0024882D01*
X0194996Y0024888D01*
X0195165Y0024890D01*
X0195334Y0024888D01*
X0195503Y0024882D01*
X0195672Y0024871D01*
X0195840Y0024857D01*
X0196008Y0024838D01*
X0196176Y0024815D01*
X0196343Y0024789D01*
X0196509Y0024758D01*
X0196675Y0024723D01*
X0196839Y0024684D01*
X0197003Y0024640D01*
X0197165Y0024593D01*
X0197326Y0024542D01*
X0197486Y0024487D01*
X0197645Y0024428D01*
X0197802Y0024366D01*
X0197957Y0024299D01*
X0198111Y0024228D01*
X0198263Y0024154D01*
X0198413Y0024076D01*
X0198561Y0023995D01*
X0198707Y0023910D01*
X0198851Y0023821D01*
X0198993Y0023729D01*
X0199132Y0023633D01*
X0199269Y0023534D01*
X0199404Y0023432D01*
X0199536Y0023326D01*
X0199665Y0023217D01*
X0199792Y0023105D01*
X0199916Y0022990D01*
X0200037Y0022872D01*
X0200155Y0022751D01*
X0200270Y0022627D01*
X0200382Y0022500D01*
X0200491Y0022371D01*
X0200597Y0022239D01*
X0200699Y0022104D01*
X0200798Y0021967D01*
X0200894Y0021828D01*
X0200986Y0021686D01*
X0201075Y0021542D01*
X0201160Y0021396D01*
X0201241Y0021248D01*
X0201319Y0021098D01*
X0201393Y0020946D01*
X0201464Y0020792D01*
X0201531Y0020637D01*
X0201593Y0020480D01*
X0201652Y0020321D01*
X0201707Y0020161D01*
X0201758Y0020000D01*
X0201805Y0019838D01*
X0201849Y0019674D01*
X0201888Y0019510D01*
X0201923Y0019344D01*
X0201954Y0019178D01*
X0201980Y0019011D01*
X0202003Y0018843D01*
X0202022Y0018675D01*
X0202036Y0018507D01*
X0202047Y0018338D01*
X0202053Y0018169D01*
X0202055Y0018000D01*
X0202053Y0017831D01*
X0202047Y0017662D01*
X0202036Y0017493D01*
X0202022Y0017325D01*
X0202003Y0017157D01*
X0201980Y0016989D01*
X0201954Y0016822D01*
X0201923Y0016656D01*
X0201888Y0016490D01*
X0201849Y0016326D01*
X0201805Y0016162D01*
X0201758Y0016000D01*
X0201707Y0015839D01*
X0201652Y0015679D01*
X0201593Y0015520D01*
X0201531Y0015363D01*
X0201464Y0015208D01*
X0201393Y0015054D01*
X0201319Y0014902D01*
X0201241Y0014752D01*
X0201160Y0014604D01*
X0201075Y0014458D01*
X0200986Y0014314D01*
X0200894Y0014172D01*
X0200798Y0014033D01*
X0200699Y0013896D01*
X0200597Y0013761D01*
X0200491Y0013629D01*
X0200382Y0013500D01*
X0200270Y0013373D01*
X0200155Y0013249D01*
X0200037Y0013128D01*
X0199916Y0013010D01*
X0199792Y0012895D01*
X0199665Y0012783D01*
X0199536Y0012674D01*
X0199404Y0012568D01*
X0199269Y0012466D01*
X0199132Y0012367D01*
X0198993Y0012271D01*
X0198851Y0012179D01*
X0198707Y0012090D01*
X0198561Y0012005D01*
X0198413Y0011924D01*
X0198263Y0011846D01*
X0198111Y0011772D01*
X0197957Y0011701D01*
X0197802Y0011634D01*
X0197645Y0011572D01*
X0197486Y0011513D01*
X0197326Y0011458D01*
X0197165Y0011407D01*
X0197003Y0011360D01*
X0196839Y0011316D01*
X0196675Y0011277D01*
X0196509Y0011242D01*
X0196343Y0011211D01*
X0196176Y0011185D01*
X0196008Y0011162D01*
X0195840Y0011143D01*
X0195672Y0011129D01*
X0195503Y0011118D01*
X0195334Y0011112D01*
X0195165Y0011110D01*
X0194996Y0011112D01*
X0194827Y0011118D01*
X0194658Y0011129D01*
X0194490Y0011143D01*
X0194322Y0011162D01*
X0194154Y0011185D01*
X0193987Y0011211D01*
X0193821Y0011242D01*
X0193655Y0011277D01*
X0193491Y0011316D01*
X0193327Y0011360D01*
X0193165Y0011407D01*
X0193004Y0011458D01*
X0192844Y0011513D01*
X0192685Y0011572D01*
X0192528Y0011634D01*
X0192373Y0011701D01*
X0192219Y0011772D01*
X0192067Y0011846D01*
X0191917Y0011924D01*
X0191769Y0012005D01*
X0191623Y0012090D01*
X0191479Y0012179D01*
X0191337Y0012271D01*
X0191198Y0012367D01*
X0191061Y0012466D01*
X0190926Y0012568D01*
X0190794Y0012674D01*
X0190665Y0012783D01*
X0190538Y0012895D01*
X0190414Y0013010D01*
X0190293Y0013128D01*
X0190175Y0013249D01*
X0190060Y0013373D01*
X0189948Y0013500D01*
X0189839Y0013629D01*
X0189733Y0013761D01*
X0189631Y0013896D01*
X0189532Y0014033D01*
X0189436Y0014172D01*
X0189344Y0014314D01*
X0189255Y0014458D01*
X0189170Y0014604D01*
X0189089Y0014752D01*
X0189011Y0014902D01*
X0188937Y0015054D01*
X0188866Y0015208D01*
X0188799Y0015363D01*
X0188737Y0015520D01*
X0188678Y0015679D01*
X0188623Y0015839D01*
X0188572Y0016000D01*
X0188525Y0016162D01*
X0188481Y0016326D01*
X0188442Y0016490D01*
X0188407Y0016656D01*
X0188376Y0016822D01*
X0188350Y0016989D01*
X0188327Y0017157D01*
X0188308Y0017325D01*
X0188294Y0017493D01*
X0188283Y0017662D01*
X0188277Y0017831D01*
X0188275Y0018000D01*
X0148905Y0018000D02*
X0148907Y0018169D01*
X0148913Y0018338D01*
X0148924Y0018507D01*
X0148938Y0018675D01*
X0148957Y0018843D01*
X0148980Y0019011D01*
X0149006Y0019178D01*
X0149037Y0019344D01*
X0149072Y0019510D01*
X0149111Y0019674D01*
X0149155Y0019838D01*
X0149202Y0020000D01*
X0149253Y0020161D01*
X0149308Y0020321D01*
X0149367Y0020480D01*
X0149429Y0020637D01*
X0149496Y0020792D01*
X0149567Y0020946D01*
X0149641Y0021098D01*
X0149719Y0021248D01*
X0149800Y0021396D01*
X0149885Y0021542D01*
X0149974Y0021686D01*
X0150066Y0021828D01*
X0150162Y0021967D01*
X0150261Y0022104D01*
X0150363Y0022239D01*
X0150469Y0022371D01*
X0150578Y0022500D01*
X0150690Y0022627D01*
X0150805Y0022751D01*
X0150923Y0022872D01*
X0151044Y0022990D01*
X0151168Y0023105D01*
X0151295Y0023217D01*
X0151424Y0023326D01*
X0151556Y0023432D01*
X0151691Y0023534D01*
X0151828Y0023633D01*
X0151967Y0023729D01*
X0152109Y0023821D01*
X0152253Y0023910D01*
X0152399Y0023995D01*
X0152547Y0024076D01*
X0152697Y0024154D01*
X0152849Y0024228D01*
X0153003Y0024299D01*
X0153158Y0024366D01*
X0153315Y0024428D01*
X0153474Y0024487D01*
X0153634Y0024542D01*
X0153795Y0024593D01*
X0153957Y0024640D01*
X0154121Y0024684D01*
X0154285Y0024723D01*
X0154451Y0024758D01*
X0154617Y0024789D01*
X0154784Y0024815D01*
X0154952Y0024838D01*
X0155120Y0024857D01*
X0155288Y0024871D01*
X0155457Y0024882D01*
X0155626Y0024888D01*
X0155795Y0024890D01*
X0155964Y0024888D01*
X0156133Y0024882D01*
X0156302Y0024871D01*
X0156470Y0024857D01*
X0156638Y0024838D01*
X0156806Y0024815D01*
X0156973Y0024789D01*
X0157139Y0024758D01*
X0157305Y0024723D01*
X0157469Y0024684D01*
X0157633Y0024640D01*
X0157795Y0024593D01*
X0157956Y0024542D01*
X0158116Y0024487D01*
X0158275Y0024428D01*
X0158432Y0024366D01*
X0158587Y0024299D01*
X0158741Y0024228D01*
X0158893Y0024154D01*
X0159043Y0024076D01*
X0159191Y0023995D01*
X0159337Y0023910D01*
X0159481Y0023821D01*
X0159623Y0023729D01*
X0159762Y0023633D01*
X0159899Y0023534D01*
X0160034Y0023432D01*
X0160166Y0023326D01*
X0160295Y0023217D01*
X0160422Y0023105D01*
X0160546Y0022990D01*
X0160667Y0022872D01*
X0160785Y0022751D01*
X0160900Y0022627D01*
X0161012Y0022500D01*
X0161121Y0022371D01*
X0161227Y0022239D01*
X0161329Y0022104D01*
X0161428Y0021967D01*
X0161524Y0021828D01*
X0161616Y0021686D01*
X0161705Y0021542D01*
X0161790Y0021396D01*
X0161871Y0021248D01*
X0161949Y0021098D01*
X0162023Y0020946D01*
X0162094Y0020792D01*
X0162161Y0020637D01*
X0162223Y0020480D01*
X0162282Y0020321D01*
X0162337Y0020161D01*
X0162388Y0020000D01*
X0162435Y0019838D01*
X0162479Y0019674D01*
X0162518Y0019510D01*
X0162553Y0019344D01*
X0162584Y0019178D01*
X0162610Y0019011D01*
X0162633Y0018843D01*
X0162652Y0018675D01*
X0162666Y0018507D01*
X0162677Y0018338D01*
X0162683Y0018169D01*
X0162685Y0018000D01*
X0162683Y0017831D01*
X0162677Y0017662D01*
X0162666Y0017493D01*
X0162652Y0017325D01*
X0162633Y0017157D01*
X0162610Y0016989D01*
X0162584Y0016822D01*
X0162553Y0016656D01*
X0162518Y0016490D01*
X0162479Y0016326D01*
X0162435Y0016162D01*
X0162388Y0016000D01*
X0162337Y0015839D01*
X0162282Y0015679D01*
X0162223Y0015520D01*
X0162161Y0015363D01*
X0162094Y0015208D01*
X0162023Y0015054D01*
X0161949Y0014902D01*
X0161871Y0014752D01*
X0161790Y0014604D01*
X0161705Y0014458D01*
X0161616Y0014314D01*
X0161524Y0014172D01*
X0161428Y0014033D01*
X0161329Y0013896D01*
X0161227Y0013761D01*
X0161121Y0013629D01*
X0161012Y0013500D01*
X0160900Y0013373D01*
X0160785Y0013249D01*
X0160667Y0013128D01*
X0160546Y0013010D01*
X0160422Y0012895D01*
X0160295Y0012783D01*
X0160166Y0012674D01*
X0160034Y0012568D01*
X0159899Y0012466D01*
X0159762Y0012367D01*
X0159623Y0012271D01*
X0159481Y0012179D01*
X0159337Y0012090D01*
X0159191Y0012005D01*
X0159043Y0011924D01*
X0158893Y0011846D01*
X0158741Y0011772D01*
X0158587Y0011701D01*
X0158432Y0011634D01*
X0158275Y0011572D01*
X0158116Y0011513D01*
X0157956Y0011458D01*
X0157795Y0011407D01*
X0157633Y0011360D01*
X0157469Y0011316D01*
X0157305Y0011277D01*
X0157139Y0011242D01*
X0156973Y0011211D01*
X0156806Y0011185D01*
X0156638Y0011162D01*
X0156470Y0011143D01*
X0156302Y0011129D01*
X0156133Y0011118D01*
X0155964Y0011112D01*
X0155795Y0011110D01*
X0155626Y0011112D01*
X0155457Y0011118D01*
X0155288Y0011129D01*
X0155120Y0011143D01*
X0154952Y0011162D01*
X0154784Y0011185D01*
X0154617Y0011211D01*
X0154451Y0011242D01*
X0154285Y0011277D01*
X0154121Y0011316D01*
X0153957Y0011360D01*
X0153795Y0011407D01*
X0153634Y0011458D01*
X0153474Y0011513D01*
X0153315Y0011572D01*
X0153158Y0011634D01*
X0153003Y0011701D01*
X0152849Y0011772D01*
X0152697Y0011846D01*
X0152547Y0011924D01*
X0152399Y0012005D01*
X0152253Y0012090D01*
X0152109Y0012179D01*
X0151967Y0012271D01*
X0151828Y0012367D01*
X0151691Y0012466D01*
X0151556Y0012568D01*
X0151424Y0012674D01*
X0151295Y0012783D01*
X0151168Y0012895D01*
X0151044Y0013010D01*
X0150923Y0013128D01*
X0150805Y0013249D01*
X0150690Y0013373D01*
X0150578Y0013500D01*
X0150469Y0013629D01*
X0150363Y0013761D01*
X0150261Y0013896D01*
X0150162Y0014033D01*
X0150066Y0014172D01*
X0149974Y0014314D01*
X0149885Y0014458D01*
X0149800Y0014604D01*
X0149719Y0014752D01*
X0149641Y0014902D01*
X0149567Y0015054D01*
X0149496Y0015208D01*
X0149429Y0015363D01*
X0149367Y0015520D01*
X0149308Y0015679D01*
X0149253Y0015839D01*
X0149202Y0016000D01*
X0149155Y0016162D01*
X0149111Y0016326D01*
X0149072Y0016490D01*
X0149037Y0016656D01*
X0149006Y0016822D01*
X0148980Y0016989D01*
X0148957Y0017157D01*
X0148938Y0017325D01*
X0148924Y0017493D01*
X0148913Y0017662D01*
X0148907Y0017831D01*
X0148905Y0018000D01*
X0087154Y0039161D02*
X0024161Y0039161D01*
X0045815Y0050972D02*
X0045815Y0064752D01*
X0059594Y0064752D01*
X0059594Y0050972D01*
X0045815Y0050972D01*
X0063531Y0057469D02*
X0076130Y0057469D01*
X0076130Y0077154D01*
X0063531Y0077154D01*
X0063531Y0057469D01*
X0011307Y0018000D02*
X0011309Y0018164D01*
X0011315Y0018328D01*
X0011325Y0018492D01*
X0011339Y0018656D01*
X0011357Y0018819D01*
X0011379Y0018982D01*
X0011406Y0019144D01*
X0011436Y0019306D01*
X0011470Y0019466D01*
X0011508Y0019626D01*
X0011549Y0019785D01*
X0011595Y0019943D01*
X0011645Y0020099D01*
X0011698Y0020255D01*
X0011755Y0020409D01*
X0011816Y0020561D01*
X0011881Y0020712D01*
X0011950Y0020862D01*
X0012022Y0021009D01*
X0012097Y0021155D01*
X0012177Y0021299D01*
X0012259Y0021441D01*
X0012345Y0021581D01*
X0012435Y0021718D01*
X0012528Y0021854D01*
X0012624Y0021987D01*
X0012724Y0022118D01*
X0012826Y0022246D01*
X0012932Y0022372D01*
X0013041Y0022495D01*
X0013153Y0022615D01*
X0013267Y0022733D01*
X0013385Y0022847D01*
X0013505Y0022959D01*
X0013628Y0023068D01*
X0013754Y0023174D01*
X0013882Y0023276D01*
X0014013Y0023376D01*
X0014146Y0023472D01*
X0014282Y0023565D01*
X0014419Y0023655D01*
X0014559Y0023741D01*
X0014701Y0023823D01*
X0014845Y0023903D01*
X0014991Y0023978D01*
X0015138Y0024050D01*
X0015288Y0024119D01*
X0015439Y0024184D01*
X0015591Y0024245D01*
X0015745Y0024302D01*
X0015901Y0024355D01*
X0016057Y0024405D01*
X0016215Y0024451D01*
X0016374Y0024492D01*
X0016534Y0024530D01*
X0016694Y0024564D01*
X0016856Y0024594D01*
X0017018Y0024621D01*
X0017181Y0024643D01*
X0017344Y0024661D01*
X0017508Y0024675D01*
X0017672Y0024685D01*
X0017836Y0024691D01*
X0018000Y0024693D01*
X0018164Y0024691D01*
X0018328Y0024685D01*
X0018492Y0024675D01*
X0018656Y0024661D01*
X0018819Y0024643D01*
X0018982Y0024621D01*
X0019144Y0024594D01*
X0019306Y0024564D01*
X0019466Y0024530D01*
X0019626Y0024492D01*
X0019785Y0024451D01*
X0019943Y0024405D01*
X0020099Y0024355D01*
X0020255Y0024302D01*
X0020409Y0024245D01*
X0020561Y0024184D01*
X0020712Y0024119D01*
X0020862Y0024050D01*
X0021009Y0023978D01*
X0021155Y0023903D01*
X0021299Y0023823D01*
X0021441Y0023741D01*
X0021581Y0023655D01*
X0021718Y0023565D01*
X0021854Y0023472D01*
X0021987Y0023376D01*
X0022118Y0023276D01*
X0022246Y0023174D01*
X0022372Y0023068D01*
X0022495Y0022959D01*
X0022615Y0022847D01*
X0022733Y0022733D01*
X0022847Y0022615D01*
X0022959Y0022495D01*
X0023068Y0022372D01*
X0023174Y0022246D01*
X0023276Y0022118D01*
X0023376Y0021987D01*
X0023472Y0021854D01*
X0023565Y0021718D01*
X0023655Y0021581D01*
X0023741Y0021441D01*
X0023823Y0021299D01*
X0023903Y0021155D01*
X0023978Y0021009D01*
X0024050Y0020862D01*
X0024119Y0020712D01*
X0024184Y0020561D01*
X0024245Y0020409D01*
X0024302Y0020255D01*
X0024355Y0020099D01*
X0024405Y0019943D01*
X0024451Y0019785D01*
X0024492Y0019626D01*
X0024530Y0019466D01*
X0024564Y0019306D01*
X0024594Y0019144D01*
X0024621Y0018982D01*
X0024643Y0018819D01*
X0024661Y0018656D01*
X0024675Y0018492D01*
X0024685Y0018328D01*
X0024691Y0018164D01*
X0024693Y0018000D01*
X0024691Y0017836D01*
X0024685Y0017672D01*
X0024675Y0017508D01*
X0024661Y0017344D01*
X0024643Y0017181D01*
X0024621Y0017018D01*
X0024594Y0016856D01*
X0024564Y0016694D01*
X0024530Y0016534D01*
X0024492Y0016374D01*
X0024451Y0016215D01*
X0024405Y0016057D01*
X0024355Y0015901D01*
X0024302Y0015745D01*
X0024245Y0015591D01*
X0024184Y0015439D01*
X0024119Y0015288D01*
X0024050Y0015138D01*
X0023978Y0014991D01*
X0023903Y0014845D01*
X0023823Y0014701D01*
X0023741Y0014559D01*
X0023655Y0014419D01*
X0023565Y0014282D01*
X0023472Y0014146D01*
X0023376Y0014013D01*
X0023276Y0013882D01*
X0023174Y0013754D01*
X0023068Y0013628D01*
X0022959Y0013505D01*
X0022847Y0013385D01*
X0022733Y0013267D01*
X0022615Y0013153D01*
X0022495Y0013041D01*
X0022372Y0012932D01*
X0022246Y0012826D01*
X0022118Y0012724D01*
X0021987Y0012624D01*
X0021854Y0012528D01*
X0021718Y0012435D01*
X0021581Y0012345D01*
X0021441Y0012259D01*
X0021299Y0012177D01*
X0021155Y0012097D01*
X0021009Y0012022D01*
X0020862Y0011950D01*
X0020712Y0011881D01*
X0020561Y0011816D01*
X0020409Y0011755D01*
X0020255Y0011698D01*
X0020099Y0011645D01*
X0019943Y0011595D01*
X0019785Y0011549D01*
X0019626Y0011508D01*
X0019466Y0011470D01*
X0019306Y0011436D01*
X0019144Y0011406D01*
X0018982Y0011379D01*
X0018819Y0011357D01*
X0018656Y0011339D01*
X0018492Y0011325D01*
X0018328Y0011315D01*
X0018164Y0011309D01*
X0018000Y0011307D01*
X0017836Y0011309D01*
X0017672Y0011315D01*
X0017508Y0011325D01*
X0017344Y0011339D01*
X0017181Y0011357D01*
X0017018Y0011379D01*
X0016856Y0011406D01*
X0016694Y0011436D01*
X0016534Y0011470D01*
X0016374Y0011508D01*
X0016215Y0011549D01*
X0016057Y0011595D01*
X0015901Y0011645D01*
X0015745Y0011698D01*
X0015591Y0011755D01*
X0015439Y0011816D01*
X0015288Y0011881D01*
X0015138Y0011950D01*
X0014991Y0012022D01*
X0014845Y0012097D01*
X0014701Y0012177D01*
X0014559Y0012259D01*
X0014419Y0012345D01*
X0014282Y0012435D01*
X0014146Y0012528D01*
X0014013Y0012624D01*
X0013882Y0012724D01*
X0013754Y0012826D01*
X0013628Y0012932D01*
X0013505Y0013041D01*
X0013385Y0013153D01*
X0013267Y0013267D01*
X0013153Y0013385D01*
X0013041Y0013505D01*
X0012932Y0013628D01*
X0012826Y0013754D01*
X0012724Y0013882D01*
X0012624Y0014013D01*
X0012528Y0014146D01*
X0012435Y0014282D01*
X0012345Y0014419D01*
X0012259Y0014559D01*
X0012177Y0014701D01*
X0012097Y0014845D01*
X0012022Y0014991D01*
X0011950Y0015138D01*
X0011881Y0015288D01*
X0011816Y0015439D01*
X0011755Y0015591D01*
X0011698Y0015745D01*
X0011645Y0015901D01*
X0011595Y0016057D01*
X0011549Y0016215D01*
X0011508Y0016374D01*
X0011470Y0016534D01*
X0011436Y0016694D01*
X0011406Y0016856D01*
X0011379Y0017018D01*
X0011357Y0017181D01*
X0011339Y0017344D01*
X0011325Y0017508D01*
X0011315Y0017672D01*
X0011309Y0017836D01*
X0011307Y0018000D01*
X0024161Y0102154D02*
X0087154Y0102154D01*
X0038756Y0117827D02*
X0038756Y0126488D01*
X0019464Y0122157D02*
X0019466Y0122321D01*
X0019472Y0122485D01*
X0019482Y0122649D01*
X0019496Y0122813D01*
X0019514Y0122976D01*
X0019536Y0123139D01*
X0019563Y0123301D01*
X0019593Y0123463D01*
X0019627Y0123623D01*
X0019665Y0123783D01*
X0019706Y0123942D01*
X0019752Y0124100D01*
X0019802Y0124256D01*
X0019855Y0124412D01*
X0019912Y0124566D01*
X0019973Y0124718D01*
X0020038Y0124869D01*
X0020107Y0125019D01*
X0020179Y0125166D01*
X0020254Y0125312D01*
X0020334Y0125456D01*
X0020416Y0125598D01*
X0020502Y0125738D01*
X0020592Y0125875D01*
X0020685Y0126011D01*
X0020781Y0126144D01*
X0020881Y0126275D01*
X0020983Y0126403D01*
X0021089Y0126529D01*
X0021198Y0126652D01*
X0021310Y0126772D01*
X0021424Y0126890D01*
X0021542Y0127004D01*
X0021662Y0127116D01*
X0021785Y0127225D01*
X0021911Y0127331D01*
X0022039Y0127433D01*
X0022170Y0127533D01*
X0022303Y0127629D01*
X0022439Y0127722D01*
X0022576Y0127812D01*
X0022716Y0127898D01*
X0022858Y0127980D01*
X0023002Y0128060D01*
X0023148Y0128135D01*
X0023295Y0128207D01*
X0023445Y0128276D01*
X0023596Y0128341D01*
X0023748Y0128402D01*
X0023902Y0128459D01*
X0024058Y0128512D01*
X0024214Y0128562D01*
X0024372Y0128608D01*
X0024531Y0128649D01*
X0024691Y0128687D01*
X0024851Y0128721D01*
X0025013Y0128751D01*
X0025175Y0128778D01*
X0025338Y0128800D01*
X0025501Y0128818D01*
X0025665Y0128832D01*
X0025829Y0128842D01*
X0025993Y0128848D01*
X0026157Y0128850D01*
X0026321Y0128848D01*
X0026485Y0128842D01*
X0026649Y0128832D01*
X0026813Y0128818D01*
X0026976Y0128800D01*
X0027139Y0128778D01*
X0027301Y0128751D01*
X0027463Y0128721D01*
X0027623Y0128687D01*
X0027783Y0128649D01*
X0027942Y0128608D01*
X0028100Y0128562D01*
X0028256Y0128512D01*
X0028412Y0128459D01*
X0028566Y0128402D01*
X0028718Y0128341D01*
X0028869Y0128276D01*
X0029019Y0128207D01*
X0029166Y0128135D01*
X0029312Y0128060D01*
X0029456Y0127980D01*
X0029598Y0127898D01*
X0029738Y0127812D01*
X0029875Y0127722D01*
X0030011Y0127629D01*
X0030144Y0127533D01*
X0030275Y0127433D01*
X0030403Y0127331D01*
X0030529Y0127225D01*
X0030652Y0127116D01*
X0030772Y0127004D01*
X0030890Y0126890D01*
X0031004Y0126772D01*
X0031116Y0126652D01*
X0031225Y0126529D01*
X0031331Y0126403D01*
X0031433Y0126275D01*
X0031533Y0126144D01*
X0031629Y0126011D01*
X0031722Y0125875D01*
X0031812Y0125738D01*
X0031898Y0125598D01*
X0031980Y0125456D01*
X0032060Y0125312D01*
X0032135Y0125166D01*
X0032207Y0125019D01*
X0032276Y0124869D01*
X0032341Y0124718D01*
X0032402Y0124566D01*
X0032459Y0124412D01*
X0032512Y0124256D01*
X0032562Y0124100D01*
X0032608Y0123942D01*
X0032649Y0123783D01*
X0032687Y0123623D01*
X0032721Y0123463D01*
X0032751Y0123301D01*
X0032778Y0123139D01*
X0032800Y0122976D01*
X0032818Y0122813D01*
X0032832Y0122649D01*
X0032842Y0122485D01*
X0032848Y0122321D01*
X0032850Y0122157D01*
X0032848Y0121993D01*
X0032842Y0121829D01*
X0032832Y0121665D01*
X0032818Y0121501D01*
X0032800Y0121338D01*
X0032778Y0121175D01*
X0032751Y0121013D01*
X0032721Y0120851D01*
X0032687Y0120691D01*
X0032649Y0120531D01*
X0032608Y0120372D01*
X0032562Y0120214D01*
X0032512Y0120058D01*
X0032459Y0119902D01*
X0032402Y0119748D01*
X0032341Y0119596D01*
X0032276Y0119445D01*
X0032207Y0119295D01*
X0032135Y0119148D01*
X0032060Y0119002D01*
X0031980Y0118858D01*
X0031898Y0118716D01*
X0031812Y0118576D01*
X0031722Y0118439D01*
X0031629Y0118303D01*
X0031533Y0118170D01*
X0031433Y0118039D01*
X0031331Y0117911D01*
X0031225Y0117785D01*
X0031116Y0117662D01*
X0031004Y0117542D01*
X0030890Y0117424D01*
X0030772Y0117310D01*
X0030652Y0117198D01*
X0030529Y0117089D01*
X0030403Y0116983D01*
X0030275Y0116881D01*
X0030144Y0116781D01*
X0030011Y0116685D01*
X0029875Y0116592D01*
X0029738Y0116502D01*
X0029598Y0116416D01*
X0029456Y0116334D01*
X0029312Y0116254D01*
X0029166Y0116179D01*
X0029019Y0116107D01*
X0028869Y0116038D01*
X0028718Y0115973D01*
X0028566Y0115912D01*
X0028412Y0115855D01*
X0028256Y0115802D01*
X0028100Y0115752D01*
X0027942Y0115706D01*
X0027783Y0115665D01*
X0027623Y0115627D01*
X0027463Y0115593D01*
X0027301Y0115563D01*
X0027139Y0115536D01*
X0026976Y0115514D01*
X0026813Y0115496D01*
X0026649Y0115482D01*
X0026485Y0115472D01*
X0026321Y0115466D01*
X0026157Y0115464D01*
X0025993Y0115466D01*
X0025829Y0115472D01*
X0025665Y0115482D01*
X0025501Y0115496D01*
X0025338Y0115514D01*
X0025175Y0115536D01*
X0025013Y0115563D01*
X0024851Y0115593D01*
X0024691Y0115627D01*
X0024531Y0115665D01*
X0024372Y0115706D01*
X0024214Y0115752D01*
X0024058Y0115802D01*
X0023902Y0115855D01*
X0023748Y0115912D01*
X0023596Y0115973D01*
X0023445Y0116038D01*
X0023295Y0116107D01*
X0023148Y0116179D01*
X0023002Y0116254D01*
X0022858Y0116334D01*
X0022716Y0116416D01*
X0022576Y0116502D01*
X0022439Y0116592D01*
X0022303Y0116685D01*
X0022170Y0116781D01*
X0022039Y0116881D01*
X0021911Y0116983D01*
X0021785Y0117089D01*
X0021662Y0117198D01*
X0021542Y0117310D01*
X0021424Y0117424D01*
X0021310Y0117542D01*
X0021198Y0117662D01*
X0021089Y0117785D01*
X0020983Y0117911D01*
X0020881Y0118039D01*
X0020781Y0118170D01*
X0020685Y0118303D01*
X0020592Y0118439D01*
X0020502Y0118576D01*
X0020416Y0118716D01*
X0020334Y0118858D01*
X0020254Y0119002D01*
X0020179Y0119148D01*
X0020107Y0119295D01*
X0020038Y0119445D01*
X0019973Y0119596D01*
X0019912Y0119748D01*
X0019855Y0119902D01*
X0019802Y0120058D01*
X0019752Y0120214D01*
X0019706Y0120372D01*
X0019665Y0120531D01*
X0019627Y0120691D01*
X0019593Y0120851D01*
X0019563Y0121013D01*
X0019536Y0121175D01*
X0019514Y0121338D01*
X0019496Y0121501D01*
X0019482Y0121665D01*
X0019472Y0121829D01*
X0019466Y0121993D01*
X0019464Y0122157D01*
X0013559Y0117827D02*
X0013559Y0126488D01*
X0021827Y0134756D02*
X0030488Y0134756D01*
X0011110Y0155795D02*
X0011112Y0155964D01*
X0011118Y0156133D01*
X0011129Y0156302D01*
X0011143Y0156470D01*
X0011162Y0156638D01*
X0011185Y0156806D01*
X0011211Y0156973D01*
X0011242Y0157139D01*
X0011277Y0157305D01*
X0011316Y0157469D01*
X0011360Y0157633D01*
X0011407Y0157795D01*
X0011458Y0157956D01*
X0011513Y0158116D01*
X0011572Y0158275D01*
X0011634Y0158432D01*
X0011701Y0158587D01*
X0011772Y0158741D01*
X0011846Y0158893D01*
X0011924Y0159043D01*
X0012005Y0159191D01*
X0012090Y0159337D01*
X0012179Y0159481D01*
X0012271Y0159623D01*
X0012367Y0159762D01*
X0012466Y0159899D01*
X0012568Y0160034D01*
X0012674Y0160166D01*
X0012783Y0160295D01*
X0012895Y0160422D01*
X0013010Y0160546D01*
X0013128Y0160667D01*
X0013249Y0160785D01*
X0013373Y0160900D01*
X0013500Y0161012D01*
X0013629Y0161121D01*
X0013761Y0161227D01*
X0013896Y0161329D01*
X0014033Y0161428D01*
X0014172Y0161524D01*
X0014314Y0161616D01*
X0014458Y0161705D01*
X0014604Y0161790D01*
X0014752Y0161871D01*
X0014902Y0161949D01*
X0015054Y0162023D01*
X0015208Y0162094D01*
X0015363Y0162161D01*
X0015520Y0162223D01*
X0015679Y0162282D01*
X0015839Y0162337D01*
X0016000Y0162388D01*
X0016162Y0162435D01*
X0016326Y0162479D01*
X0016490Y0162518D01*
X0016656Y0162553D01*
X0016822Y0162584D01*
X0016989Y0162610D01*
X0017157Y0162633D01*
X0017325Y0162652D01*
X0017493Y0162666D01*
X0017662Y0162677D01*
X0017831Y0162683D01*
X0018000Y0162685D01*
X0018169Y0162683D01*
X0018338Y0162677D01*
X0018507Y0162666D01*
X0018675Y0162652D01*
X0018843Y0162633D01*
X0019011Y0162610D01*
X0019178Y0162584D01*
X0019344Y0162553D01*
X0019510Y0162518D01*
X0019674Y0162479D01*
X0019838Y0162435D01*
X0020000Y0162388D01*
X0020161Y0162337D01*
X0020321Y0162282D01*
X0020480Y0162223D01*
X0020637Y0162161D01*
X0020792Y0162094D01*
X0020946Y0162023D01*
X0021098Y0161949D01*
X0021248Y0161871D01*
X0021396Y0161790D01*
X0021542Y0161705D01*
X0021686Y0161616D01*
X0021828Y0161524D01*
X0021967Y0161428D01*
X0022104Y0161329D01*
X0022239Y0161227D01*
X0022371Y0161121D01*
X0022500Y0161012D01*
X0022627Y0160900D01*
X0022751Y0160785D01*
X0022872Y0160667D01*
X0022990Y0160546D01*
X0023105Y0160422D01*
X0023217Y0160295D01*
X0023326Y0160166D01*
X0023432Y0160034D01*
X0023534Y0159899D01*
X0023633Y0159762D01*
X0023729Y0159623D01*
X0023821Y0159481D01*
X0023910Y0159337D01*
X0023995Y0159191D01*
X0024076Y0159043D01*
X0024154Y0158893D01*
X0024228Y0158741D01*
X0024299Y0158587D01*
X0024366Y0158432D01*
X0024428Y0158275D01*
X0024487Y0158116D01*
X0024542Y0157956D01*
X0024593Y0157795D01*
X0024640Y0157633D01*
X0024684Y0157469D01*
X0024723Y0157305D01*
X0024758Y0157139D01*
X0024789Y0156973D01*
X0024815Y0156806D01*
X0024838Y0156638D01*
X0024857Y0156470D01*
X0024871Y0156302D01*
X0024882Y0156133D01*
X0024888Y0155964D01*
X0024890Y0155795D01*
X0024888Y0155626D01*
X0024882Y0155457D01*
X0024871Y0155288D01*
X0024857Y0155120D01*
X0024838Y0154952D01*
X0024815Y0154784D01*
X0024789Y0154617D01*
X0024758Y0154451D01*
X0024723Y0154285D01*
X0024684Y0154121D01*
X0024640Y0153957D01*
X0024593Y0153795D01*
X0024542Y0153634D01*
X0024487Y0153474D01*
X0024428Y0153315D01*
X0024366Y0153158D01*
X0024299Y0153003D01*
X0024228Y0152849D01*
X0024154Y0152697D01*
X0024076Y0152547D01*
X0023995Y0152399D01*
X0023910Y0152253D01*
X0023821Y0152109D01*
X0023729Y0151967D01*
X0023633Y0151828D01*
X0023534Y0151691D01*
X0023432Y0151556D01*
X0023326Y0151424D01*
X0023217Y0151295D01*
X0023105Y0151168D01*
X0022990Y0151044D01*
X0022872Y0150923D01*
X0022751Y0150805D01*
X0022627Y0150690D01*
X0022500Y0150578D01*
X0022371Y0150469D01*
X0022239Y0150363D01*
X0022104Y0150261D01*
X0021967Y0150162D01*
X0021828Y0150066D01*
X0021686Y0149974D01*
X0021542Y0149885D01*
X0021396Y0149800D01*
X0021248Y0149719D01*
X0021098Y0149641D01*
X0020946Y0149567D01*
X0020792Y0149496D01*
X0020637Y0149429D01*
X0020480Y0149367D01*
X0020321Y0149308D01*
X0020161Y0149253D01*
X0020000Y0149202D01*
X0019838Y0149155D01*
X0019674Y0149111D01*
X0019510Y0149072D01*
X0019344Y0149037D01*
X0019178Y0149006D01*
X0019011Y0148980D01*
X0018843Y0148957D01*
X0018675Y0148938D01*
X0018507Y0148924D01*
X0018338Y0148913D01*
X0018169Y0148907D01*
X0018000Y0148905D01*
X0017831Y0148907D01*
X0017662Y0148913D01*
X0017493Y0148924D01*
X0017325Y0148938D01*
X0017157Y0148957D01*
X0016989Y0148980D01*
X0016822Y0149006D01*
X0016656Y0149037D01*
X0016490Y0149072D01*
X0016326Y0149111D01*
X0016162Y0149155D01*
X0016000Y0149202D01*
X0015839Y0149253D01*
X0015679Y0149308D01*
X0015520Y0149367D01*
X0015363Y0149429D01*
X0015208Y0149496D01*
X0015054Y0149567D01*
X0014902Y0149641D01*
X0014752Y0149719D01*
X0014604Y0149800D01*
X0014458Y0149885D01*
X0014314Y0149974D01*
X0014172Y0150066D01*
X0014033Y0150162D01*
X0013896Y0150261D01*
X0013761Y0150363D01*
X0013629Y0150469D01*
X0013500Y0150578D01*
X0013373Y0150690D01*
X0013249Y0150805D01*
X0013128Y0150923D01*
X0013010Y0151044D01*
X0012895Y0151168D01*
X0012783Y0151295D01*
X0012674Y0151424D01*
X0012568Y0151556D01*
X0012466Y0151691D01*
X0012367Y0151828D01*
X0012271Y0151967D01*
X0012179Y0152109D01*
X0012090Y0152253D01*
X0012005Y0152399D01*
X0011924Y0152547D01*
X0011846Y0152697D01*
X0011772Y0152849D01*
X0011701Y0153003D01*
X0011634Y0153158D01*
X0011572Y0153315D01*
X0011513Y0153474D01*
X0011458Y0153634D01*
X0011407Y0153795D01*
X0011360Y0153957D01*
X0011316Y0154121D01*
X0011277Y0154285D01*
X0011242Y0154451D01*
X0011211Y0154617D01*
X0011185Y0154784D01*
X0011162Y0154952D01*
X0011143Y0155120D01*
X0011129Y0155288D01*
X0011118Y0155457D01*
X0011112Y0155626D01*
X0011110Y0155795D01*
X0021827Y0109559D02*
X0030488Y0109559D01*
X0149102Y0155795D02*
X0149104Y0155959D01*
X0149110Y0156123D01*
X0149120Y0156287D01*
X0149134Y0156451D01*
X0149152Y0156614D01*
X0149174Y0156777D01*
X0149201Y0156939D01*
X0149231Y0157101D01*
X0149265Y0157261D01*
X0149303Y0157421D01*
X0149344Y0157580D01*
X0149390Y0157738D01*
X0149440Y0157894D01*
X0149493Y0158050D01*
X0149550Y0158204D01*
X0149611Y0158356D01*
X0149676Y0158507D01*
X0149745Y0158657D01*
X0149817Y0158804D01*
X0149892Y0158950D01*
X0149972Y0159094D01*
X0150054Y0159236D01*
X0150140Y0159376D01*
X0150230Y0159513D01*
X0150323Y0159649D01*
X0150419Y0159782D01*
X0150519Y0159913D01*
X0150621Y0160041D01*
X0150727Y0160167D01*
X0150836Y0160290D01*
X0150948Y0160410D01*
X0151062Y0160528D01*
X0151180Y0160642D01*
X0151300Y0160754D01*
X0151423Y0160863D01*
X0151549Y0160969D01*
X0151677Y0161071D01*
X0151808Y0161171D01*
X0151941Y0161267D01*
X0152077Y0161360D01*
X0152214Y0161450D01*
X0152354Y0161536D01*
X0152496Y0161618D01*
X0152640Y0161698D01*
X0152786Y0161773D01*
X0152933Y0161845D01*
X0153083Y0161914D01*
X0153234Y0161979D01*
X0153386Y0162040D01*
X0153540Y0162097D01*
X0153696Y0162150D01*
X0153852Y0162200D01*
X0154010Y0162246D01*
X0154169Y0162287D01*
X0154329Y0162325D01*
X0154489Y0162359D01*
X0154651Y0162389D01*
X0154813Y0162416D01*
X0154976Y0162438D01*
X0155139Y0162456D01*
X0155303Y0162470D01*
X0155467Y0162480D01*
X0155631Y0162486D01*
X0155795Y0162488D01*
X0155959Y0162486D01*
X0156123Y0162480D01*
X0156287Y0162470D01*
X0156451Y0162456D01*
X0156614Y0162438D01*
X0156777Y0162416D01*
X0156939Y0162389D01*
X0157101Y0162359D01*
X0157261Y0162325D01*
X0157421Y0162287D01*
X0157580Y0162246D01*
X0157738Y0162200D01*
X0157894Y0162150D01*
X0158050Y0162097D01*
X0158204Y0162040D01*
X0158356Y0161979D01*
X0158507Y0161914D01*
X0158657Y0161845D01*
X0158804Y0161773D01*
X0158950Y0161698D01*
X0159094Y0161618D01*
X0159236Y0161536D01*
X0159376Y0161450D01*
X0159513Y0161360D01*
X0159649Y0161267D01*
X0159782Y0161171D01*
X0159913Y0161071D01*
X0160041Y0160969D01*
X0160167Y0160863D01*
X0160290Y0160754D01*
X0160410Y0160642D01*
X0160528Y0160528D01*
X0160642Y0160410D01*
X0160754Y0160290D01*
X0160863Y0160167D01*
X0160969Y0160041D01*
X0161071Y0159913D01*
X0161171Y0159782D01*
X0161267Y0159649D01*
X0161360Y0159513D01*
X0161450Y0159376D01*
X0161536Y0159236D01*
X0161618Y0159094D01*
X0161698Y0158950D01*
X0161773Y0158804D01*
X0161845Y0158657D01*
X0161914Y0158507D01*
X0161979Y0158356D01*
X0162040Y0158204D01*
X0162097Y0158050D01*
X0162150Y0157894D01*
X0162200Y0157738D01*
X0162246Y0157580D01*
X0162287Y0157421D01*
X0162325Y0157261D01*
X0162359Y0157101D01*
X0162389Y0156939D01*
X0162416Y0156777D01*
X0162438Y0156614D01*
X0162456Y0156451D01*
X0162470Y0156287D01*
X0162480Y0156123D01*
X0162486Y0155959D01*
X0162488Y0155795D01*
X0162486Y0155631D01*
X0162480Y0155467D01*
X0162470Y0155303D01*
X0162456Y0155139D01*
X0162438Y0154976D01*
X0162416Y0154813D01*
X0162389Y0154651D01*
X0162359Y0154489D01*
X0162325Y0154329D01*
X0162287Y0154169D01*
X0162246Y0154010D01*
X0162200Y0153852D01*
X0162150Y0153696D01*
X0162097Y0153540D01*
X0162040Y0153386D01*
X0161979Y0153234D01*
X0161914Y0153083D01*
X0161845Y0152933D01*
X0161773Y0152786D01*
X0161698Y0152640D01*
X0161618Y0152496D01*
X0161536Y0152354D01*
X0161450Y0152214D01*
X0161360Y0152077D01*
X0161267Y0151941D01*
X0161171Y0151808D01*
X0161071Y0151677D01*
X0160969Y0151549D01*
X0160863Y0151423D01*
X0160754Y0151300D01*
X0160642Y0151180D01*
X0160528Y0151062D01*
X0160410Y0150948D01*
X0160290Y0150836D01*
X0160167Y0150727D01*
X0160041Y0150621D01*
X0159913Y0150519D01*
X0159782Y0150419D01*
X0159649Y0150323D01*
X0159513Y0150230D01*
X0159376Y0150140D01*
X0159236Y0150054D01*
X0159094Y0149972D01*
X0158950Y0149892D01*
X0158804Y0149817D01*
X0158657Y0149745D01*
X0158507Y0149676D01*
X0158356Y0149611D01*
X0158204Y0149550D01*
X0158050Y0149493D01*
X0157894Y0149440D01*
X0157738Y0149390D01*
X0157580Y0149344D01*
X0157421Y0149303D01*
X0157261Y0149265D01*
X0157101Y0149231D01*
X0156939Y0149201D01*
X0156777Y0149174D01*
X0156614Y0149152D01*
X0156451Y0149134D01*
X0156287Y0149120D01*
X0156123Y0149110D01*
X0155959Y0149104D01*
X0155795Y0149102D01*
X0155631Y0149104D01*
X0155467Y0149110D01*
X0155303Y0149120D01*
X0155139Y0149134D01*
X0154976Y0149152D01*
X0154813Y0149174D01*
X0154651Y0149201D01*
X0154489Y0149231D01*
X0154329Y0149265D01*
X0154169Y0149303D01*
X0154010Y0149344D01*
X0153852Y0149390D01*
X0153696Y0149440D01*
X0153540Y0149493D01*
X0153386Y0149550D01*
X0153234Y0149611D01*
X0153083Y0149676D01*
X0152933Y0149745D01*
X0152786Y0149817D01*
X0152640Y0149892D01*
X0152496Y0149972D01*
X0152354Y0150054D01*
X0152214Y0150140D01*
X0152077Y0150230D01*
X0151941Y0150323D01*
X0151808Y0150419D01*
X0151677Y0150519D01*
X0151549Y0150621D01*
X0151423Y0150727D01*
X0151300Y0150836D01*
X0151180Y0150948D01*
X0151062Y0151062D01*
X0150948Y0151180D01*
X0150836Y0151300D01*
X0150727Y0151423D01*
X0150621Y0151549D01*
X0150519Y0151677D01*
X0150419Y0151808D01*
X0150323Y0151941D01*
X0150230Y0152077D01*
X0150140Y0152214D01*
X0150054Y0152354D01*
X0149972Y0152496D01*
X0149892Y0152640D01*
X0149817Y0152786D01*
X0149745Y0152933D01*
X0149676Y0153083D01*
X0149611Y0153234D01*
X0149550Y0153386D01*
X0149493Y0153540D01*
X0149440Y0153696D01*
X0149390Y0153852D01*
X0149344Y0154010D01*
X0149303Y0154169D01*
X0149265Y0154329D01*
X0149231Y0154489D01*
X0149201Y0154651D01*
X0149174Y0154813D01*
X0149152Y0154976D01*
X0149134Y0155139D01*
X0149120Y0155303D01*
X0149110Y0155467D01*
X0149104Y0155631D01*
X0149102Y0155795D01*
X0188472Y0155795D02*
X0188474Y0155959D01*
X0188480Y0156123D01*
X0188490Y0156287D01*
X0188504Y0156451D01*
X0188522Y0156614D01*
X0188544Y0156777D01*
X0188571Y0156939D01*
X0188601Y0157101D01*
X0188635Y0157261D01*
X0188673Y0157421D01*
X0188714Y0157580D01*
X0188760Y0157738D01*
X0188810Y0157894D01*
X0188863Y0158050D01*
X0188920Y0158204D01*
X0188981Y0158356D01*
X0189046Y0158507D01*
X0189115Y0158657D01*
X0189187Y0158804D01*
X0189262Y0158950D01*
X0189342Y0159094D01*
X0189424Y0159236D01*
X0189510Y0159376D01*
X0189600Y0159513D01*
X0189693Y0159649D01*
X0189789Y0159782D01*
X0189889Y0159913D01*
X0189991Y0160041D01*
X0190097Y0160167D01*
X0190206Y0160290D01*
X0190318Y0160410D01*
X0190432Y0160528D01*
X0190550Y0160642D01*
X0190670Y0160754D01*
X0190793Y0160863D01*
X0190919Y0160969D01*
X0191047Y0161071D01*
X0191178Y0161171D01*
X0191311Y0161267D01*
X0191447Y0161360D01*
X0191584Y0161450D01*
X0191724Y0161536D01*
X0191866Y0161618D01*
X0192010Y0161698D01*
X0192156Y0161773D01*
X0192303Y0161845D01*
X0192453Y0161914D01*
X0192604Y0161979D01*
X0192756Y0162040D01*
X0192910Y0162097D01*
X0193066Y0162150D01*
X0193222Y0162200D01*
X0193380Y0162246D01*
X0193539Y0162287D01*
X0193699Y0162325D01*
X0193859Y0162359D01*
X0194021Y0162389D01*
X0194183Y0162416D01*
X0194346Y0162438D01*
X0194509Y0162456D01*
X0194673Y0162470D01*
X0194837Y0162480D01*
X0195001Y0162486D01*
X0195165Y0162488D01*
X0195329Y0162486D01*
X0195493Y0162480D01*
X0195657Y0162470D01*
X0195821Y0162456D01*
X0195984Y0162438D01*
X0196147Y0162416D01*
X0196309Y0162389D01*
X0196471Y0162359D01*
X0196631Y0162325D01*
X0196791Y0162287D01*
X0196950Y0162246D01*
X0197108Y0162200D01*
X0197264Y0162150D01*
X0197420Y0162097D01*
X0197574Y0162040D01*
X0197726Y0161979D01*
X0197877Y0161914D01*
X0198027Y0161845D01*
X0198174Y0161773D01*
X0198320Y0161698D01*
X0198464Y0161618D01*
X0198606Y0161536D01*
X0198746Y0161450D01*
X0198883Y0161360D01*
X0199019Y0161267D01*
X0199152Y0161171D01*
X0199283Y0161071D01*
X0199411Y0160969D01*
X0199537Y0160863D01*
X0199660Y0160754D01*
X0199780Y0160642D01*
X0199898Y0160528D01*
X0200012Y0160410D01*
X0200124Y0160290D01*
X0200233Y0160167D01*
X0200339Y0160041D01*
X0200441Y0159913D01*
X0200541Y0159782D01*
X0200637Y0159649D01*
X0200730Y0159513D01*
X0200820Y0159376D01*
X0200906Y0159236D01*
X0200988Y0159094D01*
X0201068Y0158950D01*
X0201143Y0158804D01*
X0201215Y0158657D01*
X0201284Y0158507D01*
X0201349Y0158356D01*
X0201410Y0158204D01*
X0201467Y0158050D01*
X0201520Y0157894D01*
X0201570Y0157738D01*
X0201616Y0157580D01*
X0201657Y0157421D01*
X0201695Y0157261D01*
X0201729Y0157101D01*
X0201759Y0156939D01*
X0201786Y0156777D01*
X0201808Y0156614D01*
X0201826Y0156451D01*
X0201840Y0156287D01*
X0201850Y0156123D01*
X0201856Y0155959D01*
X0201858Y0155795D01*
X0201856Y0155631D01*
X0201850Y0155467D01*
X0201840Y0155303D01*
X0201826Y0155139D01*
X0201808Y0154976D01*
X0201786Y0154813D01*
X0201759Y0154651D01*
X0201729Y0154489D01*
X0201695Y0154329D01*
X0201657Y0154169D01*
X0201616Y0154010D01*
X0201570Y0153852D01*
X0201520Y0153696D01*
X0201467Y0153540D01*
X0201410Y0153386D01*
X0201349Y0153234D01*
X0201284Y0153083D01*
X0201215Y0152933D01*
X0201143Y0152786D01*
X0201068Y0152640D01*
X0200988Y0152496D01*
X0200906Y0152354D01*
X0200820Y0152214D01*
X0200730Y0152077D01*
X0200637Y0151941D01*
X0200541Y0151808D01*
X0200441Y0151677D01*
X0200339Y0151549D01*
X0200233Y0151423D01*
X0200124Y0151300D01*
X0200012Y0151180D01*
X0199898Y0151062D01*
X0199780Y0150948D01*
X0199660Y0150836D01*
X0199537Y0150727D01*
X0199411Y0150621D01*
X0199283Y0150519D01*
X0199152Y0150419D01*
X0199019Y0150323D01*
X0198883Y0150230D01*
X0198746Y0150140D01*
X0198606Y0150054D01*
X0198464Y0149972D01*
X0198320Y0149892D01*
X0198174Y0149817D01*
X0198027Y0149745D01*
X0197877Y0149676D01*
X0197726Y0149611D01*
X0197574Y0149550D01*
X0197420Y0149493D01*
X0197264Y0149440D01*
X0197108Y0149390D01*
X0196950Y0149344D01*
X0196791Y0149303D01*
X0196631Y0149265D01*
X0196471Y0149231D01*
X0196309Y0149201D01*
X0196147Y0149174D01*
X0195984Y0149152D01*
X0195821Y0149134D01*
X0195657Y0149120D01*
X0195493Y0149110D01*
X0195329Y0149104D01*
X0195165Y0149102D01*
X0195001Y0149104D01*
X0194837Y0149110D01*
X0194673Y0149120D01*
X0194509Y0149134D01*
X0194346Y0149152D01*
X0194183Y0149174D01*
X0194021Y0149201D01*
X0193859Y0149231D01*
X0193699Y0149265D01*
X0193539Y0149303D01*
X0193380Y0149344D01*
X0193222Y0149390D01*
X0193066Y0149440D01*
X0192910Y0149493D01*
X0192756Y0149550D01*
X0192604Y0149611D01*
X0192453Y0149676D01*
X0192303Y0149745D01*
X0192156Y0149817D01*
X0192010Y0149892D01*
X0191866Y0149972D01*
X0191724Y0150054D01*
X0191584Y0150140D01*
X0191447Y0150230D01*
X0191311Y0150323D01*
X0191178Y0150419D01*
X0191047Y0150519D01*
X0190919Y0150621D01*
X0190793Y0150727D01*
X0190670Y0150836D01*
X0190550Y0150948D01*
X0190432Y0151062D01*
X0190318Y0151180D01*
X0190206Y0151300D01*
X0190097Y0151423D01*
X0189991Y0151549D01*
X0189889Y0151677D01*
X0189789Y0151808D01*
X0189693Y0151941D01*
X0189600Y0152077D01*
X0189510Y0152214D01*
X0189424Y0152354D01*
X0189342Y0152496D01*
X0189262Y0152640D01*
X0189187Y0152786D01*
X0189115Y0152933D01*
X0189046Y0153083D01*
X0188981Y0153234D01*
X0188920Y0153386D01*
X0188863Y0153540D01*
X0188810Y0153696D01*
X0188760Y0153852D01*
X0188714Y0154010D01*
X0188673Y0154169D01*
X0188635Y0154329D01*
X0188601Y0154489D01*
X0188571Y0154651D01*
X0188544Y0154813D01*
X0188522Y0154976D01*
X0188504Y0155139D01*
X0188490Y0155303D01*
X0188480Y0155467D01*
X0188474Y0155631D01*
X0188472Y0155795D01*
X0326071Y0155795D02*
X0326073Y0155964D01*
X0326079Y0156133D01*
X0326090Y0156302D01*
X0326104Y0156470D01*
X0326123Y0156638D01*
X0326146Y0156806D01*
X0326172Y0156973D01*
X0326203Y0157139D01*
X0326238Y0157305D01*
X0326277Y0157469D01*
X0326321Y0157633D01*
X0326368Y0157795D01*
X0326419Y0157956D01*
X0326474Y0158116D01*
X0326533Y0158275D01*
X0326595Y0158432D01*
X0326662Y0158587D01*
X0326733Y0158741D01*
X0326807Y0158893D01*
X0326885Y0159043D01*
X0326966Y0159191D01*
X0327051Y0159337D01*
X0327140Y0159481D01*
X0327232Y0159623D01*
X0327328Y0159762D01*
X0327427Y0159899D01*
X0327529Y0160034D01*
X0327635Y0160166D01*
X0327744Y0160295D01*
X0327856Y0160422D01*
X0327971Y0160546D01*
X0328089Y0160667D01*
X0328210Y0160785D01*
X0328334Y0160900D01*
X0328461Y0161012D01*
X0328590Y0161121D01*
X0328722Y0161227D01*
X0328857Y0161329D01*
X0328994Y0161428D01*
X0329133Y0161524D01*
X0329275Y0161616D01*
X0329419Y0161705D01*
X0329565Y0161790D01*
X0329713Y0161871D01*
X0329863Y0161949D01*
X0330015Y0162023D01*
X0330169Y0162094D01*
X0330324Y0162161D01*
X0330481Y0162223D01*
X0330640Y0162282D01*
X0330800Y0162337D01*
X0330961Y0162388D01*
X0331123Y0162435D01*
X0331287Y0162479D01*
X0331451Y0162518D01*
X0331617Y0162553D01*
X0331783Y0162584D01*
X0331950Y0162610D01*
X0332118Y0162633D01*
X0332286Y0162652D01*
X0332454Y0162666D01*
X0332623Y0162677D01*
X0332792Y0162683D01*
X0332961Y0162685D01*
X0333130Y0162683D01*
X0333299Y0162677D01*
X0333468Y0162666D01*
X0333636Y0162652D01*
X0333804Y0162633D01*
X0333972Y0162610D01*
X0334139Y0162584D01*
X0334305Y0162553D01*
X0334471Y0162518D01*
X0334635Y0162479D01*
X0334799Y0162435D01*
X0334961Y0162388D01*
X0335122Y0162337D01*
X0335282Y0162282D01*
X0335441Y0162223D01*
X0335598Y0162161D01*
X0335753Y0162094D01*
X0335907Y0162023D01*
X0336059Y0161949D01*
X0336209Y0161871D01*
X0336357Y0161790D01*
X0336503Y0161705D01*
X0336647Y0161616D01*
X0336789Y0161524D01*
X0336928Y0161428D01*
X0337065Y0161329D01*
X0337200Y0161227D01*
X0337332Y0161121D01*
X0337461Y0161012D01*
X0337588Y0160900D01*
X0337712Y0160785D01*
X0337833Y0160667D01*
X0337951Y0160546D01*
X0338066Y0160422D01*
X0338178Y0160295D01*
X0338287Y0160166D01*
X0338393Y0160034D01*
X0338495Y0159899D01*
X0338594Y0159762D01*
X0338690Y0159623D01*
X0338782Y0159481D01*
X0338871Y0159337D01*
X0338956Y0159191D01*
X0339037Y0159043D01*
X0339115Y0158893D01*
X0339189Y0158741D01*
X0339260Y0158587D01*
X0339327Y0158432D01*
X0339389Y0158275D01*
X0339448Y0158116D01*
X0339503Y0157956D01*
X0339554Y0157795D01*
X0339601Y0157633D01*
X0339645Y0157469D01*
X0339684Y0157305D01*
X0339719Y0157139D01*
X0339750Y0156973D01*
X0339776Y0156806D01*
X0339799Y0156638D01*
X0339818Y0156470D01*
X0339832Y0156302D01*
X0339843Y0156133D01*
X0339849Y0155964D01*
X0339851Y0155795D01*
X0339849Y0155626D01*
X0339843Y0155457D01*
X0339832Y0155288D01*
X0339818Y0155120D01*
X0339799Y0154952D01*
X0339776Y0154784D01*
X0339750Y0154617D01*
X0339719Y0154451D01*
X0339684Y0154285D01*
X0339645Y0154121D01*
X0339601Y0153957D01*
X0339554Y0153795D01*
X0339503Y0153634D01*
X0339448Y0153474D01*
X0339389Y0153315D01*
X0339327Y0153158D01*
X0339260Y0153003D01*
X0339189Y0152849D01*
X0339115Y0152697D01*
X0339037Y0152547D01*
X0338956Y0152399D01*
X0338871Y0152253D01*
X0338782Y0152109D01*
X0338690Y0151967D01*
X0338594Y0151828D01*
X0338495Y0151691D01*
X0338393Y0151556D01*
X0338287Y0151424D01*
X0338178Y0151295D01*
X0338066Y0151168D01*
X0337951Y0151044D01*
X0337833Y0150923D01*
X0337712Y0150805D01*
X0337588Y0150690D01*
X0337461Y0150578D01*
X0337332Y0150469D01*
X0337200Y0150363D01*
X0337065Y0150261D01*
X0336928Y0150162D01*
X0336789Y0150066D01*
X0336647Y0149974D01*
X0336503Y0149885D01*
X0336357Y0149800D01*
X0336209Y0149719D01*
X0336059Y0149641D01*
X0335907Y0149567D01*
X0335753Y0149496D01*
X0335598Y0149429D01*
X0335441Y0149367D01*
X0335282Y0149308D01*
X0335122Y0149253D01*
X0334961Y0149202D01*
X0334799Y0149155D01*
X0334635Y0149111D01*
X0334471Y0149072D01*
X0334305Y0149037D01*
X0334139Y0149006D01*
X0333972Y0148980D01*
X0333804Y0148957D01*
X0333636Y0148938D01*
X0333468Y0148924D01*
X0333299Y0148913D01*
X0333130Y0148907D01*
X0332961Y0148905D01*
X0332792Y0148907D01*
X0332623Y0148913D01*
X0332454Y0148924D01*
X0332286Y0148938D01*
X0332118Y0148957D01*
X0331950Y0148980D01*
X0331783Y0149006D01*
X0331617Y0149037D01*
X0331451Y0149072D01*
X0331287Y0149111D01*
X0331123Y0149155D01*
X0330961Y0149202D01*
X0330800Y0149253D01*
X0330640Y0149308D01*
X0330481Y0149367D01*
X0330324Y0149429D01*
X0330169Y0149496D01*
X0330015Y0149567D01*
X0329863Y0149641D01*
X0329713Y0149719D01*
X0329565Y0149800D01*
X0329419Y0149885D01*
X0329275Y0149974D01*
X0329133Y0150066D01*
X0328994Y0150162D01*
X0328857Y0150261D01*
X0328722Y0150363D01*
X0328590Y0150469D01*
X0328461Y0150578D01*
X0328334Y0150690D01*
X0328210Y0150805D01*
X0328089Y0150923D01*
X0327971Y0151044D01*
X0327856Y0151168D01*
X0327744Y0151295D01*
X0327635Y0151424D01*
X0327529Y0151556D01*
X0327427Y0151691D01*
X0327328Y0151828D01*
X0327232Y0151967D01*
X0327140Y0152109D01*
X0327051Y0152253D01*
X0326966Y0152399D01*
X0326885Y0152547D01*
X0326807Y0152697D01*
X0326733Y0152849D01*
X0326662Y0153003D01*
X0326595Y0153158D01*
X0326533Y0153315D01*
X0326474Y0153474D01*
X0326419Y0153634D01*
X0326368Y0153795D01*
X0326321Y0153957D01*
X0326277Y0154121D01*
X0326238Y0154285D01*
X0326203Y0154451D01*
X0326172Y0154617D01*
X0326146Y0154784D01*
X0326123Y0154952D01*
X0326104Y0155120D01*
X0326090Y0155288D01*
X0326079Y0155457D01*
X0326073Y0155626D01*
X0326071Y0155795D01*
D14*
X0325953Y0136898D02*
X0155953Y0136898D01*
X0155953Y0126898D01*
X0325953Y0126898D01*
X0325953Y0136898D01*
X0273157Y0143157D02*
X0273157Y0163157D01*
X0233157Y0163157D01*
X0233157Y0143157D01*
X0273157Y0143157D01*
X0307657Y0109157D02*
X0307657Y0069157D01*
X0172657Y0069157D01*
X0172657Y0109157D01*
X0307657Y0109157D01*
X0325953Y0046898D02*
X0325953Y0036898D01*
X0155953Y0036898D01*
X0155953Y0046898D01*
X0325953Y0046898D01*
X0327257Y0041878D02*
X0327259Y0041972D01*
X0327265Y0042066D01*
X0327275Y0042160D01*
X0327289Y0042253D01*
X0327307Y0042346D01*
X0327328Y0042438D01*
X0327354Y0042528D01*
X0327383Y0042618D01*
X0327416Y0042706D01*
X0327453Y0042793D01*
X0327493Y0042878D01*
X0327537Y0042962D01*
X0327585Y0043043D01*
X0327635Y0043123D01*
X0327690Y0043200D01*
X0327747Y0043275D01*
X0327807Y0043347D01*
X0327871Y0043417D01*
X0327937Y0043484D01*
X0328006Y0043548D01*
X0328078Y0043609D01*
X0328152Y0043667D01*
X0328229Y0043722D01*
X0328308Y0043774D01*
X0328389Y0043822D01*
X0328472Y0043867D01*
X0328556Y0043908D01*
X0328643Y0043946D01*
X0328731Y0043980D01*
X0328820Y0044010D01*
X0328910Y0044037D01*
X0329002Y0044059D01*
X0329094Y0044078D01*
X0329188Y0044093D01*
X0329281Y0044104D01*
X0329375Y0044111D01*
X0329469Y0044114D01*
X0329564Y0044113D01*
X0329658Y0044108D01*
X0329752Y0044099D01*
X0329845Y0044086D01*
X0329938Y0044069D01*
X0330030Y0044049D01*
X0330121Y0044024D01*
X0330211Y0043996D01*
X0330299Y0043964D01*
X0330387Y0043928D01*
X0330472Y0043888D01*
X0330556Y0043845D01*
X0330638Y0043799D01*
X0330718Y0043749D01*
X0330796Y0043695D01*
X0330871Y0043639D01*
X0330944Y0043579D01*
X0331015Y0043516D01*
X0331082Y0043451D01*
X0331147Y0043382D01*
X0331209Y0043311D01*
X0331268Y0043238D01*
X0331324Y0043162D01*
X0331376Y0043083D01*
X0331425Y0043003D01*
X0331471Y0042920D01*
X0331513Y0042836D01*
X0331552Y0042750D01*
X0331587Y0042662D01*
X0331618Y0042573D01*
X0331646Y0042483D01*
X0331669Y0042392D01*
X0331689Y0042300D01*
X0331705Y0042207D01*
X0331717Y0042113D01*
X0331725Y0042019D01*
X0331729Y0041925D01*
X0331729Y0041831D01*
X0331725Y0041737D01*
X0331717Y0041643D01*
X0331705Y0041549D01*
X0331689Y0041456D01*
X0331669Y0041364D01*
X0331646Y0041273D01*
X0331618Y0041183D01*
X0331587Y0041094D01*
X0331552Y0041006D01*
X0331513Y0040920D01*
X0331471Y0040836D01*
X0331425Y0040753D01*
X0331376Y0040673D01*
X0331324Y0040594D01*
X0331268Y0040518D01*
X0331209Y0040445D01*
X0331147Y0040374D01*
X0331082Y0040305D01*
X0331015Y0040240D01*
X0330944Y0040177D01*
X0330871Y0040117D01*
X0330796Y0040061D01*
X0330718Y0040007D01*
X0330638Y0039957D01*
X0330556Y0039911D01*
X0330472Y0039868D01*
X0330387Y0039828D01*
X0330299Y0039792D01*
X0330211Y0039760D01*
X0330121Y0039732D01*
X0330030Y0039707D01*
X0329938Y0039687D01*
X0329845Y0039670D01*
X0329752Y0039657D01*
X0329658Y0039648D01*
X0329564Y0039643D01*
X0329469Y0039642D01*
X0329375Y0039645D01*
X0329281Y0039652D01*
X0329188Y0039663D01*
X0329094Y0039678D01*
X0329002Y0039697D01*
X0328910Y0039719D01*
X0328820Y0039746D01*
X0328731Y0039776D01*
X0328643Y0039810D01*
X0328556Y0039848D01*
X0328472Y0039889D01*
X0328389Y0039934D01*
X0328308Y0039982D01*
X0328229Y0040034D01*
X0328152Y0040089D01*
X0328078Y0040147D01*
X0328006Y0040208D01*
X0327937Y0040272D01*
X0327871Y0040339D01*
X0327807Y0040409D01*
X0327747Y0040481D01*
X0327690Y0040556D01*
X0327635Y0040633D01*
X0327585Y0040713D01*
X0327537Y0040794D01*
X0327493Y0040878D01*
X0327453Y0040963D01*
X0327416Y0041050D01*
X0327383Y0041138D01*
X0327354Y0041228D01*
X0327328Y0041318D01*
X0327307Y0041410D01*
X0327289Y0041503D01*
X0327275Y0041596D01*
X0327265Y0041690D01*
X0327259Y0041784D01*
X0327257Y0041878D01*
X0132222Y0049659D02*
X0129219Y0049659D01*
X0131471Y0051911D01*
X0131471Y0047407D01*
X0127618Y0048158D02*
X0127618Y0051161D01*
X0126867Y0051911D01*
X0124615Y0051911D01*
X0124615Y0047407D01*
X0126867Y0047407D01*
X0127618Y0048158D01*
X0123014Y0047407D02*
X0123014Y0050410D01*
X0121513Y0051911D01*
X0120011Y0050410D01*
X0120011Y0047407D01*
X0120011Y0049659D02*
X0123014Y0049659D01*
X0118410Y0049659D02*
X0117659Y0048909D01*
X0115407Y0048909D01*
X0115407Y0047407D02*
X0115407Y0051911D01*
X0117659Y0051911D01*
X0118410Y0051161D01*
X0118410Y0049659D01*
X0120011Y0057407D02*
X0120011Y0060410D01*
X0121513Y0061911D01*
X0123014Y0060410D01*
X0123014Y0057407D01*
X0124615Y0057407D02*
X0126867Y0057407D01*
X0127618Y0058158D01*
X0127618Y0061161D01*
X0126867Y0061911D01*
X0124615Y0061911D01*
X0124615Y0057407D01*
X0123014Y0059659D02*
X0120011Y0059659D01*
X0118410Y0059659D02*
X0117659Y0058909D01*
X0115407Y0058909D01*
X0115407Y0057407D02*
X0115407Y0061911D01*
X0117659Y0061911D01*
X0118410Y0061161D01*
X0118410Y0059659D01*
X0129219Y0058158D02*
X0129970Y0057407D01*
X0131471Y0057407D01*
X0132222Y0058158D01*
X0132222Y0058909D01*
X0131471Y0059659D01*
X0130721Y0059659D01*
X0131471Y0059659D02*
X0132222Y0060410D01*
X0132222Y0061161D01*
X0131471Y0061911D01*
X0129970Y0061911D01*
X0129219Y0061161D01*
X0129219Y0067407D02*
X0132222Y0067407D01*
X0130721Y0067407D02*
X0130721Y0071911D01*
X0129219Y0070410D01*
X0127618Y0071161D02*
X0126867Y0071911D01*
X0124615Y0071911D01*
X0124615Y0067407D01*
X0126867Y0067407D01*
X0127618Y0068158D01*
X0127618Y0071161D01*
X0123014Y0070410D02*
X0123014Y0067407D01*
X0120011Y0067407D02*
X0120011Y0070410D01*
X0121513Y0071911D01*
X0123014Y0070410D01*
X0123014Y0069659D02*
X0120011Y0069659D01*
X0118410Y0069659D02*
X0117659Y0068909D01*
X0115407Y0068909D01*
X0115407Y0067407D02*
X0115407Y0071911D01*
X0117659Y0071911D01*
X0118410Y0071161D01*
X0118410Y0069659D01*
X0120011Y0077407D02*
X0120011Y0080410D01*
X0121513Y0081911D01*
X0123014Y0080410D01*
X0123014Y0077407D01*
X0124615Y0077407D02*
X0126867Y0077407D01*
X0127618Y0078158D01*
X0127618Y0081161D01*
X0126867Y0081911D01*
X0124615Y0081911D01*
X0124615Y0077407D01*
X0123014Y0079659D02*
X0120011Y0079659D01*
X0118410Y0079659D02*
X0118410Y0081161D01*
X0117659Y0081911D01*
X0115407Y0081911D01*
X0115407Y0077407D01*
X0115407Y0078909D02*
X0117659Y0078909D01*
X0118410Y0079659D01*
X0129219Y0081161D02*
X0129970Y0081911D01*
X0131471Y0081911D01*
X0132222Y0081161D01*
X0132222Y0080410D01*
X0129219Y0077407D01*
X0132222Y0077407D01*
X0071156Y0075931D02*
X0071156Y0075047D01*
X0071156Y0075489D02*
X0068504Y0075489D01*
X0068504Y0075047D01*
X0069830Y0073915D02*
X0071156Y0073915D01*
X0071156Y0072589D01*
X0070714Y0072147D01*
X0070272Y0072589D01*
X0070272Y0073915D01*
X0069830Y0073915D02*
X0069388Y0073473D01*
X0069388Y0072589D01*
X0069388Y0071098D02*
X0069388Y0070214D01*
X0068946Y0070656D02*
X0070714Y0070656D01*
X0071156Y0071098D01*
X0070714Y0069081D02*
X0070272Y0068639D01*
X0070272Y0067755D01*
X0069830Y0067313D01*
X0069388Y0067755D01*
X0069388Y0069081D01*
X0070714Y0069081D02*
X0071156Y0068639D01*
X0071156Y0067313D01*
X0071156Y0066181D02*
X0071156Y0064855D01*
X0070714Y0064413D01*
X0069388Y0064413D01*
X0069388Y0063323D02*
X0069388Y0062881D01*
X0070272Y0061997D01*
X0071156Y0061997D02*
X0069388Y0061997D01*
X0068946Y0060864D02*
X0068504Y0060422D01*
X0068504Y0059538D01*
X0068946Y0059096D01*
X0070714Y0059096D01*
X0071156Y0059538D01*
X0071156Y0060422D01*
X0070714Y0060864D01*
X0072039Y0065297D02*
X0072039Y0065739D01*
X0071597Y0066181D01*
X0069388Y0066181D01*
X0054884Y0058944D02*
X0054442Y0059386D01*
X0053558Y0059386D01*
X0053116Y0058944D01*
X0053116Y0057176D01*
X0053558Y0056734D01*
X0054442Y0056734D01*
X0054884Y0057176D01*
X0052067Y0056734D02*
X0051183Y0056734D01*
X0051625Y0056734D02*
X0051625Y0059386D01*
X0051183Y0059386D02*
X0052067Y0059386D01*
X0113122Y0110157D02*
X0113122Y0118031D01*
X0115406Y0120157D01*
X0113122Y0122283D01*
X0113122Y0128031D01*
X0115406Y0130157D01*
X0113122Y0132283D01*
X0113122Y0138031D01*
X0115406Y0140157D01*
X0113122Y0142283D01*
X0113122Y0150157D01*
X0123122Y0150157D01*
X0123122Y0142283D01*
X0120917Y0140157D01*
X0123122Y0138031D01*
X0123122Y0132283D01*
X0120917Y0130157D01*
X0123122Y0128031D01*
X0123122Y0122283D01*
X0120917Y0120157D01*
X0123122Y0118031D01*
X0123122Y0110157D01*
X0113122Y0110157D01*
D15*
X0254657Y0023757D03*
D16*
X0250907Y0023757D03*
X0271407Y0023757D03*
D17*
X0036033Y0047085D02*
X0035032Y0047085D01*
X0036033Y0048086D01*
X0036033Y0048336D01*
X0035783Y0048587D01*
X0035282Y0048587D01*
X0035032Y0048336D01*
X0034560Y0048336D02*
X0034309Y0048587D01*
X0033809Y0048587D01*
X0033559Y0048336D01*
X0033559Y0048086D01*
X0033809Y0047836D01*
X0034309Y0047836D01*
X0034560Y0047586D01*
X0034560Y0047336D01*
X0034309Y0047085D01*
X0033809Y0047085D01*
X0033559Y0047336D01*
X0033086Y0047336D02*
X0033086Y0048587D01*
X0032085Y0048587D02*
X0032085Y0047336D01*
X0032336Y0047085D01*
X0032836Y0047085D01*
X0033086Y0047336D01*
X0034059Y0046835D02*
X0034059Y0048837D01*
D18*
X0043854Y0123150D02*
X0048457Y0126219D01*
X0048457Y0127754D02*
X0048457Y0130823D01*
X0048457Y0129288D02*
X0043854Y0129288D01*
X0045388Y0127754D01*
X0043854Y0126219D02*
X0048457Y0123150D01*
M02*
