G75*
%MOIN*%
%OFA0B0*%
%FSLAX25Y25*%
%IPPOS*%
%LPD*%
%AMOC8*
5,1,8,0,0,1.08239X$1,22.5*
%
%ADD10C,0.00000*%
%ADD11C,0.00300*%
%ADD12C,0.00600*%
%ADD13C,0.00800*%
%ADD14C,0.00500*%
%ADD15R,0.02000X0.08000*%
%ADD16R,0.02500X0.02000*%
%ADD17C,0.00100*%
%ADD18C,0.00400*%
D10*
X0008500Y0008157D02*
X0008500Y0165638D01*
X0343146Y0165638D01*
X0343146Y0008157D01*
X0008500Y0008157D01*
D11*
X0215933Y0020307D02*
X0215933Y0023210D01*
X0217868Y0023210D01*
X0218880Y0023210D02*
X0220815Y0023210D01*
X0219847Y0023210D02*
X0219847Y0020307D01*
X0221827Y0020307D02*
X0223278Y0020307D01*
X0223761Y0020791D01*
X0223761Y0022726D01*
X0223278Y0023210D01*
X0221827Y0023210D01*
X0221827Y0020307D01*
X0224773Y0020307D02*
X0225741Y0020307D01*
X0225257Y0020307D02*
X0225257Y0023210D01*
X0224773Y0023210D02*
X0225741Y0023210D01*
X0216901Y0021759D02*
X0215933Y0021759D01*
X0226650Y0030907D02*
X0226650Y0033810D01*
X0228101Y0033810D01*
X0228585Y0033326D01*
X0228585Y0032359D01*
X0228101Y0031875D01*
X0226650Y0031875D01*
X0227617Y0031875D02*
X0228585Y0030907D01*
X0229597Y0030907D02*
X0231531Y0030907D01*
X0230564Y0030907D02*
X0230564Y0033810D01*
X0229597Y0032842D01*
X0257650Y0026810D02*
X0257650Y0023907D01*
X0259101Y0023907D01*
X0259585Y0024391D01*
X0259585Y0026326D01*
X0259101Y0026810D01*
X0257650Y0026810D01*
X0260597Y0025842D02*
X0261564Y0026810D01*
X0261564Y0023907D01*
X0260597Y0023907D02*
X0262531Y0023907D01*
X0274810Y0014542D02*
X0275778Y0015510D01*
X0275778Y0012607D01*
X0276745Y0012607D02*
X0274810Y0012607D01*
X0277757Y0012607D02*
X0277757Y0015510D01*
X0279692Y0015510D02*
X0279692Y0012607D01*
X0278724Y0013575D01*
X0277757Y0012607D01*
X0280703Y0012607D02*
X0280703Y0015510D01*
X0282155Y0015510D01*
X0282638Y0015026D01*
X0282638Y0014059D01*
X0282155Y0013575D01*
X0280703Y0013575D01*
X0281671Y0013575D02*
X0282638Y0012607D01*
X0311631Y0049914D02*
X0313566Y0049914D01*
X0314050Y0050398D01*
X0314050Y0051366D01*
X0313566Y0051849D01*
X0314050Y0052861D02*
X0312115Y0054796D01*
X0311631Y0054796D01*
X0311148Y0054312D01*
X0311148Y0053345D01*
X0311631Y0052861D01*
X0311631Y0051849D02*
X0311148Y0051366D01*
X0311148Y0050398D01*
X0311631Y0049914D01*
X0314050Y0052861D02*
X0314050Y0054796D01*
X0313566Y0059914D02*
X0311631Y0059914D01*
X0311148Y0060398D01*
X0311148Y0061366D01*
X0311631Y0061849D01*
X0311631Y0062861D02*
X0311148Y0063345D01*
X0311148Y0064312D01*
X0311631Y0064796D01*
X0312115Y0064796D01*
X0312599Y0064312D01*
X0313083Y0064796D01*
X0313566Y0064796D01*
X0314050Y0064312D01*
X0314050Y0063345D01*
X0313566Y0062861D01*
X0313566Y0061849D02*
X0314050Y0061366D01*
X0314050Y0060398D01*
X0313566Y0059914D01*
X0312599Y0063828D02*
X0312599Y0064312D01*
X0333648Y0061328D02*
X0336550Y0061328D01*
X0336550Y0060361D02*
X0336550Y0062296D01*
X0334615Y0060361D02*
X0333648Y0061328D01*
X0334131Y0059349D02*
X0333648Y0058866D01*
X0333648Y0057898D01*
X0334131Y0057414D01*
X0336066Y0057414D01*
X0336550Y0057898D01*
X0336550Y0058866D01*
X0336066Y0059349D01*
X0336350Y0071307D02*
X0336350Y0072275D01*
X0336350Y0071791D02*
X0333448Y0071791D01*
X0333448Y0071307D02*
X0333448Y0072275D01*
X0333931Y0073272D02*
X0333448Y0073756D01*
X0333448Y0074723D01*
X0333931Y0075207D01*
X0334415Y0076218D02*
X0333448Y0077186D01*
X0336350Y0077186D01*
X0336350Y0078153D02*
X0336350Y0076218D01*
X0335866Y0075207D02*
X0336350Y0074723D01*
X0336350Y0073756D01*
X0335866Y0073272D01*
X0333931Y0073272D01*
X0329050Y0084914D02*
X0326148Y0084914D01*
X0326148Y0086366D01*
X0326631Y0086849D01*
X0327599Y0086849D01*
X0328083Y0086366D01*
X0328083Y0084914D01*
X0328083Y0085882D02*
X0329050Y0086849D01*
X0329050Y0087861D02*
X0327115Y0089796D01*
X0326631Y0089796D01*
X0326148Y0089312D01*
X0326148Y0088345D01*
X0326631Y0087861D01*
X0329050Y0087861D02*
X0329050Y0089796D01*
X0329050Y0094914D02*
X0326148Y0094914D01*
X0326148Y0096366D01*
X0326631Y0096849D01*
X0327599Y0096849D01*
X0328083Y0096366D01*
X0328083Y0094914D01*
X0328083Y0095882D02*
X0329050Y0096849D01*
X0328566Y0097861D02*
X0329050Y0098345D01*
X0329050Y0099312D01*
X0328566Y0099796D01*
X0328083Y0099796D01*
X0327599Y0099312D01*
X0327599Y0098828D01*
X0327599Y0099312D02*
X0327115Y0099796D01*
X0326631Y0099796D01*
X0326148Y0099312D01*
X0326148Y0098345D01*
X0326631Y0097861D01*
X0305548Y0088710D02*
X0304097Y0087259D01*
X0306031Y0087259D01*
X0305548Y0088710D02*
X0305548Y0085807D01*
X0303085Y0086291D02*
X0302601Y0085807D01*
X0301634Y0085807D01*
X0301150Y0086291D01*
X0301150Y0088226D01*
X0301634Y0088710D01*
X0302601Y0088710D01*
X0303085Y0088226D01*
D12*
X0320693Y0079236D02*
X0326303Y0079236D01*
X0326303Y0067079D01*
X0320693Y0067079D01*
X0320693Y0079236D01*
X0239000Y0034357D02*
X0237500Y0034357D01*
X0237000Y0033857D01*
X0218000Y0033857D01*
X0217500Y0034357D01*
X0216000Y0034357D01*
X0215940Y0034355D01*
X0215879Y0034350D01*
X0215820Y0034341D01*
X0215761Y0034328D01*
X0215702Y0034312D01*
X0215645Y0034292D01*
X0215590Y0034269D01*
X0215535Y0034242D01*
X0215483Y0034213D01*
X0215432Y0034180D01*
X0215383Y0034144D01*
X0215337Y0034106D01*
X0215293Y0034064D01*
X0215251Y0034020D01*
X0215213Y0033974D01*
X0215177Y0033925D01*
X0215144Y0033874D01*
X0215115Y0033822D01*
X0215088Y0033767D01*
X0215065Y0033712D01*
X0215045Y0033655D01*
X0215029Y0033596D01*
X0215016Y0033537D01*
X0215007Y0033478D01*
X0215002Y0033417D01*
X0215000Y0033357D01*
X0215000Y0026357D02*
X0215002Y0026297D01*
X0215007Y0026236D01*
X0215016Y0026177D01*
X0215029Y0026118D01*
X0215045Y0026059D01*
X0215065Y0026002D01*
X0215088Y0025947D01*
X0215115Y0025892D01*
X0215144Y0025840D01*
X0215177Y0025789D01*
X0215213Y0025740D01*
X0215251Y0025694D01*
X0215293Y0025650D01*
X0215337Y0025608D01*
X0215383Y0025570D01*
X0215432Y0025534D01*
X0215483Y0025501D01*
X0215535Y0025472D01*
X0215590Y0025445D01*
X0215645Y0025422D01*
X0215702Y0025402D01*
X0215761Y0025386D01*
X0215820Y0025373D01*
X0215879Y0025364D01*
X0215940Y0025359D01*
X0216000Y0025357D01*
X0217500Y0025357D01*
X0218000Y0025857D01*
X0237000Y0025857D01*
X0237500Y0025357D01*
X0239000Y0025357D01*
X0239060Y0025359D01*
X0239121Y0025364D01*
X0239180Y0025373D01*
X0239239Y0025386D01*
X0239298Y0025402D01*
X0239355Y0025422D01*
X0239410Y0025445D01*
X0239465Y0025472D01*
X0239517Y0025501D01*
X0239568Y0025534D01*
X0239617Y0025570D01*
X0239663Y0025608D01*
X0239707Y0025650D01*
X0239749Y0025694D01*
X0239787Y0025740D01*
X0239823Y0025789D01*
X0239856Y0025840D01*
X0239885Y0025892D01*
X0239912Y0025947D01*
X0239935Y0026002D01*
X0239955Y0026059D01*
X0239971Y0026118D01*
X0239984Y0026177D01*
X0239993Y0026236D01*
X0239998Y0026297D01*
X0240000Y0026357D01*
X0252500Y0026757D02*
X0252500Y0020757D01*
X0252502Y0020697D01*
X0252507Y0020636D01*
X0252516Y0020577D01*
X0252529Y0020518D01*
X0252545Y0020459D01*
X0252565Y0020402D01*
X0252588Y0020347D01*
X0252615Y0020292D01*
X0252644Y0020240D01*
X0252677Y0020189D01*
X0252713Y0020140D01*
X0252751Y0020094D01*
X0252793Y0020050D01*
X0252837Y0020008D01*
X0252883Y0019970D01*
X0252932Y0019934D01*
X0252983Y0019901D01*
X0253035Y0019872D01*
X0253090Y0019845D01*
X0253145Y0019822D01*
X0253202Y0019802D01*
X0253261Y0019786D01*
X0253320Y0019773D01*
X0253379Y0019764D01*
X0253440Y0019759D01*
X0253500Y0019757D01*
X0269500Y0019757D01*
X0269560Y0019759D01*
X0269621Y0019764D01*
X0269680Y0019773D01*
X0269739Y0019786D01*
X0269798Y0019802D01*
X0269855Y0019822D01*
X0269910Y0019845D01*
X0269965Y0019872D01*
X0270017Y0019901D01*
X0270068Y0019934D01*
X0270117Y0019970D01*
X0270163Y0020008D01*
X0270207Y0020050D01*
X0270249Y0020094D01*
X0270287Y0020140D01*
X0270323Y0020189D01*
X0270356Y0020240D01*
X0270385Y0020292D01*
X0270412Y0020347D01*
X0270435Y0020402D01*
X0270455Y0020459D01*
X0270471Y0020518D01*
X0270484Y0020577D01*
X0270493Y0020636D01*
X0270498Y0020697D01*
X0270500Y0020757D01*
X0270500Y0026757D01*
X0270498Y0026817D01*
X0270493Y0026878D01*
X0270484Y0026937D01*
X0270471Y0026996D01*
X0270455Y0027055D01*
X0270435Y0027112D01*
X0270412Y0027167D01*
X0270385Y0027222D01*
X0270356Y0027274D01*
X0270323Y0027325D01*
X0270287Y0027374D01*
X0270249Y0027420D01*
X0270207Y0027464D01*
X0270163Y0027506D01*
X0270117Y0027544D01*
X0270068Y0027580D01*
X0270017Y0027613D01*
X0269965Y0027642D01*
X0269910Y0027669D01*
X0269855Y0027692D01*
X0269798Y0027712D01*
X0269739Y0027728D01*
X0269680Y0027741D01*
X0269621Y0027750D01*
X0269560Y0027755D01*
X0269500Y0027757D01*
X0253500Y0027757D01*
X0253440Y0027755D01*
X0253379Y0027750D01*
X0253320Y0027741D01*
X0253261Y0027728D01*
X0253202Y0027712D01*
X0253145Y0027692D01*
X0253090Y0027669D01*
X0253035Y0027642D01*
X0252983Y0027613D01*
X0252932Y0027580D01*
X0252883Y0027544D01*
X0252837Y0027506D01*
X0252793Y0027464D01*
X0252751Y0027420D01*
X0252713Y0027374D01*
X0252677Y0027325D01*
X0252644Y0027274D01*
X0252615Y0027222D01*
X0252588Y0027167D01*
X0252565Y0027112D01*
X0252545Y0027055D01*
X0252529Y0026996D01*
X0252516Y0026937D01*
X0252507Y0026878D01*
X0252502Y0026817D01*
X0252500Y0026757D01*
X0259000Y0023757D02*
X0261500Y0023757D01*
X0261500Y0021257D01*
X0261500Y0023757D02*
X0261500Y0026257D01*
X0261500Y0023757D02*
X0265500Y0026257D01*
X0265500Y0021257D01*
X0261500Y0023757D01*
X0267500Y0023757D01*
X0253185Y0017126D02*
X0253185Y0013189D01*
X0251217Y0011220D01*
X0247280Y0011220D01*
X0245311Y0013189D01*
X0245311Y0017126D01*
X0247280Y0019094D01*
X0251217Y0019094D01*
X0253185Y0017126D01*
X0245311Y0017126D02*
X0243343Y0019094D01*
X0239406Y0019094D01*
X0237437Y0017126D01*
X0237437Y0013189D01*
X0239406Y0011220D01*
X0243343Y0011220D01*
X0245311Y0013189D01*
X0237437Y0013189D02*
X0235469Y0011220D01*
X0231531Y0011220D01*
X0229563Y0013189D01*
X0229563Y0017126D01*
X0231531Y0019094D01*
X0235469Y0019094D01*
X0237437Y0017126D01*
X0229563Y0017126D02*
X0227594Y0019094D01*
X0223657Y0019094D01*
X0221689Y0017126D01*
X0221689Y0013189D01*
X0223657Y0011220D01*
X0227594Y0011220D01*
X0229563Y0013189D01*
X0221689Y0013189D02*
X0219720Y0011220D01*
X0215783Y0011220D01*
X0213815Y0013189D01*
X0213815Y0017126D01*
X0215783Y0019094D01*
X0219720Y0019094D01*
X0221689Y0017126D01*
X0182008Y0018000D02*
X0182012Y0018331D01*
X0182024Y0018662D01*
X0182045Y0018993D01*
X0182073Y0019323D01*
X0182110Y0019653D01*
X0182154Y0019981D01*
X0182207Y0020308D01*
X0182267Y0020634D01*
X0182336Y0020958D01*
X0182413Y0021280D01*
X0182497Y0021601D01*
X0182589Y0021919D01*
X0182689Y0022235D01*
X0182797Y0022548D01*
X0182913Y0022859D01*
X0183036Y0023166D01*
X0183166Y0023471D01*
X0183304Y0023772D01*
X0183449Y0024070D01*
X0183602Y0024364D01*
X0183762Y0024654D01*
X0183929Y0024940D01*
X0184102Y0025222D01*
X0184283Y0025500D01*
X0184471Y0025773D01*
X0184665Y0026042D01*
X0184865Y0026306D01*
X0185072Y0026564D01*
X0185286Y0026818D01*
X0185505Y0027066D01*
X0185731Y0027309D01*
X0185962Y0027546D01*
X0186199Y0027777D01*
X0186442Y0028003D01*
X0186690Y0028222D01*
X0186944Y0028436D01*
X0187202Y0028643D01*
X0187466Y0028843D01*
X0187735Y0029037D01*
X0188008Y0029225D01*
X0188286Y0029406D01*
X0188568Y0029579D01*
X0188854Y0029746D01*
X0189144Y0029906D01*
X0189438Y0030059D01*
X0189736Y0030204D01*
X0190037Y0030342D01*
X0190342Y0030472D01*
X0190649Y0030595D01*
X0190960Y0030711D01*
X0191273Y0030819D01*
X0191589Y0030919D01*
X0191907Y0031011D01*
X0192228Y0031095D01*
X0192550Y0031172D01*
X0192874Y0031241D01*
X0193200Y0031301D01*
X0193527Y0031354D01*
X0193855Y0031398D01*
X0194185Y0031435D01*
X0194515Y0031463D01*
X0194846Y0031484D01*
X0195177Y0031496D01*
X0195508Y0031500D01*
X0195839Y0031496D01*
X0196170Y0031484D01*
X0196501Y0031463D01*
X0196831Y0031435D01*
X0197161Y0031398D01*
X0197489Y0031354D01*
X0197816Y0031301D01*
X0198142Y0031241D01*
X0198466Y0031172D01*
X0198788Y0031095D01*
X0199109Y0031011D01*
X0199427Y0030919D01*
X0199743Y0030819D01*
X0200056Y0030711D01*
X0200367Y0030595D01*
X0200674Y0030472D01*
X0200979Y0030342D01*
X0201280Y0030204D01*
X0201578Y0030059D01*
X0201872Y0029906D01*
X0202162Y0029746D01*
X0202448Y0029579D01*
X0202730Y0029406D01*
X0203008Y0029225D01*
X0203281Y0029037D01*
X0203550Y0028843D01*
X0203814Y0028643D01*
X0204072Y0028436D01*
X0204326Y0028222D01*
X0204574Y0028003D01*
X0204817Y0027777D01*
X0205054Y0027546D01*
X0205285Y0027309D01*
X0205511Y0027066D01*
X0205730Y0026818D01*
X0205944Y0026564D01*
X0206151Y0026306D01*
X0206351Y0026042D01*
X0206545Y0025773D01*
X0206733Y0025500D01*
X0206914Y0025222D01*
X0207087Y0024940D01*
X0207254Y0024654D01*
X0207414Y0024364D01*
X0207567Y0024070D01*
X0207712Y0023772D01*
X0207850Y0023471D01*
X0207980Y0023166D01*
X0208103Y0022859D01*
X0208219Y0022548D01*
X0208327Y0022235D01*
X0208427Y0021919D01*
X0208519Y0021601D01*
X0208603Y0021280D01*
X0208680Y0020958D01*
X0208749Y0020634D01*
X0208809Y0020308D01*
X0208862Y0019981D01*
X0208906Y0019653D01*
X0208943Y0019323D01*
X0208971Y0018993D01*
X0208992Y0018662D01*
X0209004Y0018331D01*
X0209008Y0018000D01*
X0209004Y0017669D01*
X0208992Y0017338D01*
X0208971Y0017007D01*
X0208943Y0016677D01*
X0208906Y0016347D01*
X0208862Y0016019D01*
X0208809Y0015692D01*
X0208749Y0015366D01*
X0208680Y0015042D01*
X0208603Y0014720D01*
X0208519Y0014399D01*
X0208427Y0014081D01*
X0208327Y0013765D01*
X0208219Y0013452D01*
X0208103Y0013141D01*
X0207980Y0012834D01*
X0207850Y0012529D01*
X0207712Y0012228D01*
X0207567Y0011930D01*
X0207414Y0011636D01*
X0207254Y0011346D01*
X0207087Y0011060D01*
X0206914Y0010778D01*
X0206733Y0010500D01*
X0206545Y0010227D01*
X0206351Y0009958D01*
X0206151Y0009694D01*
X0205944Y0009436D01*
X0205730Y0009182D01*
X0205511Y0008934D01*
X0205285Y0008691D01*
X0205054Y0008454D01*
X0204817Y0008223D01*
X0204574Y0007997D01*
X0204326Y0007778D01*
X0204072Y0007564D01*
X0203814Y0007357D01*
X0203550Y0007157D01*
X0203281Y0006963D01*
X0203008Y0006775D01*
X0202730Y0006594D01*
X0202448Y0006421D01*
X0202162Y0006254D01*
X0201872Y0006094D01*
X0201578Y0005941D01*
X0201280Y0005796D01*
X0200979Y0005658D01*
X0200674Y0005528D01*
X0200367Y0005405D01*
X0200056Y0005289D01*
X0199743Y0005181D01*
X0199427Y0005081D01*
X0199109Y0004989D01*
X0198788Y0004905D01*
X0198466Y0004828D01*
X0198142Y0004759D01*
X0197816Y0004699D01*
X0197489Y0004646D01*
X0197161Y0004602D01*
X0196831Y0004565D01*
X0196501Y0004537D01*
X0196170Y0004516D01*
X0195839Y0004504D01*
X0195508Y0004500D01*
X0195177Y0004504D01*
X0194846Y0004516D01*
X0194515Y0004537D01*
X0194185Y0004565D01*
X0193855Y0004602D01*
X0193527Y0004646D01*
X0193200Y0004699D01*
X0192874Y0004759D01*
X0192550Y0004828D01*
X0192228Y0004905D01*
X0191907Y0004989D01*
X0191589Y0005081D01*
X0191273Y0005181D01*
X0190960Y0005289D01*
X0190649Y0005405D01*
X0190342Y0005528D01*
X0190037Y0005658D01*
X0189736Y0005796D01*
X0189438Y0005941D01*
X0189144Y0006094D01*
X0188854Y0006254D01*
X0188568Y0006421D01*
X0188286Y0006594D01*
X0188008Y0006775D01*
X0187735Y0006963D01*
X0187466Y0007157D01*
X0187202Y0007357D01*
X0186944Y0007564D01*
X0186690Y0007778D01*
X0186442Y0007997D01*
X0186199Y0008223D01*
X0185962Y0008454D01*
X0185731Y0008691D01*
X0185505Y0008934D01*
X0185286Y0009182D01*
X0185072Y0009436D01*
X0184865Y0009694D01*
X0184665Y0009958D01*
X0184471Y0010227D01*
X0184283Y0010500D01*
X0184102Y0010778D01*
X0183929Y0011060D01*
X0183762Y0011346D01*
X0183602Y0011636D01*
X0183449Y0011930D01*
X0183304Y0012228D01*
X0183166Y0012529D01*
X0183036Y0012834D01*
X0182913Y0013141D01*
X0182797Y0013452D01*
X0182689Y0013765D01*
X0182589Y0014081D01*
X0182497Y0014399D01*
X0182413Y0014720D01*
X0182336Y0015042D01*
X0182267Y0015366D01*
X0182207Y0015692D01*
X0182154Y0016019D01*
X0182110Y0016347D01*
X0182073Y0016677D01*
X0182045Y0017007D01*
X0182024Y0017338D01*
X0182012Y0017669D01*
X0182008Y0018000D01*
X0142638Y0018000D02*
X0142642Y0018331D01*
X0142654Y0018662D01*
X0142675Y0018993D01*
X0142703Y0019323D01*
X0142740Y0019653D01*
X0142784Y0019981D01*
X0142837Y0020308D01*
X0142897Y0020634D01*
X0142966Y0020958D01*
X0143043Y0021280D01*
X0143127Y0021601D01*
X0143219Y0021919D01*
X0143319Y0022235D01*
X0143427Y0022548D01*
X0143543Y0022859D01*
X0143666Y0023166D01*
X0143796Y0023471D01*
X0143934Y0023772D01*
X0144079Y0024070D01*
X0144232Y0024364D01*
X0144392Y0024654D01*
X0144559Y0024940D01*
X0144732Y0025222D01*
X0144913Y0025500D01*
X0145101Y0025773D01*
X0145295Y0026042D01*
X0145495Y0026306D01*
X0145702Y0026564D01*
X0145916Y0026818D01*
X0146135Y0027066D01*
X0146361Y0027309D01*
X0146592Y0027546D01*
X0146829Y0027777D01*
X0147072Y0028003D01*
X0147320Y0028222D01*
X0147574Y0028436D01*
X0147832Y0028643D01*
X0148096Y0028843D01*
X0148365Y0029037D01*
X0148638Y0029225D01*
X0148916Y0029406D01*
X0149198Y0029579D01*
X0149484Y0029746D01*
X0149774Y0029906D01*
X0150068Y0030059D01*
X0150366Y0030204D01*
X0150667Y0030342D01*
X0150972Y0030472D01*
X0151279Y0030595D01*
X0151590Y0030711D01*
X0151903Y0030819D01*
X0152219Y0030919D01*
X0152537Y0031011D01*
X0152858Y0031095D01*
X0153180Y0031172D01*
X0153504Y0031241D01*
X0153830Y0031301D01*
X0154157Y0031354D01*
X0154485Y0031398D01*
X0154815Y0031435D01*
X0155145Y0031463D01*
X0155476Y0031484D01*
X0155807Y0031496D01*
X0156138Y0031500D01*
X0156469Y0031496D01*
X0156800Y0031484D01*
X0157131Y0031463D01*
X0157461Y0031435D01*
X0157791Y0031398D01*
X0158119Y0031354D01*
X0158446Y0031301D01*
X0158772Y0031241D01*
X0159096Y0031172D01*
X0159418Y0031095D01*
X0159739Y0031011D01*
X0160057Y0030919D01*
X0160373Y0030819D01*
X0160686Y0030711D01*
X0160997Y0030595D01*
X0161304Y0030472D01*
X0161609Y0030342D01*
X0161910Y0030204D01*
X0162208Y0030059D01*
X0162502Y0029906D01*
X0162792Y0029746D01*
X0163078Y0029579D01*
X0163360Y0029406D01*
X0163638Y0029225D01*
X0163911Y0029037D01*
X0164180Y0028843D01*
X0164444Y0028643D01*
X0164702Y0028436D01*
X0164956Y0028222D01*
X0165204Y0028003D01*
X0165447Y0027777D01*
X0165684Y0027546D01*
X0165915Y0027309D01*
X0166141Y0027066D01*
X0166360Y0026818D01*
X0166574Y0026564D01*
X0166781Y0026306D01*
X0166981Y0026042D01*
X0167175Y0025773D01*
X0167363Y0025500D01*
X0167544Y0025222D01*
X0167717Y0024940D01*
X0167884Y0024654D01*
X0168044Y0024364D01*
X0168197Y0024070D01*
X0168342Y0023772D01*
X0168480Y0023471D01*
X0168610Y0023166D01*
X0168733Y0022859D01*
X0168849Y0022548D01*
X0168957Y0022235D01*
X0169057Y0021919D01*
X0169149Y0021601D01*
X0169233Y0021280D01*
X0169310Y0020958D01*
X0169379Y0020634D01*
X0169439Y0020308D01*
X0169492Y0019981D01*
X0169536Y0019653D01*
X0169573Y0019323D01*
X0169601Y0018993D01*
X0169622Y0018662D01*
X0169634Y0018331D01*
X0169638Y0018000D01*
X0169634Y0017669D01*
X0169622Y0017338D01*
X0169601Y0017007D01*
X0169573Y0016677D01*
X0169536Y0016347D01*
X0169492Y0016019D01*
X0169439Y0015692D01*
X0169379Y0015366D01*
X0169310Y0015042D01*
X0169233Y0014720D01*
X0169149Y0014399D01*
X0169057Y0014081D01*
X0168957Y0013765D01*
X0168849Y0013452D01*
X0168733Y0013141D01*
X0168610Y0012834D01*
X0168480Y0012529D01*
X0168342Y0012228D01*
X0168197Y0011930D01*
X0168044Y0011636D01*
X0167884Y0011346D01*
X0167717Y0011060D01*
X0167544Y0010778D01*
X0167363Y0010500D01*
X0167175Y0010227D01*
X0166981Y0009958D01*
X0166781Y0009694D01*
X0166574Y0009436D01*
X0166360Y0009182D01*
X0166141Y0008934D01*
X0165915Y0008691D01*
X0165684Y0008454D01*
X0165447Y0008223D01*
X0165204Y0007997D01*
X0164956Y0007778D01*
X0164702Y0007564D01*
X0164444Y0007357D01*
X0164180Y0007157D01*
X0163911Y0006963D01*
X0163638Y0006775D01*
X0163360Y0006594D01*
X0163078Y0006421D01*
X0162792Y0006254D01*
X0162502Y0006094D01*
X0162208Y0005941D01*
X0161910Y0005796D01*
X0161609Y0005658D01*
X0161304Y0005528D01*
X0160997Y0005405D01*
X0160686Y0005289D01*
X0160373Y0005181D01*
X0160057Y0005081D01*
X0159739Y0004989D01*
X0159418Y0004905D01*
X0159096Y0004828D01*
X0158772Y0004759D01*
X0158446Y0004699D01*
X0158119Y0004646D01*
X0157791Y0004602D01*
X0157461Y0004565D01*
X0157131Y0004537D01*
X0156800Y0004516D01*
X0156469Y0004504D01*
X0156138Y0004500D01*
X0155807Y0004504D01*
X0155476Y0004516D01*
X0155145Y0004537D01*
X0154815Y0004565D01*
X0154485Y0004602D01*
X0154157Y0004646D01*
X0153830Y0004699D01*
X0153504Y0004759D01*
X0153180Y0004828D01*
X0152858Y0004905D01*
X0152537Y0004989D01*
X0152219Y0005081D01*
X0151903Y0005181D01*
X0151590Y0005289D01*
X0151279Y0005405D01*
X0150972Y0005528D01*
X0150667Y0005658D01*
X0150366Y0005796D01*
X0150068Y0005941D01*
X0149774Y0006094D01*
X0149484Y0006254D01*
X0149198Y0006421D01*
X0148916Y0006594D01*
X0148638Y0006775D01*
X0148365Y0006963D01*
X0148096Y0007157D01*
X0147832Y0007357D01*
X0147574Y0007564D01*
X0147320Y0007778D01*
X0147072Y0007997D01*
X0146829Y0008223D01*
X0146592Y0008454D01*
X0146361Y0008691D01*
X0146135Y0008934D01*
X0145916Y0009182D01*
X0145702Y0009436D01*
X0145495Y0009694D01*
X0145295Y0009958D01*
X0145101Y0010227D01*
X0144913Y0010500D01*
X0144732Y0010778D01*
X0144559Y0011060D01*
X0144392Y0011346D01*
X0144232Y0011636D01*
X0144079Y0011930D01*
X0143934Y0012228D01*
X0143796Y0012529D01*
X0143666Y0012834D01*
X0143543Y0013141D01*
X0143427Y0013452D01*
X0143319Y0013765D01*
X0143219Y0014081D01*
X0143127Y0014399D01*
X0143043Y0014720D01*
X0142966Y0015042D01*
X0142897Y0015366D01*
X0142837Y0015692D01*
X0142784Y0016019D01*
X0142740Y0016347D01*
X0142703Y0016677D01*
X0142675Y0017007D01*
X0142654Y0017338D01*
X0142642Y0017669D01*
X0142638Y0018000D01*
X0094500Y0055157D02*
X0094500Y0056157D01*
X0094500Y0055157D02*
X0093500Y0055157D01*
X0089500Y0055157D02*
X0088500Y0055157D01*
X0088500Y0056157D01*
X0088500Y0060157D02*
X0088500Y0061157D01*
X0089500Y0061157D01*
X0093500Y0061157D02*
X0094500Y0061157D01*
X0094500Y0060157D01*
X0094500Y0065157D02*
X0094500Y0066157D01*
X0094500Y0065157D02*
X0093500Y0065157D01*
X0089500Y0065157D02*
X0088500Y0065157D01*
X0088500Y0066157D01*
X0088500Y0070157D02*
X0088500Y0071157D01*
X0089500Y0071157D01*
X0093500Y0071157D02*
X0094500Y0071157D01*
X0094500Y0070157D01*
X0094500Y0075157D02*
X0094500Y0076157D01*
X0094500Y0075157D02*
X0093500Y0075157D01*
X0089500Y0075157D02*
X0088500Y0075157D01*
X0088500Y0076157D01*
X0088500Y0080157D02*
X0088500Y0081157D01*
X0089500Y0081157D01*
X0093500Y0081157D02*
X0094500Y0081157D01*
X0094500Y0080157D01*
X0094500Y0085157D02*
X0094500Y0086157D01*
X0094500Y0085157D02*
X0093500Y0085157D01*
X0089500Y0085157D02*
X0088500Y0085157D01*
X0088500Y0086157D01*
X0088500Y0090157D02*
X0088500Y0091157D01*
X0089500Y0091157D01*
X0093500Y0091157D02*
X0094500Y0091157D01*
X0094500Y0090157D01*
X0032343Y0141795D02*
X0004343Y0141795D01*
X0004343Y0169795D01*
X0032343Y0169795D01*
X0032343Y0141795D01*
X0142638Y0155795D02*
X0142642Y0156126D01*
X0142654Y0156457D01*
X0142675Y0156788D01*
X0142703Y0157118D01*
X0142740Y0157448D01*
X0142784Y0157776D01*
X0142837Y0158103D01*
X0142897Y0158429D01*
X0142966Y0158753D01*
X0143043Y0159075D01*
X0143127Y0159396D01*
X0143219Y0159714D01*
X0143319Y0160030D01*
X0143427Y0160343D01*
X0143543Y0160654D01*
X0143666Y0160961D01*
X0143796Y0161266D01*
X0143934Y0161567D01*
X0144079Y0161865D01*
X0144232Y0162159D01*
X0144392Y0162449D01*
X0144559Y0162735D01*
X0144732Y0163017D01*
X0144913Y0163295D01*
X0145101Y0163568D01*
X0145295Y0163837D01*
X0145495Y0164101D01*
X0145702Y0164359D01*
X0145916Y0164613D01*
X0146135Y0164861D01*
X0146361Y0165104D01*
X0146592Y0165341D01*
X0146829Y0165572D01*
X0147072Y0165798D01*
X0147320Y0166017D01*
X0147574Y0166231D01*
X0147832Y0166438D01*
X0148096Y0166638D01*
X0148365Y0166832D01*
X0148638Y0167020D01*
X0148916Y0167201D01*
X0149198Y0167374D01*
X0149484Y0167541D01*
X0149774Y0167701D01*
X0150068Y0167854D01*
X0150366Y0167999D01*
X0150667Y0168137D01*
X0150972Y0168267D01*
X0151279Y0168390D01*
X0151590Y0168506D01*
X0151903Y0168614D01*
X0152219Y0168714D01*
X0152537Y0168806D01*
X0152858Y0168890D01*
X0153180Y0168967D01*
X0153504Y0169036D01*
X0153830Y0169096D01*
X0154157Y0169149D01*
X0154485Y0169193D01*
X0154815Y0169230D01*
X0155145Y0169258D01*
X0155476Y0169279D01*
X0155807Y0169291D01*
X0156138Y0169295D01*
X0156469Y0169291D01*
X0156800Y0169279D01*
X0157131Y0169258D01*
X0157461Y0169230D01*
X0157791Y0169193D01*
X0158119Y0169149D01*
X0158446Y0169096D01*
X0158772Y0169036D01*
X0159096Y0168967D01*
X0159418Y0168890D01*
X0159739Y0168806D01*
X0160057Y0168714D01*
X0160373Y0168614D01*
X0160686Y0168506D01*
X0160997Y0168390D01*
X0161304Y0168267D01*
X0161609Y0168137D01*
X0161910Y0167999D01*
X0162208Y0167854D01*
X0162502Y0167701D01*
X0162792Y0167541D01*
X0163078Y0167374D01*
X0163360Y0167201D01*
X0163638Y0167020D01*
X0163911Y0166832D01*
X0164180Y0166638D01*
X0164444Y0166438D01*
X0164702Y0166231D01*
X0164956Y0166017D01*
X0165204Y0165798D01*
X0165447Y0165572D01*
X0165684Y0165341D01*
X0165915Y0165104D01*
X0166141Y0164861D01*
X0166360Y0164613D01*
X0166574Y0164359D01*
X0166781Y0164101D01*
X0166981Y0163837D01*
X0167175Y0163568D01*
X0167363Y0163295D01*
X0167544Y0163017D01*
X0167717Y0162735D01*
X0167884Y0162449D01*
X0168044Y0162159D01*
X0168197Y0161865D01*
X0168342Y0161567D01*
X0168480Y0161266D01*
X0168610Y0160961D01*
X0168733Y0160654D01*
X0168849Y0160343D01*
X0168957Y0160030D01*
X0169057Y0159714D01*
X0169149Y0159396D01*
X0169233Y0159075D01*
X0169310Y0158753D01*
X0169379Y0158429D01*
X0169439Y0158103D01*
X0169492Y0157776D01*
X0169536Y0157448D01*
X0169573Y0157118D01*
X0169601Y0156788D01*
X0169622Y0156457D01*
X0169634Y0156126D01*
X0169638Y0155795D01*
X0169634Y0155464D01*
X0169622Y0155133D01*
X0169601Y0154802D01*
X0169573Y0154472D01*
X0169536Y0154142D01*
X0169492Y0153814D01*
X0169439Y0153487D01*
X0169379Y0153161D01*
X0169310Y0152837D01*
X0169233Y0152515D01*
X0169149Y0152194D01*
X0169057Y0151876D01*
X0168957Y0151560D01*
X0168849Y0151247D01*
X0168733Y0150936D01*
X0168610Y0150629D01*
X0168480Y0150324D01*
X0168342Y0150023D01*
X0168197Y0149725D01*
X0168044Y0149431D01*
X0167884Y0149141D01*
X0167717Y0148855D01*
X0167544Y0148573D01*
X0167363Y0148295D01*
X0167175Y0148022D01*
X0166981Y0147753D01*
X0166781Y0147489D01*
X0166574Y0147231D01*
X0166360Y0146977D01*
X0166141Y0146729D01*
X0165915Y0146486D01*
X0165684Y0146249D01*
X0165447Y0146018D01*
X0165204Y0145792D01*
X0164956Y0145573D01*
X0164702Y0145359D01*
X0164444Y0145152D01*
X0164180Y0144952D01*
X0163911Y0144758D01*
X0163638Y0144570D01*
X0163360Y0144389D01*
X0163078Y0144216D01*
X0162792Y0144049D01*
X0162502Y0143889D01*
X0162208Y0143736D01*
X0161910Y0143591D01*
X0161609Y0143453D01*
X0161304Y0143323D01*
X0160997Y0143200D01*
X0160686Y0143084D01*
X0160373Y0142976D01*
X0160057Y0142876D01*
X0159739Y0142784D01*
X0159418Y0142700D01*
X0159096Y0142623D01*
X0158772Y0142554D01*
X0158446Y0142494D01*
X0158119Y0142441D01*
X0157791Y0142397D01*
X0157461Y0142360D01*
X0157131Y0142332D01*
X0156800Y0142311D01*
X0156469Y0142299D01*
X0156138Y0142295D01*
X0155807Y0142299D01*
X0155476Y0142311D01*
X0155145Y0142332D01*
X0154815Y0142360D01*
X0154485Y0142397D01*
X0154157Y0142441D01*
X0153830Y0142494D01*
X0153504Y0142554D01*
X0153180Y0142623D01*
X0152858Y0142700D01*
X0152537Y0142784D01*
X0152219Y0142876D01*
X0151903Y0142976D01*
X0151590Y0143084D01*
X0151279Y0143200D01*
X0150972Y0143323D01*
X0150667Y0143453D01*
X0150366Y0143591D01*
X0150068Y0143736D01*
X0149774Y0143889D01*
X0149484Y0144049D01*
X0149198Y0144216D01*
X0148916Y0144389D01*
X0148638Y0144570D01*
X0148365Y0144758D01*
X0148096Y0144952D01*
X0147832Y0145152D01*
X0147574Y0145359D01*
X0147320Y0145573D01*
X0147072Y0145792D01*
X0146829Y0146018D01*
X0146592Y0146249D01*
X0146361Y0146486D01*
X0146135Y0146729D01*
X0145916Y0146977D01*
X0145702Y0147231D01*
X0145495Y0147489D01*
X0145295Y0147753D01*
X0145101Y0148022D01*
X0144913Y0148295D01*
X0144732Y0148573D01*
X0144559Y0148855D01*
X0144392Y0149141D01*
X0144232Y0149431D01*
X0144079Y0149725D01*
X0143934Y0150023D01*
X0143796Y0150324D01*
X0143666Y0150629D01*
X0143543Y0150936D01*
X0143427Y0151247D01*
X0143319Y0151560D01*
X0143219Y0151876D01*
X0143127Y0152194D01*
X0143043Y0152515D01*
X0142966Y0152837D01*
X0142897Y0153161D01*
X0142837Y0153487D01*
X0142784Y0153814D01*
X0142740Y0154142D01*
X0142703Y0154472D01*
X0142675Y0154802D01*
X0142654Y0155133D01*
X0142642Y0155464D01*
X0142638Y0155795D01*
X0182008Y0155795D02*
X0182012Y0156126D01*
X0182024Y0156457D01*
X0182045Y0156788D01*
X0182073Y0157118D01*
X0182110Y0157448D01*
X0182154Y0157776D01*
X0182207Y0158103D01*
X0182267Y0158429D01*
X0182336Y0158753D01*
X0182413Y0159075D01*
X0182497Y0159396D01*
X0182589Y0159714D01*
X0182689Y0160030D01*
X0182797Y0160343D01*
X0182913Y0160654D01*
X0183036Y0160961D01*
X0183166Y0161266D01*
X0183304Y0161567D01*
X0183449Y0161865D01*
X0183602Y0162159D01*
X0183762Y0162449D01*
X0183929Y0162735D01*
X0184102Y0163017D01*
X0184283Y0163295D01*
X0184471Y0163568D01*
X0184665Y0163837D01*
X0184865Y0164101D01*
X0185072Y0164359D01*
X0185286Y0164613D01*
X0185505Y0164861D01*
X0185731Y0165104D01*
X0185962Y0165341D01*
X0186199Y0165572D01*
X0186442Y0165798D01*
X0186690Y0166017D01*
X0186944Y0166231D01*
X0187202Y0166438D01*
X0187466Y0166638D01*
X0187735Y0166832D01*
X0188008Y0167020D01*
X0188286Y0167201D01*
X0188568Y0167374D01*
X0188854Y0167541D01*
X0189144Y0167701D01*
X0189438Y0167854D01*
X0189736Y0167999D01*
X0190037Y0168137D01*
X0190342Y0168267D01*
X0190649Y0168390D01*
X0190960Y0168506D01*
X0191273Y0168614D01*
X0191589Y0168714D01*
X0191907Y0168806D01*
X0192228Y0168890D01*
X0192550Y0168967D01*
X0192874Y0169036D01*
X0193200Y0169096D01*
X0193527Y0169149D01*
X0193855Y0169193D01*
X0194185Y0169230D01*
X0194515Y0169258D01*
X0194846Y0169279D01*
X0195177Y0169291D01*
X0195508Y0169295D01*
X0195839Y0169291D01*
X0196170Y0169279D01*
X0196501Y0169258D01*
X0196831Y0169230D01*
X0197161Y0169193D01*
X0197489Y0169149D01*
X0197816Y0169096D01*
X0198142Y0169036D01*
X0198466Y0168967D01*
X0198788Y0168890D01*
X0199109Y0168806D01*
X0199427Y0168714D01*
X0199743Y0168614D01*
X0200056Y0168506D01*
X0200367Y0168390D01*
X0200674Y0168267D01*
X0200979Y0168137D01*
X0201280Y0167999D01*
X0201578Y0167854D01*
X0201872Y0167701D01*
X0202162Y0167541D01*
X0202448Y0167374D01*
X0202730Y0167201D01*
X0203008Y0167020D01*
X0203281Y0166832D01*
X0203550Y0166638D01*
X0203814Y0166438D01*
X0204072Y0166231D01*
X0204326Y0166017D01*
X0204574Y0165798D01*
X0204817Y0165572D01*
X0205054Y0165341D01*
X0205285Y0165104D01*
X0205511Y0164861D01*
X0205730Y0164613D01*
X0205944Y0164359D01*
X0206151Y0164101D01*
X0206351Y0163837D01*
X0206545Y0163568D01*
X0206733Y0163295D01*
X0206914Y0163017D01*
X0207087Y0162735D01*
X0207254Y0162449D01*
X0207414Y0162159D01*
X0207567Y0161865D01*
X0207712Y0161567D01*
X0207850Y0161266D01*
X0207980Y0160961D01*
X0208103Y0160654D01*
X0208219Y0160343D01*
X0208327Y0160030D01*
X0208427Y0159714D01*
X0208519Y0159396D01*
X0208603Y0159075D01*
X0208680Y0158753D01*
X0208749Y0158429D01*
X0208809Y0158103D01*
X0208862Y0157776D01*
X0208906Y0157448D01*
X0208943Y0157118D01*
X0208971Y0156788D01*
X0208992Y0156457D01*
X0209004Y0156126D01*
X0209008Y0155795D01*
X0209004Y0155464D01*
X0208992Y0155133D01*
X0208971Y0154802D01*
X0208943Y0154472D01*
X0208906Y0154142D01*
X0208862Y0153814D01*
X0208809Y0153487D01*
X0208749Y0153161D01*
X0208680Y0152837D01*
X0208603Y0152515D01*
X0208519Y0152194D01*
X0208427Y0151876D01*
X0208327Y0151560D01*
X0208219Y0151247D01*
X0208103Y0150936D01*
X0207980Y0150629D01*
X0207850Y0150324D01*
X0207712Y0150023D01*
X0207567Y0149725D01*
X0207414Y0149431D01*
X0207254Y0149141D01*
X0207087Y0148855D01*
X0206914Y0148573D01*
X0206733Y0148295D01*
X0206545Y0148022D01*
X0206351Y0147753D01*
X0206151Y0147489D01*
X0205944Y0147231D01*
X0205730Y0146977D01*
X0205511Y0146729D01*
X0205285Y0146486D01*
X0205054Y0146249D01*
X0204817Y0146018D01*
X0204574Y0145792D01*
X0204326Y0145573D01*
X0204072Y0145359D01*
X0203814Y0145152D01*
X0203550Y0144952D01*
X0203281Y0144758D01*
X0203008Y0144570D01*
X0202730Y0144389D01*
X0202448Y0144216D01*
X0202162Y0144049D01*
X0201872Y0143889D01*
X0201578Y0143736D01*
X0201280Y0143591D01*
X0200979Y0143453D01*
X0200674Y0143323D01*
X0200367Y0143200D01*
X0200056Y0143084D01*
X0199743Y0142976D01*
X0199427Y0142876D01*
X0199109Y0142784D01*
X0198788Y0142700D01*
X0198466Y0142623D01*
X0198142Y0142554D01*
X0197816Y0142494D01*
X0197489Y0142441D01*
X0197161Y0142397D01*
X0196831Y0142360D01*
X0196501Y0142332D01*
X0196170Y0142311D01*
X0195839Y0142299D01*
X0195508Y0142295D01*
X0195177Y0142299D01*
X0194846Y0142311D01*
X0194515Y0142332D01*
X0194185Y0142360D01*
X0193855Y0142397D01*
X0193527Y0142441D01*
X0193200Y0142494D01*
X0192874Y0142554D01*
X0192550Y0142623D01*
X0192228Y0142700D01*
X0191907Y0142784D01*
X0191589Y0142876D01*
X0191273Y0142976D01*
X0190960Y0143084D01*
X0190649Y0143200D01*
X0190342Y0143323D01*
X0190037Y0143453D01*
X0189736Y0143591D01*
X0189438Y0143736D01*
X0189144Y0143889D01*
X0188854Y0144049D01*
X0188568Y0144216D01*
X0188286Y0144389D01*
X0188008Y0144570D01*
X0187735Y0144758D01*
X0187466Y0144952D01*
X0187202Y0145152D01*
X0186944Y0145359D01*
X0186690Y0145573D01*
X0186442Y0145792D01*
X0186199Y0146018D01*
X0185962Y0146249D01*
X0185731Y0146486D01*
X0185505Y0146729D01*
X0185286Y0146977D01*
X0185072Y0147231D01*
X0184865Y0147489D01*
X0184665Y0147753D01*
X0184471Y0148022D01*
X0184283Y0148295D01*
X0184102Y0148573D01*
X0183929Y0148855D01*
X0183762Y0149141D01*
X0183602Y0149431D01*
X0183449Y0149725D01*
X0183304Y0150023D01*
X0183166Y0150324D01*
X0183036Y0150629D01*
X0182913Y0150936D01*
X0182797Y0151247D01*
X0182689Y0151560D01*
X0182589Y0151876D01*
X0182497Y0152194D01*
X0182413Y0152515D01*
X0182336Y0152837D01*
X0182267Y0153161D01*
X0182207Y0153487D01*
X0182154Y0153814D01*
X0182110Y0154142D01*
X0182073Y0154472D01*
X0182045Y0154802D01*
X0182024Y0155133D01*
X0182012Y0155464D01*
X0182008Y0155795D01*
X0273500Y0157157D02*
X0274500Y0157157D01*
X0273500Y0157157D02*
X0273500Y0158157D01*
X0273500Y0162157D02*
X0273500Y0163157D01*
X0274500Y0163157D01*
X0278500Y0163157D02*
X0279500Y0163157D01*
X0279500Y0162157D01*
X0283500Y0162157D02*
X0283500Y0163157D01*
X0284500Y0163157D01*
X0288500Y0163157D02*
X0289500Y0163157D01*
X0289500Y0162157D01*
X0293500Y0162157D02*
X0293500Y0163157D01*
X0294500Y0163157D01*
X0298500Y0163157D02*
X0299500Y0163157D01*
X0299500Y0162157D01*
X0299500Y0158157D02*
X0299500Y0157157D01*
X0298500Y0157157D01*
X0294500Y0157157D02*
X0293500Y0157157D01*
X0293500Y0158157D01*
X0289500Y0158157D02*
X0289500Y0157157D01*
X0288500Y0157157D01*
X0284500Y0157157D02*
X0283500Y0157157D01*
X0283500Y0158157D01*
X0279500Y0158157D02*
X0279500Y0157157D01*
X0278500Y0157157D01*
X0278500Y0148157D02*
X0279500Y0148157D01*
X0279500Y0147157D01*
X0283500Y0147157D02*
X0283500Y0148157D01*
X0284500Y0148157D01*
X0288500Y0148157D02*
X0289500Y0148157D01*
X0289500Y0147157D01*
X0293500Y0147157D02*
X0293500Y0148157D01*
X0294500Y0148157D01*
X0298500Y0148157D02*
X0299500Y0148157D01*
X0299500Y0147157D01*
X0299500Y0143157D02*
X0299500Y0142157D01*
X0298500Y0142157D01*
X0294500Y0142157D02*
X0293500Y0142157D01*
X0293500Y0143157D01*
X0289500Y0143157D02*
X0289500Y0142157D01*
X0288500Y0142157D01*
X0284500Y0142157D02*
X0283500Y0142157D01*
X0283500Y0143157D01*
X0279500Y0143157D02*
X0279500Y0142157D01*
X0278500Y0142157D01*
X0274500Y0142157D02*
X0273500Y0142157D01*
X0273500Y0143157D01*
X0273500Y0147157D02*
X0273500Y0148157D01*
X0274500Y0148157D01*
X0319303Y0141795D02*
X0319303Y0169795D01*
X0347303Y0169795D01*
X0347303Y0141795D01*
X0319303Y0141795D01*
X0311000Y0033157D02*
X0306000Y0033157D01*
X0303500Y0030657D01*
X0303500Y0015657D01*
X0301000Y0013157D01*
X0296000Y0013157D01*
X0293500Y0015657D01*
X0291000Y0013157D01*
X0286000Y0013157D01*
X0283500Y0015657D01*
X0283500Y0030657D01*
X0286000Y0033157D01*
X0291000Y0033157D01*
X0293500Y0030657D01*
X0293500Y0015657D01*
X0303500Y0015657D02*
X0306000Y0013157D01*
X0311000Y0013157D01*
X0313500Y0015657D01*
X0313500Y0030657D01*
X0311000Y0033157D01*
X0303500Y0030657D02*
X0301000Y0033157D01*
X0296000Y0033157D01*
X0293500Y0030657D01*
X0319803Y0018000D02*
X0319807Y0018331D01*
X0319819Y0018662D01*
X0319840Y0018993D01*
X0319868Y0019323D01*
X0319905Y0019653D01*
X0319949Y0019981D01*
X0320002Y0020308D01*
X0320062Y0020634D01*
X0320131Y0020958D01*
X0320208Y0021280D01*
X0320292Y0021601D01*
X0320384Y0021919D01*
X0320484Y0022235D01*
X0320592Y0022548D01*
X0320708Y0022859D01*
X0320831Y0023166D01*
X0320961Y0023471D01*
X0321099Y0023772D01*
X0321244Y0024070D01*
X0321397Y0024364D01*
X0321557Y0024654D01*
X0321724Y0024940D01*
X0321897Y0025222D01*
X0322078Y0025500D01*
X0322266Y0025773D01*
X0322460Y0026042D01*
X0322660Y0026306D01*
X0322867Y0026564D01*
X0323081Y0026818D01*
X0323300Y0027066D01*
X0323526Y0027309D01*
X0323757Y0027546D01*
X0323994Y0027777D01*
X0324237Y0028003D01*
X0324485Y0028222D01*
X0324739Y0028436D01*
X0324997Y0028643D01*
X0325261Y0028843D01*
X0325530Y0029037D01*
X0325803Y0029225D01*
X0326081Y0029406D01*
X0326363Y0029579D01*
X0326649Y0029746D01*
X0326939Y0029906D01*
X0327233Y0030059D01*
X0327531Y0030204D01*
X0327832Y0030342D01*
X0328137Y0030472D01*
X0328444Y0030595D01*
X0328755Y0030711D01*
X0329068Y0030819D01*
X0329384Y0030919D01*
X0329702Y0031011D01*
X0330023Y0031095D01*
X0330345Y0031172D01*
X0330669Y0031241D01*
X0330995Y0031301D01*
X0331322Y0031354D01*
X0331650Y0031398D01*
X0331980Y0031435D01*
X0332310Y0031463D01*
X0332641Y0031484D01*
X0332972Y0031496D01*
X0333303Y0031500D01*
X0333634Y0031496D01*
X0333965Y0031484D01*
X0334296Y0031463D01*
X0334626Y0031435D01*
X0334956Y0031398D01*
X0335284Y0031354D01*
X0335611Y0031301D01*
X0335937Y0031241D01*
X0336261Y0031172D01*
X0336583Y0031095D01*
X0336904Y0031011D01*
X0337222Y0030919D01*
X0337538Y0030819D01*
X0337851Y0030711D01*
X0338162Y0030595D01*
X0338469Y0030472D01*
X0338774Y0030342D01*
X0339075Y0030204D01*
X0339373Y0030059D01*
X0339667Y0029906D01*
X0339957Y0029746D01*
X0340243Y0029579D01*
X0340525Y0029406D01*
X0340803Y0029225D01*
X0341076Y0029037D01*
X0341345Y0028843D01*
X0341609Y0028643D01*
X0341867Y0028436D01*
X0342121Y0028222D01*
X0342369Y0028003D01*
X0342612Y0027777D01*
X0342849Y0027546D01*
X0343080Y0027309D01*
X0343306Y0027066D01*
X0343525Y0026818D01*
X0343739Y0026564D01*
X0343946Y0026306D01*
X0344146Y0026042D01*
X0344340Y0025773D01*
X0344528Y0025500D01*
X0344709Y0025222D01*
X0344882Y0024940D01*
X0345049Y0024654D01*
X0345209Y0024364D01*
X0345362Y0024070D01*
X0345507Y0023772D01*
X0345645Y0023471D01*
X0345775Y0023166D01*
X0345898Y0022859D01*
X0346014Y0022548D01*
X0346122Y0022235D01*
X0346222Y0021919D01*
X0346314Y0021601D01*
X0346398Y0021280D01*
X0346475Y0020958D01*
X0346544Y0020634D01*
X0346604Y0020308D01*
X0346657Y0019981D01*
X0346701Y0019653D01*
X0346738Y0019323D01*
X0346766Y0018993D01*
X0346787Y0018662D01*
X0346799Y0018331D01*
X0346803Y0018000D01*
X0346799Y0017669D01*
X0346787Y0017338D01*
X0346766Y0017007D01*
X0346738Y0016677D01*
X0346701Y0016347D01*
X0346657Y0016019D01*
X0346604Y0015692D01*
X0346544Y0015366D01*
X0346475Y0015042D01*
X0346398Y0014720D01*
X0346314Y0014399D01*
X0346222Y0014081D01*
X0346122Y0013765D01*
X0346014Y0013452D01*
X0345898Y0013141D01*
X0345775Y0012834D01*
X0345645Y0012529D01*
X0345507Y0012228D01*
X0345362Y0011930D01*
X0345209Y0011636D01*
X0345049Y0011346D01*
X0344882Y0011060D01*
X0344709Y0010778D01*
X0344528Y0010500D01*
X0344340Y0010227D01*
X0344146Y0009958D01*
X0343946Y0009694D01*
X0343739Y0009436D01*
X0343525Y0009182D01*
X0343306Y0008934D01*
X0343080Y0008691D01*
X0342849Y0008454D01*
X0342612Y0008223D01*
X0342369Y0007997D01*
X0342121Y0007778D01*
X0341867Y0007564D01*
X0341609Y0007357D01*
X0341345Y0007157D01*
X0341076Y0006963D01*
X0340803Y0006775D01*
X0340525Y0006594D01*
X0340243Y0006421D01*
X0339957Y0006254D01*
X0339667Y0006094D01*
X0339373Y0005941D01*
X0339075Y0005796D01*
X0338774Y0005658D01*
X0338469Y0005528D01*
X0338162Y0005405D01*
X0337851Y0005289D01*
X0337538Y0005181D01*
X0337222Y0005081D01*
X0336904Y0004989D01*
X0336583Y0004905D01*
X0336261Y0004828D01*
X0335937Y0004759D01*
X0335611Y0004699D01*
X0335284Y0004646D01*
X0334956Y0004602D01*
X0334626Y0004565D01*
X0334296Y0004537D01*
X0333965Y0004516D01*
X0333634Y0004504D01*
X0333303Y0004500D01*
X0332972Y0004504D01*
X0332641Y0004516D01*
X0332310Y0004537D01*
X0331980Y0004565D01*
X0331650Y0004602D01*
X0331322Y0004646D01*
X0330995Y0004699D01*
X0330669Y0004759D01*
X0330345Y0004828D01*
X0330023Y0004905D01*
X0329702Y0004989D01*
X0329384Y0005081D01*
X0329068Y0005181D01*
X0328755Y0005289D01*
X0328444Y0005405D01*
X0328137Y0005528D01*
X0327832Y0005658D01*
X0327531Y0005796D01*
X0327233Y0005941D01*
X0326939Y0006094D01*
X0326649Y0006254D01*
X0326363Y0006421D01*
X0326081Y0006594D01*
X0325803Y0006775D01*
X0325530Y0006963D01*
X0325261Y0007157D01*
X0324997Y0007357D01*
X0324739Y0007564D01*
X0324485Y0007778D01*
X0324237Y0007997D01*
X0323994Y0008223D01*
X0323757Y0008454D01*
X0323526Y0008691D01*
X0323300Y0008934D01*
X0323081Y0009182D01*
X0322867Y0009436D01*
X0322660Y0009694D01*
X0322460Y0009958D01*
X0322266Y0010227D01*
X0322078Y0010500D01*
X0321897Y0010778D01*
X0321724Y0011060D01*
X0321557Y0011346D01*
X0321397Y0011636D01*
X0321244Y0011930D01*
X0321099Y0012228D01*
X0320961Y0012529D01*
X0320831Y0012834D01*
X0320708Y0013141D01*
X0320592Y0013452D01*
X0320484Y0013765D01*
X0320384Y0014081D01*
X0320292Y0014399D01*
X0320208Y0014720D01*
X0320131Y0015042D01*
X0320062Y0015366D01*
X0320002Y0015692D01*
X0319949Y0016019D01*
X0319905Y0016347D01*
X0319868Y0016677D01*
X0319840Y0017007D01*
X0319819Y0017338D01*
X0319807Y0017669D01*
X0319803Y0018000D01*
X0240000Y0033357D02*
X0239998Y0033417D01*
X0239993Y0033478D01*
X0239984Y0033537D01*
X0239971Y0033596D01*
X0239955Y0033655D01*
X0239935Y0033712D01*
X0239912Y0033767D01*
X0239885Y0033822D01*
X0239856Y0033874D01*
X0239823Y0033925D01*
X0239787Y0033974D01*
X0239749Y0034020D01*
X0239707Y0034064D01*
X0239663Y0034106D01*
X0239617Y0034144D01*
X0239568Y0034180D01*
X0239517Y0034213D01*
X0239465Y0034242D01*
X0239410Y0034269D01*
X0239355Y0034292D01*
X0239298Y0034312D01*
X0239239Y0034328D01*
X0239180Y0034341D01*
X0239121Y0034350D01*
X0239060Y0034355D01*
X0239000Y0034357D01*
X0004843Y0018000D02*
X0004847Y0018331D01*
X0004859Y0018662D01*
X0004880Y0018993D01*
X0004908Y0019323D01*
X0004945Y0019653D01*
X0004989Y0019981D01*
X0005042Y0020308D01*
X0005102Y0020634D01*
X0005171Y0020958D01*
X0005248Y0021280D01*
X0005332Y0021601D01*
X0005424Y0021919D01*
X0005524Y0022235D01*
X0005632Y0022548D01*
X0005748Y0022859D01*
X0005871Y0023166D01*
X0006001Y0023471D01*
X0006139Y0023772D01*
X0006284Y0024070D01*
X0006437Y0024364D01*
X0006597Y0024654D01*
X0006764Y0024940D01*
X0006937Y0025222D01*
X0007118Y0025500D01*
X0007306Y0025773D01*
X0007500Y0026042D01*
X0007700Y0026306D01*
X0007907Y0026564D01*
X0008121Y0026818D01*
X0008340Y0027066D01*
X0008566Y0027309D01*
X0008797Y0027546D01*
X0009034Y0027777D01*
X0009277Y0028003D01*
X0009525Y0028222D01*
X0009779Y0028436D01*
X0010037Y0028643D01*
X0010301Y0028843D01*
X0010570Y0029037D01*
X0010843Y0029225D01*
X0011121Y0029406D01*
X0011403Y0029579D01*
X0011689Y0029746D01*
X0011979Y0029906D01*
X0012273Y0030059D01*
X0012571Y0030204D01*
X0012872Y0030342D01*
X0013177Y0030472D01*
X0013484Y0030595D01*
X0013795Y0030711D01*
X0014108Y0030819D01*
X0014424Y0030919D01*
X0014742Y0031011D01*
X0015063Y0031095D01*
X0015385Y0031172D01*
X0015709Y0031241D01*
X0016035Y0031301D01*
X0016362Y0031354D01*
X0016690Y0031398D01*
X0017020Y0031435D01*
X0017350Y0031463D01*
X0017681Y0031484D01*
X0018012Y0031496D01*
X0018343Y0031500D01*
X0018674Y0031496D01*
X0019005Y0031484D01*
X0019336Y0031463D01*
X0019666Y0031435D01*
X0019996Y0031398D01*
X0020324Y0031354D01*
X0020651Y0031301D01*
X0020977Y0031241D01*
X0021301Y0031172D01*
X0021623Y0031095D01*
X0021944Y0031011D01*
X0022262Y0030919D01*
X0022578Y0030819D01*
X0022891Y0030711D01*
X0023202Y0030595D01*
X0023509Y0030472D01*
X0023814Y0030342D01*
X0024115Y0030204D01*
X0024413Y0030059D01*
X0024707Y0029906D01*
X0024997Y0029746D01*
X0025283Y0029579D01*
X0025565Y0029406D01*
X0025843Y0029225D01*
X0026116Y0029037D01*
X0026385Y0028843D01*
X0026649Y0028643D01*
X0026907Y0028436D01*
X0027161Y0028222D01*
X0027409Y0028003D01*
X0027652Y0027777D01*
X0027889Y0027546D01*
X0028120Y0027309D01*
X0028346Y0027066D01*
X0028565Y0026818D01*
X0028779Y0026564D01*
X0028986Y0026306D01*
X0029186Y0026042D01*
X0029380Y0025773D01*
X0029568Y0025500D01*
X0029749Y0025222D01*
X0029922Y0024940D01*
X0030089Y0024654D01*
X0030249Y0024364D01*
X0030402Y0024070D01*
X0030547Y0023772D01*
X0030685Y0023471D01*
X0030815Y0023166D01*
X0030938Y0022859D01*
X0031054Y0022548D01*
X0031162Y0022235D01*
X0031262Y0021919D01*
X0031354Y0021601D01*
X0031438Y0021280D01*
X0031515Y0020958D01*
X0031584Y0020634D01*
X0031644Y0020308D01*
X0031697Y0019981D01*
X0031741Y0019653D01*
X0031778Y0019323D01*
X0031806Y0018993D01*
X0031827Y0018662D01*
X0031839Y0018331D01*
X0031843Y0018000D01*
X0031839Y0017669D01*
X0031827Y0017338D01*
X0031806Y0017007D01*
X0031778Y0016677D01*
X0031741Y0016347D01*
X0031697Y0016019D01*
X0031644Y0015692D01*
X0031584Y0015366D01*
X0031515Y0015042D01*
X0031438Y0014720D01*
X0031354Y0014399D01*
X0031262Y0014081D01*
X0031162Y0013765D01*
X0031054Y0013452D01*
X0030938Y0013141D01*
X0030815Y0012834D01*
X0030685Y0012529D01*
X0030547Y0012228D01*
X0030402Y0011930D01*
X0030249Y0011636D01*
X0030089Y0011346D01*
X0029922Y0011060D01*
X0029749Y0010778D01*
X0029568Y0010500D01*
X0029380Y0010227D01*
X0029186Y0009958D01*
X0028986Y0009694D01*
X0028779Y0009436D01*
X0028565Y0009182D01*
X0028346Y0008934D01*
X0028120Y0008691D01*
X0027889Y0008454D01*
X0027652Y0008223D01*
X0027409Y0007997D01*
X0027161Y0007778D01*
X0026907Y0007564D01*
X0026649Y0007357D01*
X0026385Y0007157D01*
X0026116Y0006963D01*
X0025843Y0006775D01*
X0025565Y0006594D01*
X0025283Y0006421D01*
X0024997Y0006254D01*
X0024707Y0006094D01*
X0024413Y0005941D01*
X0024115Y0005796D01*
X0023814Y0005658D01*
X0023509Y0005528D01*
X0023202Y0005405D01*
X0022891Y0005289D01*
X0022578Y0005181D01*
X0022262Y0005081D01*
X0021944Y0004989D01*
X0021623Y0004905D01*
X0021301Y0004828D01*
X0020977Y0004759D01*
X0020651Y0004699D01*
X0020324Y0004646D01*
X0019996Y0004602D01*
X0019666Y0004565D01*
X0019336Y0004537D01*
X0019005Y0004516D01*
X0018674Y0004504D01*
X0018343Y0004500D01*
X0018012Y0004504D01*
X0017681Y0004516D01*
X0017350Y0004537D01*
X0017020Y0004565D01*
X0016690Y0004602D01*
X0016362Y0004646D01*
X0016035Y0004699D01*
X0015709Y0004759D01*
X0015385Y0004828D01*
X0015063Y0004905D01*
X0014742Y0004989D01*
X0014424Y0005081D01*
X0014108Y0005181D01*
X0013795Y0005289D01*
X0013484Y0005405D01*
X0013177Y0005528D01*
X0012872Y0005658D01*
X0012571Y0005796D01*
X0012273Y0005941D01*
X0011979Y0006094D01*
X0011689Y0006254D01*
X0011403Y0006421D01*
X0011121Y0006594D01*
X0010843Y0006775D01*
X0010570Y0006963D01*
X0010301Y0007157D01*
X0010037Y0007357D01*
X0009779Y0007564D01*
X0009525Y0007778D01*
X0009277Y0007997D01*
X0009034Y0008223D01*
X0008797Y0008454D01*
X0008566Y0008691D01*
X0008340Y0008934D01*
X0008121Y0009182D01*
X0007907Y0009436D01*
X0007700Y0009694D01*
X0007500Y0009958D01*
X0007306Y0010227D01*
X0007118Y0010500D01*
X0006937Y0010778D01*
X0006764Y0011060D01*
X0006597Y0011346D01*
X0006437Y0011636D01*
X0006284Y0011930D01*
X0006139Y0012228D01*
X0006001Y0012529D01*
X0005871Y0012834D01*
X0005748Y0013141D01*
X0005632Y0013452D01*
X0005524Y0013765D01*
X0005424Y0014081D01*
X0005332Y0014399D01*
X0005248Y0014720D01*
X0005171Y0015042D01*
X0005102Y0015366D01*
X0005042Y0015692D01*
X0004989Y0016019D01*
X0004945Y0016347D01*
X0004908Y0016677D01*
X0004880Y0017007D01*
X0004859Y0017338D01*
X0004847Y0017669D01*
X0004843Y0018000D01*
D13*
X0011650Y0018000D02*
X0011652Y0018164D01*
X0011658Y0018328D01*
X0011668Y0018492D01*
X0011682Y0018656D01*
X0011700Y0018819D01*
X0011722Y0018982D01*
X0011749Y0019144D01*
X0011779Y0019306D01*
X0011813Y0019466D01*
X0011851Y0019626D01*
X0011892Y0019785D01*
X0011938Y0019943D01*
X0011988Y0020099D01*
X0012041Y0020255D01*
X0012098Y0020409D01*
X0012159Y0020561D01*
X0012224Y0020712D01*
X0012293Y0020862D01*
X0012365Y0021009D01*
X0012440Y0021155D01*
X0012520Y0021299D01*
X0012602Y0021441D01*
X0012688Y0021581D01*
X0012778Y0021718D01*
X0012871Y0021854D01*
X0012967Y0021987D01*
X0013067Y0022118D01*
X0013169Y0022246D01*
X0013275Y0022372D01*
X0013384Y0022495D01*
X0013496Y0022615D01*
X0013610Y0022733D01*
X0013728Y0022847D01*
X0013848Y0022959D01*
X0013971Y0023068D01*
X0014097Y0023174D01*
X0014225Y0023276D01*
X0014356Y0023376D01*
X0014489Y0023472D01*
X0014625Y0023565D01*
X0014762Y0023655D01*
X0014902Y0023741D01*
X0015044Y0023823D01*
X0015188Y0023903D01*
X0015334Y0023978D01*
X0015481Y0024050D01*
X0015631Y0024119D01*
X0015782Y0024184D01*
X0015934Y0024245D01*
X0016088Y0024302D01*
X0016244Y0024355D01*
X0016400Y0024405D01*
X0016558Y0024451D01*
X0016717Y0024492D01*
X0016877Y0024530D01*
X0017037Y0024564D01*
X0017199Y0024594D01*
X0017361Y0024621D01*
X0017524Y0024643D01*
X0017687Y0024661D01*
X0017851Y0024675D01*
X0018015Y0024685D01*
X0018179Y0024691D01*
X0018343Y0024693D01*
X0018507Y0024691D01*
X0018671Y0024685D01*
X0018835Y0024675D01*
X0018999Y0024661D01*
X0019162Y0024643D01*
X0019325Y0024621D01*
X0019487Y0024594D01*
X0019649Y0024564D01*
X0019809Y0024530D01*
X0019969Y0024492D01*
X0020128Y0024451D01*
X0020286Y0024405D01*
X0020442Y0024355D01*
X0020598Y0024302D01*
X0020752Y0024245D01*
X0020904Y0024184D01*
X0021055Y0024119D01*
X0021205Y0024050D01*
X0021352Y0023978D01*
X0021498Y0023903D01*
X0021642Y0023823D01*
X0021784Y0023741D01*
X0021924Y0023655D01*
X0022061Y0023565D01*
X0022197Y0023472D01*
X0022330Y0023376D01*
X0022461Y0023276D01*
X0022589Y0023174D01*
X0022715Y0023068D01*
X0022838Y0022959D01*
X0022958Y0022847D01*
X0023076Y0022733D01*
X0023190Y0022615D01*
X0023302Y0022495D01*
X0023411Y0022372D01*
X0023517Y0022246D01*
X0023619Y0022118D01*
X0023719Y0021987D01*
X0023815Y0021854D01*
X0023908Y0021718D01*
X0023998Y0021581D01*
X0024084Y0021441D01*
X0024166Y0021299D01*
X0024246Y0021155D01*
X0024321Y0021009D01*
X0024393Y0020862D01*
X0024462Y0020712D01*
X0024527Y0020561D01*
X0024588Y0020409D01*
X0024645Y0020255D01*
X0024698Y0020099D01*
X0024748Y0019943D01*
X0024794Y0019785D01*
X0024835Y0019626D01*
X0024873Y0019466D01*
X0024907Y0019306D01*
X0024937Y0019144D01*
X0024964Y0018982D01*
X0024986Y0018819D01*
X0025004Y0018656D01*
X0025018Y0018492D01*
X0025028Y0018328D01*
X0025034Y0018164D01*
X0025036Y0018000D01*
X0025034Y0017836D01*
X0025028Y0017672D01*
X0025018Y0017508D01*
X0025004Y0017344D01*
X0024986Y0017181D01*
X0024964Y0017018D01*
X0024937Y0016856D01*
X0024907Y0016694D01*
X0024873Y0016534D01*
X0024835Y0016374D01*
X0024794Y0016215D01*
X0024748Y0016057D01*
X0024698Y0015901D01*
X0024645Y0015745D01*
X0024588Y0015591D01*
X0024527Y0015439D01*
X0024462Y0015288D01*
X0024393Y0015138D01*
X0024321Y0014991D01*
X0024246Y0014845D01*
X0024166Y0014701D01*
X0024084Y0014559D01*
X0023998Y0014419D01*
X0023908Y0014282D01*
X0023815Y0014146D01*
X0023719Y0014013D01*
X0023619Y0013882D01*
X0023517Y0013754D01*
X0023411Y0013628D01*
X0023302Y0013505D01*
X0023190Y0013385D01*
X0023076Y0013267D01*
X0022958Y0013153D01*
X0022838Y0013041D01*
X0022715Y0012932D01*
X0022589Y0012826D01*
X0022461Y0012724D01*
X0022330Y0012624D01*
X0022197Y0012528D01*
X0022061Y0012435D01*
X0021924Y0012345D01*
X0021784Y0012259D01*
X0021642Y0012177D01*
X0021498Y0012097D01*
X0021352Y0012022D01*
X0021205Y0011950D01*
X0021055Y0011881D01*
X0020904Y0011816D01*
X0020752Y0011755D01*
X0020598Y0011698D01*
X0020442Y0011645D01*
X0020286Y0011595D01*
X0020128Y0011549D01*
X0019969Y0011508D01*
X0019809Y0011470D01*
X0019649Y0011436D01*
X0019487Y0011406D01*
X0019325Y0011379D01*
X0019162Y0011357D01*
X0018999Y0011339D01*
X0018835Y0011325D01*
X0018671Y0011315D01*
X0018507Y0011309D01*
X0018343Y0011307D01*
X0018179Y0011309D01*
X0018015Y0011315D01*
X0017851Y0011325D01*
X0017687Y0011339D01*
X0017524Y0011357D01*
X0017361Y0011379D01*
X0017199Y0011406D01*
X0017037Y0011436D01*
X0016877Y0011470D01*
X0016717Y0011508D01*
X0016558Y0011549D01*
X0016400Y0011595D01*
X0016244Y0011645D01*
X0016088Y0011698D01*
X0015934Y0011755D01*
X0015782Y0011816D01*
X0015631Y0011881D01*
X0015481Y0011950D01*
X0015334Y0012022D01*
X0015188Y0012097D01*
X0015044Y0012177D01*
X0014902Y0012259D01*
X0014762Y0012345D01*
X0014625Y0012435D01*
X0014489Y0012528D01*
X0014356Y0012624D01*
X0014225Y0012724D01*
X0014097Y0012826D01*
X0013971Y0012932D01*
X0013848Y0013041D01*
X0013728Y0013153D01*
X0013610Y0013267D01*
X0013496Y0013385D01*
X0013384Y0013505D01*
X0013275Y0013628D01*
X0013169Y0013754D01*
X0013067Y0013882D01*
X0012967Y0014013D01*
X0012871Y0014146D01*
X0012778Y0014282D01*
X0012688Y0014419D01*
X0012602Y0014559D01*
X0012520Y0014701D01*
X0012440Y0014845D01*
X0012365Y0014991D01*
X0012293Y0015138D01*
X0012224Y0015288D01*
X0012159Y0015439D01*
X0012098Y0015591D01*
X0012041Y0015745D01*
X0011988Y0015901D01*
X0011938Y0016057D01*
X0011892Y0016215D01*
X0011851Y0016374D01*
X0011813Y0016534D01*
X0011779Y0016694D01*
X0011749Y0016856D01*
X0011722Y0017018D01*
X0011700Y0017181D01*
X0011682Y0017344D01*
X0011668Y0017508D01*
X0011658Y0017672D01*
X0011652Y0017836D01*
X0011650Y0018000D01*
X0014504Y0038161D02*
X0077496Y0038161D01*
X0049937Y0049972D02*
X0036157Y0049972D01*
X0036157Y0063752D01*
X0049937Y0063752D01*
X0049937Y0049972D01*
X0053874Y0056469D02*
X0066472Y0056469D01*
X0066472Y0076154D01*
X0053874Y0076154D01*
X0053874Y0056469D01*
X0077496Y0101154D02*
X0014504Y0101154D01*
X0021169Y0110559D02*
X0029831Y0110559D01*
X0038098Y0118827D02*
X0038098Y0127488D01*
X0018807Y0123157D02*
X0018809Y0123321D01*
X0018815Y0123485D01*
X0018825Y0123649D01*
X0018839Y0123813D01*
X0018857Y0123976D01*
X0018879Y0124139D01*
X0018906Y0124301D01*
X0018936Y0124463D01*
X0018970Y0124623D01*
X0019008Y0124783D01*
X0019049Y0124942D01*
X0019095Y0125100D01*
X0019145Y0125256D01*
X0019198Y0125412D01*
X0019255Y0125566D01*
X0019316Y0125718D01*
X0019381Y0125869D01*
X0019450Y0126019D01*
X0019522Y0126166D01*
X0019597Y0126312D01*
X0019677Y0126456D01*
X0019759Y0126598D01*
X0019845Y0126738D01*
X0019935Y0126875D01*
X0020028Y0127011D01*
X0020124Y0127144D01*
X0020224Y0127275D01*
X0020326Y0127403D01*
X0020432Y0127529D01*
X0020541Y0127652D01*
X0020653Y0127772D01*
X0020767Y0127890D01*
X0020885Y0128004D01*
X0021005Y0128116D01*
X0021128Y0128225D01*
X0021254Y0128331D01*
X0021382Y0128433D01*
X0021513Y0128533D01*
X0021646Y0128629D01*
X0021782Y0128722D01*
X0021919Y0128812D01*
X0022059Y0128898D01*
X0022201Y0128980D01*
X0022345Y0129060D01*
X0022491Y0129135D01*
X0022638Y0129207D01*
X0022788Y0129276D01*
X0022939Y0129341D01*
X0023091Y0129402D01*
X0023245Y0129459D01*
X0023401Y0129512D01*
X0023557Y0129562D01*
X0023715Y0129608D01*
X0023874Y0129649D01*
X0024034Y0129687D01*
X0024194Y0129721D01*
X0024356Y0129751D01*
X0024518Y0129778D01*
X0024681Y0129800D01*
X0024844Y0129818D01*
X0025008Y0129832D01*
X0025172Y0129842D01*
X0025336Y0129848D01*
X0025500Y0129850D01*
X0025664Y0129848D01*
X0025828Y0129842D01*
X0025992Y0129832D01*
X0026156Y0129818D01*
X0026319Y0129800D01*
X0026482Y0129778D01*
X0026644Y0129751D01*
X0026806Y0129721D01*
X0026966Y0129687D01*
X0027126Y0129649D01*
X0027285Y0129608D01*
X0027443Y0129562D01*
X0027599Y0129512D01*
X0027755Y0129459D01*
X0027909Y0129402D01*
X0028061Y0129341D01*
X0028212Y0129276D01*
X0028362Y0129207D01*
X0028509Y0129135D01*
X0028655Y0129060D01*
X0028799Y0128980D01*
X0028941Y0128898D01*
X0029081Y0128812D01*
X0029218Y0128722D01*
X0029354Y0128629D01*
X0029487Y0128533D01*
X0029618Y0128433D01*
X0029746Y0128331D01*
X0029872Y0128225D01*
X0029995Y0128116D01*
X0030115Y0128004D01*
X0030233Y0127890D01*
X0030347Y0127772D01*
X0030459Y0127652D01*
X0030568Y0127529D01*
X0030674Y0127403D01*
X0030776Y0127275D01*
X0030876Y0127144D01*
X0030972Y0127011D01*
X0031065Y0126875D01*
X0031155Y0126738D01*
X0031241Y0126598D01*
X0031323Y0126456D01*
X0031403Y0126312D01*
X0031478Y0126166D01*
X0031550Y0126019D01*
X0031619Y0125869D01*
X0031684Y0125718D01*
X0031745Y0125566D01*
X0031802Y0125412D01*
X0031855Y0125256D01*
X0031905Y0125100D01*
X0031951Y0124942D01*
X0031992Y0124783D01*
X0032030Y0124623D01*
X0032064Y0124463D01*
X0032094Y0124301D01*
X0032121Y0124139D01*
X0032143Y0123976D01*
X0032161Y0123813D01*
X0032175Y0123649D01*
X0032185Y0123485D01*
X0032191Y0123321D01*
X0032193Y0123157D01*
X0032191Y0122993D01*
X0032185Y0122829D01*
X0032175Y0122665D01*
X0032161Y0122501D01*
X0032143Y0122338D01*
X0032121Y0122175D01*
X0032094Y0122013D01*
X0032064Y0121851D01*
X0032030Y0121691D01*
X0031992Y0121531D01*
X0031951Y0121372D01*
X0031905Y0121214D01*
X0031855Y0121058D01*
X0031802Y0120902D01*
X0031745Y0120748D01*
X0031684Y0120596D01*
X0031619Y0120445D01*
X0031550Y0120295D01*
X0031478Y0120148D01*
X0031403Y0120002D01*
X0031323Y0119858D01*
X0031241Y0119716D01*
X0031155Y0119576D01*
X0031065Y0119439D01*
X0030972Y0119303D01*
X0030876Y0119170D01*
X0030776Y0119039D01*
X0030674Y0118911D01*
X0030568Y0118785D01*
X0030459Y0118662D01*
X0030347Y0118542D01*
X0030233Y0118424D01*
X0030115Y0118310D01*
X0029995Y0118198D01*
X0029872Y0118089D01*
X0029746Y0117983D01*
X0029618Y0117881D01*
X0029487Y0117781D01*
X0029354Y0117685D01*
X0029218Y0117592D01*
X0029081Y0117502D01*
X0028941Y0117416D01*
X0028799Y0117334D01*
X0028655Y0117254D01*
X0028509Y0117179D01*
X0028362Y0117107D01*
X0028212Y0117038D01*
X0028061Y0116973D01*
X0027909Y0116912D01*
X0027755Y0116855D01*
X0027599Y0116802D01*
X0027443Y0116752D01*
X0027285Y0116706D01*
X0027126Y0116665D01*
X0026966Y0116627D01*
X0026806Y0116593D01*
X0026644Y0116563D01*
X0026482Y0116536D01*
X0026319Y0116514D01*
X0026156Y0116496D01*
X0025992Y0116482D01*
X0025828Y0116472D01*
X0025664Y0116466D01*
X0025500Y0116464D01*
X0025336Y0116466D01*
X0025172Y0116472D01*
X0025008Y0116482D01*
X0024844Y0116496D01*
X0024681Y0116514D01*
X0024518Y0116536D01*
X0024356Y0116563D01*
X0024194Y0116593D01*
X0024034Y0116627D01*
X0023874Y0116665D01*
X0023715Y0116706D01*
X0023557Y0116752D01*
X0023401Y0116802D01*
X0023245Y0116855D01*
X0023091Y0116912D01*
X0022939Y0116973D01*
X0022788Y0117038D01*
X0022638Y0117107D01*
X0022491Y0117179D01*
X0022345Y0117254D01*
X0022201Y0117334D01*
X0022059Y0117416D01*
X0021919Y0117502D01*
X0021782Y0117592D01*
X0021646Y0117685D01*
X0021513Y0117781D01*
X0021382Y0117881D01*
X0021254Y0117983D01*
X0021128Y0118089D01*
X0021005Y0118198D01*
X0020885Y0118310D01*
X0020767Y0118424D01*
X0020653Y0118542D01*
X0020541Y0118662D01*
X0020432Y0118785D01*
X0020326Y0118911D01*
X0020224Y0119039D01*
X0020124Y0119170D01*
X0020028Y0119303D01*
X0019935Y0119439D01*
X0019845Y0119576D01*
X0019759Y0119716D01*
X0019677Y0119858D01*
X0019597Y0120002D01*
X0019522Y0120148D01*
X0019450Y0120295D01*
X0019381Y0120445D01*
X0019316Y0120596D01*
X0019255Y0120748D01*
X0019198Y0120902D01*
X0019145Y0121058D01*
X0019095Y0121214D01*
X0019049Y0121372D01*
X0019008Y0121531D01*
X0018970Y0121691D01*
X0018936Y0121851D01*
X0018906Y0122013D01*
X0018879Y0122175D01*
X0018857Y0122338D01*
X0018839Y0122501D01*
X0018825Y0122665D01*
X0018815Y0122829D01*
X0018809Y0122993D01*
X0018807Y0123157D01*
X0012902Y0118827D02*
X0012902Y0127488D01*
X0021169Y0135756D02*
X0029831Y0135756D01*
X0011453Y0155795D02*
X0011455Y0155964D01*
X0011461Y0156133D01*
X0011472Y0156302D01*
X0011486Y0156470D01*
X0011505Y0156638D01*
X0011528Y0156806D01*
X0011554Y0156973D01*
X0011585Y0157139D01*
X0011620Y0157305D01*
X0011659Y0157469D01*
X0011703Y0157633D01*
X0011750Y0157795D01*
X0011801Y0157956D01*
X0011856Y0158116D01*
X0011915Y0158275D01*
X0011977Y0158432D01*
X0012044Y0158587D01*
X0012115Y0158741D01*
X0012189Y0158893D01*
X0012267Y0159043D01*
X0012348Y0159191D01*
X0012433Y0159337D01*
X0012522Y0159481D01*
X0012614Y0159623D01*
X0012710Y0159762D01*
X0012809Y0159899D01*
X0012911Y0160034D01*
X0013017Y0160166D01*
X0013126Y0160295D01*
X0013238Y0160422D01*
X0013353Y0160546D01*
X0013471Y0160667D01*
X0013592Y0160785D01*
X0013716Y0160900D01*
X0013843Y0161012D01*
X0013972Y0161121D01*
X0014104Y0161227D01*
X0014239Y0161329D01*
X0014376Y0161428D01*
X0014515Y0161524D01*
X0014657Y0161616D01*
X0014801Y0161705D01*
X0014947Y0161790D01*
X0015095Y0161871D01*
X0015245Y0161949D01*
X0015397Y0162023D01*
X0015551Y0162094D01*
X0015706Y0162161D01*
X0015863Y0162223D01*
X0016022Y0162282D01*
X0016182Y0162337D01*
X0016343Y0162388D01*
X0016505Y0162435D01*
X0016669Y0162479D01*
X0016833Y0162518D01*
X0016999Y0162553D01*
X0017165Y0162584D01*
X0017332Y0162610D01*
X0017500Y0162633D01*
X0017668Y0162652D01*
X0017836Y0162666D01*
X0018005Y0162677D01*
X0018174Y0162683D01*
X0018343Y0162685D01*
X0018512Y0162683D01*
X0018681Y0162677D01*
X0018850Y0162666D01*
X0019018Y0162652D01*
X0019186Y0162633D01*
X0019354Y0162610D01*
X0019521Y0162584D01*
X0019687Y0162553D01*
X0019853Y0162518D01*
X0020017Y0162479D01*
X0020181Y0162435D01*
X0020343Y0162388D01*
X0020504Y0162337D01*
X0020664Y0162282D01*
X0020823Y0162223D01*
X0020980Y0162161D01*
X0021135Y0162094D01*
X0021289Y0162023D01*
X0021441Y0161949D01*
X0021591Y0161871D01*
X0021739Y0161790D01*
X0021885Y0161705D01*
X0022029Y0161616D01*
X0022171Y0161524D01*
X0022310Y0161428D01*
X0022447Y0161329D01*
X0022582Y0161227D01*
X0022714Y0161121D01*
X0022843Y0161012D01*
X0022970Y0160900D01*
X0023094Y0160785D01*
X0023215Y0160667D01*
X0023333Y0160546D01*
X0023448Y0160422D01*
X0023560Y0160295D01*
X0023669Y0160166D01*
X0023775Y0160034D01*
X0023877Y0159899D01*
X0023976Y0159762D01*
X0024072Y0159623D01*
X0024164Y0159481D01*
X0024253Y0159337D01*
X0024338Y0159191D01*
X0024419Y0159043D01*
X0024497Y0158893D01*
X0024571Y0158741D01*
X0024642Y0158587D01*
X0024709Y0158432D01*
X0024771Y0158275D01*
X0024830Y0158116D01*
X0024885Y0157956D01*
X0024936Y0157795D01*
X0024983Y0157633D01*
X0025027Y0157469D01*
X0025066Y0157305D01*
X0025101Y0157139D01*
X0025132Y0156973D01*
X0025158Y0156806D01*
X0025181Y0156638D01*
X0025200Y0156470D01*
X0025214Y0156302D01*
X0025225Y0156133D01*
X0025231Y0155964D01*
X0025233Y0155795D01*
X0025231Y0155626D01*
X0025225Y0155457D01*
X0025214Y0155288D01*
X0025200Y0155120D01*
X0025181Y0154952D01*
X0025158Y0154784D01*
X0025132Y0154617D01*
X0025101Y0154451D01*
X0025066Y0154285D01*
X0025027Y0154121D01*
X0024983Y0153957D01*
X0024936Y0153795D01*
X0024885Y0153634D01*
X0024830Y0153474D01*
X0024771Y0153315D01*
X0024709Y0153158D01*
X0024642Y0153003D01*
X0024571Y0152849D01*
X0024497Y0152697D01*
X0024419Y0152547D01*
X0024338Y0152399D01*
X0024253Y0152253D01*
X0024164Y0152109D01*
X0024072Y0151967D01*
X0023976Y0151828D01*
X0023877Y0151691D01*
X0023775Y0151556D01*
X0023669Y0151424D01*
X0023560Y0151295D01*
X0023448Y0151168D01*
X0023333Y0151044D01*
X0023215Y0150923D01*
X0023094Y0150805D01*
X0022970Y0150690D01*
X0022843Y0150578D01*
X0022714Y0150469D01*
X0022582Y0150363D01*
X0022447Y0150261D01*
X0022310Y0150162D01*
X0022171Y0150066D01*
X0022029Y0149974D01*
X0021885Y0149885D01*
X0021739Y0149800D01*
X0021591Y0149719D01*
X0021441Y0149641D01*
X0021289Y0149567D01*
X0021135Y0149496D01*
X0020980Y0149429D01*
X0020823Y0149367D01*
X0020664Y0149308D01*
X0020504Y0149253D01*
X0020343Y0149202D01*
X0020181Y0149155D01*
X0020017Y0149111D01*
X0019853Y0149072D01*
X0019687Y0149037D01*
X0019521Y0149006D01*
X0019354Y0148980D01*
X0019186Y0148957D01*
X0019018Y0148938D01*
X0018850Y0148924D01*
X0018681Y0148913D01*
X0018512Y0148907D01*
X0018343Y0148905D01*
X0018174Y0148907D01*
X0018005Y0148913D01*
X0017836Y0148924D01*
X0017668Y0148938D01*
X0017500Y0148957D01*
X0017332Y0148980D01*
X0017165Y0149006D01*
X0016999Y0149037D01*
X0016833Y0149072D01*
X0016669Y0149111D01*
X0016505Y0149155D01*
X0016343Y0149202D01*
X0016182Y0149253D01*
X0016022Y0149308D01*
X0015863Y0149367D01*
X0015706Y0149429D01*
X0015551Y0149496D01*
X0015397Y0149567D01*
X0015245Y0149641D01*
X0015095Y0149719D01*
X0014947Y0149800D01*
X0014801Y0149885D01*
X0014657Y0149974D01*
X0014515Y0150066D01*
X0014376Y0150162D01*
X0014239Y0150261D01*
X0014104Y0150363D01*
X0013972Y0150469D01*
X0013843Y0150578D01*
X0013716Y0150690D01*
X0013592Y0150805D01*
X0013471Y0150923D01*
X0013353Y0151044D01*
X0013238Y0151168D01*
X0013126Y0151295D01*
X0013017Y0151424D01*
X0012911Y0151556D01*
X0012809Y0151691D01*
X0012710Y0151828D01*
X0012614Y0151967D01*
X0012522Y0152109D01*
X0012433Y0152253D01*
X0012348Y0152399D01*
X0012267Y0152547D01*
X0012189Y0152697D01*
X0012115Y0152849D01*
X0012044Y0153003D01*
X0011977Y0153158D01*
X0011915Y0153315D01*
X0011856Y0153474D01*
X0011801Y0153634D01*
X0011750Y0153795D01*
X0011703Y0153957D01*
X0011659Y0154121D01*
X0011620Y0154285D01*
X0011585Y0154451D01*
X0011554Y0154617D01*
X0011528Y0154784D01*
X0011505Y0154952D01*
X0011486Y0155120D01*
X0011472Y0155288D01*
X0011461Y0155457D01*
X0011455Y0155626D01*
X0011453Y0155795D01*
X0149445Y0155795D02*
X0149447Y0155959D01*
X0149453Y0156123D01*
X0149463Y0156287D01*
X0149477Y0156451D01*
X0149495Y0156614D01*
X0149517Y0156777D01*
X0149544Y0156939D01*
X0149574Y0157101D01*
X0149608Y0157261D01*
X0149646Y0157421D01*
X0149687Y0157580D01*
X0149733Y0157738D01*
X0149783Y0157894D01*
X0149836Y0158050D01*
X0149893Y0158204D01*
X0149954Y0158356D01*
X0150019Y0158507D01*
X0150088Y0158657D01*
X0150160Y0158804D01*
X0150235Y0158950D01*
X0150315Y0159094D01*
X0150397Y0159236D01*
X0150483Y0159376D01*
X0150573Y0159513D01*
X0150666Y0159649D01*
X0150762Y0159782D01*
X0150862Y0159913D01*
X0150964Y0160041D01*
X0151070Y0160167D01*
X0151179Y0160290D01*
X0151291Y0160410D01*
X0151405Y0160528D01*
X0151523Y0160642D01*
X0151643Y0160754D01*
X0151766Y0160863D01*
X0151892Y0160969D01*
X0152020Y0161071D01*
X0152151Y0161171D01*
X0152284Y0161267D01*
X0152420Y0161360D01*
X0152557Y0161450D01*
X0152697Y0161536D01*
X0152839Y0161618D01*
X0152983Y0161698D01*
X0153129Y0161773D01*
X0153276Y0161845D01*
X0153426Y0161914D01*
X0153577Y0161979D01*
X0153729Y0162040D01*
X0153883Y0162097D01*
X0154039Y0162150D01*
X0154195Y0162200D01*
X0154353Y0162246D01*
X0154512Y0162287D01*
X0154672Y0162325D01*
X0154832Y0162359D01*
X0154994Y0162389D01*
X0155156Y0162416D01*
X0155319Y0162438D01*
X0155482Y0162456D01*
X0155646Y0162470D01*
X0155810Y0162480D01*
X0155974Y0162486D01*
X0156138Y0162488D01*
X0156302Y0162486D01*
X0156466Y0162480D01*
X0156630Y0162470D01*
X0156794Y0162456D01*
X0156957Y0162438D01*
X0157120Y0162416D01*
X0157282Y0162389D01*
X0157444Y0162359D01*
X0157604Y0162325D01*
X0157764Y0162287D01*
X0157923Y0162246D01*
X0158081Y0162200D01*
X0158237Y0162150D01*
X0158393Y0162097D01*
X0158547Y0162040D01*
X0158699Y0161979D01*
X0158850Y0161914D01*
X0159000Y0161845D01*
X0159147Y0161773D01*
X0159293Y0161698D01*
X0159437Y0161618D01*
X0159579Y0161536D01*
X0159719Y0161450D01*
X0159856Y0161360D01*
X0159992Y0161267D01*
X0160125Y0161171D01*
X0160256Y0161071D01*
X0160384Y0160969D01*
X0160510Y0160863D01*
X0160633Y0160754D01*
X0160753Y0160642D01*
X0160871Y0160528D01*
X0160985Y0160410D01*
X0161097Y0160290D01*
X0161206Y0160167D01*
X0161312Y0160041D01*
X0161414Y0159913D01*
X0161514Y0159782D01*
X0161610Y0159649D01*
X0161703Y0159513D01*
X0161793Y0159376D01*
X0161879Y0159236D01*
X0161961Y0159094D01*
X0162041Y0158950D01*
X0162116Y0158804D01*
X0162188Y0158657D01*
X0162257Y0158507D01*
X0162322Y0158356D01*
X0162383Y0158204D01*
X0162440Y0158050D01*
X0162493Y0157894D01*
X0162543Y0157738D01*
X0162589Y0157580D01*
X0162630Y0157421D01*
X0162668Y0157261D01*
X0162702Y0157101D01*
X0162732Y0156939D01*
X0162759Y0156777D01*
X0162781Y0156614D01*
X0162799Y0156451D01*
X0162813Y0156287D01*
X0162823Y0156123D01*
X0162829Y0155959D01*
X0162831Y0155795D01*
X0162829Y0155631D01*
X0162823Y0155467D01*
X0162813Y0155303D01*
X0162799Y0155139D01*
X0162781Y0154976D01*
X0162759Y0154813D01*
X0162732Y0154651D01*
X0162702Y0154489D01*
X0162668Y0154329D01*
X0162630Y0154169D01*
X0162589Y0154010D01*
X0162543Y0153852D01*
X0162493Y0153696D01*
X0162440Y0153540D01*
X0162383Y0153386D01*
X0162322Y0153234D01*
X0162257Y0153083D01*
X0162188Y0152933D01*
X0162116Y0152786D01*
X0162041Y0152640D01*
X0161961Y0152496D01*
X0161879Y0152354D01*
X0161793Y0152214D01*
X0161703Y0152077D01*
X0161610Y0151941D01*
X0161514Y0151808D01*
X0161414Y0151677D01*
X0161312Y0151549D01*
X0161206Y0151423D01*
X0161097Y0151300D01*
X0160985Y0151180D01*
X0160871Y0151062D01*
X0160753Y0150948D01*
X0160633Y0150836D01*
X0160510Y0150727D01*
X0160384Y0150621D01*
X0160256Y0150519D01*
X0160125Y0150419D01*
X0159992Y0150323D01*
X0159856Y0150230D01*
X0159719Y0150140D01*
X0159579Y0150054D01*
X0159437Y0149972D01*
X0159293Y0149892D01*
X0159147Y0149817D01*
X0159000Y0149745D01*
X0158850Y0149676D01*
X0158699Y0149611D01*
X0158547Y0149550D01*
X0158393Y0149493D01*
X0158237Y0149440D01*
X0158081Y0149390D01*
X0157923Y0149344D01*
X0157764Y0149303D01*
X0157604Y0149265D01*
X0157444Y0149231D01*
X0157282Y0149201D01*
X0157120Y0149174D01*
X0156957Y0149152D01*
X0156794Y0149134D01*
X0156630Y0149120D01*
X0156466Y0149110D01*
X0156302Y0149104D01*
X0156138Y0149102D01*
X0155974Y0149104D01*
X0155810Y0149110D01*
X0155646Y0149120D01*
X0155482Y0149134D01*
X0155319Y0149152D01*
X0155156Y0149174D01*
X0154994Y0149201D01*
X0154832Y0149231D01*
X0154672Y0149265D01*
X0154512Y0149303D01*
X0154353Y0149344D01*
X0154195Y0149390D01*
X0154039Y0149440D01*
X0153883Y0149493D01*
X0153729Y0149550D01*
X0153577Y0149611D01*
X0153426Y0149676D01*
X0153276Y0149745D01*
X0153129Y0149817D01*
X0152983Y0149892D01*
X0152839Y0149972D01*
X0152697Y0150054D01*
X0152557Y0150140D01*
X0152420Y0150230D01*
X0152284Y0150323D01*
X0152151Y0150419D01*
X0152020Y0150519D01*
X0151892Y0150621D01*
X0151766Y0150727D01*
X0151643Y0150836D01*
X0151523Y0150948D01*
X0151405Y0151062D01*
X0151291Y0151180D01*
X0151179Y0151300D01*
X0151070Y0151423D01*
X0150964Y0151549D01*
X0150862Y0151677D01*
X0150762Y0151808D01*
X0150666Y0151941D01*
X0150573Y0152077D01*
X0150483Y0152214D01*
X0150397Y0152354D01*
X0150315Y0152496D01*
X0150235Y0152640D01*
X0150160Y0152786D01*
X0150088Y0152933D01*
X0150019Y0153083D01*
X0149954Y0153234D01*
X0149893Y0153386D01*
X0149836Y0153540D01*
X0149783Y0153696D01*
X0149733Y0153852D01*
X0149687Y0154010D01*
X0149646Y0154169D01*
X0149608Y0154329D01*
X0149574Y0154489D01*
X0149544Y0154651D01*
X0149517Y0154813D01*
X0149495Y0154976D01*
X0149477Y0155139D01*
X0149463Y0155303D01*
X0149453Y0155467D01*
X0149447Y0155631D01*
X0149445Y0155795D01*
X0188815Y0155795D02*
X0188817Y0155959D01*
X0188823Y0156123D01*
X0188833Y0156287D01*
X0188847Y0156451D01*
X0188865Y0156614D01*
X0188887Y0156777D01*
X0188914Y0156939D01*
X0188944Y0157101D01*
X0188978Y0157261D01*
X0189016Y0157421D01*
X0189057Y0157580D01*
X0189103Y0157738D01*
X0189153Y0157894D01*
X0189206Y0158050D01*
X0189263Y0158204D01*
X0189324Y0158356D01*
X0189389Y0158507D01*
X0189458Y0158657D01*
X0189530Y0158804D01*
X0189605Y0158950D01*
X0189685Y0159094D01*
X0189767Y0159236D01*
X0189853Y0159376D01*
X0189943Y0159513D01*
X0190036Y0159649D01*
X0190132Y0159782D01*
X0190232Y0159913D01*
X0190334Y0160041D01*
X0190440Y0160167D01*
X0190549Y0160290D01*
X0190661Y0160410D01*
X0190775Y0160528D01*
X0190893Y0160642D01*
X0191013Y0160754D01*
X0191136Y0160863D01*
X0191262Y0160969D01*
X0191390Y0161071D01*
X0191521Y0161171D01*
X0191654Y0161267D01*
X0191790Y0161360D01*
X0191927Y0161450D01*
X0192067Y0161536D01*
X0192209Y0161618D01*
X0192353Y0161698D01*
X0192499Y0161773D01*
X0192646Y0161845D01*
X0192796Y0161914D01*
X0192947Y0161979D01*
X0193099Y0162040D01*
X0193253Y0162097D01*
X0193409Y0162150D01*
X0193565Y0162200D01*
X0193723Y0162246D01*
X0193882Y0162287D01*
X0194042Y0162325D01*
X0194202Y0162359D01*
X0194364Y0162389D01*
X0194526Y0162416D01*
X0194689Y0162438D01*
X0194852Y0162456D01*
X0195016Y0162470D01*
X0195180Y0162480D01*
X0195344Y0162486D01*
X0195508Y0162488D01*
X0195672Y0162486D01*
X0195836Y0162480D01*
X0196000Y0162470D01*
X0196164Y0162456D01*
X0196327Y0162438D01*
X0196490Y0162416D01*
X0196652Y0162389D01*
X0196814Y0162359D01*
X0196974Y0162325D01*
X0197134Y0162287D01*
X0197293Y0162246D01*
X0197451Y0162200D01*
X0197607Y0162150D01*
X0197763Y0162097D01*
X0197917Y0162040D01*
X0198069Y0161979D01*
X0198220Y0161914D01*
X0198370Y0161845D01*
X0198517Y0161773D01*
X0198663Y0161698D01*
X0198807Y0161618D01*
X0198949Y0161536D01*
X0199089Y0161450D01*
X0199226Y0161360D01*
X0199362Y0161267D01*
X0199495Y0161171D01*
X0199626Y0161071D01*
X0199754Y0160969D01*
X0199880Y0160863D01*
X0200003Y0160754D01*
X0200123Y0160642D01*
X0200241Y0160528D01*
X0200355Y0160410D01*
X0200467Y0160290D01*
X0200576Y0160167D01*
X0200682Y0160041D01*
X0200784Y0159913D01*
X0200884Y0159782D01*
X0200980Y0159649D01*
X0201073Y0159513D01*
X0201163Y0159376D01*
X0201249Y0159236D01*
X0201331Y0159094D01*
X0201411Y0158950D01*
X0201486Y0158804D01*
X0201558Y0158657D01*
X0201627Y0158507D01*
X0201692Y0158356D01*
X0201753Y0158204D01*
X0201810Y0158050D01*
X0201863Y0157894D01*
X0201913Y0157738D01*
X0201959Y0157580D01*
X0202000Y0157421D01*
X0202038Y0157261D01*
X0202072Y0157101D01*
X0202102Y0156939D01*
X0202129Y0156777D01*
X0202151Y0156614D01*
X0202169Y0156451D01*
X0202183Y0156287D01*
X0202193Y0156123D01*
X0202199Y0155959D01*
X0202201Y0155795D01*
X0202199Y0155631D01*
X0202193Y0155467D01*
X0202183Y0155303D01*
X0202169Y0155139D01*
X0202151Y0154976D01*
X0202129Y0154813D01*
X0202102Y0154651D01*
X0202072Y0154489D01*
X0202038Y0154329D01*
X0202000Y0154169D01*
X0201959Y0154010D01*
X0201913Y0153852D01*
X0201863Y0153696D01*
X0201810Y0153540D01*
X0201753Y0153386D01*
X0201692Y0153234D01*
X0201627Y0153083D01*
X0201558Y0152933D01*
X0201486Y0152786D01*
X0201411Y0152640D01*
X0201331Y0152496D01*
X0201249Y0152354D01*
X0201163Y0152214D01*
X0201073Y0152077D01*
X0200980Y0151941D01*
X0200884Y0151808D01*
X0200784Y0151677D01*
X0200682Y0151549D01*
X0200576Y0151423D01*
X0200467Y0151300D01*
X0200355Y0151180D01*
X0200241Y0151062D01*
X0200123Y0150948D01*
X0200003Y0150836D01*
X0199880Y0150727D01*
X0199754Y0150621D01*
X0199626Y0150519D01*
X0199495Y0150419D01*
X0199362Y0150323D01*
X0199226Y0150230D01*
X0199089Y0150140D01*
X0198949Y0150054D01*
X0198807Y0149972D01*
X0198663Y0149892D01*
X0198517Y0149817D01*
X0198370Y0149745D01*
X0198220Y0149676D01*
X0198069Y0149611D01*
X0197917Y0149550D01*
X0197763Y0149493D01*
X0197607Y0149440D01*
X0197451Y0149390D01*
X0197293Y0149344D01*
X0197134Y0149303D01*
X0196974Y0149265D01*
X0196814Y0149231D01*
X0196652Y0149201D01*
X0196490Y0149174D01*
X0196327Y0149152D01*
X0196164Y0149134D01*
X0196000Y0149120D01*
X0195836Y0149110D01*
X0195672Y0149104D01*
X0195508Y0149102D01*
X0195344Y0149104D01*
X0195180Y0149110D01*
X0195016Y0149120D01*
X0194852Y0149134D01*
X0194689Y0149152D01*
X0194526Y0149174D01*
X0194364Y0149201D01*
X0194202Y0149231D01*
X0194042Y0149265D01*
X0193882Y0149303D01*
X0193723Y0149344D01*
X0193565Y0149390D01*
X0193409Y0149440D01*
X0193253Y0149493D01*
X0193099Y0149550D01*
X0192947Y0149611D01*
X0192796Y0149676D01*
X0192646Y0149745D01*
X0192499Y0149817D01*
X0192353Y0149892D01*
X0192209Y0149972D01*
X0192067Y0150054D01*
X0191927Y0150140D01*
X0191790Y0150230D01*
X0191654Y0150323D01*
X0191521Y0150419D01*
X0191390Y0150519D01*
X0191262Y0150621D01*
X0191136Y0150727D01*
X0191013Y0150836D01*
X0190893Y0150948D01*
X0190775Y0151062D01*
X0190661Y0151180D01*
X0190549Y0151300D01*
X0190440Y0151423D01*
X0190334Y0151549D01*
X0190232Y0151677D01*
X0190132Y0151808D01*
X0190036Y0151941D01*
X0189943Y0152077D01*
X0189853Y0152214D01*
X0189767Y0152354D01*
X0189685Y0152496D01*
X0189605Y0152640D01*
X0189530Y0152786D01*
X0189458Y0152933D01*
X0189389Y0153083D01*
X0189324Y0153234D01*
X0189263Y0153386D01*
X0189206Y0153540D01*
X0189153Y0153696D01*
X0189103Y0153852D01*
X0189057Y0154010D01*
X0189016Y0154169D01*
X0188978Y0154329D01*
X0188944Y0154489D01*
X0188914Y0154651D01*
X0188887Y0154813D01*
X0188865Y0154976D01*
X0188847Y0155139D01*
X0188833Y0155303D01*
X0188823Y0155467D01*
X0188817Y0155631D01*
X0188815Y0155795D01*
X0326413Y0155795D02*
X0326415Y0155964D01*
X0326421Y0156133D01*
X0326432Y0156302D01*
X0326446Y0156470D01*
X0326465Y0156638D01*
X0326488Y0156806D01*
X0326514Y0156973D01*
X0326545Y0157139D01*
X0326580Y0157305D01*
X0326619Y0157469D01*
X0326663Y0157633D01*
X0326710Y0157795D01*
X0326761Y0157956D01*
X0326816Y0158116D01*
X0326875Y0158275D01*
X0326937Y0158432D01*
X0327004Y0158587D01*
X0327075Y0158741D01*
X0327149Y0158893D01*
X0327227Y0159043D01*
X0327308Y0159191D01*
X0327393Y0159337D01*
X0327482Y0159481D01*
X0327574Y0159623D01*
X0327670Y0159762D01*
X0327769Y0159899D01*
X0327871Y0160034D01*
X0327977Y0160166D01*
X0328086Y0160295D01*
X0328198Y0160422D01*
X0328313Y0160546D01*
X0328431Y0160667D01*
X0328552Y0160785D01*
X0328676Y0160900D01*
X0328803Y0161012D01*
X0328932Y0161121D01*
X0329064Y0161227D01*
X0329199Y0161329D01*
X0329336Y0161428D01*
X0329475Y0161524D01*
X0329617Y0161616D01*
X0329761Y0161705D01*
X0329907Y0161790D01*
X0330055Y0161871D01*
X0330205Y0161949D01*
X0330357Y0162023D01*
X0330511Y0162094D01*
X0330666Y0162161D01*
X0330823Y0162223D01*
X0330982Y0162282D01*
X0331142Y0162337D01*
X0331303Y0162388D01*
X0331465Y0162435D01*
X0331629Y0162479D01*
X0331793Y0162518D01*
X0331959Y0162553D01*
X0332125Y0162584D01*
X0332292Y0162610D01*
X0332460Y0162633D01*
X0332628Y0162652D01*
X0332796Y0162666D01*
X0332965Y0162677D01*
X0333134Y0162683D01*
X0333303Y0162685D01*
X0333472Y0162683D01*
X0333641Y0162677D01*
X0333810Y0162666D01*
X0333978Y0162652D01*
X0334146Y0162633D01*
X0334314Y0162610D01*
X0334481Y0162584D01*
X0334647Y0162553D01*
X0334813Y0162518D01*
X0334977Y0162479D01*
X0335141Y0162435D01*
X0335303Y0162388D01*
X0335464Y0162337D01*
X0335624Y0162282D01*
X0335783Y0162223D01*
X0335940Y0162161D01*
X0336095Y0162094D01*
X0336249Y0162023D01*
X0336401Y0161949D01*
X0336551Y0161871D01*
X0336699Y0161790D01*
X0336845Y0161705D01*
X0336989Y0161616D01*
X0337131Y0161524D01*
X0337270Y0161428D01*
X0337407Y0161329D01*
X0337542Y0161227D01*
X0337674Y0161121D01*
X0337803Y0161012D01*
X0337930Y0160900D01*
X0338054Y0160785D01*
X0338175Y0160667D01*
X0338293Y0160546D01*
X0338408Y0160422D01*
X0338520Y0160295D01*
X0338629Y0160166D01*
X0338735Y0160034D01*
X0338837Y0159899D01*
X0338936Y0159762D01*
X0339032Y0159623D01*
X0339124Y0159481D01*
X0339213Y0159337D01*
X0339298Y0159191D01*
X0339379Y0159043D01*
X0339457Y0158893D01*
X0339531Y0158741D01*
X0339602Y0158587D01*
X0339669Y0158432D01*
X0339731Y0158275D01*
X0339790Y0158116D01*
X0339845Y0157956D01*
X0339896Y0157795D01*
X0339943Y0157633D01*
X0339987Y0157469D01*
X0340026Y0157305D01*
X0340061Y0157139D01*
X0340092Y0156973D01*
X0340118Y0156806D01*
X0340141Y0156638D01*
X0340160Y0156470D01*
X0340174Y0156302D01*
X0340185Y0156133D01*
X0340191Y0155964D01*
X0340193Y0155795D01*
X0340191Y0155626D01*
X0340185Y0155457D01*
X0340174Y0155288D01*
X0340160Y0155120D01*
X0340141Y0154952D01*
X0340118Y0154784D01*
X0340092Y0154617D01*
X0340061Y0154451D01*
X0340026Y0154285D01*
X0339987Y0154121D01*
X0339943Y0153957D01*
X0339896Y0153795D01*
X0339845Y0153634D01*
X0339790Y0153474D01*
X0339731Y0153315D01*
X0339669Y0153158D01*
X0339602Y0153003D01*
X0339531Y0152849D01*
X0339457Y0152697D01*
X0339379Y0152547D01*
X0339298Y0152399D01*
X0339213Y0152253D01*
X0339124Y0152109D01*
X0339032Y0151967D01*
X0338936Y0151828D01*
X0338837Y0151691D01*
X0338735Y0151556D01*
X0338629Y0151424D01*
X0338520Y0151295D01*
X0338408Y0151168D01*
X0338293Y0151044D01*
X0338175Y0150923D01*
X0338054Y0150805D01*
X0337930Y0150690D01*
X0337803Y0150578D01*
X0337674Y0150469D01*
X0337542Y0150363D01*
X0337407Y0150261D01*
X0337270Y0150162D01*
X0337131Y0150066D01*
X0336989Y0149974D01*
X0336845Y0149885D01*
X0336699Y0149800D01*
X0336551Y0149719D01*
X0336401Y0149641D01*
X0336249Y0149567D01*
X0336095Y0149496D01*
X0335940Y0149429D01*
X0335783Y0149367D01*
X0335624Y0149308D01*
X0335464Y0149253D01*
X0335303Y0149202D01*
X0335141Y0149155D01*
X0334977Y0149111D01*
X0334813Y0149072D01*
X0334647Y0149037D01*
X0334481Y0149006D01*
X0334314Y0148980D01*
X0334146Y0148957D01*
X0333978Y0148938D01*
X0333810Y0148924D01*
X0333641Y0148913D01*
X0333472Y0148907D01*
X0333303Y0148905D01*
X0333134Y0148907D01*
X0332965Y0148913D01*
X0332796Y0148924D01*
X0332628Y0148938D01*
X0332460Y0148957D01*
X0332292Y0148980D01*
X0332125Y0149006D01*
X0331959Y0149037D01*
X0331793Y0149072D01*
X0331629Y0149111D01*
X0331465Y0149155D01*
X0331303Y0149202D01*
X0331142Y0149253D01*
X0330982Y0149308D01*
X0330823Y0149367D01*
X0330666Y0149429D01*
X0330511Y0149496D01*
X0330357Y0149567D01*
X0330205Y0149641D01*
X0330055Y0149719D01*
X0329907Y0149800D01*
X0329761Y0149885D01*
X0329617Y0149974D01*
X0329475Y0150066D01*
X0329336Y0150162D01*
X0329199Y0150261D01*
X0329064Y0150363D01*
X0328932Y0150469D01*
X0328803Y0150578D01*
X0328676Y0150690D01*
X0328552Y0150805D01*
X0328431Y0150923D01*
X0328313Y0151044D01*
X0328198Y0151168D01*
X0328086Y0151295D01*
X0327977Y0151424D01*
X0327871Y0151556D01*
X0327769Y0151691D01*
X0327670Y0151828D01*
X0327574Y0151967D01*
X0327482Y0152109D01*
X0327393Y0152253D01*
X0327308Y0152399D01*
X0327227Y0152547D01*
X0327149Y0152697D01*
X0327075Y0152849D01*
X0327004Y0153003D01*
X0326937Y0153158D01*
X0326875Y0153315D01*
X0326816Y0153474D01*
X0326761Y0153634D01*
X0326710Y0153795D01*
X0326663Y0153957D01*
X0326619Y0154121D01*
X0326580Y0154285D01*
X0326545Y0154451D01*
X0326514Y0154617D01*
X0326488Y0154784D01*
X0326465Y0154952D01*
X0326446Y0155120D01*
X0326432Y0155288D01*
X0326421Y0155457D01*
X0326415Y0155626D01*
X0326413Y0155795D01*
X0326610Y0018000D02*
X0326612Y0018164D01*
X0326618Y0018328D01*
X0326628Y0018492D01*
X0326642Y0018656D01*
X0326660Y0018819D01*
X0326682Y0018982D01*
X0326709Y0019144D01*
X0326739Y0019306D01*
X0326773Y0019466D01*
X0326811Y0019626D01*
X0326852Y0019785D01*
X0326898Y0019943D01*
X0326948Y0020099D01*
X0327001Y0020255D01*
X0327058Y0020409D01*
X0327119Y0020561D01*
X0327184Y0020712D01*
X0327253Y0020862D01*
X0327325Y0021009D01*
X0327400Y0021155D01*
X0327480Y0021299D01*
X0327562Y0021441D01*
X0327648Y0021581D01*
X0327738Y0021718D01*
X0327831Y0021854D01*
X0327927Y0021987D01*
X0328027Y0022118D01*
X0328129Y0022246D01*
X0328235Y0022372D01*
X0328344Y0022495D01*
X0328456Y0022615D01*
X0328570Y0022733D01*
X0328688Y0022847D01*
X0328808Y0022959D01*
X0328931Y0023068D01*
X0329057Y0023174D01*
X0329185Y0023276D01*
X0329316Y0023376D01*
X0329449Y0023472D01*
X0329585Y0023565D01*
X0329722Y0023655D01*
X0329862Y0023741D01*
X0330004Y0023823D01*
X0330148Y0023903D01*
X0330294Y0023978D01*
X0330441Y0024050D01*
X0330591Y0024119D01*
X0330742Y0024184D01*
X0330894Y0024245D01*
X0331048Y0024302D01*
X0331204Y0024355D01*
X0331360Y0024405D01*
X0331518Y0024451D01*
X0331677Y0024492D01*
X0331837Y0024530D01*
X0331997Y0024564D01*
X0332159Y0024594D01*
X0332321Y0024621D01*
X0332484Y0024643D01*
X0332647Y0024661D01*
X0332811Y0024675D01*
X0332975Y0024685D01*
X0333139Y0024691D01*
X0333303Y0024693D01*
X0333467Y0024691D01*
X0333631Y0024685D01*
X0333795Y0024675D01*
X0333959Y0024661D01*
X0334122Y0024643D01*
X0334285Y0024621D01*
X0334447Y0024594D01*
X0334609Y0024564D01*
X0334769Y0024530D01*
X0334929Y0024492D01*
X0335088Y0024451D01*
X0335246Y0024405D01*
X0335402Y0024355D01*
X0335558Y0024302D01*
X0335712Y0024245D01*
X0335864Y0024184D01*
X0336015Y0024119D01*
X0336165Y0024050D01*
X0336312Y0023978D01*
X0336458Y0023903D01*
X0336602Y0023823D01*
X0336744Y0023741D01*
X0336884Y0023655D01*
X0337021Y0023565D01*
X0337157Y0023472D01*
X0337290Y0023376D01*
X0337421Y0023276D01*
X0337549Y0023174D01*
X0337675Y0023068D01*
X0337798Y0022959D01*
X0337918Y0022847D01*
X0338036Y0022733D01*
X0338150Y0022615D01*
X0338262Y0022495D01*
X0338371Y0022372D01*
X0338477Y0022246D01*
X0338579Y0022118D01*
X0338679Y0021987D01*
X0338775Y0021854D01*
X0338868Y0021718D01*
X0338958Y0021581D01*
X0339044Y0021441D01*
X0339126Y0021299D01*
X0339206Y0021155D01*
X0339281Y0021009D01*
X0339353Y0020862D01*
X0339422Y0020712D01*
X0339487Y0020561D01*
X0339548Y0020409D01*
X0339605Y0020255D01*
X0339658Y0020099D01*
X0339708Y0019943D01*
X0339754Y0019785D01*
X0339795Y0019626D01*
X0339833Y0019466D01*
X0339867Y0019306D01*
X0339897Y0019144D01*
X0339924Y0018982D01*
X0339946Y0018819D01*
X0339964Y0018656D01*
X0339978Y0018492D01*
X0339988Y0018328D01*
X0339994Y0018164D01*
X0339996Y0018000D01*
X0339994Y0017836D01*
X0339988Y0017672D01*
X0339978Y0017508D01*
X0339964Y0017344D01*
X0339946Y0017181D01*
X0339924Y0017018D01*
X0339897Y0016856D01*
X0339867Y0016694D01*
X0339833Y0016534D01*
X0339795Y0016374D01*
X0339754Y0016215D01*
X0339708Y0016057D01*
X0339658Y0015901D01*
X0339605Y0015745D01*
X0339548Y0015591D01*
X0339487Y0015439D01*
X0339422Y0015288D01*
X0339353Y0015138D01*
X0339281Y0014991D01*
X0339206Y0014845D01*
X0339126Y0014701D01*
X0339044Y0014559D01*
X0338958Y0014419D01*
X0338868Y0014282D01*
X0338775Y0014146D01*
X0338679Y0014013D01*
X0338579Y0013882D01*
X0338477Y0013754D01*
X0338371Y0013628D01*
X0338262Y0013505D01*
X0338150Y0013385D01*
X0338036Y0013267D01*
X0337918Y0013153D01*
X0337798Y0013041D01*
X0337675Y0012932D01*
X0337549Y0012826D01*
X0337421Y0012724D01*
X0337290Y0012624D01*
X0337157Y0012528D01*
X0337021Y0012435D01*
X0336884Y0012345D01*
X0336744Y0012259D01*
X0336602Y0012177D01*
X0336458Y0012097D01*
X0336312Y0012022D01*
X0336165Y0011950D01*
X0336015Y0011881D01*
X0335864Y0011816D01*
X0335712Y0011755D01*
X0335558Y0011698D01*
X0335402Y0011645D01*
X0335246Y0011595D01*
X0335088Y0011549D01*
X0334929Y0011508D01*
X0334769Y0011470D01*
X0334609Y0011436D01*
X0334447Y0011406D01*
X0334285Y0011379D01*
X0334122Y0011357D01*
X0333959Y0011339D01*
X0333795Y0011325D01*
X0333631Y0011315D01*
X0333467Y0011309D01*
X0333303Y0011307D01*
X0333139Y0011309D01*
X0332975Y0011315D01*
X0332811Y0011325D01*
X0332647Y0011339D01*
X0332484Y0011357D01*
X0332321Y0011379D01*
X0332159Y0011406D01*
X0331997Y0011436D01*
X0331837Y0011470D01*
X0331677Y0011508D01*
X0331518Y0011549D01*
X0331360Y0011595D01*
X0331204Y0011645D01*
X0331048Y0011698D01*
X0330894Y0011755D01*
X0330742Y0011816D01*
X0330591Y0011881D01*
X0330441Y0011950D01*
X0330294Y0012022D01*
X0330148Y0012097D01*
X0330004Y0012177D01*
X0329862Y0012259D01*
X0329722Y0012345D01*
X0329585Y0012435D01*
X0329449Y0012528D01*
X0329316Y0012624D01*
X0329185Y0012724D01*
X0329057Y0012826D01*
X0328931Y0012932D01*
X0328808Y0013041D01*
X0328688Y0013153D01*
X0328570Y0013267D01*
X0328456Y0013385D01*
X0328344Y0013505D01*
X0328235Y0013628D01*
X0328129Y0013754D01*
X0328027Y0013882D01*
X0327927Y0014013D01*
X0327831Y0014146D01*
X0327738Y0014282D01*
X0327648Y0014419D01*
X0327562Y0014559D01*
X0327480Y0014701D01*
X0327400Y0014845D01*
X0327325Y0014991D01*
X0327253Y0015138D01*
X0327184Y0015288D01*
X0327119Y0015439D01*
X0327058Y0015591D01*
X0327001Y0015745D01*
X0326948Y0015901D01*
X0326898Y0016057D01*
X0326852Y0016215D01*
X0326811Y0016374D01*
X0326773Y0016534D01*
X0326739Y0016694D01*
X0326709Y0016856D01*
X0326682Y0017018D01*
X0326660Y0017181D01*
X0326642Y0017344D01*
X0326628Y0017508D01*
X0326618Y0017672D01*
X0326612Y0017836D01*
X0326610Y0018000D01*
X0188815Y0018000D02*
X0188817Y0018164D01*
X0188823Y0018328D01*
X0188833Y0018492D01*
X0188847Y0018656D01*
X0188865Y0018819D01*
X0188887Y0018982D01*
X0188914Y0019144D01*
X0188944Y0019306D01*
X0188978Y0019466D01*
X0189016Y0019626D01*
X0189057Y0019785D01*
X0189103Y0019943D01*
X0189153Y0020099D01*
X0189206Y0020255D01*
X0189263Y0020409D01*
X0189324Y0020561D01*
X0189389Y0020712D01*
X0189458Y0020862D01*
X0189530Y0021009D01*
X0189605Y0021155D01*
X0189685Y0021299D01*
X0189767Y0021441D01*
X0189853Y0021581D01*
X0189943Y0021718D01*
X0190036Y0021854D01*
X0190132Y0021987D01*
X0190232Y0022118D01*
X0190334Y0022246D01*
X0190440Y0022372D01*
X0190549Y0022495D01*
X0190661Y0022615D01*
X0190775Y0022733D01*
X0190893Y0022847D01*
X0191013Y0022959D01*
X0191136Y0023068D01*
X0191262Y0023174D01*
X0191390Y0023276D01*
X0191521Y0023376D01*
X0191654Y0023472D01*
X0191790Y0023565D01*
X0191927Y0023655D01*
X0192067Y0023741D01*
X0192209Y0023823D01*
X0192353Y0023903D01*
X0192499Y0023978D01*
X0192646Y0024050D01*
X0192796Y0024119D01*
X0192947Y0024184D01*
X0193099Y0024245D01*
X0193253Y0024302D01*
X0193409Y0024355D01*
X0193565Y0024405D01*
X0193723Y0024451D01*
X0193882Y0024492D01*
X0194042Y0024530D01*
X0194202Y0024564D01*
X0194364Y0024594D01*
X0194526Y0024621D01*
X0194689Y0024643D01*
X0194852Y0024661D01*
X0195016Y0024675D01*
X0195180Y0024685D01*
X0195344Y0024691D01*
X0195508Y0024693D01*
X0195672Y0024691D01*
X0195836Y0024685D01*
X0196000Y0024675D01*
X0196164Y0024661D01*
X0196327Y0024643D01*
X0196490Y0024621D01*
X0196652Y0024594D01*
X0196814Y0024564D01*
X0196974Y0024530D01*
X0197134Y0024492D01*
X0197293Y0024451D01*
X0197451Y0024405D01*
X0197607Y0024355D01*
X0197763Y0024302D01*
X0197917Y0024245D01*
X0198069Y0024184D01*
X0198220Y0024119D01*
X0198370Y0024050D01*
X0198517Y0023978D01*
X0198663Y0023903D01*
X0198807Y0023823D01*
X0198949Y0023741D01*
X0199089Y0023655D01*
X0199226Y0023565D01*
X0199362Y0023472D01*
X0199495Y0023376D01*
X0199626Y0023276D01*
X0199754Y0023174D01*
X0199880Y0023068D01*
X0200003Y0022959D01*
X0200123Y0022847D01*
X0200241Y0022733D01*
X0200355Y0022615D01*
X0200467Y0022495D01*
X0200576Y0022372D01*
X0200682Y0022246D01*
X0200784Y0022118D01*
X0200884Y0021987D01*
X0200980Y0021854D01*
X0201073Y0021718D01*
X0201163Y0021581D01*
X0201249Y0021441D01*
X0201331Y0021299D01*
X0201411Y0021155D01*
X0201486Y0021009D01*
X0201558Y0020862D01*
X0201627Y0020712D01*
X0201692Y0020561D01*
X0201753Y0020409D01*
X0201810Y0020255D01*
X0201863Y0020099D01*
X0201913Y0019943D01*
X0201959Y0019785D01*
X0202000Y0019626D01*
X0202038Y0019466D01*
X0202072Y0019306D01*
X0202102Y0019144D01*
X0202129Y0018982D01*
X0202151Y0018819D01*
X0202169Y0018656D01*
X0202183Y0018492D01*
X0202193Y0018328D01*
X0202199Y0018164D01*
X0202201Y0018000D01*
X0202199Y0017836D01*
X0202193Y0017672D01*
X0202183Y0017508D01*
X0202169Y0017344D01*
X0202151Y0017181D01*
X0202129Y0017018D01*
X0202102Y0016856D01*
X0202072Y0016694D01*
X0202038Y0016534D01*
X0202000Y0016374D01*
X0201959Y0016215D01*
X0201913Y0016057D01*
X0201863Y0015901D01*
X0201810Y0015745D01*
X0201753Y0015591D01*
X0201692Y0015439D01*
X0201627Y0015288D01*
X0201558Y0015138D01*
X0201486Y0014991D01*
X0201411Y0014845D01*
X0201331Y0014701D01*
X0201249Y0014559D01*
X0201163Y0014419D01*
X0201073Y0014282D01*
X0200980Y0014146D01*
X0200884Y0014013D01*
X0200784Y0013882D01*
X0200682Y0013754D01*
X0200576Y0013628D01*
X0200467Y0013505D01*
X0200355Y0013385D01*
X0200241Y0013267D01*
X0200123Y0013153D01*
X0200003Y0013041D01*
X0199880Y0012932D01*
X0199754Y0012826D01*
X0199626Y0012724D01*
X0199495Y0012624D01*
X0199362Y0012528D01*
X0199226Y0012435D01*
X0199089Y0012345D01*
X0198949Y0012259D01*
X0198807Y0012177D01*
X0198663Y0012097D01*
X0198517Y0012022D01*
X0198370Y0011950D01*
X0198220Y0011881D01*
X0198069Y0011816D01*
X0197917Y0011755D01*
X0197763Y0011698D01*
X0197607Y0011645D01*
X0197451Y0011595D01*
X0197293Y0011549D01*
X0197134Y0011508D01*
X0196974Y0011470D01*
X0196814Y0011436D01*
X0196652Y0011406D01*
X0196490Y0011379D01*
X0196327Y0011357D01*
X0196164Y0011339D01*
X0196000Y0011325D01*
X0195836Y0011315D01*
X0195672Y0011309D01*
X0195508Y0011307D01*
X0195344Y0011309D01*
X0195180Y0011315D01*
X0195016Y0011325D01*
X0194852Y0011339D01*
X0194689Y0011357D01*
X0194526Y0011379D01*
X0194364Y0011406D01*
X0194202Y0011436D01*
X0194042Y0011470D01*
X0193882Y0011508D01*
X0193723Y0011549D01*
X0193565Y0011595D01*
X0193409Y0011645D01*
X0193253Y0011698D01*
X0193099Y0011755D01*
X0192947Y0011816D01*
X0192796Y0011881D01*
X0192646Y0011950D01*
X0192499Y0012022D01*
X0192353Y0012097D01*
X0192209Y0012177D01*
X0192067Y0012259D01*
X0191927Y0012345D01*
X0191790Y0012435D01*
X0191654Y0012528D01*
X0191521Y0012624D01*
X0191390Y0012724D01*
X0191262Y0012826D01*
X0191136Y0012932D01*
X0191013Y0013041D01*
X0190893Y0013153D01*
X0190775Y0013267D01*
X0190661Y0013385D01*
X0190549Y0013505D01*
X0190440Y0013628D01*
X0190334Y0013754D01*
X0190232Y0013882D01*
X0190132Y0014013D01*
X0190036Y0014146D01*
X0189943Y0014282D01*
X0189853Y0014419D01*
X0189767Y0014559D01*
X0189685Y0014701D01*
X0189605Y0014845D01*
X0189530Y0014991D01*
X0189458Y0015138D01*
X0189389Y0015288D01*
X0189324Y0015439D01*
X0189263Y0015591D01*
X0189206Y0015745D01*
X0189153Y0015901D01*
X0189103Y0016057D01*
X0189057Y0016215D01*
X0189016Y0016374D01*
X0188978Y0016534D01*
X0188944Y0016694D01*
X0188914Y0016856D01*
X0188887Y0017018D01*
X0188865Y0017181D01*
X0188847Y0017344D01*
X0188833Y0017508D01*
X0188823Y0017672D01*
X0188817Y0017836D01*
X0188815Y0018000D01*
X0149445Y0018000D02*
X0149447Y0018164D01*
X0149453Y0018328D01*
X0149463Y0018492D01*
X0149477Y0018656D01*
X0149495Y0018819D01*
X0149517Y0018982D01*
X0149544Y0019144D01*
X0149574Y0019306D01*
X0149608Y0019466D01*
X0149646Y0019626D01*
X0149687Y0019785D01*
X0149733Y0019943D01*
X0149783Y0020099D01*
X0149836Y0020255D01*
X0149893Y0020409D01*
X0149954Y0020561D01*
X0150019Y0020712D01*
X0150088Y0020862D01*
X0150160Y0021009D01*
X0150235Y0021155D01*
X0150315Y0021299D01*
X0150397Y0021441D01*
X0150483Y0021581D01*
X0150573Y0021718D01*
X0150666Y0021854D01*
X0150762Y0021987D01*
X0150862Y0022118D01*
X0150964Y0022246D01*
X0151070Y0022372D01*
X0151179Y0022495D01*
X0151291Y0022615D01*
X0151405Y0022733D01*
X0151523Y0022847D01*
X0151643Y0022959D01*
X0151766Y0023068D01*
X0151892Y0023174D01*
X0152020Y0023276D01*
X0152151Y0023376D01*
X0152284Y0023472D01*
X0152420Y0023565D01*
X0152557Y0023655D01*
X0152697Y0023741D01*
X0152839Y0023823D01*
X0152983Y0023903D01*
X0153129Y0023978D01*
X0153276Y0024050D01*
X0153426Y0024119D01*
X0153577Y0024184D01*
X0153729Y0024245D01*
X0153883Y0024302D01*
X0154039Y0024355D01*
X0154195Y0024405D01*
X0154353Y0024451D01*
X0154512Y0024492D01*
X0154672Y0024530D01*
X0154832Y0024564D01*
X0154994Y0024594D01*
X0155156Y0024621D01*
X0155319Y0024643D01*
X0155482Y0024661D01*
X0155646Y0024675D01*
X0155810Y0024685D01*
X0155974Y0024691D01*
X0156138Y0024693D01*
X0156302Y0024691D01*
X0156466Y0024685D01*
X0156630Y0024675D01*
X0156794Y0024661D01*
X0156957Y0024643D01*
X0157120Y0024621D01*
X0157282Y0024594D01*
X0157444Y0024564D01*
X0157604Y0024530D01*
X0157764Y0024492D01*
X0157923Y0024451D01*
X0158081Y0024405D01*
X0158237Y0024355D01*
X0158393Y0024302D01*
X0158547Y0024245D01*
X0158699Y0024184D01*
X0158850Y0024119D01*
X0159000Y0024050D01*
X0159147Y0023978D01*
X0159293Y0023903D01*
X0159437Y0023823D01*
X0159579Y0023741D01*
X0159719Y0023655D01*
X0159856Y0023565D01*
X0159992Y0023472D01*
X0160125Y0023376D01*
X0160256Y0023276D01*
X0160384Y0023174D01*
X0160510Y0023068D01*
X0160633Y0022959D01*
X0160753Y0022847D01*
X0160871Y0022733D01*
X0160985Y0022615D01*
X0161097Y0022495D01*
X0161206Y0022372D01*
X0161312Y0022246D01*
X0161414Y0022118D01*
X0161514Y0021987D01*
X0161610Y0021854D01*
X0161703Y0021718D01*
X0161793Y0021581D01*
X0161879Y0021441D01*
X0161961Y0021299D01*
X0162041Y0021155D01*
X0162116Y0021009D01*
X0162188Y0020862D01*
X0162257Y0020712D01*
X0162322Y0020561D01*
X0162383Y0020409D01*
X0162440Y0020255D01*
X0162493Y0020099D01*
X0162543Y0019943D01*
X0162589Y0019785D01*
X0162630Y0019626D01*
X0162668Y0019466D01*
X0162702Y0019306D01*
X0162732Y0019144D01*
X0162759Y0018982D01*
X0162781Y0018819D01*
X0162799Y0018656D01*
X0162813Y0018492D01*
X0162823Y0018328D01*
X0162829Y0018164D01*
X0162831Y0018000D01*
X0162829Y0017836D01*
X0162823Y0017672D01*
X0162813Y0017508D01*
X0162799Y0017344D01*
X0162781Y0017181D01*
X0162759Y0017018D01*
X0162732Y0016856D01*
X0162702Y0016694D01*
X0162668Y0016534D01*
X0162630Y0016374D01*
X0162589Y0016215D01*
X0162543Y0016057D01*
X0162493Y0015901D01*
X0162440Y0015745D01*
X0162383Y0015591D01*
X0162322Y0015439D01*
X0162257Y0015288D01*
X0162188Y0015138D01*
X0162116Y0014991D01*
X0162041Y0014845D01*
X0161961Y0014701D01*
X0161879Y0014559D01*
X0161793Y0014419D01*
X0161703Y0014282D01*
X0161610Y0014146D01*
X0161514Y0014013D01*
X0161414Y0013882D01*
X0161312Y0013754D01*
X0161206Y0013628D01*
X0161097Y0013505D01*
X0160985Y0013385D01*
X0160871Y0013267D01*
X0160753Y0013153D01*
X0160633Y0013041D01*
X0160510Y0012932D01*
X0160384Y0012826D01*
X0160256Y0012724D01*
X0160125Y0012624D01*
X0159992Y0012528D01*
X0159856Y0012435D01*
X0159719Y0012345D01*
X0159579Y0012259D01*
X0159437Y0012177D01*
X0159293Y0012097D01*
X0159147Y0012022D01*
X0159000Y0011950D01*
X0158850Y0011881D01*
X0158699Y0011816D01*
X0158547Y0011755D01*
X0158393Y0011698D01*
X0158237Y0011645D01*
X0158081Y0011595D01*
X0157923Y0011549D01*
X0157764Y0011508D01*
X0157604Y0011470D01*
X0157444Y0011436D01*
X0157282Y0011406D01*
X0157120Y0011379D01*
X0156957Y0011357D01*
X0156794Y0011339D01*
X0156630Y0011325D01*
X0156466Y0011315D01*
X0156302Y0011309D01*
X0156138Y0011307D01*
X0155974Y0011309D01*
X0155810Y0011315D01*
X0155646Y0011325D01*
X0155482Y0011339D01*
X0155319Y0011357D01*
X0155156Y0011379D01*
X0154994Y0011406D01*
X0154832Y0011436D01*
X0154672Y0011470D01*
X0154512Y0011508D01*
X0154353Y0011549D01*
X0154195Y0011595D01*
X0154039Y0011645D01*
X0153883Y0011698D01*
X0153729Y0011755D01*
X0153577Y0011816D01*
X0153426Y0011881D01*
X0153276Y0011950D01*
X0153129Y0012022D01*
X0152983Y0012097D01*
X0152839Y0012177D01*
X0152697Y0012259D01*
X0152557Y0012345D01*
X0152420Y0012435D01*
X0152284Y0012528D01*
X0152151Y0012624D01*
X0152020Y0012724D01*
X0151892Y0012826D01*
X0151766Y0012932D01*
X0151643Y0013041D01*
X0151523Y0013153D01*
X0151405Y0013267D01*
X0151291Y0013385D01*
X0151179Y0013505D01*
X0151070Y0013628D01*
X0150964Y0013754D01*
X0150862Y0013882D01*
X0150762Y0014013D01*
X0150666Y0014146D01*
X0150573Y0014282D01*
X0150483Y0014419D01*
X0150397Y0014559D01*
X0150315Y0014701D01*
X0150235Y0014845D01*
X0150160Y0014991D01*
X0150088Y0015138D01*
X0150019Y0015288D01*
X0149954Y0015439D01*
X0149893Y0015591D01*
X0149836Y0015745D01*
X0149783Y0015901D01*
X0149733Y0016057D01*
X0149687Y0016215D01*
X0149646Y0016374D01*
X0149608Y0016534D01*
X0149574Y0016694D01*
X0149544Y0016856D01*
X0149517Y0017018D01*
X0149495Y0017181D01*
X0149477Y0017344D01*
X0149463Y0017508D01*
X0149453Y0017672D01*
X0149447Y0017836D01*
X0149445Y0018000D01*
D14*
X0156295Y0036898D02*
X0156295Y0046898D01*
X0326295Y0046898D01*
X0326295Y0036898D01*
X0156295Y0036898D01*
X0116000Y0054157D02*
X0251000Y0054157D01*
X0251000Y0094157D01*
X0116000Y0094157D01*
X0116000Y0054157D01*
X0104814Y0062407D02*
X0104814Y0066911D01*
X0102562Y0064659D01*
X0105564Y0064659D01*
X0100960Y0063158D02*
X0100960Y0066161D01*
X0100210Y0066911D01*
X0097958Y0066911D01*
X0097958Y0062407D01*
X0100210Y0062407D01*
X0100960Y0063158D01*
X0096356Y0062407D02*
X0096356Y0065410D01*
X0094855Y0066911D01*
X0093354Y0065410D01*
X0093354Y0062407D01*
X0093354Y0064659D02*
X0096356Y0064659D01*
X0091753Y0064659D02*
X0091753Y0066161D01*
X0091002Y0066911D01*
X0088750Y0066911D01*
X0088750Y0062407D01*
X0088750Y0063909D02*
X0091002Y0063909D01*
X0091753Y0064659D01*
X0093354Y0072407D02*
X0093354Y0075410D01*
X0094855Y0076911D01*
X0096356Y0075410D01*
X0096356Y0072407D01*
X0097958Y0072407D02*
X0100210Y0072407D01*
X0100960Y0073158D01*
X0100960Y0076161D01*
X0100210Y0076911D01*
X0097958Y0076911D01*
X0097958Y0072407D01*
X0096356Y0074659D02*
X0093354Y0074659D01*
X0091753Y0074659D02*
X0091002Y0073909D01*
X0088750Y0073909D01*
X0088750Y0072407D02*
X0088750Y0076911D01*
X0091002Y0076911D01*
X0091753Y0076161D01*
X0091753Y0074659D01*
X0102562Y0073158D02*
X0103312Y0072407D01*
X0104814Y0072407D01*
X0105564Y0073158D01*
X0105564Y0073909D01*
X0104814Y0074659D01*
X0104063Y0074659D01*
X0104814Y0074659D02*
X0105564Y0075410D01*
X0105564Y0076161D01*
X0104814Y0076911D01*
X0103312Y0076911D01*
X0102562Y0076161D01*
X0102562Y0082407D02*
X0105564Y0082407D01*
X0104063Y0082407D02*
X0104063Y0086911D01*
X0102562Y0085410D01*
X0100960Y0086161D02*
X0100960Y0083158D01*
X0100210Y0082407D01*
X0097958Y0082407D01*
X0097958Y0086911D01*
X0100210Y0086911D01*
X0100960Y0086161D01*
X0096356Y0085410D02*
X0094855Y0086911D01*
X0093354Y0085410D01*
X0093354Y0082407D01*
X0093354Y0084659D02*
X0096356Y0084659D01*
X0096356Y0085410D02*
X0096356Y0082407D01*
X0091753Y0084659D02*
X0091002Y0083909D01*
X0088750Y0083909D01*
X0088750Y0082407D02*
X0088750Y0086911D01*
X0091002Y0086911D01*
X0091753Y0086161D01*
X0091753Y0084659D01*
X0093354Y0092407D02*
X0093354Y0095410D01*
X0094855Y0096911D01*
X0096356Y0095410D01*
X0096356Y0092407D01*
X0097958Y0092407D02*
X0100210Y0092407D01*
X0100960Y0093158D01*
X0100960Y0096161D01*
X0100210Y0096911D01*
X0097958Y0096911D01*
X0097958Y0092407D01*
X0096356Y0094659D02*
X0093354Y0094659D01*
X0091753Y0094659D02*
X0091002Y0093909D01*
X0088750Y0093909D01*
X0088750Y0092407D02*
X0088750Y0096911D01*
X0091002Y0096911D01*
X0091753Y0096161D01*
X0091753Y0094659D01*
X0102562Y0096161D02*
X0103312Y0096911D01*
X0104814Y0096911D01*
X0105564Y0096161D01*
X0105564Y0095410D01*
X0102562Y0092407D01*
X0105564Y0092407D01*
X0061498Y0074931D02*
X0061498Y0074047D01*
X0061498Y0074489D02*
X0058846Y0074489D01*
X0058846Y0074047D01*
X0060172Y0072915D02*
X0061498Y0072915D01*
X0061498Y0071589D01*
X0061056Y0071147D01*
X0060614Y0071589D01*
X0060614Y0072915D01*
X0060172Y0072915D02*
X0059730Y0072473D01*
X0059730Y0071589D01*
X0059730Y0070098D02*
X0059730Y0069214D01*
X0059288Y0069656D02*
X0061056Y0069656D01*
X0061498Y0070098D01*
X0061056Y0068081D02*
X0060614Y0067639D01*
X0060614Y0066755D01*
X0060172Y0066313D01*
X0059730Y0066755D01*
X0059730Y0068081D01*
X0061056Y0068081D02*
X0061498Y0067639D01*
X0061498Y0066313D01*
X0061498Y0065181D02*
X0061498Y0063855D01*
X0061056Y0063413D01*
X0059730Y0063413D01*
X0059730Y0062323D02*
X0059730Y0061881D01*
X0060614Y0060997D01*
X0061498Y0060997D02*
X0059730Y0060997D01*
X0059288Y0059864D02*
X0058846Y0059422D01*
X0058846Y0058538D01*
X0059288Y0058096D01*
X0061056Y0058096D01*
X0061498Y0058538D01*
X0061498Y0059422D01*
X0061056Y0059864D01*
X0062382Y0064297D02*
X0062382Y0064739D01*
X0061940Y0065181D01*
X0059730Y0065181D01*
X0045227Y0057944D02*
X0044785Y0058386D01*
X0043901Y0058386D01*
X0043459Y0057944D01*
X0043459Y0056176D01*
X0043901Y0055734D01*
X0044785Y0055734D01*
X0045227Y0056176D01*
X0042410Y0055734D02*
X0041526Y0055734D01*
X0041968Y0055734D02*
X0041968Y0058386D01*
X0041526Y0058386D02*
X0042410Y0058386D01*
X0098965Y0117157D02*
X0098965Y0125031D01*
X0101248Y0127157D01*
X0098965Y0129283D01*
X0098965Y0135031D01*
X0101248Y0137157D01*
X0098965Y0139283D01*
X0098965Y0145031D01*
X0101248Y0147157D01*
X0098965Y0149283D01*
X0098965Y0157157D01*
X0108965Y0157157D01*
X0108965Y0149283D01*
X0106760Y0147157D01*
X0108965Y0145031D01*
X0108965Y0139283D01*
X0106760Y0137157D01*
X0108965Y0135031D01*
X0108965Y0129283D01*
X0106760Y0127157D01*
X0108965Y0125031D01*
X0108965Y0117157D01*
X0098965Y0117157D01*
X0156295Y0126898D02*
X0156295Y0136898D01*
X0326295Y0136898D01*
X0326295Y0126898D01*
X0156295Y0126898D01*
X0220500Y0143157D02*
X0260500Y0143157D01*
X0260500Y0163157D01*
X0220500Y0163157D01*
X0220500Y0143157D01*
X0261500Y0129157D02*
X0261500Y0044157D01*
X0341500Y0044157D01*
X0341500Y0129157D01*
X0261500Y0129157D01*
X0273750Y0149407D02*
X0276002Y0149407D01*
X0276753Y0150158D01*
X0276753Y0153161D01*
X0276002Y0153911D01*
X0273750Y0153911D01*
X0273750Y0149407D01*
X0278354Y0149407D02*
X0278354Y0153911D01*
X0280606Y0153911D01*
X0281356Y0153161D01*
X0281356Y0151659D01*
X0280606Y0150909D01*
X0278354Y0150909D01*
X0282958Y0150158D02*
X0285960Y0153161D01*
X0285960Y0150158D01*
X0285210Y0149407D01*
X0283708Y0149407D01*
X0282958Y0150158D01*
X0282958Y0153161D01*
X0283708Y0153911D01*
X0285210Y0153911D01*
X0285960Y0153161D01*
X0286002Y0153911D02*
X0286753Y0153161D01*
X0286753Y0150158D01*
X0286002Y0149407D01*
X0283750Y0149407D01*
X0283750Y0153911D01*
X0286002Y0153911D01*
X0288354Y0153911D02*
X0290606Y0153911D01*
X0291356Y0153161D01*
X0291356Y0151659D01*
X0290606Y0150909D01*
X0288354Y0150909D01*
X0288354Y0149407D02*
X0288354Y0153911D01*
X0292958Y0152410D02*
X0294459Y0153911D01*
X0294459Y0149407D01*
X0293750Y0149407D02*
X0296002Y0149407D01*
X0296753Y0150158D01*
X0296753Y0153161D01*
X0296002Y0153911D01*
X0293750Y0153911D01*
X0293750Y0149407D01*
X0292958Y0149407D02*
X0295960Y0149407D01*
X0298354Y0149407D02*
X0298354Y0153911D01*
X0300606Y0153911D01*
X0301356Y0153161D01*
X0301356Y0151659D01*
X0300606Y0150909D01*
X0298354Y0150909D01*
X0302958Y0149407D02*
X0305960Y0152410D01*
X0305960Y0153161D01*
X0305210Y0153911D01*
X0303708Y0153911D01*
X0302958Y0153161D01*
X0302958Y0149407D02*
X0305960Y0149407D01*
X0305210Y0164407D02*
X0305960Y0165158D01*
X0305210Y0164407D02*
X0303708Y0164407D01*
X0302958Y0165158D01*
X0302958Y0168161D01*
X0303708Y0168911D01*
X0305210Y0168911D01*
X0305960Y0168161D01*
X0307562Y0168161D02*
X0308312Y0168911D01*
X0309814Y0168911D01*
X0310564Y0168161D01*
X0310564Y0167410D01*
X0309814Y0166659D01*
X0310564Y0165909D01*
X0310564Y0165158D01*
X0309814Y0164407D01*
X0308312Y0164407D01*
X0307562Y0165158D01*
X0309063Y0166659D02*
X0309814Y0166659D01*
X0301356Y0165158D02*
X0301356Y0168161D01*
X0300606Y0168911D01*
X0298354Y0168911D01*
X0298354Y0164407D01*
X0300606Y0164407D01*
X0301356Y0165158D01*
X0300564Y0164407D02*
X0297562Y0164407D01*
X0300564Y0167410D01*
X0300564Y0168161D01*
X0299814Y0168911D01*
X0298312Y0168911D01*
X0297562Y0168161D01*
X0296753Y0167410D02*
X0295251Y0168911D01*
X0293750Y0167410D01*
X0293750Y0164407D01*
X0293708Y0164407D02*
X0295210Y0164407D01*
X0295960Y0165158D01*
X0296753Y0164407D02*
X0296753Y0167410D01*
X0296753Y0166659D02*
X0293750Y0166659D01*
X0292958Y0165158D02*
X0293708Y0164407D01*
X0292958Y0165158D02*
X0292958Y0168161D01*
X0293708Y0168911D01*
X0295210Y0168911D01*
X0295960Y0168161D01*
X0291356Y0168161D02*
X0291356Y0165158D01*
X0290606Y0164407D01*
X0288354Y0164407D01*
X0288354Y0168911D01*
X0290606Y0168911D01*
X0291356Y0168161D01*
X0289063Y0168911D02*
X0289063Y0164407D01*
X0287562Y0164407D02*
X0290564Y0164407D01*
X0286753Y0164407D02*
X0286753Y0167410D01*
X0285251Y0168911D01*
X0283750Y0167410D01*
X0283750Y0164407D01*
X0283708Y0164407D02*
X0285210Y0164407D01*
X0285960Y0165158D01*
X0286753Y0166659D02*
X0283750Y0166659D01*
X0282958Y0165158D02*
X0283708Y0164407D01*
X0282958Y0165158D02*
X0282958Y0168161D01*
X0283708Y0168911D01*
X0285210Y0168911D01*
X0285960Y0168161D01*
X0287562Y0167410D02*
X0289063Y0168911D01*
X0281356Y0168161D02*
X0281356Y0165158D01*
X0280606Y0164407D01*
X0278354Y0164407D01*
X0278354Y0168911D01*
X0280606Y0168911D01*
X0281356Y0168161D01*
X0276753Y0167410D02*
X0276753Y0164407D01*
X0276753Y0166659D02*
X0273750Y0166659D01*
X0273750Y0167410D02*
X0275251Y0168911D01*
X0276753Y0167410D01*
X0273750Y0167410D02*
X0273750Y0164407D01*
X0271500Y0109157D02*
X0271500Y0084610D01*
X0271500Y0078705D02*
X0271500Y0054157D01*
X0287563Y0054157D01*
X0293469Y0054157D02*
X0309531Y0054157D01*
X0315437Y0054157D02*
X0331500Y0054157D01*
X0327599Y0041878D02*
X0327601Y0041972D01*
X0327607Y0042066D01*
X0327617Y0042160D01*
X0327631Y0042253D01*
X0327649Y0042346D01*
X0327670Y0042438D01*
X0327696Y0042528D01*
X0327725Y0042618D01*
X0327758Y0042706D01*
X0327795Y0042793D01*
X0327835Y0042878D01*
X0327879Y0042962D01*
X0327927Y0043043D01*
X0327977Y0043123D01*
X0328032Y0043200D01*
X0328089Y0043275D01*
X0328149Y0043347D01*
X0328213Y0043417D01*
X0328279Y0043484D01*
X0328348Y0043548D01*
X0328420Y0043609D01*
X0328494Y0043667D01*
X0328571Y0043722D01*
X0328650Y0043774D01*
X0328731Y0043822D01*
X0328814Y0043867D01*
X0328898Y0043908D01*
X0328985Y0043946D01*
X0329073Y0043980D01*
X0329162Y0044010D01*
X0329252Y0044037D01*
X0329344Y0044059D01*
X0329436Y0044078D01*
X0329530Y0044093D01*
X0329623Y0044104D01*
X0329717Y0044111D01*
X0329811Y0044114D01*
X0329906Y0044113D01*
X0330000Y0044108D01*
X0330094Y0044099D01*
X0330187Y0044086D01*
X0330280Y0044069D01*
X0330372Y0044049D01*
X0330463Y0044024D01*
X0330553Y0043996D01*
X0330641Y0043964D01*
X0330729Y0043928D01*
X0330814Y0043888D01*
X0330898Y0043845D01*
X0330980Y0043799D01*
X0331060Y0043749D01*
X0331138Y0043695D01*
X0331213Y0043639D01*
X0331286Y0043579D01*
X0331357Y0043516D01*
X0331424Y0043451D01*
X0331489Y0043382D01*
X0331551Y0043311D01*
X0331610Y0043238D01*
X0331666Y0043162D01*
X0331718Y0043083D01*
X0331767Y0043003D01*
X0331813Y0042920D01*
X0331855Y0042836D01*
X0331894Y0042750D01*
X0331929Y0042662D01*
X0331960Y0042573D01*
X0331988Y0042483D01*
X0332011Y0042392D01*
X0332031Y0042300D01*
X0332047Y0042207D01*
X0332059Y0042113D01*
X0332067Y0042019D01*
X0332071Y0041925D01*
X0332071Y0041831D01*
X0332067Y0041737D01*
X0332059Y0041643D01*
X0332047Y0041549D01*
X0332031Y0041456D01*
X0332011Y0041364D01*
X0331988Y0041273D01*
X0331960Y0041183D01*
X0331929Y0041094D01*
X0331894Y0041006D01*
X0331855Y0040920D01*
X0331813Y0040836D01*
X0331767Y0040753D01*
X0331718Y0040673D01*
X0331666Y0040594D01*
X0331610Y0040518D01*
X0331551Y0040445D01*
X0331489Y0040374D01*
X0331424Y0040305D01*
X0331357Y0040240D01*
X0331286Y0040177D01*
X0331213Y0040117D01*
X0331138Y0040061D01*
X0331060Y0040007D01*
X0330980Y0039957D01*
X0330898Y0039911D01*
X0330814Y0039868D01*
X0330729Y0039828D01*
X0330641Y0039792D01*
X0330553Y0039760D01*
X0330463Y0039732D01*
X0330372Y0039707D01*
X0330280Y0039687D01*
X0330187Y0039670D01*
X0330094Y0039657D01*
X0330000Y0039648D01*
X0329906Y0039643D01*
X0329811Y0039642D01*
X0329717Y0039645D01*
X0329623Y0039652D01*
X0329530Y0039663D01*
X0329436Y0039678D01*
X0329344Y0039697D01*
X0329252Y0039719D01*
X0329162Y0039746D01*
X0329073Y0039776D01*
X0328985Y0039810D01*
X0328898Y0039848D01*
X0328814Y0039889D01*
X0328731Y0039934D01*
X0328650Y0039982D01*
X0328571Y0040034D01*
X0328494Y0040089D01*
X0328420Y0040147D01*
X0328348Y0040208D01*
X0328279Y0040272D01*
X0328213Y0040339D01*
X0328149Y0040409D01*
X0328089Y0040481D01*
X0328032Y0040556D01*
X0327977Y0040633D01*
X0327927Y0040713D01*
X0327879Y0040794D01*
X0327835Y0040878D01*
X0327795Y0040963D01*
X0327758Y0041050D01*
X0327725Y0041138D01*
X0327696Y0041228D01*
X0327670Y0041318D01*
X0327649Y0041410D01*
X0327631Y0041503D01*
X0327617Y0041596D01*
X0327607Y0041690D01*
X0327601Y0041784D01*
X0327599Y0041878D01*
X0331500Y0109157D02*
X0315437Y0109157D01*
X0309531Y0109157D02*
X0293469Y0109157D01*
X0287563Y0109157D02*
X0271500Y0109157D01*
D15*
X0255000Y0023757D03*
D16*
X0251250Y0023757D03*
X0271750Y0023757D03*
D17*
X0026375Y0046085D02*
X0025374Y0046085D01*
X0026375Y0047086D01*
X0026375Y0047336D01*
X0026125Y0047587D01*
X0025625Y0047587D01*
X0025374Y0047336D01*
X0024902Y0047336D02*
X0024652Y0047587D01*
X0024151Y0047587D01*
X0023901Y0047336D01*
X0023901Y0047086D01*
X0024151Y0046836D01*
X0024652Y0046836D01*
X0024902Y0046586D01*
X0024902Y0046336D01*
X0024652Y0046085D01*
X0024151Y0046085D01*
X0023901Y0046336D01*
X0023429Y0046336D02*
X0023429Y0047587D01*
X0022428Y0047587D02*
X0022428Y0046336D01*
X0022678Y0046085D01*
X0023179Y0046085D01*
X0023429Y0046336D01*
X0024402Y0045835D02*
X0024402Y0047837D01*
D18*
X0043196Y0124150D02*
X0047800Y0127219D01*
X0047800Y0128754D02*
X0047800Y0131823D01*
X0047800Y0130288D02*
X0043196Y0130288D01*
X0044731Y0128754D01*
X0043196Y0127219D02*
X0047800Y0124150D01*
M02*
