%
M48
M72
T01C0.02362
T02C0.03150
T03C0.03200
T04C0.03543
T05C0.03600
T06C0.04000
T07C0.05000
T08C0.07000
T09C0.12992
%
T01
X98500Y45157
X98500Y55157
X96500Y63157
X114500Y66157
X128500Y68157
X128500Y60157
X142500Y57157
X142500Y50157
X151500Y49157
X142500Y41157
X131500Y44157
X121500Y40157
X106500Y32157
X121500Y48157
X114500Y56157
X146500Y66157
X150500Y70157
X156500Y76157
X165500Y73157
X176500Y67157
X184500Y64157
X181500Y60157
X191500Y64157
X202500Y74157
X191500Y79157
X191500Y88157
X201500Y92157
X217500Y99157
X211500Y107157
X227500Y107157
X217500Y123157
X206500Y122157
X196500Y125157
X191500Y116157
X146500Y127157
X141500Y127157
X135500Y127157
X131500Y132157
X123500Y140157
X114500Y137157
X110500Y142157
X121500Y148157
X127500Y152157
X141500Y142157
X171500Y144157
X179500Y144157
X210500Y143157
X219500Y142157
X276500Y107157
X301500Y105157
X303500Y99157
X320500Y110157
X327500Y98157
X309500Y87157
X329500Y86157
X334500Y82157
X322500Y73157
X304500Y69157
X291500Y74157
X286500Y69157
X281500Y57157
X275500Y56157
X253500Y55157
X248500Y64157
X244500Y68157
X233500Y70157
X238500Y77157
X255500Y84157
X259500Y78157
X269500Y88157
X275500Y86157
X291500Y86157
X261500Y68157
X236500Y54157
X236500Y49157
X219500Y31157
X261500Y17157
X272500Y33157
X317500Y51157
X146000Y32657
X66500Y61157
X66500Y78157
X62500Y90157
X57500Y99157
X29500Y95157
X30500Y78157
X97500Y81157
X111500Y84157
X132500Y82157
X100500Y97157
X107500Y105157
X107500Y111157
X97500Y106157
X118500Y121157
X110500Y122157
X136500Y117157
X132500Y109157
T02
X121000Y89157
X121000Y79157
X121000Y69157
X121000Y59157
T03
X212500Y29857
X242500Y29857
X246500Y23757
X276500Y23757
T04
X281295Y41898
X291295Y41898
X301295Y41898
X311295Y41898
X321295Y41898
X271295Y41898
X261295Y41898
X251295Y41898
X241295Y41898
X231295Y41898
X221295Y41898
X211295Y41898
X201295Y41898
X191295Y41898
X181295Y41898
X171295Y41898
X161295Y41898
X106465Y59157
X106465Y69157
X106465Y79157
X106465Y89157
X103965Y122157
X103965Y132157
X103965Y142157
X103965Y152157
X161295Y131898
X171295Y131898
X181295Y131898
X191295Y131898
X201295Y131898
X211295Y131898
X221295Y131898
X231295Y131898
X241295Y131898
X251295Y131898
X261295Y131898
X271295Y131898
X281295Y131898
X291295Y131898
X301295Y131898
X311295Y131898
X321295Y131898
T05
X321500Y119157
X311500Y119157
X301500Y119157
X291500Y119157
X281500Y119157
X271500Y119157
X276500Y145157
X286500Y145157
X296500Y145157
X296500Y160157
X286500Y160157
X276500Y160157
X250500Y153157
X240500Y153157
X230500Y153157
X331500Y119157
X91500Y88157
X91500Y78157
X91500Y68157
X91500Y58157
T06
X217752Y15157
X225626Y15157
X233500Y15157
X241374Y15157
X249248Y15157
X288500Y18157
X298500Y18157
X308500Y18157
X308500Y28157
X298500Y28157
X288500Y28157
T07
X25500Y123157
T08
X15461Y113119
X35539Y113119
X35539Y133196
X15461Y133196
T09
X18343Y18000
X156138Y18000
X195508Y18000
X333303Y18000
X333303Y155795
X195508Y155795
X156138Y155795
X18343Y155795
M30
