G75*
%MOIN*%
%OFA0B0*%
%FSLAX25Y25*%
%IPPOS*%
%LPD*%
%AMOC8*
5,1,8,0,0,1.08239X$1,22.5*
%
%ADD10OC8,0.06000*%
%ADD11C,0.23000*%
%ADD12R,0.23000X0.23000*%
%ADD13C,0.05543*%
%ADD14R,0.05543X0.05543*%
%ADD15R,0.06000X0.06000*%
%ADD16C,0.06000*%
%ADD17C,0.05200*%
%ADD18OC8,0.05200*%
%ADD19C,0.07500*%
%ADD20C,0.10500*%
%ADD21R,0.05150X0.05150*%
%ADD22OC8,0.06300*%
%ADD23R,0.06102X0.02362*%
%ADD24R,0.07087X0.04724*%
%ADD25R,0.04331X0.03937*%
%ADD26C,0.01600*%
%ADD27C,0.03962*%
D10*
X0288500Y0018157D03*
X0298500Y0018157D03*
X0308500Y0018157D03*
X0308500Y0028157D03*
X0298500Y0028157D03*
X0288500Y0028157D03*
D11*
X0333303Y0018000D03*
X0195508Y0018000D03*
X0156138Y0018000D03*
X0018343Y0018000D03*
X0156138Y0155795D03*
X0195508Y0155795D03*
D12*
X0333303Y0155795D03*
X0018343Y0155795D03*
D13*
X0103965Y0152157D03*
X0103965Y0132157D03*
X0103965Y0122157D03*
X0106465Y0089157D03*
X0106465Y0079157D03*
X0106465Y0059157D03*
X0161295Y0041898D03*
X0171295Y0041898D03*
X0181295Y0041898D03*
X0191295Y0041898D03*
X0201295Y0041898D03*
X0211295Y0041898D03*
X0221295Y0041898D03*
X0231295Y0041898D03*
X0241295Y0041898D03*
X0251295Y0041898D03*
X0261295Y0041898D03*
X0271295Y0041898D03*
X0281295Y0041898D03*
X0291295Y0041898D03*
X0301295Y0041898D03*
X0311295Y0041898D03*
X0311295Y0131898D03*
X0301295Y0131898D03*
X0291295Y0131898D03*
X0281295Y0131898D03*
X0271295Y0131898D03*
X0261295Y0131898D03*
X0251295Y0131898D03*
X0241295Y0131898D03*
X0231295Y0131898D03*
X0221295Y0131898D03*
X0211295Y0131898D03*
X0201295Y0131898D03*
X0191295Y0131898D03*
X0181295Y0131898D03*
X0171295Y0131898D03*
X0321295Y0131898D03*
D14*
X0161295Y0131898D03*
X0103965Y0142157D03*
X0106465Y0069157D03*
X0321295Y0041898D03*
D15*
X0217752Y0015157D03*
D16*
X0225626Y0015157D03*
X0233500Y0015157D03*
X0241374Y0015157D03*
X0249248Y0015157D03*
D17*
X0249100Y0023757D02*
X0243900Y0023757D01*
X0273900Y0023757D02*
X0279100Y0023757D01*
D18*
X0242500Y0029857D03*
X0212500Y0029857D03*
D19*
X0025500Y0123157D03*
D20*
X0015461Y0113119D03*
X0035539Y0113119D03*
X0035539Y0133196D03*
X0015461Y0133196D03*
D21*
X0121000Y0089157D03*
X0121000Y0079157D03*
X0121000Y0069157D03*
X0121000Y0059157D03*
D22*
X0091500Y0058157D03*
X0091500Y0068157D03*
X0091500Y0078157D03*
X0091500Y0088157D03*
X0230500Y0153157D03*
X0240500Y0153157D03*
X0250500Y0153157D03*
X0276500Y0160157D03*
X0286500Y0160157D03*
X0296500Y0160157D03*
X0296500Y0145157D03*
X0286500Y0145157D03*
X0276500Y0145157D03*
X0271500Y0119157D03*
X0281500Y0119157D03*
X0291500Y0119157D03*
X0301500Y0119157D03*
X0311500Y0119157D03*
X0321500Y0119157D03*
X0331500Y0119157D03*
D23*
X0135079Y0136315D03*
X0135079Y0140252D03*
X0135079Y0144189D03*
X0135079Y0148126D03*
X0135079Y0152063D03*
X0135079Y0156000D03*
D24*
X0123957Y0162299D03*
X0123957Y0130016D03*
D25*
X0073500Y0127811D03*
X0073500Y0134504D03*
X0051500Y0094504D03*
X0051500Y0087811D03*
D26*
X0018343Y0018000D02*
X0020185Y0016157D01*
X0129500Y0016157D01*
X0146000Y0032657D01*
X0146500Y0033157D01*
X0146500Y0066157D01*
X0150500Y0070157D02*
X0137500Y0070157D01*
X0131500Y0064157D01*
X0118500Y0064157D01*
X0116500Y0062157D01*
X0111500Y0062157D01*
X0109500Y0064157D01*
X0097500Y0064157D01*
X0096500Y0063157D01*
X0100331Y0060957D02*
X0101612Y0060957D01*
X0101293Y0060186D01*
X0101293Y0058129D01*
X0102080Y0056228D01*
X0103300Y0055008D01*
X0103300Y0035153D01*
X0102786Y0034639D01*
X0102119Y0033029D01*
X0102119Y0031286D01*
X0102786Y0029676D01*
X0104018Y0028443D01*
X0105629Y0027776D01*
X0107371Y0027776D01*
X0108982Y0028443D01*
X0110214Y0029676D01*
X0110881Y0031286D01*
X0110881Y0033029D01*
X0110214Y0034639D01*
X0109700Y0035153D01*
X0109700Y0055079D01*
X0110119Y0055498D01*
X0110119Y0055286D01*
X0110786Y0053676D01*
X0112018Y0052443D01*
X0113629Y0051776D01*
X0114356Y0051776D01*
X0115687Y0050445D01*
X0116863Y0049957D01*
X0117504Y0049957D01*
X0117119Y0049029D01*
X0117119Y0047286D01*
X0117786Y0045676D01*
X0118300Y0045162D01*
X0118300Y0043153D01*
X0117786Y0042639D01*
X0117119Y0041029D01*
X0117119Y0039286D01*
X0117786Y0037676D01*
X0119018Y0036443D01*
X0120629Y0035776D01*
X0122371Y0035776D01*
X0123982Y0036443D01*
X0125214Y0037676D01*
X0125881Y0039286D01*
X0125881Y0041029D01*
X0125214Y0042639D01*
X0124700Y0043153D01*
X0124700Y0045162D01*
X0125214Y0045676D01*
X0125881Y0047286D01*
X0125881Y0049029D01*
X0125496Y0049957D01*
X0135175Y0049957D01*
X0137687Y0047445D01*
X0137898Y0047357D01*
X0134496Y0047357D01*
X0133982Y0047872D01*
X0132371Y0048539D01*
X0130629Y0048539D01*
X0129018Y0047872D01*
X0127786Y0046639D01*
X0127119Y0045029D01*
X0127119Y0043286D01*
X0127786Y0041676D01*
X0129018Y0040443D01*
X0130629Y0039776D01*
X0132371Y0039776D01*
X0133982Y0040443D01*
X0134496Y0040957D01*
X0138119Y0040957D01*
X0138119Y0040286D01*
X0138786Y0038676D01*
X0140018Y0037443D01*
X0141629Y0036776D01*
X0143300Y0036776D01*
X0143300Y0036153D01*
X0142286Y0035139D01*
X0141619Y0033529D01*
X0141619Y0032802D01*
X0128175Y0019357D01*
X0032243Y0019357D01*
X0032243Y0019830D01*
X0031295Y0023365D01*
X0029465Y0026535D01*
X0026877Y0029123D01*
X0023708Y0030953D01*
X0020172Y0031900D01*
X0016513Y0031900D01*
X0013300Y0031039D01*
X0013300Y0106924D01*
X0013351Y0106903D01*
X0014180Y0106681D01*
X0014661Y0106617D01*
X0014661Y0112318D01*
X0016261Y0112318D01*
X0016261Y0106617D01*
X0016742Y0106681D01*
X0017571Y0106903D01*
X0018364Y0107231D01*
X0019108Y0107661D01*
X0019789Y0108183D01*
X0020396Y0108791D01*
X0020919Y0109472D01*
X0021348Y0110215D01*
X0021677Y0111009D01*
X0021899Y0111838D01*
X0021962Y0112319D01*
X0016261Y0112319D01*
X0016261Y0113918D01*
X0021962Y0113918D01*
X0021899Y0114399D01*
X0021677Y0115228D01*
X0021348Y0116022D01*
X0020919Y0116765D01*
X0020396Y0117446D01*
X0019789Y0118054D01*
X0019108Y0118576D01*
X0018364Y0119006D01*
X0017571Y0119334D01*
X0016742Y0119556D01*
X0016261Y0119620D01*
X0016261Y0113919D01*
X0014661Y0113919D01*
X0014661Y0119620D01*
X0014180Y0119556D01*
X0013351Y0119334D01*
X0013300Y0119313D01*
X0013300Y0127002D01*
X0013351Y0126981D01*
X0014180Y0126759D01*
X0014661Y0126695D01*
X0014661Y0132396D01*
X0016261Y0132396D01*
X0016261Y0126695D01*
X0016742Y0126759D01*
X0017571Y0126981D01*
X0018364Y0127309D01*
X0019108Y0127739D01*
X0019789Y0128261D01*
X0020396Y0128868D01*
X0020919Y0129550D01*
X0021348Y0130293D01*
X0021677Y0131087D01*
X0021899Y0131916D01*
X0021962Y0132396D01*
X0016261Y0132396D01*
X0016261Y0133996D01*
X0021962Y0133996D01*
X0021899Y0134477D01*
X0021677Y0135306D01*
X0021348Y0136100D01*
X0020919Y0136843D01*
X0020396Y0137524D01*
X0019789Y0138132D01*
X0019108Y0138654D01*
X0018364Y0139084D01*
X0017571Y0139412D01*
X0016742Y0139634D01*
X0016261Y0139698D01*
X0016261Y0133997D01*
X0014661Y0133997D01*
X0014661Y0139698D01*
X0014180Y0139634D01*
X0013351Y0139412D01*
X0013300Y0139391D01*
X0013300Y0142995D01*
X0017543Y0142995D01*
X0017543Y0154995D01*
X0019142Y0154995D01*
X0019142Y0142995D01*
X0030014Y0142995D01*
X0030344Y0143084D01*
X0030641Y0143255D01*
X0030883Y0143497D01*
X0031054Y0143793D01*
X0031143Y0144124D01*
X0031143Y0154995D01*
X0019143Y0154995D01*
X0019143Y0156595D01*
X0031143Y0156595D01*
X0031143Y0160838D01*
X0118013Y0160838D01*
X0118013Y0159460D01*
X0118379Y0158578D01*
X0119054Y0157902D01*
X0119936Y0157537D01*
X0127977Y0157537D01*
X0128859Y0157902D01*
X0129535Y0158578D01*
X0129900Y0159460D01*
X0129900Y0160838D01*
X0143099Y0160838D01*
X0142238Y0157625D01*
X0142238Y0153965D01*
X0143185Y0150430D01*
X0145015Y0147260D01*
X0147603Y0144673D01*
X0150773Y0142843D01*
X0152583Y0142357D01*
X0150863Y0142357D01*
X0149687Y0141870D01*
X0145700Y0137883D01*
X0145700Y0139794D01*
X0145482Y0140321D01*
X0145881Y0141286D01*
X0145881Y0143029D01*
X0145214Y0144639D01*
X0143982Y0145872D01*
X0142371Y0146539D01*
X0140629Y0146539D01*
X0140530Y0146498D01*
X0140530Y0149784D01*
X0140401Y0150094D01*
X0140530Y0150404D01*
X0140530Y0153721D01*
X0140165Y0154604D01*
X0139489Y0155279D01*
X0139430Y0155303D01*
X0139430Y0156000D01*
X0139430Y0157352D01*
X0139341Y0157683D01*
X0139170Y0157979D01*
X0138928Y0158221D01*
X0138632Y0158392D01*
X0138301Y0158481D01*
X0135079Y0158481D01*
X0135079Y0156000D01*
X0139430Y0156000D01*
X0135079Y0156000D01*
X0135079Y0156000D01*
X0135079Y0156000D01*
X0135236Y0156157D01*
X0141500Y0156157D01*
X0142500Y0155157D01*
X0142500Y0148157D01*
X0148500Y0142157D01*
X0163500Y0142157D01*
X0166500Y0144157D01*
X0171500Y0144157D01*
X0172300Y0144031D02*
X0163561Y0144031D01*
X0164673Y0144673D02*
X0167261Y0147260D01*
X0169091Y0150430D01*
X0170038Y0153965D01*
X0170038Y0157625D01*
X0169177Y0160838D01*
X0182469Y0160838D01*
X0181909Y0158750D01*
X0181325Y0158508D01*
X0180425Y0157608D01*
X0172787Y0149970D01*
X0172300Y0148794D01*
X0172300Y0143483D01*
X0171175Y0142357D01*
X0159693Y0142357D01*
X0161503Y0142843D01*
X0164673Y0144673D01*
X0165630Y0145629D02*
X0172300Y0145629D01*
X0172300Y0147228D02*
X0167228Y0147228D01*
X0168165Y0148826D02*
X0172313Y0148826D01*
X0173242Y0150425D02*
X0169088Y0150425D01*
X0169517Y0152023D02*
X0174841Y0152023D01*
X0176439Y0153622D02*
X0169946Y0153622D01*
X0170038Y0155221D02*
X0178038Y0155221D01*
X0179636Y0156819D02*
X0170038Y0156819D01*
X0169825Y0158418D02*
X0181235Y0158418D01*
X0182248Y0160016D02*
X0169397Y0160016D01*
X0175500Y0148157D02*
X0183138Y0155795D01*
X0195508Y0155795D01*
X0207535Y0148826D02*
X0226982Y0148826D01*
X0228201Y0147607D02*
X0230425Y0147607D01*
X0223724Y0140907D01*
X0223881Y0141286D01*
X0223881Y0143029D01*
X0223214Y0144639D01*
X0221982Y0145872D01*
X0220371Y0146539D01*
X0218629Y0146539D01*
X0217018Y0145872D01*
X0215786Y0144639D01*
X0215119Y0143029D01*
X0215119Y0142302D01*
X0214724Y0141907D01*
X0214881Y0142286D01*
X0214881Y0144029D01*
X0214214Y0145639D01*
X0212982Y0146872D01*
X0211371Y0147539D01*
X0209629Y0147539D01*
X0208018Y0146872D01*
X0206786Y0145639D01*
X0206119Y0144029D01*
X0206119Y0143302D01*
X0203787Y0140970D01*
X0203300Y0139794D01*
X0203300Y0136665D01*
X0202324Y0137069D01*
X0200267Y0137069D01*
X0198366Y0136282D01*
X0196911Y0134827D01*
X0196295Y0133341D01*
X0195680Y0134827D01*
X0194225Y0136282D01*
X0192324Y0137069D01*
X0190267Y0137069D01*
X0188366Y0136282D01*
X0186911Y0134827D01*
X0186295Y0133341D01*
X0185680Y0134827D01*
X0184225Y0136282D01*
X0182324Y0137069D01*
X0180267Y0137069D01*
X0178366Y0136282D01*
X0176911Y0134827D01*
X0176295Y0133341D01*
X0175680Y0134827D01*
X0174225Y0136282D01*
X0174072Y0136345D01*
X0174313Y0136445D01*
X0175213Y0137345D01*
X0177313Y0139445D01*
X0178213Y0140345D01*
X0178700Y0141521D01*
X0178700Y0146832D01*
X0182501Y0150633D01*
X0182555Y0150430D01*
X0184385Y0147260D01*
X0186973Y0144673D01*
X0190143Y0142843D01*
X0193678Y0141895D01*
X0197338Y0141895D01*
X0200873Y0142843D01*
X0204043Y0144673D01*
X0206631Y0147260D01*
X0208461Y0150430D01*
X0209408Y0153965D01*
X0209408Y0157625D01*
X0208547Y0160838D01*
X0260655Y0160838D01*
X0254884Y0155067D01*
X0252343Y0157607D01*
X0250600Y0157607D01*
X0250600Y0153258D01*
X0250400Y0153258D01*
X0250400Y0157607D01*
X0248657Y0157607D01*
X0246050Y0155001D01*
X0246050Y0153257D01*
X0250400Y0153257D01*
X0250400Y0153057D01*
X0246050Y0153057D01*
X0246050Y0151314D01*
X0246274Y0151090D01*
X0246050Y0150998D01*
X0246050Y0155456D01*
X0242799Y0158707D01*
X0238201Y0158707D01*
X0235500Y0156006D01*
X0232799Y0158707D01*
X0228201Y0158707D01*
X0224950Y0155456D01*
X0224950Y0150859D01*
X0228201Y0147607D01*
X0230045Y0147228D02*
X0212121Y0147228D01*
X0214218Y0145629D02*
X0216776Y0145629D01*
X0215534Y0144031D02*
X0214880Y0144031D01*
X0214881Y0142432D02*
X0215119Y0142432D01*
X0216500Y0139157D02*
X0219500Y0142157D01*
X0223466Y0144031D02*
X0226848Y0144031D01*
X0228447Y0145629D02*
X0222224Y0145629D01*
X0223881Y0142432D02*
X0225249Y0142432D01*
X0216500Y0139157D02*
X0216500Y0124157D01*
X0217500Y0123157D01*
X0213500Y0119157D02*
X0211500Y0121157D01*
X0211500Y0131693D01*
X0211295Y0131898D01*
X0221295Y0131898D02*
X0221295Y0133953D01*
X0240500Y0153157D01*
X0244687Y0156819D02*
X0247868Y0156819D01*
X0246270Y0155221D02*
X0246050Y0155221D01*
X0246050Y0153622D02*
X0246050Y0153622D01*
X0246050Y0152023D02*
X0246050Y0152023D01*
X0250400Y0153622D02*
X0250600Y0153622D01*
X0250600Y0155221D02*
X0250400Y0155221D01*
X0250400Y0156819D02*
X0250600Y0156819D01*
X0253132Y0156819D02*
X0256636Y0156819D01*
X0255038Y0155221D02*
X0254730Y0155221D01*
X0258235Y0158418D02*
X0243089Y0158418D01*
X0237911Y0158418D02*
X0233089Y0158418D01*
X0234687Y0156819D02*
X0236313Y0156819D01*
X0227911Y0158418D02*
X0209196Y0158418D01*
X0209408Y0156819D02*
X0226313Y0156819D01*
X0224950Y0155221D02*
X0209408Y0155221D01*
X0209316Y0153622D02*
X0224950Y0153622D01*
X0224950Y0152023D02*
X0208888Y0152023D01*
X0208458Y0150425D02*
X0225384Y0150425D01*
X0210500Y0143157D02*
X0206500Y0139157D01*
X0206500Y0122157D01*
X0201500Y0120157D02*
X0201500Y0131693D01*
X0201295Y0131898D01*
X0196295Y0130455D02*
X0196911Y0128968D01*
X0198300Y0127579D01*
X0198300Y0119521D01*
X0198373Y0119346D01*
X0190992Y0126726D01*
X0192324Y0126726D01*
X0194225Y0127513D01*
X0195680Y0128968D01*
X0196295Y0130455D01*
X0195960Y0129644D02*
X0196631Y0129644D01*
X0197833Y0128046D02*
X0194757Y0128046D01*
X0191271Y0126447D02*
X0198300Y0126447D01*
X0198300Y0124849D02*
X0192870Y0124849D01*
X0194468Y0123250D02*
X0198300Y0123250D01*
X0198300Y0121652D02*
X0196067Y0121652D01*
X0197665Y0120053D02*
X0198300Y0120053D01*
X0201500Y0120157D02*
X0206500Y0115157D01*
X0225500Y0115157D01*
X0233500Y0123157D01*
X0268500Y0123157D01*
X0270500Y0125157D01*
X0274500Y0125157D01*
X0276500Y0127157D01*
X0276500Y0129157D01*
X0276500Y0131157D01*
X0276500Y0135157D01*
X0286500Y0145157D01*
X0290187Y0149319D02*
X0291500Y0148006D01*
X0294201Y0150707D01*
X0298799Y0150707D01*
X0302050Y0147456D01*
X0302050Y0142859D01*
X0298799Y0139607D01*
X0295475Y0139607D01*
X0292758Y0136890D01*
X0294225Y0136282D01*
X0295680Y0134827D01*
X0295936Y0134207D01*
X0296654Y0134207D01*
X0296911Y0134827D01*
X0298366Y0136282D01*
X0300267Y0137069D01*
X0302324Y0137069D01*
X0304225Y0136282D01*
X0305680Y0134827D01*
X0305936Y0134207D01*
X0306654Y0134207D01*
X0306911Y0134827D01*
X0308366Y0136282D01*
X0310267Y0137069D01*
X0312324Y0137069D01*
X0314225Y0136282D01*
X0315680Y0134827D01*
X0315936Y0134207D01*
X0316654Y0134207D01*
X0316911Y0134827D01*
X0318366Y0136282D01*
X0320267Y0137069D01*
X0322324Y0137069D01*
X0324225Y0136282D01*
X0325680Y0134827D01*
X0325936Y0134207D01*
X0338346Y0134207D01*
X0338346Y0142995D01*
X0334103Y0142995D01*
X0334103Y0154995D01*
X0332503Y0154995D01*
X0332503Y0142995D01*
X0321632Y0142995D01*
X0321301Y0143084D01*
X0321005Y0143255D01*
X0320763Y0143497D01*
X0320592Y0143793D01*
X0320503Y0144124D01*
X0320503Y0154995D01*
X0332503Y0154995D01*
X0332503Y0156595D01*
X0320503Y0156595D01*
X0320503Y0160838D01*
X0302050Y0160838D01*
X0302050Y0157859D01*
X0298799Y0154607D01*
X0295475Y0154607D01*
X0290187Y0149319D01*
X0290680Y0148826D02*
X0292320Y0148826D01*
X0291293Y0150425D02*
X0293919Y0150425D01*
X0292891Y0152023D02*
X0320503Y0152023D01*
X0320503Y0150425D02*
X0299081Y0150425D01*
X0300680Y0148826D02*
X0320503Y0148826D01*
X0320503Y0147228D02*
X0302050Y0147228D01*
X0302050Y0145629D02*
X0320503Y0145629D01*
X0320528Y0144031D02*
X0302050Y0144031D01*
X0301624Y0142432D02*
X0338346Y0142432D01*
X0338346Y0140834D02*
X0300025Y0140834D01*
X0295103Y0139235D02*
X0338346Y0139235D01*
X0338346Y0137637D02*
X0293505Y0137637D01*
X0294468Y0136038D02*
X0298122Y0136038D01*
X0296751Y0134440D02*
X0295840Y0134440D01*
X0304468Y0136038D02*
X0308122Y0136038D01*
X0306751Y0134440D02*
X0305840Y0134440D01*
X0314468Y0136038D02*
X0318122Y0136038D01*
X0316751Y0134440D02*
X0315840Y0134440D01*
X0324468Y0136038D02*
X0338346Y0136038D01*
X0338346Y0134440D02*
X0325840Y0134440D01*
X0332503Y0144031D02*
X0334103Y0144031D01*
X0334103Y0145629D02*
X0332503Y0145629D01*
X0332503Y0147228D02*
X0334103Y0147228D01*
X0334103Y0148826D02*
X0332503Y0148826D01*
X0332503Y0150425D02*
X0334103Y0150425D01*
X0334103Y0152023D02*
X0332503Y0152023D01*
X0332503Y0153622D02*
X0334103Y0153622D01*
X0332503Y0155221D02*
X0299412Y0155221D01*
X0301010Y0156819D02*
X0320503Y0156819D01*
X0320503Y0158418D02*
X0302050Y0158418D01*
X0302050Y0160016D02*
X0320503Y0160016D01*
X0320503Y0153622D02*
X0294490Y0153622D01*
X0296500Y0160157D02*
X0286500Y0150157D01*
X0265500Y0150157D01*
X0251295Y0135953D01*
X0251295Y0131898D01*
X0241295Y0131898D02*
X0263555Y0154157D01*
X0279500Y0154157D01*
X0285500Y0160157D01*
X0286500Y0160157D01*
X0276500Y0160157D02*
X0264500Y0160157D01*
X0252500Y0148157D01*
X0247555Y0148157D01*
X0231295Y0131898D01*
X0230500Y0126157D02*
X0223500Y0119157D01*
X0213500Y0119157D01*
X0201035Y0112157D02*
X0181295Y0131898D01*
X0176631Y0129644D02*
X0175960Y0129644D01*
X0175680Y0128968D02*
X0176295Y0130455D01*
X0176911Y0128968D01*
X0178366Y0127513D01*
X0180267Y0126726D01*
X0181941Y0126726D01*
X0187567Y0121100D01*
X0184660Y0123523D01*
X0184313Y0123870D01*
X0184174Y0123928D01*
X0184060Y0124023D01*
X0183590Y0124169D01*
X0183137Y0124357D01*
X0182987Y0124357D01*
X0182844Y0124402D01*
X0182355Y0124357D01*
X0149896Y0124357D01*
X0150214Y0124676D01*
X0150881Y0126286D01*
X0150881Y0128029D01*
X0150214Y0129639D01*
X0149700Y0130153D01*
X0149700Y0132832D01*
X0152825Y0135957D01*
X0158308Y0135957D01*
X0158022Y0135881D01*
X0157725Y0135710D01*
X0157483Y0135468D01*
X0157312Y0135171D01*
X0157224Y0134840D01*
X0157224Y0131983D01*
X0161209Y0131983D01*
X0161209Y0131812D01*
X0157224Y0131812D01*
X0157224Y0128955D01*
X0157312Y0128624D01*
X0157483Y0128328D01*
X0157725Y0128086D01*
X0158022Y0127915D01*
X0158352Y0127826D01*
X0161209Y0127826D01*
X0161209Y0131812D01*
X0161381Y0131812D01*
X0161381Y0131983D01*
X0165367Y0131983D01*
X0165367Y0134840D01*
X0165278Y0135171D01*
X0165107Y0135468D01*
X0164865Y0135710D01*
X0164569Y0135881D01*
X0164282Y0135957D01*
X0168041Y0135957D01*
X0166911Y0134827D01*
X0166124Y0132926D01*
X0166124Y0130869D01*
X0166911Y0128968D01*
X0168366Y0127513D01*
X0170267Y0126726D01*
X0172324Y0126726D01*
X0174225Y0127513D01*
X0175680Y0128968D01*
X0174757Y0128046D02*
X0177833Y0128046D01*
X0182220Y0126447D02*
X0150881Y0126447D01*
X0150874Y0128046D02*
X0157795Y0128046D01*
X0157224Y0129644D02*
X0150209Y0129644D01*
X0149700Y0131243D02*
X0157224Y0131243D01*
X0157224Y0132841D02*
X0149709Y0132841D01*
X0151308Y0134440D02*
X0157224Y0134440D01*
X0161381Y0131812D02*
X0161381Y0127826D01*
X0164238Y0127826D01*
X0164569Y0127915D01*
X0164865Y0128086D01*
X0165107Y0128328D01*
X0165278Y0128624D01*
X0165367Y0128955D01*
X0165367Y0131812D01*
X0161381Y0131812D01*
X0161381Y0131243D02*
X0161209Y0131243D01*
X0161209Y0129644D02*
X0161381Y0129644D01*
X0161381Y0128046D02*
X0161209Y0128046D01*
X0164796Y0128046D02*
X0167833Y0128046D01*
X0166631Y0129644D02*
X0165367Y0129644D01*
X0165367Y0131243D02*
X0166124Y0131243D01*
X0166124Y0132841D02*
X0165367Y0132841D01*
X0165367Y0134440D02*
X0166751Y0134440D01*
X0172500Y0139157D02*
X0175500Y0142157D01*
X0175500Y0148157D01*
X0179096Y0147228D02*
X0184418Y0147228D01*
X0183481Y0148826D02*
X0180694Y0148826D01*
X0182293Y0150425D02*
X0182558Y0150425D01*
X0186016Y0145629D02*
X0178700Y0145629D01*
X0178700Y0144031D02*
X0188084Y0144031D01*
X0187500Y0143157D02*
X0180500Y0143157D01*
X0179500Y0144157D01*
X0178700Y0142432D02*
X0191673Y0142432D01*
X0187500Y0143157D02*
X0196500Y0138157D01*
X0196500Y0125157D01*
X0187016Y0121652D02*
X0186905Y0121652D01*
X0185417Y0123250D02*
X0184987Y0123250D01*
X0183819Y0124849D02*
X0150286Y0124849D01*
X0146500Y0127157D02*
X0146500Y0134157D01*
X0151500Y0139157D01*
X0172500Y0139157D01*
X0175213Y0137345D02*
X0175213Y0137345D01*
X0175505Y0137637D02*
X0203300Y0137637D01*
X0203300Y0139235D02*
X0177103Y0139235D01*
X0178415Y0140834D02*
X0203731Y0140834D01*
X0205249Y0142432D02*
X0199343Y0142432D01*
X0202931Y0144031D02*
X0206120Y0144031D01*
X0206782Y0145629D02*
X0205000Y0145629D01*
X0206598Y0147228D02*
X0208879Y0147228D01*
X0198122Y0136038D02*
X0194468Y0136038D01*
X0195840Y0134440D02*
X0196751Y0134440D01*
X0188122Y0136038D02*
X0184468Y0136038D01*
X0185840Y0134440D02*
X0186751Y0134440D01*
X0178122Y0136038D02*
X0174468Y0136038D01*
X0175840Y0134440D02*
X0176751Y0134440D01*
X0171249Y0142432D02*
X0159972Y0142432D01*
X0152303Y0142432D02*
X0145881Y0142432D01*
X0145694Y0140834D02*
X0148651Y0140834D01*
X0147052Y0139235D02*
X0145700Y0139235D01*
X0142500Y0139157D02*
X0141500Y0140157D01*
X0141500Y0142157D01*
X0145466Y0144031D02*
X0148714Y0144031D01*
X0146646Y0145629D02*
X0144224Y0145629D01*
X0145048Y0147228D02*
X0140530Y0147228D01*
X0140530Y0148826D02*
X0144111Y0148826D01*
X0143188Y0150425D02*
X0140530Y0150425D01*
X0140530Y0152023D02*
X0142758Y0152023D01*
X0142330Y0153622D02*
X0140530Y0153622D01*
X0139548Y0155221D02*
X0142238Y0155221D01*
X0142238Y0156819D02*
X0139430Y0156819D01*
X0138538Y0158418D02*
X0142450Y0158418D01*
X0142878Y0160016D02*
X0129900Y0160016D01*
X0129375Y0158418D02*
X0131619Y0158418D01*
X0131526Y0158392D02*
X0131229Y0158221D01*
X0130987Y0157979D01*
X0130816Y0157683D01*
X0130728Y0157352D01*
X0130728Y0156000D01*
X0130728Y0155357D01*
X0130496Y0155357D01*
X0129982Y0155872D01*
X0128371Y0156539D01*
X0126629Y0156539D01*
X0125018Y0155872D01*
X0123786Y0154639D01*
X0123119Y0153029D01*
X0123119Y0152229D01*
X0122371Y0152539D01*
X0120629Y0152539D01*
X0119018Y0151872D01*
X0117786Y0150639D01*
X0117119Y0149029D01*
X0117119Y0147286D01*
X0117786Y0145676D01*
X0118139Y0145322D01*
X0116687Y0143870D01*
X0115787Y0142970D01*
X0115300Y0141794D01*
X0115300Y0124153D01*
X0114786Y0123639D01*
X0114707Y0123449D01*
X0114214Y0124639D01*
X0113700Y0125153D01*
X0113700Y0139162D01*
X0114214Y0139676D01*
X0114881Y0141286D01*
X0114881Y0143029D01*
X0114214Y0144639D01*
X0112982Y0145872D01*
X0111371Y0146539D01*
X0109629Y0146539D01*
X0108018Y0145872D01*
X0107812Y0145665D01*
X0107776Y0145727D01*
X0107534Y0145969D01*
X0107238Y0146141D01*
X0106907Y0146229D01*
X0104050Y0146229D01*
X0104050Y0142243D01*
X0103879Y0142243D01*
X0103879Y0142072D01*
X0104050Y0142072D01*
X0104050Y0138086D01*
X0106907Y0138086D01*
X0107238Y0138174D01*
X0107300Y0138210D01*
X0107300Y0136136D01*
X0106894Y0136542D01*
X0104993Y0137329D01*
X0102936Y0137329D01*
X0101035Y0136542D01*
X0099580Y0135087D01*
X0098793Y0133186D01*
X0098793Y0131129D01*
X0098842Y0131011D01*
X0077753Y0131011D01*
X0077700Y0131139D01*
X0077025Y0131814D01*
X0076803Y0131906D01*
X0076877Y0132034D01*
X0076965Y0132364D01*
X0076965Y0134320D01*
X0073684Y0134320D01*
X0073684Y0134688D01*
X0073316Y0134688D01*
X0073316Y0134320D01*
X0070035Y0134320D01*
X0070035Y0132364D01*
X0070123Y0132034D01*
X0070197Y0131906D01*
X0069975Y0131814D01*
X0069300Y0131139D01*
X0068935Y0130257D01*
X0068935Y0125365D01*
X0069300Y0124483D01*
X0069975Y0123808D01*
X0070857Y0123443D01*
X0076143Y0123443D01*
X0077025Y0123808D01*
X0077700Y0124483D01*
X0077753Y0124611D01*
X0096986Y0124611D01*
X0098793Y0122804D01*
X0098793Y0121129D01*
X0099580Y0119228D01*
X0101035Y0117773D01*
X0102936Y0116986D01*
X0104611Y0116986D01*
X0106225Y0115371D01*
X0105018Y0114872D01*
X0103786Y0113639D01*
X0103119Y0112029D01*
X0103119Y0110286D01*
X0103786Y0108676D01*
X0104304Y0108157D01*
X0103786Y0107639D01*
X0103119Y0106029D01*
X0103119Y0105010D01*
X0100081Y0101539D01*
X0099629Y0101539D01*
X0098018Y0100872D01*
X0096786Y0099639D01*
X0096422Y0098761D01*
X0096313Y0098870D01*
X0095137Y0099357D01*
X0068225Y0099357D01*
X0073825Y0104957D01*
X0093255Y0104957D01*
X0093786Y0103676D01*
X0095018Y0102443D01*
X0096629Y0101776D01*
X0098371Y0101776D01*
X0099982Y0102443D01*
X0101214Y0103676D01*
X0101881Y0105286D01*
X0101881Y0107029D01*
X0101214Y0108639D01*
X0099982Y0109872D01*
X0098371Y0110539D01*
X0097644Y0110539D01*
X0097313Y0110870D01*
X0096137Y0111357D01*
X0071863Y0111357D01*
X0070687Y0110870D01*
X0069787Y0109970D01*
X0054965Y0095148D01*
X0054965Y0096644D01*
X0054877Y0096974D01*
X0054706Y0097271D01*
X0054464Y0097513D01*
X0054167Y0097684D01*
X0053837Y0097772D01*
X0051684Y0097772D01*
X0051684Y0094688D01*
X0051316Y0094688D01*
X0051316Y0094320D01*
X0048035Y0094320D01*
X0048035Y0092364D01*
X0048123Y0092034D01*
X0048197Y0091906D01*
X0047975Y0091814D01*
X0047300Y0091139D01*
X0046935Y0090257D01*
X0046935Y0086357D01*
X0034863Y0086357D01*
X0033687Y0085870D01*
X0030356Y0082539D01*
X0029629Y0082539D01*
X0028018Y0081872D01*
X0026786Y0080639D01*
X0026119Y0079029D01*
X0026119Y0077286D01*
X0026786Y0075676D01*
X0028018Y0074443D01*
X0029629Y0073776D01*
X0031371Y0073776D01*
X0032982Y0074443D01*
X0034214Y0075676D01*
X0034881Y0077286D01*
X0034881Y0078013D01*
X0036825Y0079957D01*
X0062504Y0079957D01*
X0062119Y0079029D01*
X0062119Y0077286D01*
X0062786Y0075676D01*
X0063300Y0075162D01*
X0063300Y0069521D01*
X0063787Y0068345D01*
X0064687Y0067445D01*
X0066593Y0065539D01*
X0065629Y0065539D01*
X0064018Y0064872D01*
X0062786Y0063639D01*
X0062119Y0062029D01*
X0062119Y0060286D01*
X0062786Y0058676D01*
X0064018Y0057443D01*
X0065629Y0056776D01*
X0066356Y0056776D01*
X0067687Y0055445D01*
X0068863Y0054957D01*
X0086851Y0054957D01*
X0089201Y0052607D01*
X0093799Y0052607D01*
X0097050Y0055859D01*
X0097050Y0058776D01*
X0097371Y0058776D01*
X0098982Y0059443D01*
X0100214Y0060676D01*
X0100331Y0060957D01*
X0100310Y0060908D02*
X0101592Y0060908D01*
X0101293Y0059310D02*
X0098659Y0059310D01*
X0097050Y0057711D02*
X0101466Y0057711D01*
X0102195Y0056113D02*
X0097050Y0056113D01*
X0098500Y0055157D02*
X0098500Y0045157D01*
X0103300Y0044923D02*
X0013300Y0044923D01*
X0013300Y0043325D02*
X0103300Y0043325D01*
X0103300Y0041726D02*
X0013300Y0041726D01*
X0013300Y0040128D02*
X0103300Y0040128D01*
X0103300Y0038529D02*
X0013300Y0038529D01*
X0013300Y0036931D02*
X0103300Y0036931D01*
X0103300Y0035332D02*
X0013300Y0035332D01*
X0013300Y0033734D02*
X0102411Y0033734D01*
X0102119Y0032135D02*
X0013300Y0032135D01*
X0024428Y0030537D02*
X0102429Y0030537D01*
X0103524Y0028938D02*
X0027062Y0028938D01*
X0028660Y0027340D02*
X0136157Y0027340D01*
X0137755Y0028938D02*
X0109476Y0028938D01*
X0110571Y0030537D02*
X0139354Y0030537D01*
X0140952Y0032135D02*
X0110881Y0032135D01*
X0110589Y0033734D02*
X0141704Y0033734D01*
X0142479Y0035332D02*
X0109700Y0035332D01*
X0109700Y0036931D02*
X0118531Y0036931D01*
X0117432Y0038529D02*
X0109700Y0038529D01*
X0109700Y0040128D02*
X0117119Y0040128D01*
X0117408Y0041726D02*
X0109700Y0041726D01*
X0109700Y0043325D02*
X0118300Y0043325D01*
X0118300Y0044923D02*
X0109700Y0044923D01*
X0109700Y0046522D02*
X0117435Y0046522D01*
X0117119Y0048120D02*
X0109700Y0048120D01*
X0109700Y0049719D02*
X0117405Y0049719D01*
X0114815Y0051317D02*
X0109700Y0051317D01*
X0109700Y0052916D02*
X0111546Y0052916D01*
X0110439Y0054514D02*
X0109700Y0054514D01*
X0114500Y0056157D02*
X0117500Y0053157D01*
X0136500Y0053157D01*
X0139500Y0050157D01*
X0142500Y0050157D01*
X0137012Y0048120D02*
X0133381Y0048120D01*
X0135413Y0049719D02*
X0125595Y0049719D01*
X0125881Y0048120D02*
X0129619Y0048120D01*
X0127737Y0046522D02*
X0125565Y0046522D01*
X0124700Y0044923D02*
X0127119Y0044923D01*
X0127119Y0043325D02*
X0124700Y0043325D01*
X0125592Y0041726D02*
X0127765Y0041726D01*
X0125881Y0040128D02*
X0129780Y0040128D01*
X0133220Y0040128D02*
X0138184Y0040128D01*
X0138932Y0038529D02*
X0125568Y0038529D01*
X0124469Y0036931D02*
X0141256Y0036931D01*
X0142500Y0041157D02*
X0139500Y0044157D01*
X0131500Y0044157D01*
X0121500Y0040157D02*
X0121500Y0048157D01*
X0131500Y0057157D02*
X0128500Y0060157D01*
X0131500Y0057157D02*
X0142500Y0057157D01*
X0151500Y0049157D02*
X0175500Y0049157D01*
X0180500Y0054157D01*
X0236500Y0054157D01*
X0236500Y0049157D02*
X0308500Y0049157D01*
X0315500Y0056157D01*
X0332500Y0056157D01*
X0336500Y0060157D01*
X0336500Y0080157D01*
X0334500Y0082157D01*
X0329500Y0086157D02*
X0322500Y0079157D01*
X0322500Y0073157D01*
X0304500Y0069157D02*
X0292500Y0069157D01*
X0281500Y0058157D01*
X0281500Y0057157D01*
X0275500Y0056157D02*
X0275500Y0086157D01*
X0269500Y0088157D02*
X0269500Y0065157D01*
X0265500Y0061157D01*
X0258500Y0061157D01*
X0255500Y0064157D01*
X0248500Y0064157D01*
X0244119Y0063776D02*
X0244119Y0063357D01*
X0195881Y0063357D01*
X0195881Y0065029D01*
X0195214Y0066639D01*
X0194700Y0067153D01*
X0194700Y0076162D01*
X0195214Y0076676D01*
X0195881Y0078286D01*
X0195881Y0080029D01*
X0195496Y0080957D01*
X0252504Y0080957D01*
X0253018Y0080443D01*
X0254629Y0079776D01*
X0256371Y0079776D01*
X0256450Y0079809D01*
X0256450Y0071357D01*
X0247496Y0071357D01*
X0246982Y0071872D01*
X0245371Y0072539D01*
X0243629Y0072539D01*
X0242018Y0071872D01*
X0240786Y0070639D01*
X0240119Y0069029D01*
X0240119Y0067286D01*
X0240786Y0065676D01*
X0242018Y0064443D01*
X0243629Y0063776D01*
X0244119Y0063776D01*
X0242834Y0064105D02*
X0195881Y0064105D01*
X0195602Y0065704D02*
X0240774Y0065704D01*
X0240119Y0067302D02*
X0236841Y0067302D01*
X0237214Y0067676D02*
X0237881Y0069286D01*
X0237881Y0071029D01*
X0237214Y0072639D01*
X0235982Y0073872D01*
X0234371Y0074539D01*
X0233644Y0074539D01*
X0231313Y0076870D01*
X0230137Y0077357D01*
X0205496Y0077357D01*
X0204982Y0077872D01*
X0203371Y0078539D01*
X0201629Y0078539D01*
X0200018Y0077872D01*
X0198786Y0076639D01*
X0198119Y0075029D01*
X0198119Y0073286D01*
X0198786Y0071676D01*
X0200018Y0070443D01*
X0201629Y0069776D01*
X0203371Y0069776D01*
X0204982Y0070443D01*
X0205496Y0070957D01*
X0228175Y0070957D01*
X0229119Y0070013D01*
X0229119Y0069286D01*
X0229786Y0067676D01*
X0231018Y0066443D01*
X0232629Y0065776D01*
X0234371Y0065776D01*
X0235982Y0066443D01*
X0237214Y0067676D01*
X0237722Y0068901D02*
X0240119Y0068901D01*
X0240728Y0070499D02*
X0237881Y0070499D01*
X0237438Y0072098D02*
X0242565Y0072098D01*
X0246435Y0072098D02*
X0256450Y0072098D01*
X0256450Y0073696D02*
X0236157Y0073696D01*
X0232888Y0075295D02*
X0256450Y0075295D01*
X0256450Y0076893D02*
X0231257Y0076893D01*
X0229500Y0074157D02*
X0233500Y0070157D01*
X0230159Y0067302D02*
X0194700Y0067302D01*
X0194700Y0068901D02*
X0229278Y0068901D01*
X0228633Y0070499D02*
X0205038Y0070499D01*
X0202500Y0074157D02*
X0229500Y0074157D01*
X0238500Y0077157D02*
X0239500Y0078157D01*
X0259500Y0078157D01*
X0256450Y0078492D02*
X0203484Y0078492D01*
X0201516Y0078492D02*
X0195881Y0078492D01*
X0195856Y0080090D02*
X0253870Y0080090D01*
X0255500Y0084157D02*
X0174500Y0084157D01*
X0145500Y0113157D01*
X0112965Y0113157D01*
X0103965Y0122157D01*
X0098311Y0127811D01*
X0073500Y0127811D01*
X0068935Y0128046D02*
X0039586Y0128046D01*
X0039867Y0128261D02*
X0040474Y0128868D01*
X0040997Y0129550D01*
X0041426Y0130293D01*
X0041755Y0131087D01*
X0041977Y0131916D01*
X0042040Y0132396D01*
X0036339Y0132396D01*
X0036339Y0126695D01*
X0036820Y0126759D01*
X0037649Y0126981D01*
X0038442Y0127309D01*
X0039186Y0127739D01*
X0039867Y0128261D01*
X0041051Y0129644D02*
X0068935Y0129644D01*
X0069404Y0131243D02*
X0041797Y0131243D01*
X0042040Y0133996D02*
X0036339Y0133996D01*
X0036339Y0132396D01*
X0034739Y0132396D01*
X0034739Y0126695D01*
X0034258Y0126759D01*
X0033429Y0126981D01*
X0032636Y0127309D01*
X0031892Y0127739D01*
X0031211Y0128261D01*
X0030604Y0128868D01*
X0030081Y0129550D01*
X0029652Y0130293D01*
X0029323Y0131087D01*
X0029101Y0131916D01*
X0029038Y0132396D01*
X0034739Y0132396D01*
X0034739Y0133996D01*
X0029038Y0133996D01*
X0029101Y0134477D01*
X0029323Y0135306D01*
X0029652Y0136100D01*
X0030081Y0136843D01*
X0030604Y0137524D01*
X0031211Y0138132D01*
X0031892Y0138654D01*
X0032636Y0139084D01*
X0033429Y0139412D01*
X0034258Y0139634D01*
X0034739Y0139698D01*
X0034739Y0133997D01*
X0036339Y0133997D01*
X0036339Y0139698D01*
X0036820Y0139634D01*
X0037649Y0139412D01*
X0038442Y0139084D01*
X0039186Y0138654D01*
X0039867Y0138132D01*
X0040474Y0137524D01*
X0040997Y0136843D01*
X0041426Y0136100D01*
X0041755Y0135306D01*
X0041977Y0134477D01*
X0042040Y0133996D01*
X0041982Y0134440D02*
X0073316Y0134440D01*
X0073500Y0134504D02*
X0096311Y0134504D01*
X0103965Y0142157D01*
X0103879Y0142072D02*
X0103879Y0138086D01*
X0101022Y0138086D01*
X0100691Y0138174D01*
X0100395Y0138346D01*
X0100153Y0138588D01*
X0099982Y0138884D01*
X0099893Y0139215D01*
X0099893Y0142072D01*
X0103879Y0142072D01*
X0103879Y0142243D02*
X0099893Y0142243D01*
X0099893Y0145100D01*
X0099982Y0145431D01*
X0100153Y0145727D01*
X0100395Y0145969D01*
X0100691Y0146141D01*
X0101022Y0146229D01*
X0103879Y0146229D01*
X0103879Y0142243D01*
X0103879Y0142432D02*
X0104050Y0142432D01*
X0104050Y0140834D02*
X0103879Y0140834D01*
X0103879Y0139235D02*
X0104050Y0139235D01*
X0107300Y0137637D02*
X0076248Y0137637D01*
X0076167Y0137684D02*
X0075837Y0137772D01*
X0073684Y0137772D01*
X0073684Y0134688D01*
X0076965Y0134688D01*
X0076965Y0136644D01*
X0076877Y0136974D01*
X0076706Y0137271D01*
X0076464Y0137513D01*
X0076167Y0137684D01*
X0076965Y0136038D02*
X0100532Y0136038D01*
X0099312Y0134440D02*
X0073684Y0134440D01*
X0073316Y0134688D02*
X0073316Y0137772D01*
X0071163Y0137772D01*
X0070833Y0137684D01*
X0070536Y0137513D01*
X0070294Y0137271D01*
X0070123Y0136974D01*
X0070035Y0136644D01*
X0070035Y0134688D01*
X0073316Y0134688D01*
X0073316Y0136038D02*
X0073684Y0136038D01*
X0073684Y0137637D02*
X0073316Y0137637D01*
X0070752Y0137637D02*
X0040362Y0137637D01*
X0041451Y0136038D02*
X0070035Y0136038D01*
X0070035Y0132841D02*
X0036339Y0132841D01*
X0035539Y0133196D02*
X0015461Y0133196D01*
X0015461Y0152914D01*
X0018343Y0155795D01*
X0024705Y0162157D01*
X0104500Y0162157D01*
X0115500Y0151157D01*
X0120343Y0156000D01*
X0135079Y0156000D01*
X0135079Y0158481D01*
X0131856Y0158481D01*
X0131526Y0158392D01*
X0130728Y0156819D02*
X0106225Y0156819D01*
X0106894Y0156542D02*
X0104993Y0157329D01*
X0102936Y0157329D01*
X0101035Y0156542D01*
X0099580Y0155087D01*
X0098793Y0153186D01*
X0098793Y0151129D01*
X0099580Y0149228D01*
X0101035Y0147773D01*
X0102936Y0146986D01*
X0104993Y0146986D01*
X0106894Y0147773D01*
X0108349Y0149228D01*
X0109136Y0151129D01*
X0109136Y0153186D01*
X0108349Y0155087D01*
X0106894Y0156542D01*
X0108215Y0155221D02*
X0124367Y0155221D01*
X0123365Y0153622D02*
X0108956Y0153622D01*
X0109136Y0152023D02*
X0119385Y0152023D01*
X0117697Y0150425D02*
X0108845Y0150425D01*
X0107947Y0148826D02*
X0117119Y0148826D01*
X0117143Y0147228D02*
X0105578Y0147228D01*
X0104050Y0145629D02*
X0103879Y0145629D01*
X0103879Y0144031D02*
X0104050Y0144031D01*
X0099893Y0144031D02*
X0031118Y0144031D01*
X0031143Y0145629D02*
X0100096Y0145629D01*
X0102351Y0147228D02*
X0031143Y0147228D01*
X0031143Y0148826D02*
X0099982Y0148826D01*
X0099084Y0150425D02*
X0031143Y0150425D01*
X0031143Y0152023D02*
X0098793Y0152023D01*
X0098973Y0153622D02*
X0031143Y0153622D01*
X0031143Y0156819D02*
X0101704Y0156819D01*
X0099714Y0155221D02*
X0019143Y0155221D01*
X0019142Y0153622D02*
X0017543Y0153622D01*
X0017543Y0152023D02*
X0019142Y0152023D01*
X0019142Y0150425D02*
X0017543Y0150425D01*
X0017543Y0148826D02*
X0019142Y0148826D01*
X0019142Y0147228D02*
X0017543Y0147228D01*
X0017543Y0145629D02*
X0019142Y0145629D01*
X0019142Y0144031D02*
X0017543Y0144031D01*
X0013300Y0142432D02*
X0099893Y0142432D01*
X0099893Y0140834D02*
X0013300Y0140834D01*
X0014661Y0139235D02*
X0016261Y0139235D01*
X0016261Y0137637D02*
X0014661Y0137637D01*
X0014661Y0136038D02*
X0016261Y0136038D01*
X0016261Y0134440D02*
X0014661Y0134440D01*
X0015461Y0133196D02*
X0015461Y0113119D01*
X0015461Y0109196D01*
X0029500Y0095157D01*
X0030154Y0094504D01*
X0051500Y0094504D01*
X0051316Y0094477D02*
X0013300Y0094477D01*
X0013300Y0092879D02*
X0048035Y0092879D01*
X0047441Y0091280D02*
X0013300Y0091280D01*
X0013300Y0089682D02*
X0046935Y0089682D01*
X0046935Y0088083D02*
X0013300Y0088083D01*
X0013300Y0086485D02*
X0046935Y0086485D01*
X0051500Y0087811D02*
X0052154Y0087811D01*
X0072500Y0108157D01*
X0095500Y0108157D01*
X0097500Y0106157D01*
X0100990Y0108864D02*
X0103708Y0108864D01*
X0103631Y0107265D02*
X0101783Y0107265D01*
X0101881Y0105667D02*
X0103119Y0105667D01*
X0102295Y0104068D02*
X0101377Y0104068D01*
X0100896Y0102470D02*
X0100008Y0102470D01*
X0098018Y0100871D02*
X0069739Y0100871D01*
X0071338Y0102470D02*
X0094992Y0102470D01*
X0093623Y0104068D02*
X0072936Y0104068D01*
X0067082Y0107265D02*
X0038501Y0107265D01*
X0038442Y0107231D02*
X0039186Y0107661D01*
X0039867Y0108183D01*
X0040474Y0108791D01*
X0040997Y0109472D01*
X0041426Y0110215D01*
X0041755Y0111009D01*
X0041977Y0111838D01*
X0042040Y0112319D01*
X0036339Y0112319D01*
X0036339Y0113918D01*
X0042040Y0113918D01*
X0041977Y0114399D01*
X0041755Y0115228D01*
X0041426Y0116022D01*
X0040997Y0116765D01*
X0040474Y0117446D01*
X0039867Y0118054D01*
X0039186Y0118576D01*
X0038442Y0119006D01*
X0037649Y0119334D01*
X0036820Y0119556D01*
X0036339Y0119620D01*
X0036339Y0113919D01*
X0034739Y0113919D01*
X0034739Y0119620D01*
X0034258Y0119556D01*
X0033429Y0119334D01*
X0032636Y0119006D01*
X0031892Y0118576D01*
X0031211Y0118054D01*
X0030604Y0117446D01*
X0030081Y0116765D01*
X0029652Y0116022D01*
X0029323Y0115228D01*
X0029101Y0114399D01*
X0029038Y0113918D01*
X0034739Y0113918D01*
X0034739Y0112319D01*
X0029038Y0112319D01*
X0029101Y0111838D01*
X0029323Y0111009D01*
X0029652Y0110215D01*
X0030081Y0109472D01*
X0030604Y0108791D01*
X0031211Y0108183D01*
X0031892Y0107661D01*
X0032636Y0107231D01*
X0033429Y0106903D01*
X0034258Y0106681D01*
X0034739Y0106617D01*
X0034739Y0112318D01*
X0036339Y0112318D01*
X0036339Y0106617D01*
X0036820Y0106681D01*
X0037649Y0106903D01*
X0038442Y0107231D01*
X0036339Y0107265D02*
X0034739Y0107265D01*
X0034739Y0108864D02*
X0036339Y0108864D01*
X0036339Y0110462D02*
X0034739Y0110462D01*
X0034739Y0112061D02*
X0036339Y0112061D01*
X0035539Y0113119D02*
X0035539Y0133196D01*
X0034739Y0132841D02*
X0016261Y0132841D01*
X0016261Y0131243D02*
X0014661Y0131243D01*
X0014661Y0129644D02*
X0016261Y0129644D01*
X0016261Y0128046D02*
X0014661Y0128046D01*
X0013300Y0126447D02*
X0020206Y0126447D01*
X0020286Y0126641D02*
X0019350Y0124381D01*
X0019350Y0121934D01*
X0020286Y0119674D01*
X0022016Y0117944D01*
X0024277Y0117007D01*
X0026723Y0117007D01*
X0028984Y0117944D01*
X0030714Y0119674D01*
X0031650Y0121934D01*
X0031650Y0124381D01*
X0030714Y0126641D01*
X0028984Y0128371D01*
X0026723Y0129307D01*
X0024277Y0129307D01*
X0022016Y0128371D01*
X0020286Y0126641D01*
X0019508Y0128046D02*
X0021691Y0128046D01*
X0020973Y0129644D02*
X0030026Y0129644D01*
X0029309Y0128046D02*
X0031492Y0128046D01*
X0030794Y0126447D02*
X0068935Y0126447D01*
X0069148Y0124849D02*
X0031456Y0124849D01*
X0031650Y0123250D02*
X0098346Y0123250D01*
X0098793Y0121652D02*
X0031533Y0121652D01*
X0030871Y0120053D02*
X0099238Y0120053D01*
X0100353Y0118455D02*
X0039344Y0118455D01*
X0040927Y0116856D02*
X0104740Y0116856D01*
X0105951Y0115258D02*
X0041743Y0115258D01*
X0036339Y0115258D02*
X0034739Y0115258D01*
X0034739Y0116856D02*
X0036339Y0116856D01*
X0036339Y0118455D02*
X0034739Y0118455D01*
X0031734Y0118455D02*
X0029495Y0118455D01*
X0030151Y0116856D02*
X0020849Y0116856D01*
X0021505Y0118455D02*
X0019266Y0118455D01*
X0020129Y0120053D02*
X0013300Y0120053D01*
X0013300Y0121652D02*
X0019467Y0121652D01*
X0019350Y0123250D02*
X0013300Y0123250D01*
X0013300Y0124849D02*
X0019544Y0124849D01*
X0016261Y0118455D02*
X0014661Y0118455D01*
X0014661Y0116856D02*
X0016261Y0116856D01*
X0016261Y0115258D02*
X0014661Y0115258D01*
X0016261Y0113659D02*
X0034739Y0113659D01*
X0035539Y0113119D02*
X0049500Y0099157D01*
X0057500Y0099157D01*
X0057491Y0097674D02*
X0054184Y0097674D01*
X0054965Y0096076D02*
X0055893Y0096076D01*
X0051684Y0096076D02*
X0051316Y0096076D01*
X0051316Y0094688D02*
X0051316Y0097772D01*
X0049163Y0097772D01*
X0048833Y0097684D01*
X0048536Y0097513D01*
X0048294Y0097271D01*
X0048123Y0096974D01*
X0048035Y0096644D01*
X0048035Y0094688D01*
X0051316Y0094688D01*
X0048035Y0096076D02*
X0013300Y0096076D01*
X0013300Y0097674D02*
X0048816Y0097674D01*
X0051316Y0097674D02*
X0051684Y0097674D01*
X0059090Y0099273D02*
X0013300Y0099273D01*
X0013300Y0100871D02*
X0060688Y0100871D01*
X0062287Y0102470D02*
X0013300Y0102470D01*
X0013300Y0104068D02*
X0063885Y0104068D01*
X0065484Y0105667D02*
X0013300Y0105667D01*
X0014661Y0107265D02*
X0016261Y0107265D01*
X0016261Y0108864D02*
X0014661Y0108864D01*
X0014661Y0110462D02*
X0016261Y0110462D01*
X0016261Y0112061D02*
X0014661Y0112061D01*
X0020452Y0108864D02*
X0030548Y0108864D01*
X0029550Y0110462D02*
X0021450Y0110462D01*
X0021928Y0112061D02*
X0029072Y0112061D01*
X0029335Y0115258D02*
X0021665Y0115258D01*
X0036339Y0113659D02*
X0103806Y0113659D01*
X0103132Y0112061D02*
X0042006Y0112061D01*
X0041528Y0110462D02*
X0070279Y0110462D01*
X0068681Y0108864D02*
X0040530Y0108864D01*
X0032577Y0107265D02*
X0018423Y0107265D01*
X0013300Y0084886D02*
X0032703Y0084886D01*
X0031105Y0083288D02*
X0013300Y0083288D01*
X0013300Y0081689D02*
X0027836Y0081689D01*
X0026559Y0080090D02*
X0013300Y0080090D01*
X0013300Y0078492D02*
X0026119Y0078492D01*
X0026281Y0076893D02*
X0013300Y0076893D01*
X0013300Y0075295D02*
X0027167Y0075295D01*
X0030500Y0078157D02*
X0035500Y0083157D01*
X0087500Y0083157D01*
X0091500Y0079157D01*
X0091500Y0078157D01*
X0097050Y0078492D02*
X0101293Y0078492D01*
X0101293Y0078839D02*
X0101293Y0078129D01*
X0102080Y0076228D01*
X0103535Y0074773D01*
X0105436Y0073986D01*
X0107493Y0073986D01*
X0108300Y0074320D01*
X0108300Y0073229D01*
X0106550Y0073229D01*
X0106550Y0069243D01*
X0106379Y0069243D01*
X0106379Y0069072D01*
X0102393Y0069072D01*
X0102393Y0067357D01*
X0097809Y0067357D01*
X0097371Y0067539D01*
X0097050Y0067539D01*
X0097050Y0070456D01*
X0094349Y0073157D01*
X0097050Y0075859D01*
X0097050Y0080456D01*
X0094349Y0083157D01*
X0097050Y0085859D01*
X0097050Y0089082D01*
X0097300Y0088832D01*
X0097300Y0083521D01*
X0097787Y0082345D01*
X0098687Y0081445D01*
X0098687Y0081445D01*
X0101293Y0078839D01*
X0100042Y0080090D02*
X0097050Y0080090D01*
X0097500Y0081157D02*
X0097500Y0078122D01*
X0106465Y0069157D01*
X0106379Y0069243D02*
X0102393Y0069243D01*
X0102393Y0072100D01*
X0102482Y0072431D01*
X0102653Y0072727D01*
X0102895Y0072969D01*
X0103191Y0073141D01*
X0103522Y0073229D01*
X0106379Y0073229D01*
X0106379Y0069243D01*
X0106379Y0070499D02*
X0106550Y0070499D01*
X0106550Y0072098D02*
X0106379Y0072098D01*
X0108300Y0073696D02*
X0094888Y0073696D01*
X0095408Y0072098D02*
X0102393Y0072098D01*
X0102393Y0070499D02*
X0097007Y0070499D01*
X0097050Y0068901D02*
X0102393Y0068901D01*
X0111500Y0069157D02*
X0114500Y0066157D01*
X0111500Y0069157D02*
X0111500Y0084157D01*
X0115500Y0083657D02*
X0115500Y0075157D01*
X0116500Y0074157D01*
X0126500Y0074157D01*
X0128500Y0072157D01*
X0128500Y0068157D01*
X0128500Y0069157D01*
X0132500Y0076157D02*
X0127500Y0081157D01*
X0127500Y0094157D01*
X0122500Y0099157D01*
X0110500Y0099157D01*
X0106500Y0095157D01*
X0106500Y0089193D01*
X0106465Y0089157D01*
X0100500Y0090157D02*
X0100500Y0084157D01*
X0105500Y0079157D01*
X0106465Y0079157D01*
X0103013Y0075295D02*
X0096486Y0075295D01*
X0097050Y0076893D02*
X0101805Y0076893D01*
X0098443Y0081689D02*
X0095817Y0081689D01*
X0094479Y0083288D02*
X0097397Y0083288D01*
X0097300Y0084886D02*
X0096077Y0084886D01*
X0097050Y0086485D02*
X0097300Y0086485D01*
X0097300Y0088083D02*
X0097050Y0088083D01*
X0100500Y0090157D02*
X0094500Y0096157D01*
X0068500Y0096157D01*
X0062500Y0090157D01*
X0062119Y0078492D02*
X0035360Y0078492D01*
X0034718Y0076893D02*
X0062281Y0076893D01*
X0063167Y0075295D02*
X0033833Y0075295D01*
X0013300Y0073696D02*
X0063300Y0073696D01*
X0063300Y0072098D02*
X0013300Y0072098D01*
X0013300Y0070499D02*
X0063300Y0070499D01*
X0063557Y0068901D02*
X0013300Y0068901D01*
X0013300Y0067302D02*
X0064830Y0067302D01*
X0066428Y0065704D02*
X0013300Y0065704D01*
X0013300Y0064105D02*
X0063252Y0064105D01*
X0062317Y0062507D02*
X0013300Y0062507D01*
X0013300Y0060908D02*
X0062119Y0060908D01*
X0062523Y0059310D02*
X0013300Y0059310D01*
X0013300Y0057711D02*
X0063750Y0057711D01*
X0067019Y0056113D02*
X0013300Y0056113D01*
X0013300Y0054514D02*
X0087294Y0054514D01*
X0088893Y0052916D02*
X0013300Y0052916D01*
X0013300Y0051317D02*
X0103300Y0051317D01*
X0103300Y0049719D02*
X0013300Y0049719D01*
X0013300Y0048120D02*
X0103300Y0048120D01*
X0103300Y0046522D02*
X0013300Y0046522D01*
X0029924Y0025741D02*
X0134558Y0025741D01*
X0132960Y0024143D02*
X0030846Y0024143D01*
X0031515Y0022544D02*
X0131361Y0022544D01*
X0129763Y0020946D02*
X0031944Y0020946D01*
X0094107Y0052916D02*
X0103300Y0052916D01*
X0103300Y0054514D02*
X0095706Y0054514D01*
X0091500Y0058157D02*
X0069500Y0058157D01*
X0066500Y0061157D01*
X0068500Y0068157D02*
X0066500Y0070157D01*
X0066500Y0078157D01*
X0068500Y0068157D02*
X0091500Y0068157D01*
X0106465Y0059157D02*
X0106500Y0059122D01*
X0106500Y0032157D01*
X0156138Y0018000D02*
X0160343Y0018000D01*
X0178500Y0036157D01*
X0206200Y0036157D01*
X0212500Y0029857D01*
X0212500Y0026157D01*
X0214500Y0024157D01*
X0224500Y0024157D01*
X0233500Y0015157D01*
X0241374Y0015157D02*
X0246500Y0020283D01*
X0246500Y0023757D01*
X0252500Y0030157D02*
X0255500Y0027157D01*
X0255500Y0020157D01*
X0250500Y0015157D01*
X0249248Y0015157D01*
X0252248Y0012157D01*
X0269500Y0012157D01*
X0276500Y0019157D01*
X0276500Y0023757D01*
X0280095Y0028757D02*
X0281932Y0027996D01*
X0283100Y0026829D01*
X0283100Y0030394D01*
X0286263Y0033557D01*
X0290737Y0033557D01*
X0293500Y0030794D01*
X0296263Y0033557D01*
X0300737Y0033557D01*
X0303900Y0030394D01*
X0303900Y0025921D01*
X0301137Y0023157D01*
X0303900Y0020394D01*
X0303900Y0015921D01*
X0300937Y0012957D01*
X0320264Y0012957D01*
X0319403Y0016170D01*
X0319403Y0019830D01*
X0320350Y0023365D01*
X0322180Y0026535D01*
X0324768Y0029123D01*
X0327938Y0030953D01*
X0331473Y0031900D01*
X0335133Y0031900D01*
X0338346Y0031039D01*
X0338346Y0039107D01*
X0325367Y0039107D01*
X0325367Y0038955D01*
X0325278Y0038624D01*
X0325107Y0038328D01*
X0324865Y0038086D01*
X0324569Y0037915D01*
X0324238Y0037826D01*
X0321381Y0037826D01*
X0321381Y0039107D01*
X0321209Y0039107D01*
X0321209Y0037826D01*
X0318352Y0037826D01*
X0318022Y0037915D01*
X0317725Y0038086D01*
X0317483Y0038328D01*
X0317312Y0038624D01*
X0317224Y0038955D01*
X0317224Y0039107D01*
X0315737Y0039107D01*
X0315680Y0038968D01*
X0314225Y0037513D01*
X0312324Y0036726D01*
X0310267Y0036726D01*
X0308366Y0037513D01*
X0306911Y0038968D01*
X0306853Y0039107D01*
X0305737Y0039107D01*
X0305680Y0038968D01*
X0304225Y0037513D01*
X0302324Y0036726D01*
X0300267Y0036726D01*
X0298366Y0037513D01*
X0296911Y0038968D01*
X0296853Y0039107D01*
X0295737Y0039107D01*
X0295680Y0038968D01*
X0294225Y0037513D01*
X0292324Y0036726D01*
X0290267Y0036726D01*
X0288366Y0037513D01*
X0286911Y0038968D01*
X0286853Y0039107D01*
X0285737Y0039107D01*
X0285680Y0038968D01*
X0284225Y0037513D01*
X0282324Y0036726D01*
X0280267Y0036726D01*
X0278366Y0037513D01*
X0276911Y0038968D01*
X0276853Y0039107D01*
X0275737Y0039107D01*
X0275680Y0038968D01*
X0274225Y0037513D01*
X0273829Y0037349D01*
X0274982Y0036872D01*
X0276214Y0035639D01*
X0276881Y0034029D01*
X0276881Y0032286D01*
X0276214Y0030676D01*
X0274982Y0029443D01*
X0273371Y0028776D01*
X0271644Y0028776D01*
X0264700Y0021832D01*
X0264700Y0020153D01*
X0265214Y0019639D01*
X0265881Y0018029D01*
X0265881Y0016286D01*
X0265496Y0015357D01*
X0268175Y0015357D01*
X0271964Y0019147D01*
X0271068Y0019519D01*
X0269661Y0020925D01*
X0268900Y0022763D01*
X0268900Y0024752D01*
X0269661Y0026590D01*
X0271068Y0027996D01*
X0272905Y0028757D01*
X0280095Y0028757D01*
X0282589Y0027340D02*
X0283100Y0027340D01*
X0283100Y0028938D02*
X0273762Y0028938D01*
X0276075Y0030537D02*
X0283242Y0030537D01*
X0284841Y0032135D02*
X0276819Y0032135D01*
X0276881Y0033734D02*
X0338346Y0033734D01*
X0338346Y0035332D02*
X0276341Y0035332D01*
X0274839Y0036931D02*
X0279772Y0036931D01*
X0277350Y0038529D02*
X0275241Y0038529D01*
X0282818Y0036931D02*
X0289772Y0036931D01*
X0287350Y0038529D02*
X0285241Y0038529D01*
X0292818Y0036931D02*
X0299772Y0036931D01*
X0297350Y0038529D02*
X0295241Y0038529D01*
X0302818Y0036931D02*
X0309772Y0036931D01*
X0307350Y0038529D02*
X0305241Y0038529D01*
X0311295Y0041898D02*
X0317500Y0048102D01*
X0317500Y0051157D01*
X0317367Y0038529D02*
X0315241Y0038529D01*
X0312818Y0036931D02*
X0338346Y0036931D01*
X0338346Y0038529D02*
X0325223Y0038529D01*
X0321381Y0038529D02*
X0321209Y0038529D01*
X0312800Y0029939D02*
X0310281Y0032457D01*
X0308700Y0032457D01*
X0308700Y0028358D01*
X0308300Y0028358D01*
X0308300Y0032457D01*
X0306719Y0032457D01*
X0304200Y0029939D01*
X0304200Y0028357D01*
X0308300Y0028357D01*
X0308300Y0027957D01*
X0308700Y0027957D01*
X0308700Y0023857D01*
X0310281Y0023857D01*
X0312800Y0026376D01*
X0312800Y0027957D01*
X0308700Y0027957D01*
X0308700Y0028357D01*
X0312800Y0028357D01*
X0312800Y0029939D01*
X0312202Y0030537D02*
X0327217Y0030537D01*
X0324584Y0028938D02*
X0312800Y0028938D01*
X0312800Y0027340D02*
X0322985Y0027340D01*
X0321722Y0025741D02*
X0312165Y0025741D01*
X0310566Y0024143D02*
X0320799Y0024143D01*
X0320130Y0022544D02*
X0301750Y0022544D01*
X0302122Y0024143D02*
X0306434Y0024143D01*
X0306719Y0023857D02*
X0308300Y0023857D01*
X0308300Y0027957D01*
X0304200Y0027957D01*
X0304200Y0026376D01*
X0306719Y0023857D01*
X0306719Y0022457D02*
X0304200Y0019939D01*
X0304200Y0018357D01*
X0308300Y0018357D01*
X0308300Y0017957D01*
X0308700Y0017957D01*
X0308700Y0013857D01*
X0310281Y0013857D01*
X0312800Y0016376D01*
X0312800Y0017957D01*
X0308700Y0017957D01*
X0308700Y0018357D01*
X0312800Y0018357D01*
X0312800Y0019939D01*
X0310281Y0022457D01*
X0308700Y0022457D01*
X0308700Y0018358D01*
X0308300Y0018358D01*
X0308300Y0022457D01*
X0306719Y0022457D01*
X0305207Y0020946D02*
X0303349Y0020946D01*
X0303900Y0019347D02*
X0304200Y0019347D01*
X0304200Y0017957D02*
X0304200Y0016376D01*
X0306719Y0013857D01*
X0308300Y0013857D01*
X0308300Y0017957D01*
X0304200Y0017957D01*
X0304200Y0017749D02*
X0303900Y0017749D01*
X0303900Y0016150D02*
X0304426Y0016150D01*
X0306025Y0014552D02*
X0302531Y0014552D01*
X0308300Y0014552D02*
X0308700Y0014552D01*
X0308700Y0016150D02*
X0308300Y0016150D01*
X0308300Y0017749D02*
X0308700Y0017749D01*
X0308700Y0019347D02*
X0308300Y0019347D01*
X0308300Y0020946D02*
X0308700Y0020946D01*
X0311793Y0020946D02*
X0319702Y0020946D01*
X0319403Y0019347D02*
X0312800Y0019347D01*
X0312800Y0017749D02*
X0319403Y0017749D01*
X0319409Y0016150D02*
X0312574Y0016150D01*
X0310975Y0014552D02*
X0319837Y0014552D01*
X0308700Y0024143D02*
X0308300Y0024143D01*
X0308300Y0025741D02*
X0308700Y0025741D01*
X0308700Y0027340D02*
X0308300Y0027340D01*
X0308300Y0028938D02*
X0308700Y0028938D01*
X0308700Y0030537D02*
X0308300Y0030537D01*
X0308300Y0032135D02*
X0308700Y0032135D01*
X0310603Y0032135D02*
X0338346Y0032135D01*
X0306397Y0032135D02*
X0302159Y0032135D01*
X0303758Y0030537D02*
X0304798Y0030537D01*
X0304200Y0028938D02*
X0303900Y0028938D01*
X0303900Y0027340D02*
X0304200Y0027340D01*
X0303720Y0025741D02*
X0304835Y0025741D01*
X0294841Y0032135D02*
X0292159Y0032135D01*
X0272500Y0033157D02*
X0271500Y0033157D01*
X0261500Y0023157D01*
X0261500Y0017157D01*
X0265335Y0019347D02*
X0271482Y0019347D01*
X0270566Y0017749D02*
X0265881Y0017749D01*
X0265825Y0016150D02*
X0268967Y0016150D01*
X0269653Y0020946D02*
X0264700Y0020946D01*
X0265412Y0022544D02*
X0268991Y0022544D01*
X0268900Y0024143D02*
X0267011Y0024143D01*
X0268609Y0025741D02*
X0269310Y0025741D01*
X0270208Y0027340D02*
X0270411Y0027340D01*
X0252500Y0030157D02*
X0242800Y0030157D01*
X0242500Y0029857D01*
X0241200Y0031157D01*
X0219500Y0031157D01*
X0209300Y0025986D02*
X0209300Y0025521D01*
X0209787Y0024345D01*
X0210687Y0023445D01*
X0212687Y0021445D01*
X0213863Y0020957D01*
X0223175Y0020957D01*
X0223861Y0020271D01*
X0222567Y0019735D01*
X0221790Y0018958D01*
X0221550Y0019198D01*
X0221254Y0019369D01*
X0220923Y0019457D01*
X0217952Y0019457D01*
X0217952Y0015358D01*
X0217552Y0015358D01*
X0217552Y0019457D01*
X0214581Y0019457D01*
X0214250Y0019369D01*
X0213954Y0019198D01*
X0213712Y0018956D01*
X0213541Y0018659D01*
X0213452Y0018329D01*
X0213452Y0015357D01*
X0217552Y0015357D01*
X0217552Y0014957D01*
X0213452Y0014957D01*
X0213452Y0012957D01*
X0208547Y0012957D01*
X0209408Y0016170D01*
X0209408Y0019830D01*
X0208461Y0023365D01*
X0206631Y0026535D01*
X0204043Y0029123D01*
X0200873Y0030953D01*
X0197338Y0031900D01*
X0193678Y0031900D01*
X0190143Y0030953D01*
X0186973Y0029123D01*
X0184385Y0026535D01*
X0182555Y0023365D01*
X0181608Y0019830D01*
X0181608Y0016170D01*
X0182469Y0012957D01*
X0169177Y0012957D01*
X0170038Y0016170D01*
X0170038Y0019830D01*
X0169332Y0022464D01*
X0179825Y0032957D01*
X0204875Y0032957D01*
X0207500Y0030332D01*
X0207500Y0027786D01*
X0209300Y0025986D01*
X0209300Y0025741D02*
X0207089Y0025741D01*
X0207947Y0027340D02*
X0205826Y0027340D01*
X0204227Y0028938D02*
X0207500Y0028938D01*
X0207295Y0030537D02*
X0201594Y0030537D01*
X0205697Y0032135D02*
X0179003Y0032135D01*
X0177405Y0030537D02*
X0189422Y0030537D01*
X0186788Y0028938D02*
X0175806Y0028938D01*
X0174208Y0027340D02*
X0185190Y0027340D01*
X0183927Y0025741D02*
X0172609Y0025741D01*
X0171011Y0024143D02*
X0183004Y0024143D01*
X0182335Y0022544D02*
X0169412Y0022544D01*
X0169739Y0020946D02*
X0181907Y0020946D01*
X0181608Y0019347D02*
X0170038Y0019347D01*
X0170038Y0017749D02*
X0181608Y0017749D01*
X0181613Y0016150D02*
X0170032Y0016150D01*
X0169604Y0014552D02*
X0182042Y0014552D01*
X0208974Y0014552D02*
X0213452Y0014552D01*
X0213452Y0016150D02*
X0209402Y0016150D01*
X0209408Y0017749D02*
X0213452Y0017749D01*
X0214212Y0019347D02*
X0209408Y0019347D01*
X0209109Y0020946D02*
X0223186Y0020946D01*
X0222179Y0019347D02*
X0221292Y0019347D01*
X0217952Y0019347D02*
X0217552Y0019347D01*
X0217552Y0017749D02*
X0217952Y0017749D01*
X0217952Y0016150D02*
X0217552Y0016150D01*
X0211588Y0022544D02*
X0208681Y0022544D01*
X0208012Y0024143D02*
X0209989Y0024143D01*
X0253500Y0055157D02*
X0253500Y0058157D01*
X0251500Y0060157D01*
X0181500Y0060157D01*
X0184500Y0064157D02*
X0184500Y0066157D01*
X0141500Y0109157D01*
X0132500Y0109157D01*
X0139500Y0105157D02*
X0113500Y0105157D01*
X0107500Y0111157D01*
X0103119Y0110462D02*
X0098556Y0110462D01*
X0107500Y0105157D02*
X0100500Y0097157D01*
X0096634Y0099273D02*
X0095341Y0099273D01*
X0115500Y0083657D02*
X0121000Y0089157D01*
X0132500Y0082157D02*
X0156500Y0082157D01*
X0165500Y0073157D01*
X0156500Y0076157D02*
X0132500Y0076157D01*
X0139500Y0105157D02*
X0176500Y0067157D01*
X0191500Y0064157D02*
X0191500Y0079157D01*
X0195304Y0076893D02*
X0199040Y0076893D01*
X0198229Y0075295D02*
X0194700Y0075295D01*
X0194700Y0073696D02*
X0198119Y0073696D01*
X0198611Y0072098D02*
X0194700Y0072098D01*
X0194700Y0070499D02*
X0199962Y0070499D01*
X0191500Y0088157D02*
X0191500Y0104157D01*
X0178500Y0117157D01*
X0136500Y0117157D01*
X0133500Y0121157D02*
X0130500Y0124157D01*
X0130500Y0131157D01*
X0131500Y0132157D01*
X0127500Y0136157D01*
X0127500Y0139157D01*
X0128500Y0140157D01*
X0134984Y0140157D01*
X0135079Y0140252D01*
X0123594Y0140252D01*
X0123500Y0140157D01*
X0121531Y0144189D02*
X0118500Y0141157D01*
X0118500Y0121157D01*
X0115300Y0124849D02*
X0114004Y0124849D01*
X0113700Y0126447D02*
X0115300Y0126447D01*
X0115300Y0128046D02*
X0113700Y0128046D01*
X0113700Y0129644D02*
X0115300Y0129644D01*
X0115300Y0131243D02*
X0113700Y0131243D01*
X0113700Y0132841D02*
X0115300Y0132841D01*
X0115300Y0134440D02*
X0113700Y0134440D01*
X0113700Y0136038D02*
X0115300Y0136038D01*
X0114500Y0137157D02*
X0114500Y0139157D01*
X0115500Y0140157D01*
X0115500Y0151157D01*
X0121500Y0148157D02*
X0121531Y0148126D01*
X0135079Y0148126D01*
X0135079Y0144189D02*
X0121531Y0144189D01*
X0117832Y0145629D02*
X0113224Y0145629D01*
X0114466Y0144031D02*
X0116848Y0144031D01*
X0115564Y0142432D02*
X0114881Y0142432D01*
X0114694Y0140834D02*
X0115300Y0140834D01*
X0115300Y0139235D02*
X0113774Y0139235D01*
X0113700Y0137637D02*
X0115300Y0137637D01*
X0110500Y0142157D02*
X0110500Y0122157D01*
X0098793Y0131243D02*
X0077596Y0131243D01*
X0076965Y0132841D02*
X0098793Y0132841D01*
X0099893Y0139235D02*
X0038076Y0139235D01*
X0036339Y0139235D02*
X0034739Y0139235D01*
X0034739Y0137637D02*
X0036339Y0137637D01*
X0036339Y0136038D02*
X0034739Y0136038D01*
X0034739Y0134440D02*
X0036339Y0134440D01*
X0036339Y0131243D02*
X0034739Y0131243D01*
X0034739Y0129644D02*
X0036339Y0129644D01*
X0036339Y0128046D02*
X0034739Y0128046D01*
X0029281Y0131243D02*
X0021719Y0131243D01*
X0021904Y0134440D02*
X0029096Y0134440D01*
X0029626Y0136038D02*
X0021374Y0136038D01*
X0020284Y0137637D02*
X0030716Y0137637D01*
X0033002Y0139235D02*
X0017998Y0139235D01*
X0031143Y0158418D02*
X0118539Y0158418D01*
X0118013Y0160016D02*
X0031143Y0160016D01*
X0127500Y0152157D02*
X0134984Y0152157D01*
X0135079Y0152063D01*
X0135079Y0156000D02*
X0130728Y0156000D01*
X0135079Y0156000D01*
X0135079Y0156000D01*
X0135079Y0156819D02*
X0135079Y0156819D01*
X0135079Y0158418D02*
X0135079Y0158418D01*
X0142500Y0139157D02*
X0142500Y0128157D01*
X0141500Y0127157D01*
X0135500Y0127157D02*
X0135500Y0135894D01*
X0135079Y0136315D01*
X0133500Y0121157D02*
X0182500Y0121157D01*
X0188500Y0116157D01*
X0191500Y0116157D01*
X0201035Y0112157D02*
X0272500Y0112157D01*
X0276500Y0116157D01*
X0276500Y0121157D01*
X0286500Y0130157D01*
X0286500Y0135157D01*
X0296500Y0145157D01*
X0276500Y0145157D02*
X0276500Y0144157D01*
X0266500Y0134157D01*
X0266500Y0129157D01*
X0264500Y0126157D01*
X0230500Y0126157D01*
X0227500Y0107157D02*
X0211500Y0107157D01*
X0217500Y0099157D02*
X0288500Y0099157D01*
X0292500Y0103157D01*
X0291500Y0104157D01*
X0291500Y0119157D01*
X0281500Y0119157D02*
X0281500Y0112157D01*
X0276500Y0107157D01*
X0292500Y0103157D02*
X0302500Y0093157D01*
X0309500Y0093157D01*
X0309500Y0087157D01*
X0291500Y0086157D02*
X0291500Y0074157D01*
X0286500Y0069157D02*
X0286500Y0087157D01*
X0281500Y0092157D01*
X0201500Y0092157D01*
X0244500Y0068157D02*
X0261500Y0068157D01*
X0303500Y0099157D02*
X0321500Y0117157D01*
X0321500Y0119157D01*
X0315950Y0119057D02*
X0315950Y0117314D01*
X0313343Y0114707D01*
X0311600Y0114707D01*
X0311600Y0119057D01*
X0311400Y0119057D01*
X0311400Y0114707D01*
X0309657Y0114707D01*
X0307050Y0117314D01*
X0307050Y0119057D01*
X0311400Y0119057D01*
X0311400Y0119257D01*
X0307050Y0119257D01*
X0307050Y0121001D01*
X0309657Y0123607D01*
X0311400Y0123607D01*
X0311400Y0119258D01*
X0311600Y0119258D01*
X0311600Y0123607D01*
X0313343Y0123607D01*
X0315950Y0121001D01*
X0315950Y0119257D01*
X0311600Y0119257D01*
X0311600Y0119057D01*
X0315950Y0119057D01*
X0315950Y0118455D02*
X0315950Y0118455D01*
X0315950Y0116859D02*
X0316313Y0116496D01*
X0314025Y0114207D01*
X0304700Y0114207D01*
X0304700Y0114509D01*
X0307050Y0116859D01*
X0307050Y0121456D01*
X0304399Y0124107D01*
X0318601Y0124107D01*
X0315950Y0121456D01*
X0315950Y0116859D01*
X0315952Y0116856D02*
X0315492Y0116856D01*
X0315075Y0115258D02*
X0313893Y0115258D01*
X0311600Y0115258D02*
X0311400Y0115258D01*
X0311400Y0116856D02*
X0311600Y0116856D01*
X0311600Y0118455D02*
X0311400Y0118455D01*
X0311400Y0120053D02*
X0311600Y0120053D01*
X0311600Y0121652D02*
X0311400Y0121652D01*
X0311400Y0123250D02*
X0311600Y0123250D01*
X0313700Y0123250D02*
X0317744Y0123250D01*
X0316145Y0121652D02*
X0315299Y0121652D01*
X0315950Y0120053D02*
X0315950Y0120053D01*
X0309300Y0123250D02*
X0305256Y0123250D01*
X0306855Y0121652D02*
X0307701Y0121652D01*
X0307050Y0120053D02*
X0307050Y0120053D01*
X0307050Y0118455D02*
X0307050Y0118455D01*
X0307048Y0116856D02*
X0307508Y0116856D01*
X0309106Y0115258D02*
X0305449Y0115258D01*
X0301500Y0119157D02*
X0301500Y0105157D01*
X0320500Y0110157D02*
X0327500Y0103157D01*
X0327500Y0098157D01*
X0259833Y0160016D02*
X0208767Y0160016D01*
D27*
X0210500Y0143157D03*
X0219500Y0142157D03*
X0196500Y0125157D03*
X0206500Y0122157D03*
X0217500Y0123157D03*
X0191500Y0116157D03*
X0211500Y0107157D03*
X0217500Y0099157D03*
X0227500Y0107157D03*
X0201500Y0092157D03*
X0191500Y0088157D03*
X0191500Y0079157D03*
X0202500Y0074157D03*
X0191500Y0064157D03*
X0184500Y0064157D03*
X0181500Y0060157D03*
X0176500Y0067157D03*
X0165500Y0073157D03*
X0156500Y0076157D03*
X0150500Y0070157D03*
X0146500Y0066157D03*
X0142500Y0057157D03*
X0142500Y0050157D03*
X0151500Y0049157D03*
X0142500Y0041157D03*
X0131500Y0044157D03*
X0121500Y0040157D03*
X0106500Y0032157D03*
X0098500Y0045157D03*
X0098500Y0055157D03*
X0096500Y0063157D03*
X0114500Y0066157D03*
X0128500Y0068157D03*
X0128500Y0060157D03*
X0114500Y0056157D03*
X0121500Y0048157D03*
X0146000Y0032657D03*
X0219500Y0031157D03*
X0236500Y0049157D03*
X0236500Y0054157D03*
X0253500Y0055157D03*
X0248500Y0064157D03*
X0244500Y0068157D03*
X0233500Y0070157D03*
X0238500Y0077157D03*
X0255500Y0084157D03*
X0259500Y0078157D03*
X0269500Y0088157D03*
X0275500Y0086157D03*
X0291500Y0086157D03*
X0309500Y0087157D03*
X0329500Y0086157D03*
X0334500Y0082157D03*
X0322500Y0073157D03*
X0304500Y0069157D03*
X0291500Y0074157D03*
X0286500Y0069157D03*
X0281500Y0057157D03*
X0275500Y0056157D03*
X0261500Y0068157D03*
X0317500Y0051157D03*
X0272500Y0033157D03*
X0261500Y0017157D03*
X0132500Y0082157D03*
X0111500Y0084157D03*
X0097500Y0081157D03*
X0100500Y0097157D03*
X0107500Y0105157D03*
X0107500Y0111157D03*
X0097500Y0106157D03*
X0118500Y0121157D03*
X0110500Y0122157D03*
X0131500Y0132157D03*
X0135500Y0127157D03*
X0141500Y0127157D03*
X0146500Y0127157D03*
X0136500Y0117157D03*
X0132500Y0109157D03*
X0114500Y0137157D03*
X0110500Y0142157D03*
X0121500Y0148157D03*
X0127500Y0152157D03*
X0141500Y0142157D03*
X0123500Y0140157D03*
X0171500Y0144157D03*
X0179500Y0144157D03*
X0276500Y0107157D03*
X0301500Y0105157D03*
X0303500Y0099157D03*
X0320500Y0110157D03*
X0327500Y0098157D03*
X0066500Y0078157D03*
X0062500Y0090157D03*
X0057500Y0099157D03*
X0029500Y0095157D03*
X0030500Y0078157D03*
X0066500Y0061157D03*
M02*
