G75*
%MOIN*%
%OFA0B0*%
%FSLAX25Y25*%
%IPPOS*%
%LPD*%
%AMOC8*
5,1,8,0,0,1.08239X$1,22.5*
%
%ADD10C,0.00000*%
%ADD11C,0.01000*%
%ADD12C,0.00600*%
%ADD13C,0.00300*%
%ADD14C,0.00800*%
%ADD15C,0.00400*%
%ADD16C,0.00500*%
%ADD17C,0.00200*%
%ADD18R,0.02000X0.08000*%
%ADD19R,0.02500X0.02000*%
D10*
X0008157Y0008157D02*
X0008157Y0165638D01*
X0342803Y0165638D01*
X0342803Y0008157D01*
X0008157Y0008157D01*
X0149299Y0018000D02*
X0149301Y0018161D01*
X0149307Y0018321D01*
X0149317Y0018482D01*
X0149331Y0018642D01*
X0149349Y0018801D01*
X0149370Y0018961D01*
X0149396Y0019119D01*
X0149426Y0019277D01*
X0149459Y0019434D01*
X0149497Y0019591D01*
X0149538Y0019746D01*
X0149583Y0019900D01*
X0149632Y0020053D01*
X0149685Y0020205D01*
X0149741Y0020355D01*
X0149801Y0020504D01*
X0149865Y0020652D01*
X0149932Y0020798D01*
X0150003Y0020942D01*
X0150078Y0021084D01*
X0150156Y0021225D01*
X0150237Y0021363D01*
X0150322Y0021500D01*
X0150411Y0021634D01*
X0150502Y0021766D01*
X0150597Y0021896D01*
X0150695Y0022023D01*
X0150796Y0022148D01*
X0150900Y0022271D01*
X0151007Y0022390D01*
X0151117Y0022507D01*
X0151230Y0022622D01*
X0151346Y0022733D01*
X0151464Y0022842D01*
X0151585Y0022947D01*
X0151709Y0023050D01*
X0151835Y0023150D01*
X0151964Y0023246D01*
X0152095Y0023339D01*
X0152228Y0023429D01*
X0152363Y0023516D01*
X0152501Y0023599D01*
X0152640Y0023678D01*
X0152782Y0023755D01*
X0152925Y0023828D01*
X0153070Y0023897D01*
X0153217Y0023962D01*
X0153365Y0024024D01*
X0153515Y0024083D01*
X0153666Y0024137D01*
X0153818Y0024188D01*
X0153972Y0024235D01*
X0154127Y0024278D01*
X0154282Y0024317D01*
X0154439Y0024353D01*
X0154597Y0024385D01*
X0154755Y0024412D01*
X0154914Y0024436D01*
X0155073Y0024456D01*
X0155233Y0024472D01*
X0155394Y0024484D01*
X0155554Y0024492D01*
X0155715Y0024496D01*
X0155875Y0024496D01*
X0156036Y0024492D01*
X0156196Y0024484D01*
X0156357Y0024472D01*
X0156517Y0024456D01*
X0156676Y0024436D01*
X0156835Y0024412D01*
X0156993Y0024385D01*
X0157151Y0024353D01*
X0157308Y0024317D01*
X0157463Y0024278D01*
X0157618Y0024235D01*
X0157772Y0024188D01*
X0157924Y0024137D01*
X0158075Y0024083D01*
X0158225Y0024024D01*
X0158373Y0023962D01*
X0158520Y0023897D01*
X0158665Y0023828D01*
X0158808Y0023755D01*
X0158950Y0023678D01*
X0159089Y0023599D01*
X0159227Y0023516D01*
X0159362Y0023429D01*
X0159495Y0023339D01*
X0159626Y0023246D01*
X0159755Y0023150D01*
X0159881Y0023050D01*
X0160005Y0022947D01*
X0160126Y0022842D01*
X0160244Y0022733D01*
X0160360Y0022622D01*
X0160473Y0022507D01*
X0160583Y0022390D01*
X0160690Y0022271D01*
X0160794Y0022148D01*
X0160895Y0022023D01*
X0160993Y0021896D01*
X0161088Y0021766D01*
X0161179Y0021634D01*
X0161268Y0021500D01*
X0161353Y0021363D01*
X0161434Y0021225D01*
X0161512Y0021084D01*
X0161587Y0020942D01*
X0161658Y0020798D01*
X0161725Y0020652D01*
X0161789Y0020504D01*
X0161849Y0020355D01*
X0161905Y0020205D01*
X0161958Y0020053D01*
X0162007Y0019900D01*
X0162052Y0019746D01*
X0162093Y0019591D01*
X0162131Y0019434D01*
X0162164Y0019277D01*
X0162194Y0019119D01*
X0162220Y0018961D01*
X0162241Y0018801D01*
X0162259Y0018642D01*
X0162273Y0018482D01*
X0162283Y0018321D01*
X0162289Y0018161D01*
X0162291Y0018000D01*
X0162289Y0017839D01*
X0162283Y0017679D01*
X0162273Y0017518D01*
X0162259Y0017358D01*
X0162241Y0017199D01*
X0162220Y0017039D01*
X0162194Y0016881D01*
X0162164Y0016723D01*
X0162131Y0016566D01*
X0162093Y0016409D01*
X0162052Y0016254D01*
X0162007Y0016100D01*
X0161958Y0015947D01*
X0161905Y0015795D01*
X0161849Y0015645D01*
X0161789Y0015496D01*
X0161725Y0015348D01*
X0161658Y0015202D01*
X0161587Y0015058D01*
X0161512Y0014916D01*
X0161434Y0014775D01*
X0161353Y0014637D01*
X0161268Y0014500D01*
X0161179Y0014366D01*
X0161088Y0014234D01*
X0160993Y0014104D01*
X0160895Y0013977D01*
X0160794Y0013852D01*
X0160690Y0013729D01*
X0160583Y0013610D01*
X0160473Y0013493D01*
X0160360Y0013378D01*
X0160244Y0013267D01*
X0160126Y0013158D01*
X0160005Y0013053D01*
X0159881Y0012950D01*
X0159755Y0012850D01*
X0159626Y0012754D01*
X0159495Y0012661D01*
X0159362Y0012571D01*
X0159227Y0012484D01*
X0159089Y0012401D01*
X0158950Y0012322D01*
X0158808Y0012245D01*
X0158665Y0012172D01*
X0158520Y0012103D01*
X0158373Y0012038D01*
X0158225Y0011976D01*
X0158075Y0011917D01*
X0157924Y0011863D01*
X0157772Y0011812D01*
X0157618Y0011765D01*
X0157463Y0011722D01*
X0157308Y0011683D01*
X0157151Y0011647D01*
X0156993Y0011615D01*
X0156835Y0011588D01*
X0156676Y0011564D01*
X0156517Y0011544D01*
X0156357Y0011528D01*
X0156196Y0011516D01*
X0156036Y0011508D01*
X0155875Y0011504D01*
X0155715Y0011504D01*
X0155554Y0011508D01*
X0155394Y0011516D01*
X0155233Y0011528D01*
X0155073Y0011544D01*
X0154914Y0011564D01*
X0154755Y0011588D01*
X0154597Y0011615D01*
X0154439Y0011647D01*
X0154282Y0011683D01*
X0154127Y0011722D01*
X0153972Y0011765D01*
X0153818Y0011812D01*
X0153666Y0011863D01*
X0153515Y0011917D01*
X0153365Y0011976D01*
X0153217Y0012038D01*
X0153070Y0012103D01*
X0152925Y0012172D01*
X0152782Y0012245D01*
X0152640Y0012322D01*
X0152501Y0012401D01*
X0152363Y0012484D01*
X0152228Y0012571D01*
X0152095Y0012661D01*
X0151964Y0012754D01*
X0151835Y0012850D01*
X0151709Y0012950D01*
X0151585Y0013053D01*
X0151464Y0013158D01*
X0151346Y0013267D01*
X0151230Y0013378D01*
X0151117Y0013493D01*
X0151007Y0013610D01*
X0150900Y0013729D01*
X0150796Y0013852D01*
X0150695Y0013977D01*
X0150597Y0014104D01*
X0150502Y0014234D01*
X0150411Y0014366D01*
X0150322Y0014500D01*
X0150237Y0014637D01*
X0150156Y0014775D01*
X0150078Y0014916D01*
X0150003Y0015058D01*
X0149932Y0015202D01*
X0149865Y0015348D01*
X0149801Y0015496D01*
X0149741Y0015645D01*
X0149685Y0015795D01*
X0149632Y0015947D01*
X0149583Y0016100D01*
X0149538Y0016254D01*
X0149497Y0016409D01*
X0149459Y0016566D01*
X0149426Y0016723D01*
X0149396Y0016881D01*
X0149370Y0017039D01*
X0149349Y0017199D01*
X0149331Y0017358D01*
X0149317Y0017518D01*
X0149307Y0017679D01*
X0149301Y0017839D01*
X0149299Y0018000D01*
X0188669Y0018000D02*
X0188671Y0018161D01*
X0188677Y0018321D01*
X0188687Y0018482D01*
X0188701Y0018642D01*
X0188719Y0018801D01*
X0188740Y0018961D01*
X0188766Y0019119D01*
X0188796Y0019277D01*
X0188829Y0019434D01*
X0188867Y0019591D01*
X0188908Y0019746D01*
X0188953Y0019900D01*
X0189002Y0020053D01*
X0189055Y0020205D01*
X0189111Y0020355D01*
X0189171Y0020504D01*
X0189235Y0020652D01*
X0189302Y0020798D01*
X0189373Y0020942D01*
X0189448Y0021084D01*
X0189526Y0021225D01*
X0189607Y0021363D01*
X0189692Y0021500D01*
X0189781Y0021634D01*
X0189872Y0021766D01*
X0189967Y0021896D01*
X0190065Y0022023D01*
X0190166Y0022148D01*
X0190270Y0022271D01*
X0190377Y0022390D01*
X0190487Y0022507D01*
X0190600Y0022622D01*
X0190716Y0022733D01*
X0190834Y0022842D01*
X0190955Y0022947D01*
X0191079Y0023050D01*
X0191205Y0023150D01*
X0191334Y0023246D01*
X0191465Y0023339D01*
X0191598Y0023429D01*
X0191733Y0023516D01*
X0191871Y0023599D01*
X0192010Y0023678D01*
X0192152Y0023755D01*
X0192295Y0023828D01*
X0192440Y0023897D01*
X0192587Y0023962D01*
X0192735Y0024024D01*
X0192885Y0024083D01*
X0193036Y0024137D01*
X0193188Y0024188D01*
X0193342Y0024235D01*
X0193497Y0024278D01*
X0193652Y0024317D01*
X0193809Y0024353D01*
X0193967Y0024385D01*
X0194125Y0024412D01*
X0194284Y0024436D01*
X0194443Y0024456D01*
X0194603Y0024472D01*
X0194764Y0024484D01*
X0194924Y0024492D01*
X0195085Y0024496D01*
X0195245Y0024496D01*
X0195406Y0024492D01*
X0195566Y0024484D01*
X0195727Y0024472D01*
X0195887Y0024456D01*
X0196046Y0024436D01*
X0196205Y0024412D01*
X0196363Y0024385D01*
X0196521Y0024353D01*
X0196678Y0024317D01*
X0196833Y0024278D01*
X0196988Y0024235D01*
X0197142Y0024188D01*
X0197294Y0024137D01*
X0197445Y0024083D01*
X0197595Y0024024D01*
X0197743Y0023962D01*
X0197890Y0023897D01*
X0198035Y0023828D01*
X0198178Y0023755D01*
X0198320Y0023678D01*
X0198459Y0023599D01*
X0198597Y0023516D01*
X0198732Y0023429D01*
X0198865Y0023339D01*
X0198996Y0023246D01*
X0199125Y0023150D01*
X0199251Y0023050D01*
X0199375Y0022947D01*
X0199496Y0022842D01*
X0199614Y0022733D01*
X0199730Y0022622D01*
X0199843Y0022507D01*
X0199953Y0022390D01*
X0200060Y0022271D01*
X0200164Y0022148D01*
X0200265Y0022023D01*
X0200363Y0021896D01*
X0200458Y0021766D01*
X0200549Y0021634D01*
X0200638Y0021500D01*
X0200723Y0021363D01*
X0200804Y0021225D01*
X0200882Y0021084D01*
X0200957Y0020942D01*
X0201028Y0020798D01*
X0201095Y0020652D01*
X0201159Y0020504D01*
X0201219Y0020355D01*
X0201275Y0020205D01*
X0201328Y0020053D01*
X0201377Y0019900D01*
X0201422Y0019746D01*
X0201463Y0019591D01*
X0201501Y0019434D01*
X0201534Y0019277D01*
X0201564Y0019119D01*
X0201590Y0018961D01*
X0201611Y0018801D01*
X0201629Y0018642D01*
X0201643Y0018482D01*
X0201653Y0018321D01*
X0201659Y0018161D01*
X0201661Y0018000D01*
X0201659Y0017839D01*
X0201653Y0017679D01*
X0201643Y0017518D01*
X0201629Y0017358D01*
X0201611Y0017199D01*
X0201590Y0017039D01*
X0201564Y0016881D01*
X0201534Y0016723D01*
X0201501Y0016566D01*
X0201463Y0016409D01*
X0201422Y0016254D01*
X0201377Y0016100D01*
X0201328Y0015947D01*
X0201275Y0015795D01*
X0201219Y0015645D01*
X0201159Y0015496D01*
X0201095Y0015348D01*
X0201028Y0015202D01*
X0200957Y0015058D01*
X0200882Y0014916D01*
X0200804Y0014775D01*
X0200723Y0014637D01*
X0200638Y0014500D01*
X0200549Y0014366D01*
X0200458Y0014234D01*
X0200363Y0014104D01*
X0200265Y0013977D01*
X0200164Y0013852D01*
X0200060Y0013729D01*
X0199953Y0013610D01*
X0199843Y0013493D01*
X0199730Y0013378D01*
X0199614Y0013267D01*
X0199496Y0013158D01*
X0199375Y0013053D01*
X0199251Y0012950D01*
X0199125Y0012850D01*
X0198996Y0012754D01*
X0198865Y0012661D01*
X0198732Y0012571D01*
X0198597Y0012484D01*
X0198459Y0012401D01*
X0198320Y0012322D01*
X0198178Y0012245D01*
X0198035Y0012172D01*
X0197890Y0012103D01*
X0197743Y0012038D01*
X0197595Y0011976D01*
X0197445Y0011917D01*
X0197294Y0011863D01*
X0197142Y0011812D01*
X0196988Y0011765D01*
X0196833Y0011722D01*
X0196678Y0011683D01*
X0196521Y0011647D01*
X0196363Y0011615D01*
X0196205Y0011588D01*
X0196046Y0011564D01*
X0195887Y0011544D01*
X0195727Y0011528D01*
X0195566Y0011516D01*
X0195406Y0011508D01*
X0195245Y0011504D01*
X0195085Y0011504D01*
X0194924Y0011508D01*
X0194764Y0011516D01*
X0194603Y0011528D01*
X0194443Y0011544D01*
X0194284Y0011564D01*
X0194125Y0011588D01*
X0193967Y0011615D01*
X0193809Y0011647D01*
X0193652Y0011683D01*
X0193497Y0011722D01*
X0193342Y0011765D01*
X0193188Y0011812D01*
X0193036Y0011863D01*
X0192885Y0011917D01*
X0192735Y0011976D01*
X0192587Y0012038D01*
X0192440Y0012103D01*
X0192295Y0012172D01*
X0192152Y0012245D01*
X0192010Y0012322D01*
X0191871Y0012401D01*
X0191733Y0012484D01*
X0191598Y0012571D01*
X0191465Y0012661D01*
X0191334Y0012754D01*
X0191205Y0012850D01*
X0191079Y0012950D01*
X0190955Y0013053D01*
X0190834Y0013158D01*
X0190716Y0013267D01*
X0190600Y0013378D01*
X0190487Y0013493D01*
X0190377Y0013610D01*
X0190270Y0013729D01*
X0190166Y0013852D01*
X0190065Y0013977D01*
X0189967Y0014104D01*
X0189872Y0014234D01*
X0189781Y0014366D01*
X0189692Y0014500D01*
X0189607Y0014637D01*
X0189526Y0014775D01*
X0189448Y0014916D01*
X0189373Y0015058D01*
X0189302Y0015202D01*
X0189235Y0015348D01*
X0189171Y0015496D01*
X0189111Y0015645D01*
X0189055Y0015795D01*
X0189002Y0015947D01*
X0188953Y0016100D01*
X0188908Y0016254D01*
X0188867Y0016409D01*
X0188829Y0016566D01*
X0188796Y0016723D01*
X0188766Y0016881D01*
X0188740Y0017039D01*
X0188719Y0017199D01*
X0188701Y0017358D01*
X0188687Y0017518D01*
X0188677Y0017679D01*
X0188671Y0017839D01*
X0188669Y0018000D01*
D11*
X0182657Y0034157D02*
X0181157Y0034157D01*
X0182657Y0034157D02*
X0182657Y0036557D01*
X0185957Y0037157D02*
X0185957Y0041157D01*
X0190657Y0035157D02*
X0191657Y0035157D01*
X0195957Y0035657D02*
X0195957Y0041157D01*
X0199157Y0035157D02*
X0201657Y0035157D01*
X0215157Y0035157D02*
X0215957Y0035157D01*
X0216657Y0035157D01*
X0215957Y0035157D02*
X0215957Y0041157D01*
X0225957Y0041157D02*
X0225957Y0035157D01*
X0226657Y0035157D01*
X0225957Y0035157D02*
X0224157Y0035157D01*
X0236957Y0035157D02*
X0237957Y0035157D01*
X0244357Y0035157D02*
X0246357Y0035157D01*
X0254957Y0035157D02*
X0255957Y0035157D01*
X0263157Y0035157D01*
X0255957Y0035157D02*
X0255957Y0041157D01*
X0272157Y0035157D02*
X0275957Y0035157D01*
X0275957Y0041157D01*
X0285957Y0041157D02*
X0285957Y0035157D01*
X0295957Y0035157D02*
X0295957Y0041157D01*
X0170657Y0034157D02*
X0169657Y0034157D01*
X0169657Y0036557D01*
X0165957Y0037157D02*
X0165957Y0041157D01*
X0162157Y0035157D02*
X0159657Y0035157D01*
X0155957Y0035657D02*
X0155957Y0041157D01*
X0033157Y0036157D02*
X0008157Y0036157D01*
X0033157Y0036157D02*
X0033157Y0138157D01*
X0008157Y0138157D01*
X0166157Y0138157D02*
X0166157Y0133157D01*
X0176157Y0133157D02*
X0176157Y0138157D01*
X0182533Y0138157D01*
X0186470Y0138157D02*
X0192845Y0138157D01*
X0196782Y0138157D02*
X0203157Y0138157D01*
X0213157Y0138157D02*
X0215957Y0138157D01*
X0215957Y0133157D01*
X0215957Y0138157D02*
X0215957Y0139157D01*
X0220657Y0139157D01*
X0231157Y0139157D02*
X0237689Y0139157D01*
X0241626Y0139157D02*
X0248157Y0139157D01*
X0263157Y0139157D02*
X0268330Y0139157D01*
X0272267Y0139157D02*
X0277439Y0139157D01*
X0281376Y0139157D02*
X0286548Y0139157D01*
X0290485Y0139157D02*
X0295657Y0139157D01*
X0295657Y0133157D01*
X0313157Y0139157D02*
X0315657Y0139157D01*
X0316657Y0139157D01*
X0315657Y0139157D02*
X0315657Y0133157D01*
X0325657Y0133157D02*
X0325657Y0139157D01*
X0323657Y0139157D01*
D12*
X0318961Y0141795D02*
X0318961Y0169795D01*
X0346961Y0169795D01*
X0346961Y0141795D01*
X0318961Y0141795D01*
X0313461Y0151257D02*
X0315961Y0153757D01*
X0315961Y0158757D01*
X0313461Y0161257D01*
X0308461Y0161257D01*
X0305961Y0158757D01*
X0305961Y0153757D01*
X0308461Y0151257D01*
X0305961Y0153757D02*
X0303461Y0151257D01*
X0298461Y0151257D02*
X0295961Y0153757D01*
X0293461Y0151257D01*
X0295961Y0153757D02*
X0295961Y0158757D01*
X0298461Y0161257D01*
X0303461Y0161257D01*
X0305961Y0158757D01*
X0295961Y0158757D02*
X0293461Y0161257D01*
X0288461Y0161257D01*
X0285961Y0158757D01*
X0285961Y0153757D01*
X0288461Y0151257D01*
X0285961Y0153757D02*
X0283461Y0151257D01*
X0278461Y0151257D02*
X0275961Y0153757D01*
X0273461Y0151257D01*
X0275961Y0153757D02*
X0275961Y0158757D01*
X0278461Y0161257D01*
X0283461Y0161257D01*
X0285961Y0158757D01*
X0275961Y0158757D02*
X0273461Y0161257D01*
X0268461Y0161257D01*
X0265961Y0158757D01*
X0265961Y0153757D01*
X0268461Y0151257D01*
X0265961Y0153757D02*
X0263461Y0151257D01*
X0258461Y0151257D02*
X0255961Y0153757D01*
X0253461Y0151257D01*
X0255961Y0153757D02*
X0255961Y0158757D01*
X0258461Y0161257D01*
X0263461Y0161257D01*
X0265961Y0158757D01*
X0255961Y0158757D02*
X0253461Y0161257D01*
X0248461Y0161257D01*
X0245961Y0158757D01*
X0245961Y0153757D01*
X0248461Y0151257D01*
X0245961Y0153757D02*
X0243461Y0151257D01*
X0238461Y0151257D02*
X0235961Y0153757D01*
X0233461Y0151257D01*
X0235961Y0153757D02*
X0235961Y0158757D01*
X0238461Y0161257D01*
X0243461Y0161257D01*
X0245961Y0158757D01*
X0235961Y0158757D02*
X0233461Y0161257D01*
X0228461Y0161257D01*
X0225961Y0158757D01*
X0225961Y0153757D01*
X0228461Y0151257D01*
X0225961Y0153757D02*
X0223461Y0151257D01*
X0218461Y0151257D02*
X0215961Y0153757D01*
X0215961Y0158757D01*
X0218461Y0161257D01*
X0223461Y0161257D01*
X0225961Y0158757D01*
X0181665Y0155795D02*
X0181669Y0156126D01*
X0181681Y0156457D01*
X0181702Y0156788D01*
X0181730Y0157118D01*
X0181767Y0157448D01*
X0181811Y0157776D01*
X0181864Y0158103D01*
X0181924Y0158429D01*
X0181993Y0158753D01*
X0182070Y0159075D01*
X0182154Y0159396D01*
X0182246Y0159714D01*
X0182346Y0160030D01*
X0182454Y0160343D01*
X0182570Y0160654D01*
X0182693Y0160961D01*
X0182823Y0161266D01*
X0182961Y0161567D01*
X0183106Y0161865D01*
X0183259Y0162159D01*
X0183419Y0162449D01*
X0183586Y0162735D01*
X0183759Y0163017D01*
X0183940Y0163295D01*
X0184128Y0163568D01*
X0184322Y0163837D01*
X0184522Y0164101D01*
X0184729Y0164359D01*
X0184943Y0164613D01*
X0185162Y0164861D01*
X0185388Y0165104D01*
X0185619Y0165341D01*
X0185856Y0165572D01*
X0186099Y0165798D01*
X0186347Y0166017D01*
X0186601Y0166231D01*
X0186859Y0166438D01*
X0187123Y0166638D01*
X0187392Y0166832D01*
X0187665Y0167020D01*
X0187943Y0167201D01*
X0188225Y0167374D01*
X0188511Y0167541D01*
X0188801Y0167701D01*
X0189095Y0167854D01*
X0189393Y0167999D01*
X0189694Y0168137D01*
X0189999Y0168267D01*
X0190306Y0168390D01*
X0190617Y0168506D01*
X0190930Y0168614D01*
X0191246Y0168714D01*
X0191564Y0168806D01*
X0191885Y0168890D01*
X0192207Y0168967D01*
X0192531Y0169036D01*
X0192857Y0169096D01*
X0193184Y0169149D01*
X0193512Y0169193D01*
X0193842Y0169230D01*
X0194172Y0169258D01*
X0194503Y0169279D01*
X0194834Y0169291D01*
X0195165Y0169295D01*
X0195496Y0169291D01*
X0195827Y0169279D01*
X0196158Y0169258D01*
X0196488Y0169230D01*
X0196818Y0169193D01*
X0197146Y0169149D01*
X0197473Y0169096D01*
X0197799Y0169036D01*
X0198123Y0168967D01*
X0198445Y0168890D01*
X0198766Y0168806D01*
X0199084Y0168714D01*
X0199400Y0168614D01*
X0199713Y0168506D01*
X0200024Y0168390D01*
X0200331Y0168267D01*
X0200636Y0168137D01*
X0200937Y0167999D01*
X0201235Y0167854D01*
X0201529Y0167701D01*
X0201819Y0167541D01*
X0202105Y0167374D01*
X0202387Y0167201D01*
X0202665Y0167020D01*
X0202938Y0166832D01*
X0203207Y0166638D01*
X0203471Y0166438D01*
X0203729Y0166231D01*
X0203983Y0166017D01*
X0204231Y0165798D01*
X0204474Y0165572D01*
X0204711Y0165341D01*
X0204942Y0165104D01*
X0205168Y0164861D01*
X0205387Y0164613D01*
X0205601Y0164359D01*
X0205808Y0164101D01*
X0206008Y0163837D01*
X0206202Y0163568D01*
X0206390Y0163295D01*
X0206571Y0163017D01*
X0206744Y0162735D01*
X0206911Y0162449D01*
X0207071Y0162159D01*
X0207224Y0161865D01*
X0207369Y0161567D01*
X0207507Y0161266D01*
X0207637Y0160961D01*
X0207760Y0160654D01*
X0207876Y0160343D01*
X0207984Y0160030D01*
X0208084Y0159714D01*
X0208176Y0159396D01*
X0208260Y0159075D01*
X0208337Y0158753D01*
X0208406Y0158429D01*
X0208466Y0158103D01*
X0208519Y0157776D01*
X0208563Y0157448D01*
X0208600Y0157118D01*
X0208628Y0156788D01*
X0208649Y0156457D01*
X0208661Y0156126D01*
X0208665Y0155795D01*
X0208661Y0155464D01*
X0208649Y0155133D01*
X0208628Y0154802D01*
X0208600Y0154472D01*
X0208563Y0154142D01*
X0208519Y0153814D01*
X0208466Y0153487D01*
X0208406Y0153161D01*
X0208337Y0152837D01*
X0208260Y0152515D01*
X0208176Y0152194D01*
X0208084Y0151876D01*
X0207984Y0151560D01*
X0207876Y0151247D01*
X0207760Y0150936D01*
X0207637Y0150629D01*
X0207507Y0150324D01*
X0207369Y0150023D01*
X0207224Y0149725D01*
X0207071Y0149431D01*
X0206911Y0149141D01*
X0206744Y0148855D01*
X0206571Y0148573D01*
X0206390Y0148295D01*
X0206202Y0148022D01*
X0206008Y0147753D01*
X0205808Y0147489D01*
X0205601Y0147231D01*
X0205387Y0146977D01*
X0205168Y0146729D01*
X0204942Y0146486D01*
X0204711Y0146249D01*
X0204474Y0146018D01*
X0204231Y0145792D01*
X0203983Y0145573D01*
X0203729Y0145359D01*
X0203471Y0145152D01*
X0203207Y0144952D01*
X0202938Y0144758D01*
X0202665Y0144570D01*
X0202387Y0144389D01*
X0202105Y0144216D01*
X0201819Y0144049D01*
X0201529Y0143889D01*
X0201235Y0143736D01*
X0200937Y0143591D01*
X0200636Y0143453D01*
X0200331Y0143323D01*
X0200024Y0143200D01*
X0199713Y0143084D01*
X0199400Y0142976D01*
X0199084Y0142876D01*
X0198766Y0142784D01*
X0198445Y0142700D01*
X0198123Y0142623D01*
X0197799Y0142554D01*
X0197473Y0142494D01*
X0197146Y0142441D01*
X0196818Y0142397D01*
X0196488Y0142360D01*
X0196158Y0142332D01*
X0195827Y0142311D01*
X0195496Y0142299D01*
X0195165Y0142295D01*
X0194834Y0142299D01*
X0194503Y0142311D01*
X0194172Y0142332D01*
X0193842Y0142360D01*
X0193512Y0142397D01*
X0193184Y0142441D01*
X0192857Y0142494D01*
X0192531Y0142554D01*
X0192207Y0142623D01*
X0191885Y0142700D01*
X0191564Y0142784D01*
X0191246Y0142876D01*
X0190930Y0142976D01*
X0190617Y0143084D01*
X0190306Y0143200D01*
X0189999Y0143323D01*
X0189694Y0143453D01*
X0189393Y0143591D01*
X0189095Y0143736D01*
X0188801Y0143889D01*
X0188511Y0144049D01*
X0188225Y0144216D01*
X0187943Y0144389D01*
X0187665Y0144570D01*
X0187392Y0144758D01*
X0187123Y0144952D01*
X0186859Y0145152D01*
X0186601Y0145359D01*
X0186347Y0145573D01*
X0186099Y0145792D01*
X0185856Y0146018D01*
X0185619Y0146249D01*
X0185388Y0146486D01*
X0185162Y0146729D01*
X0184943Y0146977D01*
X0184729Y0147231D01*
X0184522Y0147489D01*
X0184322Y0147753D01*
X0184128Y0148022D01*
X0183940Y0148295D01*
X0183759Y0148573D01*
X0183586Y0148855D01*
X0183419Y0149141D01*
X0183259Y0149431D01*
X0183106Y0149725D01*
X0182961Y0150023D01*
X0182823Y0150324D01*
X0182693Y0150629D01*
X0182570Y0150936D01*
X0182454Y0151247D01*
X0182346Y0151560D01*
X0182246Y0151876D01*
X0182154Y0152194D01*
X0182070Y0152515D01*
X0181993Y0152837D01*
X0181924Y0153161D01*
X0181864Y0153487D01*
X0181811Y0153814D01*
X0181767Y0154142D01*
X0181730Y0154472D01*
X0181702Y0154802D01*
X0181681Y0155133D01*
X0181669Y0155464D01*
X0181665Y0155795D01*
X0142295Y0155795D02*
X0142299Y0156126D01*
X0142311Y0156457D01*
X0142332Y0156788D01*
X0142360Y0157118D01*
X0142397Y0157448D01*
X0142441Y0157776D01*
X0142494Y0158103D01*
X0142554Y0158429D01*
X0142623Y0158753D01*
X0142700Y0159075D01*
X0142784Y0159396D01*
X0142876Y0159714D01*
X0142976Y0160030D01*
X0143084Y0160343D01*
X0143200Y0160654D01*
X0143323Y0160961D01*
X0143453Y0161266D01*
X0143591Y0161567D01*
X0143736Y0161865D01*
X0143889Y0162159D01*
X0144049Y0162449D01*
X0144216Y0162735D01*
X0144389Y0163017D01*
X0144570Y0163295D01*
X0144758Y0163568D01*
X0144952Y0163837D01*
X0145152Y0164101D01*
X0145359Y0164359D01*
X0145573Y0164613D01*
X0145792Y0164861D01*
X0146018Y0165104D01*
X0146249Y0165341D01*
X0146486Y0165572D01*
X0146729Y0165798D01*
X0146977Y0166017D01*
X0147231Y0166231D01*
X0147489Y0166438D01*
X0147753Y0166638D01*
X0148022Y0166832D01*
X0148295Y0167020D01*
X0148573Y0167201D01*
X0148855Y0167374D01*
X0149141Y0167541D01*
X0149431Y0167701D01*
X0149725Y0167854D01*
X0150023Y0167999D01*
X0150324Y0168137D01*
X0150629Y0168267D01*
X0150936Y0168390D01*
X0151247Y0168506D01*
X0151560Y0168614D01*
X0151876Y0168714D01*
X0152194Y0168806D01*
X0152515Y0168890D01*
X0152837Y0168967D01*
X0153161Y0169036D01*
X0153487Y0169096D01*
X0153814Y0169149D01*
X0154142Y0169193D01*
X0154472Y0169230D01*
X0154802Y0169258D01*
X0155133Y0169279D01*
X0155464Y0169291D01*
X0155795Y0169295D01*
X0156126Y0169291D01*
X0156457Y0169279D01*
X0156788Y0169258D01*
X0157118Y0169230D01*
X0157448Y0169193D01*
X0157776Y0169149D01*
X0158103Y0169096D01*
X0158429Y0169036D01*
X0158753Y0168967D01*
X0159075Y0168890D01*
X0159396Y0168806D01*
X0159714Y0168714D01*
X0160030Y0168614D01*
X0160343Y0168506D01*
X0160654Y0168390D01*
X0160961Y0168267D01*
X0161266Y0168137D01*
X0161567Y0167999D01*
X0161865Y0167854D01*
X0162159Y0167701D01*
X0162449Y0167541D01*
X0162735Y0167374D01*
X0163017Y0167201D01*
X0163295Y0167020D01*
X0163568Y0166832D01*
X0163837Y0166638D01*
X0164101Y0166438D01*
X0164359Y0166231D01*
X0164613Y0166017D01*
X0164861Y0165798D01*
X0165104Y0165572D01*
X0165341Y0165341D01*
X0165572Y0165104D01*
X0165798Y0164861D01*
X0166017Y0164613D01*
X0166231Y0164359D01*
X0166438Y0164101D01*
X0166638Y0163837D01*
X0166832Y0163568D01*
X0167020Y0163295D01*
X0167201Y0163017D01*
X0167374Y0162735D01*
X0167541Y0162449D01*
X0167701Y0162159D01*
X0167854Y0161865D01*
X0167999Y0161567D01*
X0168137Y0161266D01*
X0168267Y0160961D01*
X0168390Y0160654D01*
X0168506Y0160343D01*
X0168614Y0160030D01*
X0168714Y0159714D01*
X0168806Y0159396D01*
X0168890Y0159075D01*
X0168967Y0158753D01*
X0169036Y0158429D01*
X0169096Y0158103D01*
X0169149Y0157776D01*
X0169193Y0157448D01*
X0169230Y0157118D01*
X0169258Y0156788D01*
X0169279Y0156457D01*
X0169291Y0156126D01*
X0169295Y0155795D01*
X0169291Y0155464D01*
X0169279Y0155133D01*
X0169258Y0154802D01*
X0169230Y0154472D01*
X0169193Y0154142D01*
X0169149Y0153814D01*
X0169096Y0153487D01*
X0169036Y0153161D01*
X0168967Y0152837D01*
X0168890Y0152515D01*
X0168806Y0152194D01*
X0168714Y0151876D01*
X0168614Y0151560D01*
X0168506Y0151247D01*
X0168390Y0150936D01*
X0168267Y0150629D01*
X0168137Y0150324D01*
X0167999Y0150023D01*
X0167854Y0149725D01*
X0167701Y0149431D01*
X0167541Y0149141D01*
X0167374Y0148855D01*
X0167201Y0148573D01*
X0167020Y0148295D01*
X0166832Y0148022D01*
X0166638Y0147753D01*
X0166438Y0147489D01*
X0166231Y0147231D01*
X0166017Y0146977D01*
X0165798Y0146729D01*
X0165572Y0146486D01*
X0165341Y0146249D01*
X0165104Y0146018D01*
X0164861Y0145792D01*
X0164613Y0145573D01*
X0164359Y0145359D01*
X0164101Y0145152D01*
X0163837Y0144952D01*
X0163568Y0144758D01*
X0163295Y0144570D01*
X0163017Y0144389D01*
X0162735Y0144216D01*
X0162449Y0144049D01*
X0162159Y0143889D01*
X0161865Y0143736D01*
X0161567Y0143591D01*
X0161266Y0143453D01*
X0160961Y0143323D01*
X0160654Y0143200D01*
X0160343Y0143084D01*
X0160030Y0142976D01*
X0159714Y0142876D01*
X0159396Y0142784D01*
X0159075Y0142700D01*
X0158753Y0142623D01*
X0158429Y0142554D01*
X0158103Y0142494D01*
X0157776Y0142441D01*
X0157448Y0142397D01*
X0157118Y0142360D01*
X0156788Y0142332D01*
X0156457Y0142311D01*
X0156126Y0142299D01*
X0155795Y0142295D01*
X0155464Y0142299D01*
X0155133Y0142311D01*
X0154802Y0142332D01*
X0154472Y0142360D01*
X0154142Y0142397D01*
X0153814Y0142441D01*
X0153487Y0142494D01*
X0153161Y0142554D01*
X0152837Y0142623D01*
X0152515Y0142700D01*
X0152194Y0142784D01*
X0151876Y0142876D01*
X0151560Y0142976D01*
X0151247Y0143084D01*
X0150936Y0143200D01*
X0150629Y0143323D01*
X0150324Y0143453D01*
X0150023Y0143591D01*
X0149725Y0143736D01*
X0149431Y0143889D01*
X0149141Y0144049D01*
X0148855Y0144216D01*
X0148573Y0144389D01*
X0148295Y0144570D01*
X0148022Y0144758D01*
X0147753Y0144952D01*
X0147489Y0145152D01*
X0147231Y0145359D01*
X0146977Y0145573D01*
X0146729Y0145792D01*
X0146486Y0146018D01*
X0146249Y0146249D01*
X0146018Y0146486D01*
X0145792Y0146729D01*
X0145573Y0146977D01*
X0145359Y0147231D01*
X0145152Y0147489D01*
X0144952Y0147753D01*
X0144758Y0148022D01*
X0144570Y0148295D01*
X0144389Y0148573D01*
X0144216Y0148855D01*
X0144049Y0149141D01*
X0143889Y0149431D01*
X0143736Y0149725D01*
X0143591Y0150023D01*
X0143453Y0150324D01*
X0143323Y0150629D01*
X0143200Y0150936D01*
X0143084Y0151247D01*
X0142976Y0151560D01*
X0142876Y0151876D01*
X0142784Y0152194D01*
X0142700Y0152515D01*
X0142623Y0152837D01*
X0142554Y0153161D01*
X0142494Y0153487D01*
X0142441Y0153814D01*
X0142397Y0154142D01*
X0142360Y0154472D01*
X0142332Y0154802D01*
X0142311Y0155133D01*
X0142299Y0155464D01*
X0142295Y0155795D01*
X0118157Y0160157D02*
X0118157Y0150157D01*
X0109157Y0150157D01*
X0108157Y0151157D01*
X0107157Y0150157D01*
X0099157Y0150157D01*
X0098157Y0151157D01*
X0097157Y0150157D01*
X0089157Y0150157D01*
X0088157Y0151157D01*
X0087157Y0150157D01*
X0079157Y0150157D01*
X0078157Y0151157D01*
X0077157Y0150157D01*
X0069157Y0150157D01*
X0068157Y0151157D01*
X0067157Y0150157D01*
X0059157Y0150157D01*
X0058157Y0151157D01*
X0057157Y0150157D01*
X0049157Y0150157D01*
X0048157Y0151157D01*
X0047157Y0150157D01*
X0038157Y0150157D01*
X0038157Y0160157D01*
X0047157Y0160157D01*
X0048157Y0159157D01*
X0049157Y0160157D01*
X0057157Y0160157D01*
X0058157Y0159157D01*
X0059157Y0160157D01*
X0067157Y0160157D01*
X0068157Y0159157D01*
X0069157Y0160157D01*
X0077157Y0160157D01*
X0078157Y0159157D01*
X0079157Y0160157D01*
X0087157Y0160157D01*
X0088157Y0159157D01*
X0089157Y0160157D01*
X0097157Y0160157D01*
X0098157Y0159157D01*
X0099157Y0160157D01*
X0107157Y0160157D01*
X0108157Y0159157D01*
X0109157Y0160157D01*
X0118157Y0160157D01*
X0115657Y0147157D02*
X0110657Y0147157D01*
X0108157Y0144657D01*
X0105657Y0147157D01*
X0100657Y0147157D01*
X0098157Y0144657D01*
X0098157Y0139657D01*
X0088157Y0139657D02*
X0088157Y0134657D01*
X0098157Y0134657D02*
X0098157Y0129657D01*
X0088157Y0129657D02*
X0088157Y0124657D01*
X0098157Y0124657D02*
X0098157Y0119657D01*
X0088157Y0119657D02*
X0088157Y0114657D01*
X0088157Y0109657D02*
X0088157Y0104657D01*
X0098157Y0104657D02*
X0098157Y0099657D01*
X0100657Y0097157D01*
X0105657Y0097157D01*
X0108157Y0099657D01*
X0110657Y0097157D01*
X0115657Y0097157D01*
X0118157Y0099657D01*
X0118157Y0144657D01*
X0115657Y0147157D01*
X0108157Y0139657D02*
X0108157Y0134657D01*
X0108157Y0129657D02*
X0108157Y0124657D01*
X0108157Y0119657D02*
X0108157Y0114657D01*
X0108157Y0109657D02*
X0108157Y0104657D01*
X0098157Y0099657D02*
X0095657Y0097157D01*
X0090657Y0097157D01*
X0088157Y0099657D01*
X0085657Y0097157D01*
X0080657Y0097157D01*
X0078157Y0099657D01*
X0075657Y0097157D01*
X0070657Y0097157D01*
X0068157Y0099657D01*
X0065657Y0097157D01*
X0060657Y0097157D01*
X0058157Y0099657D01*
X0058157Y0104657D01*
X0058157Y0099657D02*
X0055657Y0097157D01*
X0050657Y0097157D01*
X0048157Y0099657D01*
X0045657Y0097157D01*
X0040657Y0097157D01*
X0038157Y0099657D01*
X0038157Y0144657D01*
X0040657Y0147157D01*
X0045657Y0147157D01*
X0048157Y0144657D01*
X0050657Y0147157D01*
X0055657Y0147157D01*
X0058157Y0144657D01*
X0058157Y0139657D01*
X0058157Y0134657D02*
X0058157Y0129657D01*
X0058157Y0124657D02*
X0058157Y0119657D01*
X0058157Y0114657D02*
X0058157Y0109657D01*
X0048157Y0109657D02*
X0048157Y0104657D01*
X0048157Y0114657D02*
X0048157Y0119657D01*
X0048157Y0124657D02*
X0048157Y0129657D01*
X0048157Y0134657D02*
X0048157Y0139657D01*
X0058157Y0144657D02*
X0060657Y0147157D01*
X0065657Y0147157D01*
X0068157Y0144657D01*
X0070657Y0147157D01*
X0075657Y0147157D01*
X0078157Y0144657D01*
X0078157Y0139657D01*
X0078157Y0134657D02*
X0078157Y0129657D01*
X0078157Y0124657D02*
X0078157Y0119657D01*
X0078157Y0114657D02*
X0078157Y0109657D01*
X0078157Y0104657D02*
X0078157Y0099657D01*
X0068157Y0104657D02*
X0068157Y0109657D01*
X0068157Y0114657D02*
X0068157Y0119657D01*
X0068157Y0124657D02*
X0068157Y0129657D01*
X0068157Y0134657D02*
X0068157Y0139657D01*
X0078157Y0144657D02*
X0080657Y0147157D01*
X0085657Y0147157D01*
X0088157Y0144657D01*
X0090657Y0147157D01*
X0095657Y0147157D01*
X0098157Y0144657D01*
X0123157Y0124657D02*
X0125657Y0127157D01*
X0130657Y0127157D01*
X0133157Y0124657D01*
X0123157Y0124657D02*
X0123157Y0119657D01*
X0125657Y0117157D01*
X0130657Y0117157D01*
X0133157Y0119657D01*
X0130657Y0117157D02*
X0133157Y0114657D01*
X0133157Y0109657D02*
X0130657Y0107157D01*
X0133157Y0104657D01*
X0130657Y0107157D02*
X0125657Y0107157D01*
X0123157Y0109657D01*
X0123157Y0114657D01*
X0125657Y0117157D01*
X0125657Y0107157D02*
X0123157Y0104657D01*
X0123157Y0099657D01*
X0125657Y0097157D01*
X0130657Y0097157D01*
X0133157Y0099657D01*
X0130657Y0097157D02*
X0133157Y0094657D01*
X0125657Y0097157D02*
X0123157Y0094657D01*
X0123157Y0089657D01*
X0125657Y0087157D01*
X0130657Y0087157D01*
X0133157Y0089657D01*
X0130657Y0087157D02*
X0133157Y0084657D01*
X0125657Y0087157D02*
X0123157Y0084657D01*
X0123157Y0079657D01*
X0125657Y0077157D01*
X0130657Y0077157D01*
X0133157Y0079657D01*
X0130657Y0077157D02*
X0133157Y0074657D01*
X0133157Y0069657D02*
X0130657Y0067157D01*
X0133157Y0064657D01*
X0130657Y0067157D02*
X0125657Y0067157D01*
X0123157Y0069657D01*
X0123157Y0074657D01*
X0125657Y0077157D01*
X0118157Y0074657D02*
X0118157Y0029657D01*
X0115657Y0027157D01*
X0110657Y0027157D01*
X0108157Y0029657D01*
X0105657Y0027157D01*
X0100657Y0027157D01*
X0098157Y0029657D01*
X0098157Y0034657D01*
X0098157Y0029657D02*
X0095657Y0027157D01*
X0090657Y0027157D01*
X0088157Y0029657D01*
X0085657Y0027157D01*
X0080657Y0027157D01*
X0078157Y0029657D01*
X0075657Y0027157D01*
X0070657Y0027157D01*
X0068157Y0029657D01*
X0065657Y0027157D01*
X0060657Y0027157D01*
X0058157Y0029657D01*
X0058157Y0034657D01*
X0058157Y0029657D02*
X0055657Y0027157D01*
X0050657Y0027157D01*
X0048157Y0029657D01*
X0045657Y0027157D01*
X0040657Y0027157D01*
X0038157Y0029657D01*
X0038157Y0074657D01*
X0040657Y0077157D01*
X0045657Y0077157D01*
X0048157Y0074657D01*
X0050657Y0077157D01*
X0055657Y0077157D01*
X0058157Y0074657D01*
X0058157Y0069657D01*
X0058157Y0074657D02*
X0060657Y0077157D01*
X0065657Y0077157D01*
X0068157Y0074657D01*
X0070657Y0077157D01*
X0075657Y0077157D01*
X0078157Y0074657D01*
X0078157Y0069657D01*
X0078157Y0074657D02*
X0080657Y0077157D01*
X0085657Y0077157D01*
X0088157Y0074657D01*
X0090657Y0077157D01*
X0095657Y0077157D01*
X0098157Y0074657D01*
X0098157Y0069657D01*
X0098157Y0074657D02*
X0100657Y0077157D01*
X0105657Y0077157D01*
X0108157Y0074657D01*
X0110657Y0077157D01*
X0115657Y0077157D01*
X0118157Y0074657D01*
X0108157Y0069657D02*
X0108157Y0064657D01*
X0108157Y0059657D02*
X0108157Y0054657D01*
X0108157Y0049657D02*
X0108157Y0044657D01*
X0108157Y0039657D02*
X0108157Y0034657D01*
X0098157Y0039657D02*
X0098157Y0044657D01*
X0088157Y0044657D02*
X0088157Y0049657D01*
X0098157Y0049657D02*
X0098157Y0054657D01*
X0088157Y0054657D02*
X0088157Y0059657D01*
X0098157Y0059657D02*
X0098157Y0064657D01*
X0088157Y0064657D02*
X0088157Y0069657D01*
X0078157Y0064657D02*
X0078157Y0059657D01*
X0078157Y0054657D02*
X0078157Y0049657D01*
X0078157Y0044657D02*
X0078157Y0039657D01*
X0078157Y0034657D02*
X0078157Y0029657D01*
X0068157Y0034657D02*
X0068157Y0039657D01*
X0068157Y0044657D02*
X0068157Y0049657D01*
X0068157Y0054657D02*
X0068157Y0059657D01*
X0068157Y0064657D02*
X0068157Y0069657D01*
X0058157Y0064657D02*
X0058157Y0059657D01*
X0058157Y0054657D02*
X0058157Y0049657D01*
X0058157Y0044657D02*
X0058157Y0039657D01*
X0048157Y0039657D02*
X0048157Y0034657D01*
X0048157Y0044657D02*
X0048157Y0049657D01*
X0048157Y0054657D02*
X0048157Y0059657D01*
X0048157Y0064657D02*
X0048157Y0069657D01*
X0047157Y0082157D02*
X0038157Y0082157D01*
X0038157Y0092157D01*
X0047157Y0092157D01*
X0048157Y0091157D01*
X0049157Y0092157D01*
X0057157Y0092157D01*
X0058157Y0091157D01*
X0059157Y0092157D01*
X0067157Y0092157D01*
X0068157Y0091157D01*
X0069157Y0092157D01*
X0077157Y0092157D01*
X0078157Y0091157D01*
X0079157Y0092157D01*
X0087157Y0092157D01*
X0088157Y0091157D01*
X0089157Y0092157D01*
X0097157Y0092157D01*
X0098157Y0091157D01*
X0099157Y0092157D01*
X0107157Y0092157D01*
X0108157Y0091157D01*
X0109157Y0092157D01*
X0118157Y0092157D01*
X0118157Y0082157D01*
X0109157Y0082157D01*
X0108157Y0083157D01*
X0107157Y0082157D01*
X0099157Y0082157D01*
X0098157Y0083157D01*
X0097157Y0082157D01*
X0089157Y0082157D01*
X0088157Y0083157D01*
X0087157Y0082157D01*
X0079157Y0082157D01*
X0078157Y0083157D01*
X0077157Y0082157D01*
X0069157Y0082157D01*
X0068157Y0083157D01*
X0067157Y0082157D01*
X0059157Y0082157D01*
X0058157Y0083157D01*
X0057157Y0082157D01*
X0049157Y0082157D01*
X0048157Y0083157D01*
X0047157Y0082157D01*
X0022857Y0082409D02*
X0022857Y0080274D01*
X0022857Y0081342D02*
X0018587Y0081342D01*
X0018587Y0080274D01*
X0016452Y0081342D02*
X0015384Y0081342D01*
X0016452Y0084571D02*
X0016452Y0085639D01*
X0022857Y0085639D01*
X0022857Y0086706D02*
X0022857Y0084571D01*
X0022857Y0088868D02*
X0022857Y0091003D01*
X0022857Y0089936D02*
X0016452Y0089936D01*
X0016452Y0088868D01*
X0017520Y0099611D02*
X0018587Y0099611D01*
X0019655Y0100678D01*
X0019655Y0102813D01*
X0020722Y0103881D01*
X0021790Y0103881D01*
X0022857Y0102813D01*
X0022857Y0100678D01*
X0021790Y0099611D01*
X0017520Y0099611D02*
X0016452Y0100678D01*
X0016452Y0102813D01*
X0017520Y0103881D01*
X0018587Y0107124D02*
X0018587Y0109259D01*
X0019655Y0110327D01*
X0022857Y0110327D01*
X0022857Y0107124D01*
X0021790Y0106056D01*
X0020722Y0107124D01*
X0020722Y0110327D01*
X0019655Y0112502D02*
X0019655Y0114637D01*
X0017520Y0113569D02*
X0016452Y0114637D01*
X0017520Y0113569D02*
X0022857Y0113569D01*
X0021790Y0116799D02*
X0019655Y0116799D01*
X0018587Y0117866D01*
X0018587Y0120001D01*
X0019655Y0121069D01*
X0020722Y0121069D01*
X0020722Y0116799D01*
X0021790Y0116799D02*
X0022857Y0117866D01*
X0022857Y0120001D01*
X0032000Y0141795D02*
X0004000Y0141795D01*
X0004000Y0169795D01*
X0032000Y0169795D01*
X0032000Y0141795D01*
X0098157Y0114657D02*
X0098157Y0109657D01*
X0155157Y0107157D02*
X0155157Y0098157D01*
X0156157Y0097157D01*
X0155157Y0096157D01*
X0155157Y0088157D01*
X0156157Y0087157D01*
X0155157Y0086157D01*
X0155157Y0078157D01*
X0156157Y0077157D01*
X0155157Y0076157D01*
X0155157Y0067157D01*
X0165157Y0067157D01*
X0165157Y0076157D01*
X0164157Y0077157D01*
X0165157Y0078157D01*
X0165157Y0086157D01*
X0164157Y0087157D01*
X0165157Y0088157D01*
X0165157Y0096157D01*
X0164157Y0097157D01*
X0165157Y0098157D01*
X0165157Y0107157D01*
X0155157Y0107157D01*
X0168157Y0104657D02*
X0168157Y0099657D01*
X0170657Y0097157D01*
X0168157Y0094657D01*
X0168157Y0089657D01*
X0170657Y0087157D01*
X0175657Y0087157D01*
X0180657Y0087157D02*
X0185657Y0087157D01*
X0190657Y0087157D02*
X0195657Y0087157D01*
X0200657Y0087157D02*
X0205657Y0087157D01*
X0210657Y0087157D02*
X0215657Y0087157D01*
X0218157Y0089657D01*
X0218157Y0094657D01*
X0215657Y0097157D01*
X0218157Y0099657D01*
X0218157Y0104657D01*
X0215657Y0107157D01*
X0170657Y0107157D01*
X0168157Y0104657D01*
X0175657Y0097157D02*
X0180657Y0097157D01*
X0185657Y0097157D02*
X0190657Y0097157D01*
X0195657Y0097157D02*
X0200657Y0097157D01*
X0205657Y0097157D02*
X0210657Y0097157D01*
X0223157Y0096157D02*
X0223157Y0088157D01*
X0224157Y0087157D01*
X0223157Y0086157D01*
X0223157Y0078157D01*
X0224157Y0077157D01*
X0223157Y0076157D01*
X0223157Y0067157D01*
X0233157Y0067157D01*
X0233157Y0076157D01*
X0232157Y0077157D01*
X0233157Y0078157D01*
X0233157Y0086157D01*
X0232157Y0087157D01*
X0233157Y0088157D01*
X0233157Y0096157D01*
X0232157Y0097157D01*
X0233157Y0098157D01*
X0233157Y0107157D01*
X0223157Y0107157D01*
X0223157Y0098157D01*
X0224157Y0097157D01*
X0223157Y0096157D01*
X0238157Y0094657D02*
X0238157Y0089657D01*
X0240657Y0087157D01*
X0245657Y0087157D01*
X0240657Y0087157D02*
X0238157Y0084657D01*
X0238157Y0079657D01*
X0240657Y0077157D01*
X0238157Y0074657D01*
X0238157Y0069657D01*
X0240657Y0067157D01*
X0285657Y0067157D01*
X0288157Y0069657D01*
X0288157Y0074657D01*
X0285657Y0077157D01*
X0288157Y0079657D01*
X0288157Y0084657D01*
X0285657Y0087157D01*
X0280657Y0087157D01*
X0275657Y0087157D02*
X0270657Y0087157D01*
X0265657Y0087157D02*
X0260657Y0087157D01*
X0255657Y0087157D02*
X0250657Y0087157D01*
X0240657Y0097157D02*
X0238157Y0094657D01*
X0240657Y0097157D02*
X0238157Y0099657D01*
X0238157Y0104657D01*
X0240657Y0107157D01*
X0285657Y0107157D01*
X0288157Y0104657D01*
X0288157Y0099657D01*
X0285657Y0097157D01*
X0288157Y0094657D01*
X0288157Y0089657D01*
X0285657Y0087157D01*
X0280657Y0097157D02*
X0275657Y0097157D01*
X0270657Y0097157D02*
X0265657Y0097157D01*
X0260657Y0097157D02*
X0255657Y0097157D01*
X0250657Y0097157D02*
X0245657Y0097157D01*
X0218157Y0084657D02*
X0215657Y0087157D01*
X0218157Y0084657D02*
X0218157Y0079657D01*
X0215657Y0077157D01*
X0218157Y0074657D01*
X0218157Y0069657D01*
X0215657Y0067157D01*
X0170657Y0067157D01*
X0168157Y0069657D01*
X0168157Y0074657D01*
X0170657Y0077157D01*
X0168157Y0079657D01*
X0168157Y0084657D01*
X0170657Y0087157D01*
X0175657Y0077157D02*
X0180657Y0077157D01*
X0185657Y0077157D02*
X0190657Y0077157D01*
X0195657Y0077157D02*
X0200657Y0077157D01*
X0205657Y0077157D02*
X0210657Y0077157D01*
X0245657Y0077157D02*
X0250657Y0077157D01*
X0255657Y0077157D02*
X0260657Y0077157D01*
X0265657Y0077157D02*
X0270657Y0077157D01*
X0275657Y0077157D02*
X0280657Y0077157D01*
X0276957Y0056957D02*
X0275957Y0055957D01*
X0274957Y0056957D01*
X0266957Y0056957D01*
X0265957Y0055957D01*
X0264957Y0056957D01*
X0256957Y0056957D01*
X0255957Y0055957D01*
X0254957Y0056957D01*
X0246957Y0056957D01*
X0245957Y0055957D01*
X0244957Y0056957D01*
X0236957Y0056957D01*
X0235957Y0055957D01*
X0234957Y0056957D01*
X0226957Y0056957D01*
X0225957Y0055957D01*
X0224957Y0056957D01*
X0216957Y0056957D01*
X0215957Y0055957D01*
X0214957Y0056957D01*
X0206957Y0056957D01*
X0205957Y0055957D01*
X0204957Y0056957D01*
X0196957Y0056957D01*
X0195957Y0055957D01*
X0194957Y0056957D01*
X0186957Y0056957D01*
X0185957Y0055957D01*
X0184957Y0056957D01*
X0176957Y0056957D01*
X0175957Y0055957D01*
X0174957Y0056957D01*
X0166957Y0056957D01*
X0165957Y0055957D01*
X0164957Y0056957D01*
X0155957Y0056957D01*
X0155957Y0046957D01*
X0164957Y0046957D01*
X0165957Y0047957D01*
X0166957Y0046957D01*
X0174957Y0046957D01*
X0175957Y0047957D01*
X0176957Y0046957D01*
X0184957Y0046957D01*
X0185957Y0047957D01*
X0186957Y0046957D01*
X0194957Y0046957D01*
X0195957Y0047957D01*
X0196957Y0046957D01*
X0204957Y0046957D01*
X0205957Y0047957D01*
X0206957Y0046957D01*
X0214957Y0046957D01*
X0215957Y0047957D01*
X0216957Y0046957D01*
X0224957Y0046957D01*
X0225957Y0047957D01*
X0226957Y0046957D01*
X0234957Y0046957D01*
X0235957Y0047957D01*
X0236957Y0046957D01*
X0244957Y0046957D01*
X0245957Y0047957D01*
X0246957Y0046957D01*
X0254957Y0046957D01*
X0255957Y0047957D01*
X0256957Y0046957D01*
X0264957Y0046957D01*
X0265957Y0047957D01*
X0266957Y0046957D01*
X0274957Y0046957D01*
X0275957Y0047957D01*
X0276957Y0046957D01*
X0284957Y0046957D01*
X0285957Y0047957D01*
X0286957Y0046957D01*
X0295957Y0046957D01*
X0295957Y0056957D01*
X0286957Y0056957D01*
X0285957Y0055957D01*
X0284957Y0056957D01*
X0276957Y0056957D01*
X0275357Y0033157D02*
X0274357Y0033157D01*
X0273857Y0032657D01*
X0264857Y0032657D01*
X0264357Y0033157D01*
X0263357Y0033157D01*
X0263297Y0033155D01*
X0263236Y0033150D01*
X0263177Y0033141D01*
X0263118Y0033128D01*
X0263059Y0033112D01*
X0263002Y0033092D01*
X0262947Y0033069D01*
X0262892Y0033042D01*
X0262840Y0033013D01*
X0262789Y0032980D01*
X0262740Y0032944D01*
X0262694Y0032906D01*
X0262650Y0032864D01*
X0262608Y0032820D01*
X0262570Y0032774D01*
X0262534Y0032725D01*
X0262501Y0032674D01*
X0262472Y0032622D01*
X0262445Y0032567D01*
X0262422Y0032512D01*
X0262402Y0032455D01*
X0262386Y0032396D01*
X0262373Y0032337D01*
X0262364Y0032278D01*
X0262359Y0032217D01*
X0262357Y0032157D01*
X0262357Y0027157D02*
X0262359Y0027097D01*
X0262364Y0027036D01*
X0262373Y0026977D01*
X0262386Y0026918D01*
X0262402Y0026859D01*
X0262422Y0026802D01*
X0262445Y0026747D01*
X0262472Y0026692D01*
X0262501Y0026640D01*
X0262534Y0026589D01*
X0262570Y0026540D01*
X0262608Y0026494D01*
X0262650Y0026450D01*
X0262694Y0026408D01*
X0262740Y0026370D01*
X0262789Y0026334D01*
X0262840Y0026301D01*
X0262892Y0026272D01*
X0262947Y0026245D01*
X0263002Y0026222D01*
X0263059Y0026202D01*
X0263118Y0026186D01*
X0263177Y0026173D01*
X0263236Y0026164D01*
X0263297Y0026159D01*
X0263357Y0026157D01*
X0264357Y0026157D01*
X0264857Y0026657D01*
X0273857Y0026657D01*
X0274357Y0026157D01*
X0275357Y0026157D01*
X0275417Y0026159D01*
X0275478Y0026164D01*
X0275537Y0026173D01*
X0275596Y0026186D01*
X0275655Y0026202D01*
X0275712Y0026222D01*
X0275767Y0026245D01*
X0275822Y0026272D01*
X0275874Y0026301D01*
X0275925Y0026334D01*
X0275974Y0026370D01*
X0276020Y0026408D01*
X0276064Y0026450D01*
X0276106Y0026494D01*
X0276144Y0026540D01*
X0276180Y0026589D01*
X0276213Y0026640D01*
X0276242Y0026692D01*
X0276269Y0026747D01*
X0276292Y0026802D01*
X0276312Y0026859D01*
X0276328Y0026918D01*
X0276341Y0026977D01*
X0276350Y0027036D01*
X0276355Y0027097D01*
X0276357Y0027157D01*
X0283157Y0030657D02*
X0283157Y0015657D01*
X0285657Y0013157D01*
X0290657Y0013157D01*
X0293157Y0015657D01*
X0293157Y0030657D01*
X0290657Y0033157D01*
X0285657Y0033157D01*
X0283157Y0030657D01*
X0276357Y0032157D02*
X0276355Y0032217D01*
X0276350Y0032278D01*
X0276341Y0032337D01*
X0276328Y0032396D01*
X0276312Y0032455D01*
X0276292Y0032512D01*
X0276269Y0032567D01*
X0276242Y0032622D01*
X0276213Y0032674D01*
X0276180Y0032725D01*
X0276144Y0032774D01*
X0276106Y0032820D01*
X0276064Y0032864D01*
X0276020Y0032906D01*
X0275974Y0032944D01*
X0275925Y0032980D01*
X0275874Y0033013D01*
X0275822Y0033042D01*
X0275767Y0033069D01*
X0275712Y0033092D01*
X0275655Y0033112D01*
X0275596Y0033128D01*
X0275537Y0033141D01*
X0275478Y0033150D01*
X0275417Y0033155D01*
X0275357Y0033157D01*
X0293157Y0030657D02*
X0295657Y0033157D01*
X0300657Y0033157D01*
X0303157Y0030657D01*
X0303157Y0015657D01*
X0300657Y0013157D01*
X0295657Y0013157D01*
X0293157Y0015657D01*
X0303157Y0015657D02*
X0305657Y0013157D01*
X0310657Y0013157D01*
X0313157Y0015657D01*
X0313157Y0030657D01*
X0310657Y0033157D01*
X0305657Y0033157D01*
X0303157Y0030657D01*
X0319461Y0018000D02*
X0319465Y0018331D01*
X0319477Y0018662D01*
X0319498Y0018993D01*
X0319526Y0019323D01*
X0319563Y0019653D01*
X0319607Y0019981D01*
X0319660Y0020308D01*
X0319720Y0020634D01*
X0319789Y0020958D01*
X0319866Y0021280D01*
X0319950Y0021601D01*
X0320042Y0021919D01*
X0320142Y0022235D01*
X0320250Y0022548D01*
X0320366Y0022859D01*
X0320489Y0023166D01*
X0320619Y0023471D01*
X0320757Y0023772D01*
X0320902Y0024070D01*
X0321055Y0024364D01*
X0321215Y0024654D01*
X0321382Y0024940D01*
X0321555Y0025222D01*
X0321736Y0025500D01*
X0321924Y0025773D01*
X0322118Y0026042D01*
X0322318Y0026306D01*
X0322525Y0026564D01*
X0322739Y0026818D01*
X0322958Y0027066D01*
X0323184Y0027309D01*
X0323415Y0027546D01*
X0323652Y0027777D01*
X0323895Y0028003D01*
X0324143Y0028222D01*
X0324397Y0028436D01*
X0324655Y0028643D01*
X0324919Y0028843D01*
X0325188Y0029037D01*
X0325461Y0029225D01*
X0325739Y0029406D01*
X0326021Y0029579D01*
X0326307Y0029746D01*
X0326597Y0029906D01*
X0326891Y0030059D01*
X0327189Y0030204D01*
X0327490Y0030342D01*
X0327795Y0030472D01*
X0328102Y0030595D01*
X0328413Y0030711D01*
X0328726Y0030819D01*
X0329042Y0030919D01*
X0329360Y0031011D01*
X0329681Y0031095D01*
X0330003Y0031172D01*
X0330327Y0031241D01*
X0330653Y0031301D01*
X0330980Y0031354D01*
X0331308Y0031398D01*
X0331638Y0031435D01*
X0331968Y0031463D01*
X0332299Y0031484D01*
X0332630Y0031496D01*
X0332961Y0031500D01*
X0333292Y0031496D01*
X0333623Y0031484D01*
X0333954Y0031463D01*
X0334284Y0031435D01*
X0334614Y0031398D01*
X0334942Y0031354D01*
X0335269Y0031301D01*
X0335595Y0031241D01*
X0335919Y0031172D01*
X0336241Y0031095D01*
X0336562Y0031011D01*
X0336880Y0030919D01*
X0337196Y0030819D01*
X0337509Y0030711D01*
X0337820Y0030595D01*
X0338127Y0030472D01*
X0338432Y0030342D01*
X0338733Y0030204D01*
X0339031Y0030059D01*
X0339325Y0029906D01*
X0339615Y0029746D01*
X0339901Y0029579D01*
X0340183Y0029406D01*
X0340461Y0029225D01*
X0340734Y0029037D01*
X0341003Y0028843D01*
X0341267Y0028643D01*
X0341525Y0028436D01*
X0341779Y0028222D01*
X0342027Y0028003D01*
X0342270Y0027777D01*
X0342507Y0027546D01*
X0342738Y0027309D01*
X0342964Y0027066D01*
X0343183Y0026818D01*
X0343397Y0026564D01*
X0343604Y0026306D01*
X0343804Y0026042D01*
X0343998Y0025773D01*
X0344186Y0025500D01*
X0344367Y0025222D01*
X0344540Y0024940D01*
X0344707Y0024654D01*
X0344867Y0024364D01*
X0345020Y0024070D01*
X0345165Y0023772D01*
X0345303Y0023471D01*
X0345433Y0023166D01*
X0345556Y0022859D01*
X0345672Y0022548D01*
X0345780Y0022235D01*
X0345880Y0021919D01*
X0345972Y0021601D01*
X0346056Y0021280D01*
X0346133Y0020958D01*
X0346202Y0020634D01*
X0346262Y0020308D01*
X0346315Y0019981D01*
X0346359Y0019653D01*
X0346396Y0019323D01*
X0346424Y0018993D01*
X0346445Y0018662D01*
X0346457Y0018331D01*
X0346461Y0018000D01*
X0346457Y0017669D01*
X0346445Y0017338D01*
X0346424Y0017007D01*
X0346396Y0016677D01*
X0346359Y0016347D01*
X0346315Y0016019D01*
X0346262Y0015692D01*
X0346202Y0015366D01*
X0346133Y0015042D01*
X0346056Y0014720D01*
X0345972Y0014399D01*
X0345880Y0014081D01*
X0345780Y0013765D01*
X0345672Y0013452D01*
X0345556Y0013141D01*
X0345433Y0012834D01*
X0345303Y0012529D01*
X0345165Y0012228D01*
X0345020Y0011930D01*
X0344867Y0011636D01*
X0344707Y0011346D01*
X0344540Y0011060D01*
X0344367Y0010778D01*
X0344186Y0010500D01*
X0343998Y0010227D01*
X0343804Y0009958D01*
X0343604Y0009694D01*
X0343397Y0009436D01*
X0343183Y0009182D01*
X0342964Y0008934D01*
X0342738Y0008691D01*
X0342507Y0008454D01*
X0342270Y0008223D01*
X0342027Y0007997D01*
X0341779Y0007778D01*
X0341525Y0007564D01*
X0341267Y0007357D01*
X0341003Y0007157D01*
X0340734Y0006963D01*
X0340461Y0006775D01*
X0340183Y0006594D01*
X0339901Y0006421D01*
X0339615Y0006254D01*
X0339325Y0006094D01*
X0339031Y0005941D01*
X0338733Y0005796D01*
X0338432Y0005658D01*
X0338127Y0005528D01*
X0337820Y0005405D01*
X0337509Y0005289D01*
X0337196Y0005181D01*
X0336880Y0005081D01*
X0336562Y0004989D01*
X0336241Y0004905D01*
X0335919Y0004828D01*
X0335595Y0004759D01*
X0335269Y0004699D01*
X0334942Y0004646D01*
X0334614Y0004602D01*
X0334284Y0004565D01*
X0333954Y0004537D01*
X0333623Y0004516D01*
X0333292Y0004504D01*
X0332961Y0004500D01*
X0332630Y0004504D01*
X0332299Y0004516D01*
X0331968Y0004537D01*
X0331638Y0004565D01*
X0331308Y0004602D01*
X0330980Y0004646D01*
X0330653Y0004699D01*
X0330327Y0004759D01*
X0330003Y0004828D01*
X0329681Y0004905D01*
X0329360Y0004989D01*
X0329042Y0005081D01*
X0328726Y0005181D01*
X0328413Y0005289D01*
X0328102Y0005405D01*
X0327795Y0005528D01*
X0327490Y0005658D01*
X0327189Y0005796D01*
X0326891Y0005941D01*
X0326597Y0006094D01*
X0326307Y0006254D01*
X0326021Y0006421D01*
X0325739Y0006594D01*
X0325461Y0006775D01*
X0325188Y0006963D01*
X0324919Y0007157D01*
X0324655Y0007357D01*
X0324397Y0007564D01*
X0324143Y0007778D01*
X0323895Y0007997D01*
X0323652Y0008223D01*
X0323415Y0008454D01*
X0323184Y0008691D01*
X0322958Y0008934D01*
X0322739Y0009182D01*
X0322525Y0009436D01*
X0322318Y0009694D01*
X0322118Y0009958D01*
X0321924Y0010227D01*
X0321736Y0010500D01*
X0321555Y0010778D01*
X0321382Y0011060D01*
X0321215Y0011346D01*
X0321055Y0011636D01*
X0320902Y0011930D01*
X0320757Y0012228D01*
X0320619Y0012529D01*
X0320489Y0012834D01*
X0320366Y0013141D01*
X0320250Y0013452D01*
X0320142Y0013765D01*
X0320042Y0014081D01*
X0319950Y0014399D01*
X0319866Y0014720D01*
X0319789Y0015042D01*
X0319720Y0015366D01*
X0319660Y0015692D01*
X0319607Y0016019D01*
X0319563Y0016347D01*
X0319526Y0016677D01*
X0319498Y0017007D01*
X0319477Y0017338D01*
X0319465Y0017669D01*
X0319461Y0018000D01*
X0263157Y0020257D02*
X0263157Y0015257D01*
X0260657Y0012757D01*
X0255657Y0012757D01*
X0253157Y0015257D01*
X0250657Y0012757D01*
X0245657Y0012757D01*
X0243157Y0015257D01*
X0240657Y0012757D01*
X0235657Y0012757D01*
X0233157Y0015257D01*
X0230657Y0012757D01*
X0225657Y0012757D01*
X0223157Y0015257D01*
X0223157Y0012757D01*
X0213157Y0012757D01*
X0213157Y0022757D01*
X0223157Y0022757D01*
X0223157Y0020257D01*
X0225657Y0022757D01*
X0230657Y0022757D01*
X0233157Y0020257D01*
X0233157Y0015257D01*
X0233157Y0020257D02*
X0235657Y0022757D01*
X0240657Y0022757D01*
X0243157Y0020257D01*
X0245657Y0022757D01*
X0250657Y0022757D01*
X0253157Y0020257D01*
X0255657Y0022757D01*
X0260657Y0022757D01*
X0263157Y0020257D01*
X0253157Y0020257D02*
X0253157Y0015257D01*
X0243157Y0015257D02*
X0243157Y0020257D01*
X0243457Y0025957D02*
X0227457Y0025957D01*
X0227397Y0025959D01*
X0227336Y0025964D01*
X0227277Y0025973D01*
X0227218Y0025986D01*
X0227159Y0026002D01*
X0227102Y0026022D01*
X0227047Y0026045D01*
X0226992Y0026072D01*
X0226940Y0026101D01*
X0226889Y0026134D01*
X0226840Y0026170D01*
X0226794Y0026208D01*
X0226750Y0026250D01*
X0226708Y0026294D01*
X0226670Y0026340D01*
X0226634Y0026389D01*
X0226601Y0026440D01*
X0226572Y0026492D01*
X0226545Y0026547D01*
X0226522Y0026602D01*
X0226502Y0026659D01*
X0226486Y0026718D01*
X0226473Y0026777D01*
X0226464Y0026836D01*
X0226459Y0026897D01*
X0226457Y0026957D01*
X0226457Y0032957D01*
X0226459Y0033017D01*
X0226464Y0033078D01*
X0226473Y0033137D01*
X0226486Y0033196D01*
X0226502Y0033255D01*
X0226522Y0033312D01*
X0226545Y0033367D01*
X0226572Y0033422D01*
X0226601Y0033474D01*
X0226634Y0033525D01*
X0226670Y0033574D01*
X0226708Y0033620D01*
X0226750Y0033664D01*
X0226794Y0033706D01*
X0226840Y0033744D01*
X0226889Y0033780D01*
X0226940Y0033813D01*
X0226992Y0033842D01*
X0227047Y0033869D01*
X0227102Y0033892D01*
X0227159Y0033912D01*
X0227218Y0033928D01*
X0227277Y0033941D01*
X0227336Y0033950D01*
X0227397Y0033955D01*
X0227457Y0033957D01*
X0243457Y0033957D01*
X0243517Y0033955D01*
X0243578Y0033950D01*
X0243637Y0033941D01*
X0243696Y0033928D01*
X0243755Y0033912D01*
X0243812Y0033892D01*
X0243867Y0033869D01*
X0243922Y0033842D01*
X0243974Y0033813D01*
X0244025Y0033780D01*
X0244074Y0033744D01*
X0244120Y0033706D01*
X0244164Y0033664D01*
X0244206Y0033620D01*
X0244244Y0033574D01*
X0244280Y0033525D01*
X0244313Y0033474D01*
X0244342Y0033422D01*
X0244369Y0033367D01*
X0244392Y0033312D01*
X0244412Y0033255D01*
X0244428Y0033196D01*
X0244441Y0033137D01*
X0244450Y0033078D01*
X0244455Y0033017D01*
X0244457Y0032957D01*
X0244457Y0026957D01*
X0244455Y0026897D01*
X0244450Y0026836D01*
X0244441Y0026777D01*
X0244428Y0026718D01*
X0244412Y0026659D01*
X0244392Y0026602D01*
X0244369Y0026547D01*
X0244342Y0026492D01*
X0244313Y0026440D01*
X0244280Y0026389D01*
X0244244Y0026340D01*
X0244206Y0026294D01*
X0244164Y0026250D01*
X0244120Y0026208D01*
X0244074Y0026170D01*
X0244025Y0026134D01*
X0243974Y0026101D01*
X0243922Y0026072D01*
X0243867Y0026045D01*
X0243812Y0026022D01*
X0243755Y0026002D01*
X0243696Y0025986D01*
X0243637Y0025973D01*
X0243578Y0025964D01*
X0243517Y0025959D01*
X0243457Y0025957D01*
X0239457Y0027457D02*
X0235457Y0029957D01*
X0235457Y0027457D01*
X0239457Y0027457D02*
X0239457Y0032457D01*
X0235457Y0029957D01*
X0235457Y0032457D01*
X0235457Y0029957D02*
X0232957Y0029957D01*
X0235457Y0029957D02*
X0241457Y0029957D01*
X0223157Y0020257D02*
X0223157Y0015257D01*
X0220657Y0012757D02*
X0215657Y0012757D01*
X0213157Y0015257D02*
X0213157Y0017757D01*
X0213157Y0020257D01*
X0215657Y0022757D02*
X0220657Y0022757D01*
X0181665Y0018000D02*
X0181669Y0018331D01*
X0181681Y0018662D01*
X0181702Y0018993D01*
X0181730Y0019323D01*
X0181767Y0019653D01*
X0181811Y0019981D01*
X0181864Y0020308D01*
X0181924Y0020634D01*
X0181993Y0020958D01*
X0182070Y0021280D01*
X0182154Y0021601D01*
X0182246Y0021919D01*
X0182346Y0022235D01*
X0182454Y0022548D01*
X0182570Y0022859D01*
X0182693Y0023166D01*
X0182823Y0023471D01*
X0182961Y0023772D01*
X0183106Y0024070D01*
X0183259Y0024364D01*
X0183419Y0024654D01*
X0183586Y0024940D01*
X0183759Y0025222D01*
X0183940Y0025500D01*
X0184128Y0025773D01*
X0184322Y0026042D01*
X0184522Y0026306D01*
X0184729Y0026564D01*
X0184943Y0026818D01*
X0185162Y0027066D01*
X0185388Y0027309D01*
X0185619Y0027546D01*
X0185856Y0027777D01*
X0186099Y0028003D01*
X0186347Y0028222D01*
X0186601Y0028436D01*
X0186859Y0028643D01*
X0187123Y0028843D01*
X0187392Y0029037D01*
X0187665Y0029225D01*
X0187943Y0029406D01*
X0188225Y0029579D01*
X0188511Y0029746D01*
X0188801Y0029906D01*
X0189095Y0030059D01*
X0189393Y0030204D01*
X0189694Y0030342D01*
X0189999Y0030472D01*
X0190306Y0030595D01*
X0190617Y0030711D01*
X0190930Y0030819D01*
X0191246Y0030919D01*
X0191564Y0031011D01*
X0191885Y0031095D01*
X0192207Y0031172D01*
X0192531Y0031241D01*
X0192857Y0031301D01*
X0193184Y0031354D01*
X0193512Y0031398D01*
X0193842Y0031435D01*
X0194172Y0031463D01*
X0194503Y0031484D01*
X0194834Y0031496D01*
X0195165Y0031500D01*
X0195496Y0031496D01*
X0195827Y0031484D01*
X0196158Y0031463D01*
X0196488Y0031435D01*
X0196818Y0031398D01*
X0197146Y0031354D01*
X0197473Y0031301D01*
X0197799Y0031241D01*
X0198123Y0031172D01*
X0198445Y0031095D01*
X0198766Y0031011D01*
X0199084Y0030919D01*
X0199400Y0030819D01*
X0199713Y0030711D01*
X0200024Y0030595D01*
X0200331Y0030472D01*
X0200636Y0030342D01*
X0200937Y0030204D01*
X0201235Y0030059D01*
X0201529Y0029906D01*
X0201819Y0029746D01*
X0202105Y0029579D01*
X0202387Y0029406D01*
X0202665Y0029225D01*
X0202938Y0029037D01*
X0203207Y0028843D01*
X0203471Y0028643D01*
X0203729Y0028436D01*
X0203983Y0028222D01*
X0204231Y0028003D01*
X0204474Y0027777D01*
X0204711Y0027546D01*
X0204942Y0027309D01*
X0205168Y0027066D01*
X0205387Y0026818D01*
X0205601Y0026564D01*
X0205808Y0026306D01*
X0206008Y0026042D01*
X0206202Y0025773D01*
X0206390Y0025500D01*
X0206571Y0025222D01*
X0206744Y0024940D01*
X0206911Y0024654D01*
X0207071Y0024364D01*
X0207224Y0024070D01*
X0207369Y0023772D01*
X0207507Y0023471D01*
X0207637Y0023166D01*
X0207760Y0022859D01*
X0207876Y0022548D01*
X0207984Y0022235D01*
X0208084Y0021919D01*
X0208176Y0021601D01*
X0208260Y0021280D01*
X0208337Y0020958D01*
X0208406Y0020634D01*
X0208466Y0020308D01*
X0208519Y0019981D01*
X0208563Y0019653D01*
X0208600Y0019323D01*
X0208628Y0018993D01*
X0208649Y0018662D01*
X0208661Y0018331D01*
X0208665Y0018000D01*
X0208661Y0017669D01*
X0208649Y0017338D01*
X0208628Y0017007D01*
X0208600Y0016677D01*
X0208563Y0016347D01*
X0208519Y0016019D01*
X0208466Y0015692D01*
X0208406Y0015366D01*
X0208337Y0015042D01*
X0208260Y0014720D01*
X0208176Y0014399D01*
X0208084Y0014081D01*
X0207984Y0013765D01*
X0207876Y0013452D01*
X0207760Y0013141D01*
X0207637Y0012834D01*
X0207507Y0012529D01*
X0207369Y0012228D01*
X0207224Y0011930D01*
X0207071Y0011636D01*
X0206911Y0011346D01*
X0206744Y0011060D01*
X0206571Y0010778D01*
X0206390Y0010500D01*
X0206202Y0010227D01*
X0206008Y0009958D01*
X0205808Y0009694D01*
X0205601Y0009436D01*
X0205387Y0009182D01*
X0205168Y0008934D01*
X0204942Y0008691D01*
X0204711Y0008454D01*
X0204474Y0008223D01*
X0204231Y0007997D01*
X0203983Y0007778D01*
X0203729Y0007564D01*
X0203471Y0007357D01*
X0203207Y0007157D01*
X0202938Y0006963D01*
X0202665Y0006775D01*
X0202387Y0006594D01*
X0202105Y0006421D01*
X0201819Y0006254D01*
X0201529Y0006094D01*
X0201235Y0005941D01*
X0200937Y0005796D01*
X0200636Y0005658D01*
X0200331Y0005528D01*
X0200024Y0005405D01*
X0199713Y0005289D01*
X0199400Y0005181D01*
X0199084Y0005081D01*
X0198766Y0004989D01*
X0198445Y0004905D01*
X0198123Y0004828D01*
X0197799Y0004759D01*
X0197473Y0004699D01*
X0197146Y0004646D01*
X0196818Y0004602D01*
X0196488Y0004565D01*
X0196158Y0004537D01*
X0195827Y0004516D01*
X0195496Y0004504D01*
X0195165Y0004500D01*
X0194834Y0004504D01*
X0194503Y0004516D01*
X0194172Y0004537D01*
X0193842Y0004565D01*
X0193512Y0004602D01*
X0193184Y0004646D01*
X0192857Y0004699D01*
X0192531Y0004759D01*
X0192207Y0004828D01*
X0191885Y0004905D01*
X0191564Y0004989D01*
X0191246Y0005081D01*
X0190930Y0005181D01*
X0190617Y0005289D01*
X0190306Y0005405D01*
X0189999Y0005528D01*
X0189694Y0005658D01*
X0189393Y0005796D01*
X0189095Y0005941D01*
X0188801Y0006094D01*
X0188511Y0006254D01*
X0188225Y0006421D01*
X0187943Y0006594D01*
X0187665Y0006775D01*
X0187392Y0006963D01*
X0187123Y0007157D01*
X0186859Y0007357D01*
X0186601Y0007564D01*
X0186347Y0007778D01*
X0186099Y0007997D01*
X0185856Y0008223D01*
X0185619Y0008454D01*
X0185388Y0008691D01*
X0185162Y0008934D01*
X0184943Y0009182D01*
X0184729Y0009436D01*
X0184522Y0009694D01*
X0184322Y0009958D01*
X0184128Y0010227D01*
X0183940Y0010500D01*
X0183759Y0010778D01*
X0183586Y0011060D01*
X0183419Y0011346D01*
X0183259Y0011636D01*
X0183106Y0011930D01*
X0182961Y0012228D01*
X0182823Y0012529D01*
X0182693Y0012834D01*
X0182570Y0013141D01*
X0182454Y0013452D01*
X0182346Y0013765D01*
X0182246Y0014081D01*
X0182154Y0014399D01*
X0182070Y0014720D01*
X0181993Y0015042D01*
X0181924Y0015366D01*
X0181864Y0015692D01*
X0181811Y0016019D01*
X0181767Y0016347D01*
X0181730Y0016677D01*
X0181702Y0017007D01*
X0181681Y0017338D01*
X0181669Y0017669D01*
X0181665Y0018000D01*
X0142295Y0018000D02*
X0142299Y0018331D01*
X0142311Y0018662D01*
X0142332Y0018993D01*
X0142360Y0019323D01*
X0142397Y0019653D01*
X0142441Y0019981D01*
X0142494Y0020308D01*
X0142554Y0020634D01*
X0142623Y0020958D01*
X0142700Y0021280D01*
X0142784Y0021601D01*
X0142876Y0021919D01*
X0142976Y0022235D01*
X0143084Y0022548D01*
X0143200Y0022859D01*
X0143323Y0023166D01*
X0143453Y0023471D01*
X0143591Y0023772D01*
X0143736Y0024070D01*
X0143889Y0024364D01*
X0144049Y0024654D01*
X0144216Y0024940D01*
X0144389Y0025222D01*
X0144570Y0025500D01*
X0144758Y0025773D01*
X0144952Y0026042D01*
X0145152Y0026306D01*
X0145359Y0026564D01*
X0145573Y0026818D01*
X0145792Y0027066D01*
X0146018Y0027309D01*
X0146249Y0027546D01*
X0146486Y0027777D01*
X0146729Y0028003D01*
X0146977Y0028222D01*
X0147231Y0028436D01*
X0147489Y0028643D01*
X0147753Y0028843D01*
X0148022Y0029037D01*
X0148295Y0029225D01*
X0148573Y0029406D01*
X0148855Y0029579D01*
X0149141Y0029746D01*
X0149431Y0029906D01*
X0149725Y0030059D01*
X0150023Y0030204D01*
X0150324Y0030342D01*
X0150629Y0030472D01*
X0150936Y0030595D01*
X0151247Y0030711D01*
X0151560Y0030819D01*
X0151876Y0030919D01*
X0152194Y0031011D01*
X0152515Y0031095D01*
X0152837Y0031172D01*
X0153161Y0031241D01*
X0153487Y0031301D01*
X0153814Y0031354D01*
X0154142Y0031398D01*
X0154472Y0031435D01*
X0154802Y0031463D01*
X0155133Y0031484D01*
X0155464Y0031496D01*
X0155795Y0031500D01*
X0156126Y0031496D01*
X0156457Y0031484D01*
X0156788Y0031463D01*
X0157118Y0031435D01*
X0157448Y0031398D01*
X0157776Y0031354D01*
X0158103Y0031301D01*
X0158429Y0031241D01*
X0158753Y0031172D01*
X0159075Y0031095D01*
X0159396Y0031011D01*
X0159714Y0030919D01*
X0160030Y0030819D01*
X0160343Y0030711D01*
X0160654Y0030595D01*
X0160961Y0030472D01*
X0161266Y0030342D01*
X0161567Y0030204D01*
X0161865Y0030059D01*
X0162159Y0029906D01*
X0162449Y0029746D01*
X0162735Y0029579D01*
X0163017Y0029406D01*
X0163295Y0029225D01*
X0163568Y0029037D01*
X0163837Y0028843D01*
X0164101Y0028643D01*
X0164359Y0028436D01*
X0164613Y0028222D01*
X0164861Y0028003D01*
X0165104Y0027777D01*
X0165341Y0027546D01*
X0165572Y0027309D01*
X0165798Y0027066D01*
X0166017Y0026818D01*
X0166231Y0026564D01*
X0166438Y0026306D01*
X0166638Y0026042D01*
X0166832Y0025773D01*
X0167020Y0025500D01*
X0167201Y0025222D01*
X0167374Y0024940D01*
X0167541Y0024654D01*
X0167701Y0024364D01*
X0167854Y0024070D01*
X0167999Y0023772D01*
X0168137Y0023471D01*
X0168267Y0023166D01*
X0168390Y0022859D01*
X0168506Y0022548D01*
X0168614Y0022235D01*
X0168714Y0021919D01*
X0168806Y0021601D01*
X0168890Y0021280D01*
X0168967Y0020958D01*
X0169036Y0020634D01*
X0169096Y0020308D01*
X0169149Y0019981D01*
X0169193Y0019653D01*
X0169230Y0019323D01*
X0169258Y0018993D01*
X0169279Y0018662D01*
X0169291Y0018331D01*
X0169295Y0018000D01*
X0169291Y0017669D01*
X0169279Y0017338D01*
X0169258Y0017007D01*
X0169230Y0016677D01*
X0169193Y0016347D01*
X0169149Y0016019D01*
X0169096Y0015692D01*
X0169036Y0015366D01*
X0168967Y0015042D01*
X0168890Y0014720D01*
X0168806Y0014399D01*
X0168714Y0014081D01*
X0168614Y0013765D01*
X0168506Y0013452D01*
X0168390Y0013141D01*
X0168267Y0012834D01*
X0168137Y0012529D01*
X0167999Y0012228D01*
X0167854Y0011930D01*
X0167701Y0011636D01*
X0167541Y0011346D01*
X0167374Y0011060D01*
X0167201Y0010778D01*
X0167020Y0010500D01*
X0166832Y0010227D01*
X0166638Y0009958D01*
X0166438Y0009694D01*
X0166231Y0009436D01*
X0166017Y0009182D01*
X0165798Y0008934D01*
X0165572Y0008691D01*
X0165341Y0008454D01*
X0165104Y0008223D01*
X0164861Y0007997D01*
X0164613Y0007778D01*
X0164359Y0007564D01*
X0164101Y0007357D01*
X0163837Y0007157D01*
X0163568Y0006963D01*
X0163295Y0006775D01*
X0163017Y0006594D01*
X0162735Y0006421D01*
X0162449Y0006254D01*
X0162159Y0006094D01*
X0161865Y0005941D01*
X0161567Y0005796D01*
X0161266Y0005658D01*
X0160961Y0005528D01*
X0160654Y0005405D01*
X0160343Y0005289D01*
X0160030Y0005181D01*
X0159714Y0005081D01*
X0159396Y0004989D01*
X0159075Y0004905D01*
X0158753Y0004828D01*
X0158429Y0004759D01*
X0158103Y0004699D01*
X0157776Y0004646D01*
X0157448Y0004602D01*
X0157118Y0004565D01*
X0156788Y0004537D01*
X0156457Y0004516D01*
X0156126Y0004504D01*
X0155795Y0004500D01*
X0155464Y0004504D01*
X0155133Y0004516D01*
X0154802Y0004537D01*
X0154472Y0004565D01*
X0154142Y0004602D01*
X0153814Y0004646D01*
X0153487Y0004699D01*
X0153161Y0004759D01*
X0152837Y0004828D01*
X0152515Y0004905D01*
X0152194Y0004989D01*
X0151876Y0005081D01*
X0151560Y0005181D01*
X0151247Y0005289D01*
X0150936Y0005405D01*
X0150629Y0005528D01*
X0150324Y0005658D01*
X0150023Y0005796D01*
X0149725Y0005941D01*
X0149431Y0006094D01*
X0149141Y0006254D01*
X0148855Y0006421D01*
X0148573Y0006594D01*
X0148295Y0006775D01*
X0148022Y0006963D01*
X0147753Y0007157D01*
X0147489Y0007357D01*
X0147231Y0007564D01*
X0146977Y0007778D01*
X0146729Y0007997D01*
X0146486Y0008223D01*
X0146249Y0008454D01*
X0146018Y0008691D01*
X0145792Y0008934D01*
X0145573Y0009182D01*
X0145359Y0009436D01*
X0145152Y0009694D01*
X0144952Y0009958D01*
X0144758Y0010227D01*
X0144570Y0010500D01*
X0144389Y0010778D01*
X0144216Y0011060D01*
X0144049Y0011346D01*
X0143889Y0011636D01*
X0143736Y0011930D01*
X0143591Y0012228D01*
X0143453Y0012529D01*
X0143323Y0012834D01*
X0143200Y0013141D01*
X0143084Y0013452D01*
X0142976Y0013765D01*
X0142876Y0014081D01*
X0142784Y0014399D01*
X0142700Y0014720D01*
X0142623Y0015042D01*
X0142554Y0015366D01*
X0142494Y0015692D01*
X0142441Y0016019D01*
X0142397Y0016347D01*
X0142360Y0016677D01*
X0142332Y0017007D01*
X0142311Y0017338D01*
X0142299Y0017669D01*
X0142295Y0018000D01*
X0118157Y0014157D02*
X0109157Y0014157D01*
X0108157Y0015157D01*
X0107157Y0014157D01*
X0099157Y0014157D01*
X0098157Y0015157D01*
X0097157Y0014157D01*
X0089157Y0014157D01*
X0088157Y0015157D01*
X0087157Y0014157D01*
X0079157Y0014157D01*
X0078157Y0015157D01*
X0077157Y0014157D01*
X0069157Y0014157D01*
X0068157Y0015157D01*
X0067157Y0014157D01*
X0059157Y0014157D01*
X0058157Y0015157D01*
X0057157Y0014157D01*
X0049157Y0014157D01*
X0048157Y0015157D01*
X0047157Y0014157D01*
X0038157Y0014157D01*
X0038157Y0024157D01*
X0047157Y0024157D01*
X0048157Y0023157D01*
X0049157Y0024157D01*
X0057157Y0024157D01*
X0058157Y0023157D01*
X0059157Y0024157D01*
X0067157Y0024157D01*
X0068157Y0023157D01*
X0069157Y0024157D01*
X0077157Y0024157D01*
X0078157Y0023157D01*
X0079157Y0024157D01*
X0087157Y0024157D01*
X0088157Y0023157D01*
X0089157Y0024157D01*
X0097157Y0024157D01*
X0098157Y0023157D01*
X0099157Y0024157D01*
X0107157Y0024157D01*
X0108157Y0023157D01*
X0109157Y0024157D01*
X0118157Y0024157D01*
X0118157Y0014157D01*
X0088157Y0034657D02*
X0088157Y0039657D01*
X0123157Y0049657D02*
X0125657Y0047157D01*
X0130657Y0047157D01*
X0133157Y0049657D01*
X0123157Y0049657D02*
X0123157Y0054657D01*
X0125657Y0057157D01*
X0130657Y0057157D01*
X0133157Y0059657D01*
X0130657Y0057157D02*
X0133157Y0054657D01*
X0125657Y0057157D02*
X0123157Y0059657D01*
X0123157Y0064657D01*
X0125657Y0067157D01*
X0155937Y0116957D02*
X0164937Y0116957D01*
X0165937Y0117957D01*
X0166937Y0116957D01*
X0174937Y0116957D01*
X0175937Y0117957D01*
X0176937Y0116957D01*
X0184937Y0116957D01*
X0185937Y0117957D01*
X0186937Y0116957D01*
X0194937Y0116957D01*
X0195937Y0117957D01*
X0196937Y0116957D01*
X0204937Y0116957D01*
X0205937Y0117957D01*
X0206937Y0116957D01*
X0214937Y0116957D01*
X0215937Y0117957D01*
X0216937Y0116957D01*
X0224937Y0116957D01*
X0225937Y0117957D01*
X0226937Y0116957D01*
X0234937Y0116957D01*
X0235937Y0117957D01*
X0236937Y0116957D01*
X0244937Y0116957D01*
X0245937Y0117957D01*
X0246937Y0116957D01*
X0254937Y0116957D01*
X0255937Y0117957D01*
X0256937Y0116957D01*
X0264937Y0116957D01*
X0265937Y0117957D01*
X0266937Y0116957D01*
X0274937Y0116957D01*
X0275937Y0117957D01*
X0276937Y0116957D01*
X0284937Y0116957D01*
X0285937Y0117957D01*
X0286937Y0116957D01*
X0294937Y0116957D01*
X0295937Y0117957D01*
X0296937Y0116957D01*
X0304937Y0116957D01*
X0305937Y0117957D01*
X0306937Y0116957D01*
X0314937Y0116957D01*
X0315937Y0117957D01*
X0316937Y0116957D01*
X0325937Y0116957D01*
X0325937Y0126957D01*
X0316937Y0126957D01*
X0315937Y0125957D01*
X0314937Y0126957D01*
X0306937Y0126957D01*
X0305937Y0125957D01*
X0304937Y0126957D01*
X0296937Y0126957D01*
X0295937Y0125957D01*
X0294937Y0126957D01*
X0286937Y0126957D01*
X0285937Y0125957D01*
X0284937Y0126957D01*
X0276937Y0126957D01*
X0275937Y0125957D01*
X0274937Y0126957D01*
X0266937Y0126957D01*
X0265937Y0125957D01*
X0264937Y0126957D01*
X0256937Y0126957D01*
X0255937Y0125957D01*
X0254937Y0126957D01*
X0246937Y0126957D01*
X0245937Y0125957D01*
X0244937Y0126957D01*
X0236937Y0126957D01*
X0235937Y0125957D01*
X0234937Y0126957D01*
X0226937Y0126957D01*
X0225937Y0125957D01*
X0224937Y0126957D01*
X0216937Y0126957D01*
X0215937Y0125957D01*
X0214937Y0126957D01*
X0206937Y0126957D01*
X0205937Y0125957D01*
X0204937Y0126957D01*
X0196937Y0126957D01*
X0195937Y0125957D01*
X0194937Y0126957D01*
X0186937Y0126957D01*
X0185937Y0125957D01*
X0184937Y0126957D01*
X0176937Y0126957D01*
X0175937Y0125957D01*
X0174937Y0126957D01*
X0166937Y0126957D01*
X0165937Y0125957D01*
X0164937Y0126957D01*
X0155937Y0126957D01*
X0155937Y0116957D01*
X0022857Y0074903D02*
X0018587Y0074903D01*
X0020722Y0074903D02*
X0018587Y0077038D01*
X0018587Y0078106D01*
X0017520Y0072728D02*
X0016452Y0071660D01*
X0016452Y0068457D01*
X0022857Y0068457D01*
X0022857Y0071660D01*
X0021790Y0072728D01*
X0017520Y0072728D01*
X0004500Y0018000D02*
X0004504Y0018331D01*
X0004516Y0018662D01*
X0004537Y0018993D01*
X0004565Y0019323D01*
X0004602Y0019653D01*
X0004646Y0019981D01*
X0004699Y0020308D01*
X0004759Y0020634D01*
X0004828Y0020958D01*
X0004905Y0021280D01*
X0004989Y0021601D01*
X0005081Y0021919D01*
X0005181Y0022235D01*
X0005289Y0022548D01*
X0005405Y0022859D01*
X0005528Y0023166D01*
X0005658Y0023471D01*
X0005796Y0023772D01*
X0005941Y0024070D01*
X0006094Y0024364D01*
X0006254Y0024654D01*
X0006421Y0024940D01*
X0006594Y0025222D01*
X0006775Y0025500D01*
X0006963Y0025773D01*
X0007157Y0026042D01*
X0007357Y0026306D01*
X0007564Y0026564D01*
X0007778Y0026818D01*
X0007997Y0027066D01*
X0008223Y0027309D01*
X0008454Y0027546D01*
X0008691Y0027777D01*
X0008934Y0028003D01*
X0009182Y0028222D01*
X0009436Y0028436D01*
X0009694Y0028643D01*
X0009958Y0028843D01*
X0010227Y0029037D01*
X0010500Y0029225D01*
X0010778Y0029406D01*
X0011060Y0029579D01*
X0011346Y0029746D01*
X0011636Y0029906D01*
X0011930Y0030059D01*
X0012228Y0030204D01*
X0012529Y0030342D01*
X0012834Y0030472D01*
X0013141Y0030595D01*
X0013452Y0030711D01*
X0013765Y0030819D01*
X0014081Y0030919D01*
X0014399Y0031011D01*
X0014720Y0031095D01*
X0015042Y0031172D01*
X0015366Y0031241D01*
X0015692Y0031301D01*
X0016019Y0031354D01*
X0016347Y0031398D01*
X0016677Y0031435D01*
X0017007Y0031463D01*
X0017338Y0031484D01*
X0017669Y0031496D01*
X0018000Y0031500D01*
X0018331Y0031496D01*
X0018662Y0031484D01*
X0018993Y0031463D01*
X0019323Y0031435D01*
X0019653Y0031398D01*
X0019981Y0031354D01*
X0020308Y0031301D01*
X0020634Y0031241D01*
X0020958Y0031172D01*
X0021280Y0031095D01*
X0021601Y0031011D01*
X0021919Y0030919D01*
X0022235Y0030819D01*
X0022548Y0030711D01*
X0022859Y0030595D01*
X0023166Y0030472D01*
X0023471Y0030342D01*
X0023772Y0030204D01*
X0024070Y0030059D01*
X0024364Y0029906D01*
X0024654Y0029746D01*
X0024940Y0029579D01*
X0025222Y0029406D01*
X0025500Y0029225D01*
X0025773Y0029037D01*
X0026042Y0028843D01*
X0026306Y0028643D01*
X0026564Y0028436D01*
X0026818Y0028222D01*
X0027066Y0028003D01*
X0027309Y0027777D01*
X0027546Y0027546D01*
X0027777Y0027309D01*
X0028003Y0027066D01*
X0028222Y0026818D01*
X0028436Y0026564D01*
X0028643Y0026306D01*
X0028843Y0026042D01*
X0029037Y0025773D01*
X0029225Y0025500D01*
X0029406Y0025222D01*
X0029579Y0024940D01*
X0029746Y0024654D01*
X0029906Y0024364D01*
X0030059Y0024070D01*
X0030204Y0023772D01*
X0030342Y0023471D01*
X0030472Y0023166D01*
X0030595Y0022859D01*
X0030711Y0022548D01*
X0030819Y0022235D01*
X0030919Y0021919D01*
X0031011Y0021601D01*
X0031095Y0021280D01*
X0031172Y0020958D01*
X0031241Y0020634D01*
X0031301Y0020308D01*
X0031354Y0019981D01*
X0031398Y0019653D01*
X0031435Y0019323D01*
X0031463Y0018993D01*
X0031484Y0018662D01*
X0031496Y0018331D01*
X0031500Y0018000D01*
X0031496Y0017669D01*
X0031484Y0017338D01*
X0031463Y0017007D01*
X0031435Y0016677D01*
X0031398Y0016347D01*
X0031354Y0016019D01*
X0031301Y0015692D01*
X0031241Y0015366D01*
X0031172Y0015042D01*
X0031095Y0014720D01*
X0031011Y0014399D01*
X0030919Y0014081D01*
X0030819Y0013765D01*
X0030711Y0013452D01*
X0030595Y0013141D01*
X0030472Y0012834D01*
X0030342Y0012529D01*
X0030204Y0012228D01*
X0030059Y0011930D01*
X0029906Y0011636D01*
X0029746Y0011346D01*
X0029579Y0011060D01*
X0029406Y0010778D01*
X0029225Y0010500D01*
X0029037Y0010227D01*
X0028843Y0009958D01*
X0028643Y0009694D01*
X0028436Y0009436D01*
X0028222Y0009182D01*
X0028003Y0008934D01*
X0027777Y0008691D01*
X0027546Y0008454D01*
X0027309Y0008223D01*
X0027066Y0007997D01*
X0026818Y0007778D01*
X0026564Y0007564D01*
X0026306Y0007357D01*
X0026042Y0007157D01*
X0025773Y0006963D01*
X0025500Y0006775D01*
X0025222Y0006594D01*
X0024940Y0006421D01*
X0024654Y0006254D01*
X0024364Y0006094D01*
X0024070Y0005941D01*
X0023772Y0005796D01*
X0023471Y0005658D01*
X0023166Y0005528D01*
X0022859Y0005405D01*
X0022548Y0005289D01*
X0022235Y0005181D01*
X0021919Y0005081D01*
X0021601Y0004989D01*
X0021280Y0004905D01*
X0020958Y0004828D01*
X0020634Y0004759D01*
X0020308Y0004699D01*
X0019981Y0004646D01*
X0019653Y0004602D01*
X0019323Y0004565D01*
X0018993Y0004537D01*
X0018662Y0004516D01*
X0018331Y0004504D01*
X0018000Y0004500D01*
X0017669Y0004504D01*
X0017338Y0004516D01*
X0017007Y0004537D01*
X0016677Y0004565D01*
X0016347Y0004602D01*
X0016019Y0004646D01*
X0015692Y0004699D01*
X0015366Y0004759D01*
X0015042Y0004828D01*
X0014720Y0004905D01*
X0014399Y0004989D01*
X0014081Y0005081D01*
X0013765Y0005181D01*
X0013452Y0005289D01*
X0013141Y0005405D01*
X0012834Y0005528D01*
X0012529Y0005658D01*
X0012228Y0005796D01*
X0011930Y0005941D01*
X0011636Y0006094D01*
X0011346Y0006254D01*
X0011060Y0006421D01*
X0010778Y0006594D01*
X0010500Y0006775D01*
X0010227Y0006963D01*
X0009958Y0007157D01*
X0009694Y0007357D01*
X0009436Y0007564D01*
X0009182Y0007778D01*
X0008934Y0007997D01*
X0008691Y0008223D01*
X0008454Y0008454D01*
X0008223Y0008691D01*
X0007997Y0008934D01*
X0007778Y0009182D01*
X0007564Y0009436D01*
X0007357Y0009694D01*
X0007157Y0009958D01*
X0006963Y0010227D01*
X0006775Y0010500D01*
X0006594Y0010778D01*
X0006421Y0011060D01*
X0006254Y0011346D01*
X0006094Y0011636D01*
X0005941Y0011930D01*
X0005796Y0012228D01*
X0005658Y0012529D01*
X0005528Y0012834D01*
X0005405Y0013141D01*
X0005289Y0013452D01*
X0005181Y0013765D01*
X0005081Y0014081D01*
X0004989Y0014399D01*
X0004905Y0014720D01*
X0004828Y0015042D01*
X0004759Y0015366D01*
X0004699Y0015692D01*
X0004646Y0016019D01*
X0004602Y0016347D01*
X0004565Y0016677D01*
X0004537Y0017007D01*
X0004516Y0017338D01*
X0004504Y0017669D01*
X0004500Y0018000D01*
X0320350Y0067079D02*
X0325961Y0067079D01*
X0325961Y0079236D01*
X0320350Y0079236D01*
X0320350Y0067079D01*
D13*
X0334605Y0063721D02*
X0337507Y0063721D01*
X0337507Y0062754D02*
X0337507Y0064689D01*
X0335573Y0062754D02*
X0334605Y0063721D01*
X0335089Y0061742D02*
X0334605Y0061259D01*
X0334605Y0060291D01*
X0335089Y0059807D01*
X0337024Y0059807D01*
X0337507Y0060291D01*
X0337507Y0061259D01*
X0337024Y0061742D01*
X0300007Y0061738D02*
X0299524Y0061254D01*
X0300007Y0061738D02*
X0300007Y0062705D01*
X0299524Y0063189D01*
X0299040Y0063189D01*
X0298556Y0062705D01*
X0298556Y0062221D01*
X0298556Y0062705D02*
X0298073Y0063189D01*
X0297589Y0063189D01*
X0297105Y0062705D01*
X0297105Y0061738D01*
X0297589Y0061254D01*
X0297589Y0060242D02*
X0297105Y0059759D01*
X0297105Y0058791D01*
X0297589Y0058307D01*
X0299524Y0058307D01*
X0300007Y0058791D01*
X0300007Y0059759D01*
X0299524Y0060242D01*
X0300007Y0054189D02*
X0300007Y0052254D01*
X0298073Y0054189D01*
X0297589Y0054189D01*
X0297105Y0053705D01*
X0297105Y0052738D01*
X0297589Y0052254D01*
X0297589Y0051242D02*
X0297105Y0050759D01*
X0297105Y0049791D01*
X0297589Y0049307D01*
X0299524Y0049307D01*
X0300007Y0049791D01*
X0300007Y0050759D01*
X0299524Y0051242D01*
X0294135Y0036610D02*
X0292201Y0036610D01*
X0292201Y0033707D01*
X0291189Y0033707D02*
X0290221Y0034675D01*
X0290705Y0034675D02*
X0289254Y0034675D01*
X0289254Y0033707D02*
X0289254Y0036610D01*
X0290705Y0036610D01*
X0291189Y0036126D01*
X0291189Y0035159D01*
X0290705Y0034675D01*
X0292201Y0035159D02*
X0293168Y0035159D01*
X0288242Y0034191D02*
X0288242Y0036126D01*
X0287759Y0036610D01*
X0286307Y0036610D01*
X0286307Y0033707D01*
X0287759Y0033707D01*
X0288242Y0034191D01*
X0284135Y0036810D02*
X0282201Y0036810D01*
X0282201Y0033907D01*
X0281189Y0033907D02*
X0280221Y0034875D01*
X0280705Y0034875D02*
X0279254Y0034875D01*
X0279254Y0033907D02*
X0279254Y0036810D01*
X0280705Y0036810D01*
X0281189Y0036326D01*
X0281189Y0035359D01*
X0280705Y0034875D01*
X0282201Y0035359D02*
X0283168Y0035359D01*
X0278242Y0035359D02*
X0276307Y0035359D01*
X0276307Y0035842D02*
X0277275Y0036810D01*
X0278242Y0035842D01*
X0278242Y0033907D01*
X0276307Y0033907D02*
X0276307Y0035842D01*
X0269689Y0035826D02*
X0269689Y0034859D01*
X0269205Y0034375D01*
X0267754Y0034375D01*
X0267754Y0033407D02*
X0267754Y0036310D01*
X0269205Y0036310D01*
X0269689Y0035826D01*
X0266742Y0035826D02*
X0266259Y0036310D01*
X0264807Y0036310D01*
X0264807Y0033407D01*
X0266259Y0033407D01*
X0266742Y0033891D01*
X0266742Y0035826D01*
X0266114Y0031010D02*
X0267566Y0031010D01*
X0268049Y0030526D01*
X0268049Y0029559D01*
X0267566Y0029075D01*
X0266114Y0029075D01*
X0266114Y0028107D02*
X0266114Y0031010D01*
X0267082Y0029075D02*
X0268049Y0028107D01*
X0269061Y0028107D02*
X0270996Y0028107D01*
X0270028Y0028107D02*
X0270028Y0031010D01*
X0269061Y0030042D01*
X0252189Y0034891D02*
X0251705Y0034407D01*
X0250738Y0034407D01*
X0250254Y0034891D01*
X0250254Y0036826D01*
X0250738Y0037310D01*
X0251705Y0037310D01*
X0252189Y0036826D01*
X0252189Y0034891D01*
X0249242Y0034407D02*
X0249242Y0037310D01*
X0248275Y0036342D01*
X0247307Y0037310D01*
X0247307Y0034407D01*
X0242721Y0034407D02*
X0241754Y0034407D01*
X0242238Y0034407D02*
X0242238Y0037310D01*
X0242721Y0037310D02*
X0241754Y0037310D01*
X0240742Y0037310D02*
X0240742Y0034407D01*
X0238807Y0034407D02*
X0238807Y0037310D01*
X0239775Y0036342D01*
X0240742Y0037310D01*
X0235635Y0037310D02*
X0233701Y0035375D01*
X0234184Y0035859D02*
X0235635Y0034407D01*
X0233701Y0034407D02*
X0233701Y0037310D01*
X0230754Y0037310D02*
X0230754Y0034407D01*
X0232689Y0034407D01*
X0233307Y0031489D02*
X0233307Y0029554D01*
X0233307Y0030521D02*
X0230405Y0030521D01*
X0231373Y0029554D01*
X0230889Y0028542D02*
X0230405Y0028059D01*
X0230405Y0026607D01*
X0233307Y0026607D01*
X0233307Y0028059D01*
X0232824Y0028542D01*
X0230889Y0028542D01*
X0225761Y0026310D02*
X0224794Y0026310D01*
X0225277Y0026310D02*
X0225277Y0023407D01*
X0224794Y0023407D02*
X0225761Y0023407D01*
X0223782Y0023891D02*
X0223782Y0025826D01*
X0223298Y0026310D01*
X0221847Y0026310D01*
X0221847Y0023407D01*
X0223298Y0023407D01*
X0223782Y0023891D01*
X0219868Y0023407D02*
X0219868Y0026310D01*
X0218901Y0026310D02*
X0220835Y0026310D01*
X0217889Y0026310D02*
X0215954Y0026310D01*
X0215954Y0023407D01*
X0215954Y0024859D02*
X0216921Y0024859D01*
X0214942Y0024859D02*
X0213007Y0023407D01*
X0214942Y0024859D02*
X0213007Y0026310D01*
X0212254Y0033607D02*
X0214189Y0036510D01*
X0212254Y0036510D02*
X0214189Y0033607D01*
X0217307Y0034207D02*
X0218759Y0034207D01*
X0219242Y0034691D01*
X0219242Y0036626D01*
X0218759Y0037110D01*
X0217307Y0037110D01*
X0217307Y0034207D01*
X0220254Y0034207D02*
X0220254Y0037110D01*
X0221705Y0037110D01*
X0222189Y0036626D01*
X0222189Y0035659D01*
X0221705Y0035175D01*
X0220254Y0035175D01*
X0227807Y0034891D02*
X0228291Y0034407D01*
X0229259Y0034407D01*
X0229742Y0034891D01*
X0227807Y0034891D02*
X0227807Y0036826D01*
X0228291Y0037310D01*
X0229259Y0037310D01*
X0229742Y0036826D01*
X0211242Y0036510D02*
X0209307Y0036510D01*
X0210275Y0036510D02*
X0210275Y0033607D01*
X0207289Y0033607D02*
X0205354Y0036510D01*
X0204342Y0036026D02*
X0203859Y0036510D01*
X0202407Y0036510D01*
X0202407Y0033607D01*
X0202407Y0034575D02*
X0203859Y0034575D01*
X0204342Y0035059D01*
X0204342Y0036026D01*
X0203375Y0034575D02*
X0204342Y0033607D01*
X0205354Y0033607D02*
X0207289Y0036510D01*
X0188689Y0035926D02*
X0188689Y0034959D01*
X0188205Y0034475D01*
X0186754Y0034475D01*
X0186754Y0033507D02*
X0186754Y0036410D01*
X0188205Y0036410D01*
X0188689Y0035926D01*
X0185742Y0035926D02*
X0185742Y0033991D01*
X0185259Y0033507D01*
X0183807Y0033507D01*
X0183807Y0036410D01*
X0185259Y0036410D01*
X0185742Y0035926D01*
X0180207Y0033361D02*
X0177305Y0033361D01*
X0177305Y0034812D01*
X0177789Y0035296D01*
X0178756Y0035296D01*
X0179240Y0034812D01*
X0179240Y0033361D01*
X0179724Y0032349D02*
X0177789Y0032349D01*
X0177305Y0031866D01*
X0177305Y0030414D01*
X0180207Y0030414D01*
X0180207Y0031866D01*
X0179724Y0032349D01*
X0174707Y0031866D02*
X0174707Y0030898D01*
X0174224Y0030414D01*
X0172289Y0030414D01*
X0171805Y0030898D01*
X0171805Y0031866D01*
X0172289Y0032349D01*
X0171805Y0033361D02*
X0174707Y0033361D01*
X0174707Y0035296D01*
X0174224Y0032349D02*
X0174707Y0031866D01*
X0174224Y0029403D02*
X0174707Y0028919D01*
X0174707Y0027952D01*
X0174224Y0027468D01*
X0173256Y0027952D02*
X0172773Y0027468D01*
X0172289Y0027468D01*
X0171805Y0027952D01*
X0171805Y0028919D01*
X0172289Y0029403D01*
X0173256Y0028919D02*
X0173740Y0029403D01*
X0174224Y0029403D01*
X0173256Y0028919D02*
X0173256Y0027952D01*
X0167305Y0034475D02*
X0165854Y0034475D01*
X0165854Y0033507D02*
X0165854Y0036410D01*
X0167305Y0036410D01*
X0167789Y0035926D01*
X0167789Y0034959D01*
X0167305Y0034475D01*
X0164842Y0033991D02*
X0164842Y0035926D01*
X0164359Y0036410D01*
X0162907Y0036410D01*
X0162907Y0033507D01*
X0164359Y0033507D01*
X0164842Y0033991D01*
X0123507Y0023976D02*
X0123507Y0022124D01*
X0119804Y0022124D01*
X0119804Y0023976D01*
X0120422Y0024593D01*
X0122890Y0024593D01*
X0123507Y0023976D01*
X0123507Y0020910D02*
X0119804Y0020910D01*
X0119804Y0018441D02*
X0123507Y0020910D01*
X0123507Y0018441D02*
X0119804Y0018441D01*
X0120422Y0017227D02*
X0119804Y0016610D01*
X0119804Y0015375D01*
X0120422Y0014758D01*
X0122890Y0014758D01*
X0123507Y0015375D01*
X0123507Y0016610D01*
X0122890Y0017227D01*
X0121656Y0017227D01*
X0121656Y0015992D01*
X0022643Y0035807D02*
X0021408Y0037042D01*
X0022025Y0037042D02*
X0020174Y0037042D01*
X0020174Y0035807D02*
X0020174Y0039511D01*
X0022025Y0039511D01*
X0022643Y0038893D01*
X0022643Y0037659D01*
X0022025Y0037042D01*
X0018959Y0035807D02*
X0018959Y0039511D01*
X0016491Y0039511D02*
X0016491Y0035807D01*
X0017725Y0037042D01*
X0018959Y0035807D01*
X0015276Y0035807D02*
X0012807Y0035807D01*
X0014042Y0035807D02*
X0014042Y0039511D01*
X0012807Y0038276D01*
X0033304Y0080307D02*
X0035773Y0080307D01*
X0037007Y0081542D01*
X0035773Y0082776D01*
X0033304Y0082776D01*
X0033922Y0083991D02*
X0036390Y0083991D01*
X0037007Y0084608D01*
X0037007Y0085842D01*
X0036390Y0086459D01*
X0036390Y0087674D02*
X0033922Y0087674D01*
X0033304Y0088291D01*
X0033304Y0089525D01*
X0033922Y0090143D01*
X0036390Y0090143D02*
X0037007Y0089525D01*
X0037007Y0088291D01*
X0036390Y0087674D01*
X0033922Y0086459D02*
X0033304Y0085842D01*
X0033304Y0084608D01*
X0033922Y0083991D01*
X0022476Y0135307D02*
X0020624Y0135307D01*
X0020624Y0139011D01*
X0022476Y0139011D01*
X0023093Y0138393D01*
X0023093Y0135925D01*
X0022476Y0135307D01*
X0019410Y0135307D02*
X0019410Y0139011D01*
X0016941Y0139011D02*
X0019410Y0135307D01*
X0016941Y0135307D02*
X0016941Y0139011D01*
X0015727Y0138393D02*
X0015110Y0139011D01*
X0013875Y0139011D01*
X0013258Y0138393D01*
X0013258Y0135925D01*
X0013875Y0135307D01*
X0015110Y0135307D01*
X0015727Y0135925D01*
X0015727Y0137159D01*
X0014492Y0137159D01*
X0119804Y0150875D02*
X0120422Y0150258D01*
X0122890Y0150258D01*
X0123507Y0150875D01*
X0123507Y0152110D01*
X0122890Y0152727D01*
X0121656Y0152727D01*
X0121656Y0151492D01*
X0120422Y0152727D02*
X0119804Y0152110D01*
X0119804Y0150875D01*
X0119804Y0153941D02*
X0123507Y0156410D01*
X0119804Y0156410D01*
X0119804Y0157624D02*
X0119804Y0159476D01*
X0120422Y0160093D01*
X0122890Y0160093D01*
X0123507Y0159476D01*
X0123507Y0157624D01*
X0119804Y0157624D01*
X0119804Y0153941D02*
X0123507Y0153941D01*
X0134304Y0153608D02*
X0134922Y0152991D01*
X0137390Y0152991D01*
X0138007Y0153608D01*
X0138007Y0154842D01*
X0137390Y0155459D01*
X0137390Y0156674D02*
X0134922Y0156674D01*
X0134304Y0157291D01*
X0134304Y0158525D01*
X0134922Y0159143D01*
X0137390Y0159143D02*
X0138007Y0158525D01*
X0138007Y0157291D01*
X0137390Y0156674D01*
X0134922Y0155459D02*
X0134304Y0154842D01*
X0134304Y0153608D01*
X0134304Y0151776D02*
X0136773Y0151776D01*
X0138007Y0150542D01*
X0136773Y0149307D01*
X0134304Y0149307D01*
X0167307Y0140910D02*
X0167307Y0138007D01*
X0167307Y0138975D02*
X0168759Y0138975D01*
X0169242Y0139459D01*
X0169242Y0140426D01*
X0168759Y0140910D01*
X0167307Y0140910D01*
X0170254Y0140426D02*
X0170254Y0139942D01*
X0170738Y0139459D01*
X0171705Y0139459D01*
X0172189Y0138975D01*
X0172189Y0138491D01*
X0171705Y0138007D01*
X0170738Y0138007D01*
X0170254Y0138491D01*
X0169242Y0138007D02*
X0168275Y0138975D01*
X0170254Y0140426D02*
X0170738Y0140910D01*
X0171705Y0140910D01*
X0172189Y0140426D01*
X0173201Y0140910D02*
X0175135Y0140910D01*
X0174168Y0140910D02*
X0174168Y0138007D01*
X0175039Y0151307D02*
X0173804Y0152542D01*
X0177507Y0152542D01*
X0177507Y0153776D02*
X0177507Y0151307D01*
X0177507Y0154991D02*
X0173804Y0154991D01*
X0173804Y0157459D02*
X0177507Y0157459D01*
X0176273Y0156225D01*
X0177507Y0154991D01*
X0177507Y0158674D02*
X0173804Y0158674D01*
X0173804Y0160525D01*
X0174422Y0161143D01*
X0175656Y0161143D01*
X0176273Y0160525D01*
X0176273Y0158674D01*
X0176273Y0159908D02*
X0177507Y0161143D01*
X0205307Y0141711D02*
X0207159Y0141711D01*
X0207776Y0141093D01*
X0207776Y0138625D01*
X0207159Y0138007D01*
X0205307Y0138007D01*
X0205307Y0141711D01*
X0208991Y0141711D02*
X0210842Y0141711D01*
X0211459Y0141093D01*
X0211459Y0139859D01*
X0210842Y0139242D01*
X0208991Y0139242D01*
X0208991Y0138007D02*
X0208991Y0141711D01*
X0250307Y0139742D02*
X0250307Y0137807D01*
X0250307Y0139259D02*
X0252242Y0139259D01*
X0252242Y0139742D02*
X0252242Y0137807D01*
X0253254Y0137807D02*
X0253254Y0140710D01*
X0254705Y0140710D01*
X0255189Y0140226D01*
X0255189Y0138291D01*
X0254705Y0137807D01*
X0253254Y0137807D01*
X0252242Y0139742D02*
X0251275Y0140710D01*
X0250307Y0139742D01*
X0256201Y0140226D02*
X0256201Y0138291D01*
X0256684Y0137807D01*
X0257652Y0137807D01*
X0258135Y0138291D01*
X0258135Y0140226D02*
X0257652Y0140710D01*
X0256684Y0140710D01*
X0256201Y0140226D01*
X0296307Y0140410D02*
X0296307Y0137507D01*
X0297759Y0137507D01*
X0298242Y0137991D01*
X0298242Y0139926D01*
X0297759Y0140410D01*
X0296307Y0140410D01*
X0299254Y0139442D02*
X0299254Y0137507D01*
X0299254Y0138959D02*
X0301189Y0138959D01*
X0301189Y0139442D02*
X0301189Y0137507D01*
X0302201Y0137991D02*
X0302201Y0139926D01*
X0302684Y0140410D01*
X0303652Y0140410D01*
X0304135Y0139926D01*
X0304135Y0137991D02*
X0303652Y0137507D01*
X0302684Y0137507D01*
X0302201Y0137991D01*
X0301189Y0139442D02*
X0300221Y0140410D01*
X0299254Y0139442D01*
X0317807Y0138859D02*
X0319742Y0138859D01*
X0320754Y0139342D02*
X0321721Y0137407D01*
X0322689Y0139342D01*
X0318775Y0139826D02*
X0318775Y0137891D01*
X0329258Y0138393D02*
X0329258Y0135925D01*
X0329875Y0135307D01*
X0331110Y0135307D01*
X0331727Y0135925D01*
X0331727Y0137159D01*
X0330492Y0137159D01*
X0329258Y0138393D02*
X0329875Y0139011D01*
X0331110Y0139011D01*
X0331727Y0138393D01*
X0332941Y0139011D02*
X0335410Y0135307D01*
X0335410Y0139011D01*
X0336624Y0139011D02*
X0338476Y0139011D01*
X0339093Y0138393D01*
X0339093Y0135925D01*
X0338476Y0135307D01*
X0336624Y0135307D01*
X0336624Y0139011D01*
X0332941Y0139011D02*
X0332941Y0135307D01*
X0329490Y0100593D02*
X0330107Y0099976D01*
X0330107Y0098742D01*
X0329490Y0098124D01*
X0330107Y0096910D02*
X0328873Y0095676D01*
X0328873Y0096293D02*
X0328873Y0094441D01*
X0330107Y0094441D02*
X0326404Y0094441D01*
X0326404Y0096293D01*
X0327022Y0096910D01*
X0328256Y0096910D01*
X0328873Y0096293D01*
X0327022Y0098124D02*
X0326404Y0098742D01*
X0326404Y0099976D01*
X0327022Y0100593D01*
X0327639Y0100593D01*
X0328256Y0099976D01*
X0328873Y0100593D01*
X0329490Y0100593D01*
X0328256Y0099976D02*
X0328256Y0099359D01*
X0332289Y0089096D02*
X0331805Y0088612D01*
X0331805Y0087645D01*
X0332289Y0087161D01*
X0332289Y0086149D02*
X0333256Y0086149D01*
X0333740Y0085666D01*
X0333740Y0084214D01*
X0334707Y0084214D02*
X0331805Y0084214D01*
X0331805Y0085666D01*
X0332289Y0086149D01*
X0333740Y0085182D02*
X0334707Y0086149D01*
X0334707Y0087161D02*
X0332773Y0089096D01*
X0332289Y0089096D01*
X0334707Y0089096D02*
X0334707Y0087161D01*
X0292007Y0074205D02*
X0289105Y0074205D01*
X0290556Y0072754D01*
X0290556Y0074689D01*
X0289589Y0071742D02*
X0289105Y0071259D01*
X0289105Y0070291D01*
X0289589Y0069807D01*
X0291524Y0069807D01*
X0292007Y0070291D01*
X0292007Y0071259D01*
X0291524Y0071742D01*
X0327307Y0039211D02*
X0327307Y0036742D01*
X0328542Y0035507D01*
X0329776Y0036742D01*
X0329776Y0039211D01*
X0330991Y0038593D02*
X0330991Y0036125D01*
X0331608Y0035507D01*
X0332842Y0035507D01*
X0333459Y0036125D01*
X0334674Y0036125D02*
X0335291Y0035507D01*
X0336525Y0035507D01*
X0337143Y0036125D01*
X0334674Y0036125D02*
X0334674Y0038593D01*
X0335291Y0039211D01*
X0336525Y0039211D01*
X0337143Y0038593D01*
X0333459Y0038593D02*
X0332842Y0039211D01*
X0331608Y0039211D01*
X0330991Y0038593D01*
X0313812Y0012710D02*
X0312361Y0012710D01*
X0312361Y0009807D01*
X0313812Y0009807D01*
X0314296Y0010291D01*
X0314296Y0012226D01*
X0313812Y0012710D01*
X0311349Y0012710D02*
X0311349Y0009807D01*
X0309414Y0012710D01*
X0309414Y0009807D01*
X0308403Y0010291D02*
X0308403Y0011259D01*
X0307435Y0011259D01*
X0306468Y0012226D02*
X0306468Y0010291D01*
X0306952Y0009807D01*
X0307919Y0009807D01*
X0308403Y0010291D01*
X0308403Y0012226D02*
X0307919Y0012710D01*
X0306952Y0012710D01*
X0306468Y0012226D01*
X0301296Y0012226D02*
X0300812Y0012710D01*
X0299845Y0012710D01*
X0299361Y0012226D01*
X0299361Y0010291D01*
X0299845Y0009807D01*
X0300812Y0009807D01*
X0301296Y0010291D01*
X0298349Y0010291D02*
X0297866Y0009807D01*
X0296898Y0009807D01*
X0296414Y0010291D01*
X0296414Y0012226D01*
X0296898Y0012710D01*
X0297866Y0012710D01*
X0298349Y0012226D01*
X0295403Y0012710D02*
X0295403Y0010775D01*
X0294435Y0009807D01*
X0293468Y0010775D01*
X0293468Y0012710D01*
X0289296Y0012126D02*
X0289296Y0011159D01*
X0288812Y0010675D01*
X0287361Y0010675D01*
X0288328Y0010675D02*
X0289296Y0009707D01*
X0287361Y0009707D02*
X0287361Y0012610D01*
X0288812Y0012610D01*
X0289296Y0012126D01*
X0286349Y0012610D02*
X0286349Y0009707D01*
X0285382Y0010675D01*
X0284414Y0009707D01*
X0284414Y0012610D01*
X0282435Y0012610D02*
X0281468Y0011642D01*
X0282435Y0012610D02*
X0282435Y0009707D01*
X0281468Y0009707D02*
X0283403Y0009707D01*
X0220840Y0080807D02*
X0221807Y0081775D01*
X0220840Y0082742D01*
X0218905Y0082742D01*
X0219389Y0083754D02*
X0221324Y0083754D01*
X0221807Y0084238D01*
X0221807Y0085205D01*
X0221324Y0085689D01*
X0221324Y0086701D02*
X0221807Y0087184D01*
X0221807Y0088152D01*
X0221324Y0088635D01*
X0221324Y0086701D02*
X0219389Y0086701D01*
X0218905Y0087184D01*
X0218905Y0088152D01*
X0219389Y0088635D01*
X0219389Y0085689D02*
X0218905Y0085205D01*
X0218905Y0084238D01*
X0219389Y0083754D01*
X0218905Y0080807D02*
X0220840Y0080807D01*
D14*
X0188275Y0018000D02*
X0188277Y0018169D01*
X0188283Y0018338D01*
X0188294Y0018507D01*
X0188308Y0018675D01*
X0188327Y0018843D01*
X0188350Y0019011D01*
X0188376Y0019178D01*
X0188407Y0019344D01*
X0188442Y0019510D01*
X0188481Y0019674D01*
X0188525Y0019838D01*
X0188572Y0020000D01*
X0188623Y0020161D01*
X0188678Y0020321D01*
X0188737Y0020480D01*
X0188799Y0020637D01*
X0188866Y0020792D01*
X0188937Y0020946D01*
X0189011Y0021098D01*
X0189089Y0021248D01*
X0189170Y0021396D01*
X0189255Y0021542D01*
X0189344Y0021686D01*
X0189436Y0021828D01*
X0189532Y0021967D01*
X0189631Y0022104D01*
X0189733Y0022239D01*
X0189839Y0022371D01*
X0189948Y0022500D01*
X0190060Y0022627D01*
X0190175Y0022751D01*
X0190293Y0022872D01*
X0190414Y0022990D01*
X0190538Y0023105D01*
X0190665Y0023217D01*
X0190794Y0023326D01*
X0190926Y0023432D01*
X0191061Y0023534D01*
X0191198Y0023633D01*
X0191337Y0023729D01*
X0191479Y0023821D01*
X0191623Y0023910D01*
X0191769Y0023995D01*
X0191917Y0024076D01*
X0192067Y0024154D01*
X0192219Y0024228D01*
X0192373Y0024299D01*
X0192528Y0024366D01*
X0192685Y0024428D01*
X0192844Y0024487D01*
X0193004Y0024542D01*
X0193165Y0024593D01*
X0193327Y0024640D01*
X0193491Y0024684D01*
X0193655Y0024723D01*
X0193821Y0024758D01*
X0193987Y0024789D01*
X0194154Y0024815D01*
X0194322Y0024838D01*
X0194490Y0024857D01*
X0194658Y0024871D01*
X0194827Y0024882D01*
X0194996Y0024888D01*
X0195165Y0024890D01*
X0195334Y0024888D01*
X0195503Y0024882D01*
X0195672Y0024871D01*
X0195840Y0024857D01*
X0196008Y0024838D01*
X0196176Y0024815D01*
X0196343Y0024789D01*
X0196509Y0024758D01*
X0196675Y0024723D01*
X0196839Y0024684D01*
X0197003Y0024640D01*
X0197165Y0024593D01*
X0197326Y0024542D01*
X0197486Y0024487D01*
X0197645Y0024428D01*
X0197802Y0024366D01*
X0197957Y0024299D01*
X0198111Y0024228D01*
X0198263Y0024154D01*
X0198413Y0024076D01*
X0198561Y0023995D01*
X0198707Y0023910D01*
X0198851Y0023821D01*
X0198993Y0023729D01*
X0199132Y0023633D01*
X0199269Y0023534D01*
X0199404Y0023432D01*
X0199536Y0023326D01*
X0199665Y0023217D01*
X0199792Y0023105D01*
X0199916Y0022990D01*
X0200037Y0022872D01*
X0200155Y0022751D01*
X0200270Y0022627D01*
X0200382Y0022500D01*
X0200491Y0022371D01*
X0200597Y0022239D01*
X0200699Y0022104D01*
X0200798Y0021967D01*
X0200894Y0021828D01*
X0200986Y0021686D01*
X0201075Y0021542D01*
X0201160Y0021396D01*
X0201241Y0021248D01*
X0201319Y0021098D01*
X0201393Y0020946D01*
X0201464Y0020792D01*
X0201531Y0020637D01*
X0201593Y0020480D01*
X0201652Y0020321D01*
X0201707Y0020161D01*
X0201758Y0020000D01*
X0201805Y0019838D01*
X0201849Y0019674D01*
X0201888Y0019510D01*
X0201923Y0019344D01*
X0201954Y0019178D01*
X0201980Y0019011D01*
X0202003Y0018843D01*
X0202022Y0018675D01*
X0202036Y0018507D01*
X0202047Y0018338D01*
X0202053Y0018169D01*
X0202055Y0018000D01*
X0202053Y0017831D01*
X0202047Y0017662D01*
X0202036Y0017493D01*
X0202022Y0017325D01*
X0202003Y0017157D01*
X0201980Y0016989D01*
X0201954Y0016822D01*
X0201923Y0016656D01*
X0201888Y0016490D01*
X0201849Y0016326D01*
X0201805Y0016162D01*
X0201758Y0016000D01*
X0201707Y0015839D01*
X0201652Y0015679D01*
X0201593Y0015520D01*
X0201531Y0015363D01*
X0201464Y0015208D01*
X0201393Y0015054D01*
X0201319Y0014902D01*
X0201241Y0014752D01*
X0201160Y0014604D01*
X0201075Y0014458D01*
X0200986Y0014314D01*
X0200894Y0014172D01*
X0200798Y0014033D01*
X0200699Y0013896D01*
X0200597Y0013761D01*
X0200491Y0013629D01*
X0200382Y0013500D01*
X0200270Y0013373D01*
X0200155Y0013249D01*
X0200037Y0013128D01*
X0199916Y0013010D01*
X0199792Y0012895D01*
X0199665Y0012783D01*
X0199536Y0012674D01*
X0199404Y0012568D01*
X0199269Y0012466D01*
X0199132Y0012367D01*
X0198993Y0012271D01*
X0198851Y0012179D01*
X0198707Y0012090D01*
X0198561Y0012005D01*
X0198413Y0011924D01*
X0198263Y0011846D01*
X0198111Y0011772D01*
X0197957Y0011701D01*
X0197802Y0011634D01*
X0197645Y0011572D01*
X0197486Y0011513D01*
X0197326Y0011458D01*
X0197165Y0011407D01*
X0197003Y0011360D01*
X0196839Y0011316D01*
X0196675Y0011277D01*
X0196509Y0011242D01*
X0196343Y0011211D01*
X0196176Y0011185D01*
X0196008Y0011162D01*
X0195840Y0011143D01*
X0195672Y0011129D01*
X0195503Y0011118D01*
X0195334Y0011112D01*
X0195165Y0011110D01*
X0194996Y0011112D01*
X0194827Y0011118D01*
X0194658Y0011129D01*
X0194490Y0011143D01*
X0194322Y0011162D01*
X0194154Y0011185D01*
X0193987Y0011211D01*
X0193821Y0011242D01*
X0193655Y0011277D01*
X0193491Y0011316D01*
X0193327Y0011360D01*
X0193165Y0011407D01*
X0193004Y0011458D01*
X0192844Y0011513D01*
X0192685Y0011572D01*
X0192528Y0011634D01*
X0192373Y0011701D01*
X0192219Y0011772D01*
X0192067Y0011846D01*
X0191917Y0011924D01*
X0191769Y0012005D01*
X0191623Y0012090D01*
X0191479Y0012179D01*
X0191337Y0012271D01*
X0191198Y0012367D01*
X0191061Y0012466D01*
X0190926Y0012568D01*
X0190794Y0012674D01*
X0190665Y0012783D01*
X0190538Y0012895D01*
X0190414Y0013010D01*
X0190293Y0013128D01*
X0190175Y0013249D01*
X0190060Y0013373D01*
X0189948Y0013500D01*
X0189839Y0013629D01*
X0189733Y0013761D01*
X0189631Y0013896D01*
X0189532Y0014033D01*
X0189436Y0014172D01*
X0189344Y0014314D01*
X0189255Y0014458D01*
X0189170Y0014604D01*
X0189089Y0014752D01*
X0189011Y0014902D01*
X0188937Y0015054D01*
X0188866Y0015208D01*
X0188799Y0015363D01*
X0188737Y0015520D01*
X0188678Y0015679D01*
X0188623Y0015839D01*
X0188572Y0016000D01*
X0188525Y0016162D01*
X0188481Y0016326D01*
X0188442Y0016490D01*
X0188407Y0016656D01*
X0188376Y0016822D01*
X0188350Y0016989D01*
X0188327Y0017157D01*
X0188308Y0017325D01*
X0188294Y0017493D01*
X0188283Y0017662D01*
X0188277Y0017831D01*
X0188275Y0018000D01*
X0148905Y0018000D02*
X0148907Y0018169D01*
X0148913Y0018338D01*
X0148924Y0018507D01*
X0148938Y0018675D01*
X0148957Y0018843D01*
X0148980Y0019011D01*
X0149006Y0019178D01*
X0149037Y0019344D01*
X0149072Y0019510D01*
X0149111Y0019674D01*
X0149155Y0019838D01*
X0149202Y0020000D01*
X0149253Y0020161D01*
X0149308Y0020321D01*
X0149367Y0020480D01*
X0149429Y0020637D01*
X0149496Y0020792D01*
X0149567Y0020946D01*
X0149641Y0021098D01*
X0149719Y0021248D01*
X0149800Y0021396D01*
X0149885Y0021542D01*
X0149974Y0021686D01*
X0150066Y0021828D01*
X0150162Y0021967D01*
X0150261Y0022104D01*
X0150363Y0022239D01*
X0150469Y0022371D01*
X0150578Y0022500D01*
X0150690Y0022627D01*
X0150805Y0022751D01*
X0150923Y0022872D01*
X0151044Y0022990D01*
X0151168Y0023105D01*
X0151295Y0023217D01*
X0151424Y0023326D01*
X0151556Y0023432D01*
X0151691Y0023534D01*
X0151828Y0023633D01*
X0151967Y0023729D01*
X0152109Y0023821D01*
X0152253Y0023910D01*
X0152399Y0023995D01*
X0152547Y0024076D01*
X0152697Y0024154D01*
X0152849Y0024228D01*
X0153003Y0024299D01*
X0153158Y0024366D01*
X0153315Y0024428D01*
X0153474Y0024487D01*
X0153634Y0024542D01*
X0153795Y0024593D01*
X0153957Y0024640D01*
X0154121Y0024684D01*
X0154285Y0024723D01*
X0154451Y0024758D01*
X0154617Y0024789D01*
X0154784Y0024815D01*
X0154952Y0024838D01*
X0155120Y0024857D01*
X0155288Y0024871D01*
X0155457Y0024882D01*
X0155626Y0024888D01*
X0155795Y0024890D01*
X0155964Y0024888D01*
X0156133Y0024882D01*
X0156302Y0024871D01*
X0156470Y0024857D01*
X0156638Y0024838D01*
X0156806Y0024815D01*
X0156973Y0024789D01*
X0157139Y0024758D01*
X0157305Y0024723D01*
X0157469Y0024684D01*
X0157633Y0024640D01*
X0157795Y0024593D01*
X0157956Y0024542D01*
X0158116Y0024487D01*
X0158275Y0024428D01*
X0158432Y0024366D01*
X0158587Y0024299D01*
X0158741Y0024228D01*
X0158893Y0024154D01*
X0159043Y0024076D01*
X0159191Y0023995D01*
X0159337Y0023910D01*
X0159481Y0023821D01*
X0159623Y0023729D01*
X0159762Y0023633D01*
X0159899Y0023534D01*
X0160034Y0023432D01*
X0160166Y0023326D01*
X0160295Y0023217D01*
X0160422Y0023105D01*
X0160546Y0022990D01*
X0160667Y0022872D01*
X0160785Y0022751D01*
X0160900Y0022627D01*
X0161012Y0022500D01*
X0161121Y0022371D01*
X0161227Y0022239D01*
X0161329Y0022104D01*
X0161428Y0021967D01*
X0161524Y0021828D01*
X0161616Y0021686D01*
X0161705Y0021542D01*
X0161790Y0021396D01*
X0161871Y0021248D01*
X0161949Y0021098D01*
X0162023Y0020946D01*
X0162094Y0020792D01*
X0162161Y0020637D01*
X0162223Y0020480D01*
X0162282Y0020321D01*
X0162337Y0020161D01*
X0162388Y0020000D01*
X0162435Y0019838D01*
X0162479Y0019674D01*
X0162518Y0019510D01*
X0162553Y0019344D01*
X0162584Y0019178D01*
X0162610Y0019011D01*
X0162633Y0018843D01*
X0162652Y0018675D01*
X0162666Y0018507D01*
X0162677Y0018338D01*
X0162683Y0018169D01*
X0162685Y0018000D01*
X0162683Y0017831D01*
X0162677Y0017662D01*
X0162666Y0017493D01*
X0162652Y0017325D01*
X0162633Y0017157D01*
X0162610Y0016989D01*
X0162584Y0016822D01*
X0162553Y0016656D01*
X0162518Y0016490D01*
X0162479Y0016326D01*
X0162435Y0016162D01*
X0162388Y0016000D01*
X0162337Y0015839D01*
X0162282Y0015679D01*
X0162223Y0015520D01*
X0162161Y0015363D01*
X0162094Y0015208D01*
X0162023Y0015054D01*
X0161949Y0014902D01*
X0161871Y0014752D01*
X0161790Y0014604D01*
X0161705Y0014458D01*
X0161616Y0014314D01*
X0161524Y0014172D01*
X0161428Y0014033D01*
X0161329Y0013896D01*
X0161227Y0013761D01*
X0161121Y0013629D01*
X0161012Y0013500D01*
X0160900Y0013373D01*
X0160785Y0013249D01*
X0160667Y0013128D01*
X0160546Y0013010D01*
X0160422Y0012895D01*
X0160295Y0012783D01*
X0160166Y0012674D01*
X0160034Y0012568D01*
X0159899Y0012466D01*
X0159762Y0012367D01*
X0159623Y0012271D01*
X0159481Y0012179D01*
X0159337Y0012090D01*
X0159191Y0012005D01*
X0159043Y0011924D01*
X0158893Y0011846D01*
X0158741Y0011772D01*
X0158587Y0011701D01*
X0158432Y0011634D01*
X0158275Y0011572D01*
X0158116Y0011513D01*
X0157956Y0011458D01*
X0157795Y0011407D01*
X0157633Y0011360D01*
X0157469Y0011316D01*
X0157305Y0011277D01*
X0157139Y0011242D01*
X0156973Y0011211D01*
X0156806Y0011185D01*
X0156638Y0011162D01*
X0156470Y0011143D01*
X0156302Y0011129D01*
X0156133Y0011118D01*
X0155964Y0011112D01*
X0155795Y0011110D01*
X0155626Y0011112D01*
X0155457Y0011118D01*
X0155288Y0011129D01*
X0155120Y0011143D01*
X0154952Y0011162D01*
X0154784Y0011185D01*
X0154617Y0011211D01*
X0154451Y0011242D01*
X0154285Y0011277D01*
X0154121Y0011316D01*
X0153957Y0011360D01*
X0153795Y0011407D01*
X0153634Y0011458D01*
X0153474Y0011513D01*
X0153315Y0011572D01*
X0153158Y0011634D01*
X0153003Y0011701D01*
X0152849Y0011772D01*
X0152697Y0011846D01*
X0152547Y0011924D01*
X0152399Y0012005D01*
X0152253Y0012090D01*
X0152109Y0012179D01*
X0151967Y0012271D01*
X0151828Y0012367D01*
X0151691Y0012466D01*
X0151556Y0012568D01*
X0151424Y0012674D01*
X0151295Y0012783D01*
X0151168Y0012895D01*
X0151044Y0013010D01*
X0150923Y0013128D01*
X0150805Y0013249D01*
X0150690Y0013373D01*
X0150578Y0013500D01*
X0150469Y0013629D01*
X0150363Y0013761D01*
X0150261Y0013896D01*
X0150162Y0014033D01*
X0150066Y0014172D01*
X0149974Y0014314D01*
X0149885Y0014458D01*
X0149800Y0014604D01*
X0149719Y0014752D01*
X0149641Y0014902D01*
X0149567Y0015054D01*
X0149496Y0015208D01*
X0149429Y0015363D01*
X0149367Y0015520D01*
X0149308Y0015679D01*
X0149253Y0015839D01*
X0149202Y0016000D01*
X0149155Y0016162D01*
X0149111Y0016326D01*
X0149072Y0016490D01*
X0149037Y0016656D01*
X0149006Y0016822D01*
X0148980Y0016989D01*
X0148957Y0017157D01*
X0148938Y0017325D01*
X0148924Y0017493D01*
X0148913Y0017662D01*
X0148907Y0017831D01*
X0148905Y0018000D01*
X0011307Y0018000D02*
X0011309Y0018164D01*
X0011315Y0018328D01*
X0011325Y0018492D01*
X0011339Y0018656D01*
X0011357Y0018819D01*
X0011379Y0018982D01*
X0011406Y0019144D01*
X0011436Y0019306D01*
X0011470Y0019466D01*
X0011508Y0019626D01*
X0011549Y0019785D01*
X0011595Y0019943D01*
X0011645Y0020099D01*
X0011698Y0020255D01*
X0011755Y0020409D01*
X0011816Y0020561D01*
X0011881Y0020712D01*
X0011950Y0020862D01*
X0012022Y0021009D01*
X0012097Y0021155D01*
X0012177Y0021299D01*
X0012259Y0021441D01*
X0012345Y0021581D01*
X0012435Y0021718D01*
X0012528Y0021854D01*
X0012624Y0021987D01*
X0012724Y0022118D01*
X0012826Y0022246D01*
X0012932Y0022372D01*
X0013041Y0022495D01*
X0013153Y0022615D01*
X0013267Y0022733D01*
X0013385Y0022847D01*
X0013505Y0022959D01*
X0013628Y0023068D01*
X0013754Y0023174D01*
X0013882Y0023276D01*
X0014013Y0023376D01*
X0014146Y0023472D01*
X0014282Y0023565D01*
X0014419Y0023655D01*
X0014559Y0023741D01*
X0014701Y0023823D01*
X0014845Y0023903D01*
X0014991Y0023978D01*
X0015138Y0024050D01*
X0015288Y0024119D01*
X0015439Y0024184D01*
X0015591Y0024245D01*
X0015745Y0024302D01*
X0015901Y0024355D01*
X0016057Y0024405D01*
X0016215Y0024451D01*
X0016374Y0024492D01*
X0016534Y0024530D01*
X0016694Y0024564D01*
X0016856Y0024594D01*
X0017018Y0024621D01*
X0017181Y0024643D01*
X0017344Y0024661D01*
X0017508Y0024675D01*
X0017672Y0024685D01*
X0017836Y0024691D01*
X0018000Y0024693D01*
X0018164Y0024691D01*
X0018328Y0024685D01*
X0018492Y0024675D01*
X0018656Y0024661D01*
X0018819Y0024643D01*
X0018982Y0024621D01*
X0019144Y0024594D01*
X0019306Y0024564D01*
X0019466Y0024530D01*
X0019626Y0024492D01*
X0019785Y0024451D01*
X0019943Y0024405D01*
X0020099Y0024355D01*
X0020255Y0024302D01*
X0020409Y0024245D01*
X0020561Y0024184D01*
X0020712Y0024119D01*
X0020862Y0024050D01*
X0021009Y0023978D01*
X0021155Y0023903D01*
X0021299Y0023823D01*
X0021441Y0023741D01*
X0021581Y0023655D01*
X0021718Y0023565D01*
X0021854Y0023472D01*
X0021987Y0023376D01*
X0022118Y0023276D01*
X0022246Y0023174D01*
X0022372Y0023068D01*
X0022495Y0022959D01*
X0022615Y0022847D01*
X0022733Y0022733D01*
X0022847Y0022615D01*
X0022959Y0022495D01*
X0023068Y0022372D01*
X0023174Y0022246D01*
X0023276Y0022118D01*
X0023376Y0021987D01*
X0023472Y0021854D01*
X0023565Y0021718D01*
X0023655Y0021581D01*
X0023741Y0021441D01*
X0023823Y0021299D01*
X0023903Y0021155D01*
X0023978Y0021009D01*
X0024050Y0020862D01*
X0024119Y0020712D01*
X0024184Y0020561D01*
X0024245Y0020409D01*
X0024302Y0020255D01*
X0024355Y0020099D01*
X0024405Y0019943D01*
X0024451Y0019785D01*
X0024492Y0019626D01*
X0024530Y0019466D01*
X0024564Y0019306D01*
X0024594Y0019144D01*
X0024621Y0018982D01*
X0024643Y0018819D01*
X0024661Y0018656D01*
X0024675Y0018492D01*
X0024685Y0018328D01*
X0024691Y0018164D01*
X0024693Y0018000D01*
X0024691Y0017836D01*
X0024685Y0017672D01*
X0024675Y0017508D01*
X0024661Y0017344D01*
X0024643Y0017181D01*
X0024621Y0017018D01*
X0024594Y0016856D01*
X0024564Y0016694D01*
X0024530Y0016534D01*
X0024492Y0016374D01*
X0024451Y0016215D01*
X0024405Y0016057D01*
X0024355Y0015901D01*
X0024302Y0015745D01*
X0024245Y0015591D01*
X0024184Y0015439D01*
X0024119Y0015288D01*
X0024050Y0015138D01*
X0023978Y0014991D01*
X0023903Y0014845D01*
X0023823Y0014701D01*
X0023741Y0014559D01*
X0023655Y0014419D01*
X0023565Y0014282D01*
X0023472Y0014146D01*
X0023376Y0014013D01*
X0023276Y0013882D01*
X0023174Y0013754D01*
X0023068Y0013628D01*
X0022959Y0013505D01*
X0022847Y0013385D01*
X0022733Y0013267D01*
X0022615Y0013153D01*
X0022495Y0013041D01*
X0022372Y0012932D01*
X0022246Y0012826D01*
X0022118Y0012724D01*
X0021987Y0012624D01*
X0021854Y0012528D01*
X0021718Y0012435D01*
X0021581Y0012345D01*
X0021441Y0012259D01*
X0021299Y0012177D01*
X0021155Y0012097D01*
X0021009Y0012022D01*
X0020862Y0011950D01*
X0020712Y0011881D01*
X0020561Y0011816D01*
X0020409Y0011755D01*
X0020255Y0011698D01*
X0020099Y0011645D01*
X0019943Y0011595D01*
X0019785Y0011549D01*
X0019626Y0011508D01*
X0019466Y0011470D01*
X0019306Y0011436D01*
X0019144Y0011406D01*
X0018982Y0011379D01*
X0018819Y0011357D01*
X0018656Y0011339D01*
X0018492Y0011325D01*
X0018328Y0011315D01*
X0018164Y0011309D01*
X0018000Y0011307D01*
X0017836Y0011309D01*
X0017672Y0011315D01*
X0017508Y0011325D01*
X0017344Y0011339D01*
X0017181Y0011357D01*
X0017018Y0011379D01*
X0016856Y0011406D01*
X0016694Y0011436D01*
X0016534Y0011470D01*
X0016374Y0011508D01*
X0016215Y0011549D01*
X0016057Y0011595D01*
X0015901Y0011645D01*
X0015745Y0011698D01*
X0015591Y0011755D01*
X0015439Y0011816D01*
X0015288Y0011881D01*
X0015138Y0011950D01*
X0014991Y0012022D01*
X0014845Y0012097D01*
X0014701Y0012177D01*
X0014559Y0012259D01*
X0014419Y0012345D01*
X0014282Y0012435D01*
X0014146Y0012528D01*
X0014013Y0012624D01*
X0013882Y0012724D01*
X0013754Y0012826D01*
X0013628Y0012932D01*
X0013505Y0013041D01*
X0013385Y0013153D01*
X0013267Y0013267D01*
X0013153Y0013385D01*
X0013041Y0013505D01*
X0012932Y0013628D01*
X0012826Y0013754D01*
X0012724Y0013882D01*
X0012624Y0014013D01*
X0012528Y0014146D01*
X0012435Y0014282D01*
X0012345Y0014419D01*
X0012259Y0014559D01*
X0012177Y0014701D01*
X0012097Y0014845D01*
X0012022Y0014991D01*
X0011950Y0015138D01*
X0011881Y0015288D01*
X0011816Y0015439D01*
X0011755Y0015591D01*
X0011698Y0015745D01*
X0011645Y0015901D01*
X0011595Y0016057D01*
X0011549Y0016215D01*
X0011508Y0016374D01*
X0011470Y0016534D01*
X0011436Y0016694D01*
X0011406Y0016856D01*
X0011379Y0017018D01*
X0011357Y0017181D01*
X0011339Y0017344D01*
X0011325Y0017508D01*
X0011315Y0017672D01*
X0011309Y0017836D01*
X0011307Y0018000D01*
X0011110Y0155795D02*
X0011112Y0155964D01*
X0011118Y0156133D01*
X0011129Y0156302D01*
X0011143Y0156470D01*
X0011162Y0156638D01*
X0011185Y0156806D01*
X0011211Y0156973D01*
X0011242Y0157139D01*
X0011277Y0157305D01*
X0011316Y0157469D01*
X0011360Y0157633D01*
X0011407Y0157795D01*
X0011458Y0157956D01*
X0011513Y0158116D01*
X0011572Y0158275D01*
X0011634Y0158432D01*
X0011701Y0158587D01*
X0011772Y0158741D01*
X0011846Y0158893D01*
X0011924Y0159043D01*
X0012005Y0159191D01*
X0012090Y0159337D01*
X0012179Y0159481D01*
X0012271Y0159623D01*
X0012367Y0159762D01*
X0012466Y0159899D01*
X0012568Y0160034D01*
X0012674Y0160166D01*
X0012783Y0160295D01*
X0012895Y0160422D01*
X0013010Y0160546D01*
X0013128Y0160667D01*
X0013249Y0160785D01*
X0013373Y0160900D01*
X0013500Y0161012D01*
X0013629Y0161121D01*
X0013761Y0161227D01*
X0013896Y0161329D01*
X0014033Y0161428D01*
X0014172Y0161524D01*
X0014314Y0161616D01*
X0014458Y0161705D01*
X0014604Y0161790D01*
X0014752Y0161871D01*
X0014902Y0161949D01*
X0015054Y0162023D01*
X0015208Y0162094D01*
X0015363Y0162161D01*
X0015520Y0162223D01*
X0015679Y0162282D01*
X0015839Y0162337D01*
X0016000Y0162388D01*
X0016162Y0162435D01*
X0016326Y0162479D01*
X0016490Y0162518D01*
X0016656Y0162553D01*
X0016822Y0162584D01*
X0016989Y0162610D01*
X0017157Y0162633D01*
X0017325Y0162652D01*
X0017493Y0162666D01*
X0017662Y0162677D01*
X0017831Y0162683D01*
X0018000Y0162685D01*
X0018169Y0162683D01*
X0018338Y0162677D01*
X0018507Y0162666D01*
X0018675Y0162652D01*
X0018843Y0162633D01*
X0019011Y0162610D01*
X0019178Y0162584D01*
X0019344Y0162553D01*
X0019510Y0162518D01*
X0019674Y0162479D01*
X0019838Y0162435D01*
X0020000Y0162388D01*
X0020161Y0162337D01*
X0020321Y0162282D01*
X0020480Y0162223D01*
X0020637Y0162161D01*
X0020792Y0162094D01*
X0020946Y0162023D01*
X0021098Y0161949D01*
X0021248Y0161871D01*
X0021396Y0161790D01*
X0021542Y0161705D01*
X0021686Y0161616D01*
X0021828Y0161524D01*
X0021967Y0161428D01*
X0022104Y0161329D01*
X0022239Y0161227D01*
X0022371Y0161121D01*
X0022500Y0161012D01*
X0022627Y0160900D01*
X0022751Y0160785D01*
X0022872Y0160667D01*
X0022990Y0160546D01*
X0023105Y0160422D01*
X0023217Y0160295D01*
X0023326Y0160166D01*
X0023432Y0160034D01*
X0023534Y0159899D01*
X0023633Y0159762D01*
X0023729Y0159623D01*
X0023821Y0159481D01*
X0023910Y0159337D01*
X0023995Y0159191D01*
X0024076Y0159043D01*
X0024154Y0158893D01*
X0024228Y0158741D01*
X0024299Y0158587D01*
X0024366Y0158432D01*
X0024428Y0158275D01*
X0024487Y0158116D01*
X0024542Y0157956D01*
X0024593Y0157795D01*
X0024640Y0157633D01*
X0024684Y0157469D01*
X0024723Y0157305D01*
X0024758Y0157139D01*
X0024789Y0156973D01*
X0024815Y0156806D01*
X0024838Y0156638D01*
X0024857Y0156470D01*
X0024871Y0156302D01*
X0024882Y0156133D01*
X0024888Y0155964D01*
X0024890Y0155795D01*
X0024888Y0155626D01*
X0024882Y0155457D01*
X0024871Y0155288D01*
X0024857Y0155120D01*
X0024838Y0154952D01*
X0024815Y0154784D01*
X0024789Y0154617D01*
X0024758Y0154451D01*
X0024723Y0154285D01*
X0024684Y0154121D01*
X0024640Y0153957D01*
X0024593Y0153795D01*
X0024542Y0153634D01*
X0024487Y0153474D01*
X0024428Y0153315D01*
X0024366Y0153158D01*
X0024299Y0153003D01*
X0024228Y0152849D01*
X0024154Y0152697D01*
X0024076Y0152547D01*
X0023995Y0152399D01*
X0023910Y0152253D01*
X0023821Y0152109D01*
X0023729Y0151967D01*
X0023633Y0151828D01*
X0023534Y0151691D01*
X0023432Y0151556D01*
X0023326Y0151424D01*
X0023217Y0151295D01*
X0023105Y0151168D01*
X0022990Y0151044D01*
X0022872Y0150923D01*
X0022751Y0150805D01*
X0022627Y0150690D01*
X0022500Y0150578D01*
X0022371Y0150469D01*
X0022239Y0150363D01*
X0022104Y0150261D01*
X0021967Y0150162D01*
X0021828Y0150066D01*
X0021686Y0149974D01*
X0021542Y0149885D01*
X0021396Y0149800D01*
X0021248Y0149719D01*
X0021098Y0149641D01*
X0020946Y0149567D01*
X0020792Y0149496D01*
X0020637Y0149429D01*
X0020480Y0149367D01*
X0020321Y0149308D01*
X0020161Y0149253D01*
X0020000Y0149202D01*
X0019838Y0149155D01*
X0019674Y0149111D01*
X0019510Y0149072D01*
X0019344Y0149037D01*
X0019178Y0149006D01*
X0019011Y0148980D01*
X0018843Y0148957D01*
X0018675Y0148938D01*
X0018507Y0148924D01*
X0018338Y0148913D01*
X0018169Y0148907D01*
X0018000Y0148905D01*
X0017831Y0148907D01*
X0017662Y0148913D01*
X0017493Y0148924D01*
X0017325Y0148938D01*
X0017157Y0148957D01*
X0016989Y0148980D01*
X0016822Y0149006D01*
X0016656Y0149037D01*
X0016490Y0149072D01*
X0016326Y0149111D01*
X0016162Y0149155D01*
X0016000Y0149202D01*
X0015839Y0149253D01*
X0015679Y0149308D01*
X0015520Y0149367D01*
X0015363Y0149429D01*
X0015208Y0149496D01*
X0015054Y0149567D01*
X0014902Y0149641D01*
X0014752Y0149719D01*
X0014604Y0149800D01*
X0014458Y0149885D01*
X0014314Y0149974D01*
X0014172Y0150066D01*
X0014033Y0150162D01*
X0013896Y0150261D01*
X0013761Y0150363D01*
X0013629Y0150469D01*
X0013500Y0150578D01*
X0013373Y0150690D01*
X0013249Y0150805D01*
X0013128Y0150923D01*
X0013010Y0151044D01*
X0012895Y0151168D01*
X0012783Y0151295D01*
X0012674Y0151424D01*
X0012568Y0151556D01*
X0012466Y0151691D01*
X0012367Y0151828D01*
X0012271Y0151967D01*
X0012179Y0152109D01*
X0012090Y0152253D01*
X0012005Y0152399D01*
X0011924Y0152547D01*
X0011846Y0152697D01*
X0011772Y0152849D01*
X0011701Y0153003D01*
X0011634Y0153158D01*
X0011572Y0153315D01*
X0011513Y0153474D01*
X0011458Y0153634D01*
X0011407Y0153795D01*
X0011360Y0153957D01*
X0011316Y0154121D01*
X0011277Y0154285D01*
X0011242Y0154451D01*
X0011211Y0154617D01*
X0011185Y0154784D01*
X0011162Y0154952D01*
X0011143Y0155120D01*
X0011129Y0155288D01*
X0011118Y0155457D01*
X0011112Y0155626D01*
X0011110Y0155795D01*
X0149102Y0155795D02*
X0149104Y0155959D01*
X0149110Y0156123D01*
X0149120Y0156287D01*
X0149134Y0156451D01*
X0149152Y0156614D01*
X0149174Y0156777D01*
X0149201Y0156939D01*
X0149231Y0157101D01*
X0149265Y0157261D01*
X0149303Y0157421D01*
X0149344Y0157580D01*
X0149390Y0157738D01*
X0149440Y0157894D01*
X0149493Y0158050D01*
X0149550Y0158204D01*
X0149611Y0158356D01*
X0149676Y0158507D01*
X0149745Y0158657D01*
X0149817Y0158804D01*
X0149892Y0158950D01*
X0149972Y0159094D01*
X0150054Y0159236D01*
X0150140Y0159376D01*
X0150230Y0159513D01*
X0150323Y0159649D01*
X0150419Y0159782D01*
X0150519Y0159913D01*
X0150621Y0160041D01*
X0150727Y0160167D01*
X0150836Y0160290D01*
X0150948Y0160410D01*
X0151062Y0160528D01*
X0151180Y0160642D01*
X0151300Y0160754D01*
X0151423Y0160863D01*
X0151549Y0160969D01*
X0151677Y0161071D01*
X0151808Y0161171D01*
X0151941Y0161267D01*
X0152077Y0161360D01*
X0152214Y0161450D01*
X0152354Y0161536D01*
X0152496Y0161618D01*
X0152640Y0161698D01*
X0152786Y0161773D01*
X0152933Y0161845D01*
X0153083Y0161914D01*
X0153234Y0161979D01*
X0153386Y0162040D01*
X0153540Y0162097D01*
X0153696Y0162150D01*
X0153852Y0162200D01*
X0154010Y0162246D01*
X0154169Y0162287D01*
X0154329Y0162325D01*
X0154489Y0162359D01*
X0154651Y0162389D01*
X0154813Y0162416D01*
X0154976Y0162438D01*
X0155139Y0162456D01*
X0155303Y0162470D01*
X0155467Y0162480D01*
X0155631Y0162486D01*
X0155795Y0162488D01*
X0155959Y0162486D01*
X0156123Y0162480D01*
X0156287Y0162470D01*
X0156451Y0162456D01*
X0156614Y0162438D01*
X0156777Y0162416D01*
X0156939Y0162389D01*
X0157101Y0162359D01*
X0157261Y0162325D01*
X0157421Y0162287D01*
X0157580Y0162246D01*
X0157738Y0162200D01*
X0157894Y0162150D01*
X0158050Y0162097D01*
X0158204Y0162040D01*
X0158356Y0161979D01*
X0158507Y0161914D01*
X0158657Y0161845D01*
X0158804Y0161773D01*
X0158950Y0161698D01*
X0159094Y0161618D01*
X0159236Y0161536D01*
X0159376Y0161450D01*
X0159513Y0161360D01*
X0159649Y0161267D01*
X0159782Y0161171D01*
X0159913Y0161071D01*
X0160041Y0160969D01*
X0160167Y0160863D01*
X0160290Y0160754D01*
X0160410Y0160642D01*
X0160528Y0160528D01*
X0160642Y0160410D01*
X0160754Y0160290D01*
X0160863Y0160167D01*
X0160969Y0160041D01*
X0161071Y0159913D01*
X0161171Y0159782D01*
X0161267Y0159649D01*
X0161360Y0159513D01*
X0161450Y0159376D01*
X0161536Y0159236D01*
X0161618Y0159094D01*
X0161698Y0158950D01*
X0161773Y0158804D01*
X0161845Y0158657D01*
X0161914Y0158507D01*
X0161979Y0158356D01*
X0162040Y0158204D01*
X0162097Y0158050D01*
X0162150Y0157894D01*
X0162200Y0157738D01*
X0162246Y0157580D01*
X0162287Y0157421D01*
X0162325Y0157261D01*
X0162359Y0157101D01*
X0162389Y0156939D01*
X0162416Y0156777D01*
X0162438Y0156614D01*
X0162456Y0156451D01*
X0162470Y0156287D01*
X0162480Y0156123D01*
X0162486Y0155959D01*
X0162488Y0155795D01*
X0162486Y0155631D01*
X0162480Y0155467D01*
X0162470Y0155303D01*
X0162456Y0155139D01*
X0162438Y0154976D01*
X0162416Y0154813D01*
X0162389Y0154651D01*
X0162359Y0154489D01*
X0162325Y0154329D01*
X0162287Y0154169D01*
X0162246Y0154010D01*
X0162200Y0153852D01*
X0162150Y0153696D01*
X0162097Y0153540D01*
X0162040Y0153386D01*
X0161979Y0153234D01*
X0161914Y0153083D01*
X0161845Y0152933D01*
X0161773Y0152786D01*
X0161698Y0152640D01*
X0161618Y0152496D01*
X0161536Y0152354D01*
X0161450Y0152214D01*
X0161360Y0152077D01*
X0161267Y0151941D01*
X0161171Y0151808D01*
X0161071Y0151677D01*
X0160969Y0151549D01*
X0160863Y0151423D01*
X0160754Y0151300D01*
X0160642Y0151180D01*
X0160528Y0151062D01*
X0160410Y0150948D01*
X0160290Y0150836D01*
X0160167Y0150727D01*
X0160041Y0150621D01*
X0159913Y0150519D01*
X0159782Y0150419D01*
X0159649Y0150323D01*
X0159513Y0150230D01*
X0159376Y0150140D01*
X0159236Y0150054D01*
X0159094Y0149972D01*
X0158950Y0149892D01*
X0158804Y0149817D01*
X0158657Y0149745D01*
X0158507Y0149676D01*
X0158356Y0149611D01*
X0158204Y0149550D01*
X0158050Y0149493D01*
X0157894Y0149440D01*
X0157738Y0149390D01*
X0157580Y0149344D01*
X0157421Y0149303D01*
X0157261Y0149265D01*
X0157101Y0149231D01*
X0156939Y0149201D01*
X0156777Y0149174D01*
X0156614Y0149152D01*
X0156451Y0149134D01*
X0156287Y0149120D01*
X0156123Y0149110D01*
X0155959Y0149104D01*
X0155795Y0149102D01*
X0155631Y0149104D01*
X0155467Y0149110D01*
X0155303Y0149120D01*
X0155139Y0149134D01*
X0154976Y0149152D01*
X0154813Y0149174D01*
X0154651Y0149201D01*
X0154489Y0149231D01*
X0154329Y0149265D01*
X0154169Y0149303D01*
X0154010Y0149344D01*
X0153852Y0149390D01*
X0153696Y0149440D01*
X0153540Y0149493D01*
X0153386Y0149550D01*
X0153234Y0149611D01*
X0153083Y0149676D01*
X0152933Y0149745D01*
X0152786Y0149817D01*
X0152640Y0149892D01*
X0152496Y0149972D01*
X0152354Y0150054D01*
X0152214Y0150140D01*
X0152077Y0150230D01*
X0151941Y0150323D01*
X0151808Y0150419D01*
X0151677Y0150519D01*
X0151549Y0150621D01*
X0151423Y0150727D01*
X0151300Y0150836D01*
X0151180Y0150948D01*
X0151062Y0151062D01*
X0150948Y0151180D01*
X0150836Y0151300D01*
X0150727Y0151423D01*
X0150621Y0151549D01*
X0150519Y0151677D01*
X0150419Y0151808D01*
X0150323Y0151941D01*
X0150230Y0152077D01*
X0150140Y0152214D01*
X0150054Y0152354D01*
X0149972Y0152496D01*
X0149892Y0152640D01*
X0149817Y0152786D01*
X0149745Y0152933D01*
X0149676Y0153083D01*
X0149611Y0153234D01*
X0149550Y0153386D01*
X0149493Y0153540D01*
X0149440Y0153696D01*
X0149390Y0153852D01*
X0149344Y0154010D01*
X0149303Y0154169D01*
X0149265Y0154329D01*
X0149231Y0154489D01*
X0149201Y0154651D01*
X0149174Y0154813D01*
X0149152Y0154976D01*
X0149134Y0155139D01*
X0149120Y0155303D01*
X0149110Y0155467D01*
X0149104Y0155631D01*
X0149102Y0155795D01*
X0188472Y0155795D02*
X0188474Y0155959D01*
X0188480Y0156123D01*
X0188490Y0156287D01*
X0188504Y0156451D01*
X0188522Y0156614D01*
X0188544Y0156777D01*
X0188571Y0156939D01*
X0188601Y0157101D01*
X0188635Y0157261D01*
X0188673Y0157421D01*
X0188714Y0157580D01*
X0188760Y0157738D01*
X0188810Y0157894D01*
X0188863Y0158050D01*
X0188920Y0158204D01*
X0188981Y0158356D01*
X0189046Y0158507D01*
X0189115Y0158657D01*
X0189187Y0158804D01*
X0189262Y0158950D01*
X0189342Y0159094D01*
X0189424Y0159236D01*
X0189510Y0159376D01*
X0189600Y0159513D01*
X0189693Y0159649D01*
X0189789Y0159782D01*
X0189889Y0159913D01*
X0189991Y0160041D01*
X0190097Y0160167D01*
X0190206Y0160290D01*
X0190318Y0160410D01*
X0190432Y0160528D01*
X0190550Y0160642D01*
X0190670Y0160754D01*
X0190793Y0160863D01*
X0190919Y0160969D01*
X0191047Y0161071D01*
X0191178Y0161171D01*
X0191311Y0161267D01*
X0191447Y0161360D01*
X0191584Y0161450D01*
X0191724Y0161536D01*
X0191866Y0161618D01*
X0192010Y0161698D01*
X0192156Y0161773D01*
X0192303Y0161845D01*
X0192453Y0161914D01*
X0192604Y0161979D01*
X0192756Y0162040D01*
X0192910Y0162097D01*
X0193066Y0162150D01*
X0193222Y0162200D01*
X0193380Y0162246D01*
X0193539Y0162287D01*
X0193699Y0162325D01*
X0193859Y0162359D01*
X0194021Y0162389D01*
X0194183Y0162416D01*
X0194346Y0162438D01*
X0194509Y0162456D01*
X0194673Y0162470D01*
X0194837Y0162480D01*
X0195001Y0162486D01*
X0195165Y0162488D01*
X0195329Y0162486D01*
X0195493Y0162480D01*
X0195657Y0162470D01*
X0195821Y0162456D01*
X0195984Y0162438D01*
X0196147Y0162416D01*
X0196309Y0162389D01*
X0196471Y0162359D01*
X0196631Y0162325D01*
X0196791Y0162287D01*
X0196950Y0162246D01*
X0197108Y0162200D01*
X0197264Y0162150D01*
X0197420Y0162097D01*
X0197574Y0162040D01*
X0197726Y0161979D01*
X0197877Y0161914D01*
X0198027Y0161845D01*
X0198174Y0161773D01*
X0198320Y0161698D01*
X0198464Y0161618D01*
X0198606Y0161536D01*
X0198746Y0161450D01*
X0198883Y0161360D01*
X0199019Y0161267D01*
X0199152Y0161171D01*
X0199283Y0161071D01*
X0199411Y0160969D01*
X0199537Y0160863D01*
X0199660Y0160754D01*
X0199780Y0160642D01*
X0199898Y0160528D01*
X0200012Y0160410D01*
X0200124Y0160290D01*
X0200233Y0160167D01*
X0200339Y0160041D01*
X0200441Y0159913D01*
X0200541Y0159782D01*
X0200637Y0159649D01*
X0200730Y0159513D01*
X0200820Y0159376D01*
X0200906Y0159236D01*
X0200988Y0159094D01*
X0201068Y0158950D01*
X0201143Y0158804D01*
X0201215Y0158657D01*
X0201284Y0158507D01*
X0201349Y0158356D01*
X0201410Y0158204D01*
X0201467Y0158050D01*
X0201520Y0157894D01*
X0201570Y0157738D01*
X0201616Y0157580D01*
X0201657Y0157421D01*
X0201695Y0157261D01*
X0201729Y0157101D01*
X0201759Y0156939D01*
X0201786Y0156777D01*
X0201808Y0156614D01*
X0201826Y0156451D01*
X0201840Y0156287D01*
X0201850Y0156123D01*
X0201856Y0155959D01*
X0201858Y0155795D01*
X0201856Y0155631D01*
X0201850Y0155467D01*
X0201840Y0155303D01*
X0201826Y0155139D01*
X0201808Y0154976D01*
X0201786Y0154813D01*
X0201759Y0154651D01*
X0201729Y0154489D01*
X0201695Y0154329D01*
X0201657Y0154169D01*
X0201616Y0154010D01*
X0201570Y0153852D01*
X0201520Y0153696D01*
X0201467Y0153540D01*
X0201410Y0153386D01*
X0201349Y0153234D01*
X0201284Y0153083D01*
X0201215Y0152933D01*
X0201143Y0152786D01*
X0201068Y0152640D01*
X0200988Y0152496D01*
X0200906Y0152354D01*
X0200820Y0152214D01*
X0200730Y0152077D01*
X0200637Y0151941D01*
X0200541Y0151808D01*
X0200441Y0151677D01*
X0200339Y0151549D01*
X0200233Y0151423D01*
X0200124Y0151300D01*
X0200012Y0151180D01*
X0199898Y0151062D01*
X0199780Y0150948D01*
X0199660Y0150836D01*
X0199537Y0150727D01*
X0199411Y0150621D01*
X0199283Y0150519D01*
X0199152Y0150419D01*
X0199019Y0150323D01*
X0198883Y0150230D01*
X0198746Y0150140D01*
X0198606Y0150054D01*
X0198464Y0149972D01*
X0198320Y0149892D01*
X0198174Y0149817D01*
X0198027Y0149745D01*
X0197877Y0149676D01*
X0197726Y0149611D01*
X0197574Y0149550D01*
X0197420Y0149493D01*
X0197264Y0149440D01*
X0197108Y0149390D01*
X0196950Y0149344D01*
X0196791Y0149303D01*
X0196631Y0149265D01*
X0196471Y0149231D01*
X0196309Y0149201D01*
X0196147Y0149174D01*
X0195984Y0149152D01*
X0195821Y0149134D01*
X0195657Y0149120D01*
X0195493Y0149110D01*
X0195329Y0149104D01*
X0195165Y0149102D01*
X0195001Y0149104D01*
X0194837Y0149110D01*
X0194673Y0149120D01*
X0194509Y0149134D01*
X0194346Y0149152D01*
X0194183Y0149174D01*
X0194021Y0149201D01*
X0193859Y0149231D01*
X0193699Y0149265D01*
X0193539Y0149303D01*
X0193380Y0149344D01*
X0193222Y0149390D01*
X0193066Y0149440D01*
X0192910Y0149493D01*
X0192756Y0149550D01*
X0192604Y0149611D01*
X0192453Y0149676D01*
X0192303Y0149745D01*
X0192156Y0149817D01*
X0192010Y0149892D01*
X0191866Y0149972D01*
X0191724Y0150054D01*
X0191584Y0150140D01*
X0191447Y0150230D01*
X0191311Y0150323D01*
X0191178Y0150419D01*
X0191047Y0150519D01*
X0190919Y0150621D01*
X0190793Y0150727D01*
X0190670Y0150836D01*
X0190550Y0150948D01*
X0190432Y0151062D01*
X0190318Y0151180D01*
X0190206Y0151300D01*
X0190097Y0151423D01*
X0189991Y0151549D01*
X0189889Y0151677D01*
X0189789Y0151808D01*
X0189693Y0151941D01*
X0189600Y0152077D01*
X0189510Y0152214D01*
X0189424Y0152354D01*
X0189342Y0152496D01*
X0189262Y0152640D01*
X0189187Y0152786D01*
X0189115Y0152933D01*
X0189046Y0153083D01*
X0188981Y0153234D01*
X0188920Y0153386D01*
X0188863Y0153540D01*
X0188810Y0153696D01*
X0188760Y0153852D01*
X0188714Y0154010D01*
X0188673Y0154169D01*
X0188635Y0154329D01*
X0188601Y0154489D01*
X0188571Y0154651D01*
X0188544Y0154813D01*
X0188522Y0154976D01*
X0188504Y0155139D01*
X0188490Y0155303D01*
X0188480Y0155467D01*
X0188474Y0155631D01*
X0188472Y0155795D01*
X0326071Y0155795D02*
X0326073Y0155964D01*
X0326079Y0156133D01*
X0326090Y0156302D01*
X0326104Y0156470D01*
X0326123Y0156638D01*
X0326146Y0156806D01*
X0326172Y0156973D01*
X0326203Y0157139D01*
X0326238Y0157305D01*
X0326277Y0157469D01*
X0326321Y0157633D01*
X0326368Y0157795D01*
X0326419Y0157956D01*
X0326474Y0158116D01*
X0326533Y0158275D01*
X0326595Y0158432D01*
X0326662Y0158587D01*
X0326733Y0158741D01*
X0326807Y0158893D01*
X0326885Y0159043D01*
X0326966Y0159191D01*
X0327051Y0159337D01*
X0327140Y0159481D01*
X0327232Y0159623D01*
X0327328Y0159762D01*
X0327427Y0159899D01*
X0327529Y0160034D01*
X0327635Y0160166D01*
X0327744Y0160295D01*
X0327856Y0160422D01*
X0327971Y0160546D01*
X0328089Y0160667D01*
X0328210Y0160785D01*
X0328334Y0160900D01*
X0328461Y0161012D01*
X0328590Y0161121D01*
X0328722Y0161227D01*
X0328857Y0161329D01*
X0328994Y0161428D01*
X0329133Y0161524D01*
X0329275Y0161616D01*
X0329419Y0161705D01*
X0329565Y0161790D01*
X0329713Y0161871D01*
X0329863Y0161949D01*
X0330015Y0162023D01*
X0330169Y0162094D01*
X0330324Y0162161D01*
X0330481Y0162223D01*
X0330640Y0162282D01*
X0330800Y0162337D01*
X0330961Y0162388D01*
X0331123Y0162435D01*
X0331287Y0162479D01*
X0331451Y0162518D01*
X0331617Y0162553D01*
X0331783Y0162584D01*
X0331950Y0162610D01*
X0332118Y0162633D01*
X0332286Y0162652D01*
X0332454Y0162666D01*
X0332623Y0162677D01*
X0332792Y0162683D01*
X0332961Y0162685D01*
X0333130Y0162683D01*
X0333299Y0162677D01*
X0333468Y0162666D01*
X0333636Y0162652D01*
X0333804Y0162633D01*
X0333972Y0162610D01*
X0334139Y0162584D01*
X0334305Y0162553D01*
X0334471Y0162518D01*
X0334635Y0162479D01*
X0334799Y0162435D01*
X0334961Y0162388D01*
X0335122Y0162337D01*
X0335282Y0162282D01*
X0335441Y0162223D01*
X0335598Y0162161D01*
X0335753Y0162094D01*
X0335907Y0162023D01*
X0336059Y0161949D01*
X0336209Y0161871D01*
X0336357Y0161790D01*
X0336503Y0161705D01*
X0336647Y0161616D01*
X0336789Y0161524D01*
X0336928Y0161428D01*
X0337065Y0161329D01*
X0337200Y0161227D01*
X0337332Y0161121D01*
X0337461Y0161012D01*
X0337588Y0160900D01*
X0337712Y0160785D01*
X0337833Y0160667D01*
X0337951Y0160546D01*
X0338066Y0160422D01*
X0338178Y0160295D01*
X0338287Y0160166D01*
X0338393Y0160034D01*
X0338495Y0159899D01*
X0338594Y0159762D01*
X0338690Y0159623D01*
X0338782Y0159481D01*
X0338871Y0159337D01*
X0338956Y0159191D01*
X0339037Y0159043D01*
X0339115Y0158893D01*
X0339189Y0158741D01*
X0339260Y0158587D01*
X0339327Y0158432D01*
X0339389Y0158275D01*
X0339448Y0158116D01*
X0339503Y0157956D01*
X0339554Y0157795D01*
X0339601Y0157633D01*
X0339645Y0157469D01*
X0339684Y0157305D01*
X0339719Y0157139D01*
X0339750Y0156973D01*
X0339776Y0156806D01*
X0339799Y0156638D01*
X0339818Y0156470D01*
X0339832Y0156302D01*
X0339843Y0156133D01*
X0339849Y0155964D01*
X0339851Y0155795D01*
X0339849Y0155626D01*
X0339843Y0155457D01*
X0339832Y0155288D01*
X0339818Y0155120D01*
X0339799Y0154952D01*
X0339776Y0154784D01*
X0339750Y0154617D01*
X0339719Y0154451D01*
X0339684Y0154285D01*
X0339645Y0154121D01*
X0339601Y0153957D01*
X0339554Y0153795D01*
X0339503Y0153634D01*
X0339448Y0153474D01*
X0339389Y0153315D01*
X0339327Y0153158D01*
X0339260Y0153003D01*
X0339189Y0152849D01*
X0339115Y0152697D01*
X0339037Y0152547D01*
X0338956Y0152399D01*
X0338871Y0152253D01*
X0338782Y0152109D01*
X0338690Y0151967D01*
X0338594Y0151828D01*
X0338495Y0151691D01*
X0338393Y0151556D01*
X0338287Y0151424D01*
X0338178Y0151295D01*
X0338066Y0151168D01*
X0337951Y0151044D01*
X0337833Y0150923D01*
X0337712Y0150805D01*
X0337588Y0150690D01*
X0337461Y0150578D01*
X0337332Y0150469D01*
X0337200Y0150363D01*
X0337065Y0150261D01*
X0336928Y0150162D01*
X0336789Y0150066D01*
X0336647Y0149974D01*
X0336503Y0149885D01*
X0336357Y0149800D01*
X0336209Y0149719D01*
X0336059Y0149641D01*
X0335907Y0149567D01*
X0335753Y0149496D01*
X0335598Y0149429D01*
X0335441Y0149367D01*
X0335282Y0149308D01*
X0335122Y0149253D01*
X0334961Y0149202D01*
X0334799Y0149155D01*
X0334635Y0149111D01*
X0334471Y0149072D01*
X0334305Y0149037D01*
X0334139Y0149006D01*
X0333972Y0148980D01*
X0333804Y0148957D01*
X0333636Y0148938D01*
X0333468Y0148924D01*
X0333299Y0148913D01*
X0333130Y0148907D01*
X0332961Y0148905D01*
X0332792Y0148907D01*
X0332623Y0148913D01*
X0332454Y0148924D01*
X0332286Y0148938D01*
X0332118Y0148957D01*
X0331950Y0148980D01*
X0331783Y0149006D01*
X0331617Y0149037D01*
X0331451Y0149072D01*
X0331287Y0149111D01*
X0331123Y0149155D01*
X0330961Y0149202D01*
X0330800Y0149253D01*
X0330640Y0149308D01*
X0330481Y0149367D01*
X0330324Y0149429D01*
X0330169Y0149496D01*
X0330015Y0149567D01*
X0329863Y0149641D01*
X0329713Y0149719D01*
X0329565Y0149800D01*
X0329419Y0149885D01*
X0329275Y0149974D01*
X0329133Y0150066D01*
X0328994Y0150162D01*
X0328857Y0150261D01*
X0328722Y0150363D01*
X0328590Y0150469D01*
X0328461Y0150578D01*
X0328334Y0150690D01*
X0328210Y0150805D01*
X0328089Y0150923D01*
X0327971Y0151044D01*
X0327856Y0151168D01*
X0327744Y0151295D01*
X0327635Y0151424D01*
X0327529Y0151556D01*
X0327427Y0151691D01*
X0327328Y0151828D01*
X0327232Y0151967D01*
X0327140Y0152109D01*
X0327051Y0152253D01*
X0326966Y0152399D01*
X0326885Y0152547D01*
X0326807Y0152697D01*
X0326733Y0152849D01*
X0326662Y0153003D01*
X0326595Y0153158D01*
X0326533Y0153315D01*
X0326474Y0153474D01*
X0326419Y0153634D01*
X0326368Y0153795D01*
X0326321Y0153957D01*
X0326277Y0154121D01*
X0326238Y0154285D01*
X0326203Y0154451D01*
X0326172Y0154617D01*
X0326146Y0154784D01*
X0326123Y0154952D01*
X0326104Y0155120D01*
X0326090Y0155288D01*
X0326079Y0155457D01*
X0326073Y0155626D01*
X0326071Y0155795D01*
X0326268Y0018000D02*
X0326270Y0018164D01*
X0326276Y0018328D01*
X0326286Y0018492D01*
X0326300Y0018656D01*
X0326318Y0018819D01*
X0326340Y0018982D01*
X0326367Y0019144D01*
X0326397Y0019306D01*
X0326431Y0019466D01*
X0326469Y0019626D01*
X0326510Y0019785D01*
X0326556Y0019943D01*
X0326606Y0020099D01*
X0326659Y0020255D01*
X0326716Y0020409D01*
X0326777Y0020561D01*
X0326842Y0020712D01*
X0326911Y0020862D01*
X0326983Y0021009D01*
X0327058Y0021155D01*
X0327138Y0021299D01*
X0327220Y0021441D01*
X0327306Y0021581D01*
X0327396Y0021718D01*
X0327489Y0021854D01*
X0327585Y0021987D01*
X0327685Y0022118D01*
X0327787Y0022246D01*
X0327893Y0022372D01*
X0328002Y0022495D01*
X0328114Y0022615D01*
X0328228Y0022733D01*
X0328346Y0022847D01*
X0328466Y0022959D01*
X0328589Y0023068D01*
X0328715Y0023174D01*
X0328843Y0023276D01*
X0328974Y0023376D01*
X0329107Y0023472D01*
X0329243Y0023565D01*
X0329380Y0023655D01*
X0329520Y0023741D01*
X0329662Y0023823D01*
X0329806Y0023903D01*
X0329952Y0023978D01*
X0330099Y0024050D01*
X0330249Y0024119D01*
X0330400Y0024184D01*
X0330552Y0024245D01*
X0330706Y0024302D01*
X0330862Y0024355D01*
X0331018Y0024405D01*
X0331176Y0024451D01*
X0331335Y0024492D01*
X0331495Y0024530D01*
X0331655Y0024564D01*
X0331817Y0024594D01*
X0331979Y0024621D01*
X0332142Y0024643D01*
X0332305Y0024661D01*
X0332469Y0024675D01*
X0332633Y0024685D01*
X0332797Y0024691D01*
X0332961Y0024693D01*
X0333125Y0024691D01*
X0333289Y0024685D01*
X0333453Y0024675D01*
X0333617Y0024661D01*
X0333780Y0024643D01*
X0333943Y0024621D01*
X0334105Y0024594D01*
X0334267Y0024564D01*
X0334427Y0024530D01*
X0334587Y0024492D01*
X0334746Y0024451D01*
X0334904Y0024405D01*
X0335060Y0024355D01*
X0335216Y0024302D01*
X0335370Y0024245D01*
X0335522Y0024184D01*
X0335673Y0024119D01*
X0335823Y0024050D01*
X0335970Y0023978D01*
X0336116Y0023903D01*
X0336260Y0023823D01*
X0336402Y0023741D01*
X0336542Y0023655D01*
X0336679Y0023565D01*
X0336815Y0023472D01*
X0336948Y0023376D01*
X0337079Y0023276D01*
X0337207Y0023174D01*
X0337333Y0023068D01*
X0337456Y0022959D01*
X0337576Y0022847D01*
X0337694Y0022733D01*
X0337808Y0022615D01*
X0337920Y0022495D01*
X0338029Y0022372D01*
X0338135Y0022246D01*
X0338237Y0022118D01*
X0338337Y0021987D01*
X0338433Y0021854D01*
X0338526Y0021718D01*
X0338616Y0021581D01*
X0338702Y0021441D01*
X0338784Y0021299D01*
X0338864Y0021155D01*
X0338939Y0021009D01*
X0339011Y0020862D01*
X0339080Y0020712D01*
X0339145Y0020561D01*
X0339206Y0020409D01*
X0339263Y0020255D01*
X0339316Y0020099D01*
X0339366Y0019943D01*
X0339412Y0019785D01*
X0339453Y0019626D01*
X0339491Y0019466D01*
X0339525Y0019306D01*
X0339555Y0019144D01*
X0339582Y0018982D01*
X0339604Y0018819D01*
X0339622Y0018656D01*
X0339636Y0018492D01*
X0339646Y0018328D01*
X0339652Y0018164D01*
X0339654Y0018000D01*
X0339652Y0017836D01*
X0339646Y0017672D01*
X0339636Y0017508D01*
X0339622Y0017344D01*
X0339604Y0017181D01*
X0339582Y0017018D01*
X0339555Y0016856D01*
X0339525Y0016694D01*
X0339491Y0016534D01*
X0339453Y0016374D01*
X0339412Y0016215D01*
X0339366Y0016057D01*
X0339316Y0015901D01*
X0339263Y0015745D01*
X0339206Y0015591D01*
X0339145Y0015439D01*
X0339080Y0015288D01*
X0339011Y0015138D01*
X0338939Y0014991D01*
X0338864Y0014845D01*
X0338784Y0014701D01*
X0338702Y0014559D01*
X0338616Y0014419D01*
X0338526Y0014282D01*
X0338433Y0014146D01*
X0338337Y0014013D01*
X0338237Y0013882D01*
X0338135Y0013754D01*
X0338029Y0013628D01*
X0337920Y0013505D01*
X0337808Y0013385D01*
X0337694Y0013267D01*
X0337576Y0013153D01*
X0337456Y0013041D01*
X0337333Y0012932D01*
X0337207Y0012826D01*
X0337079Y0012724D01*
X0336948Y0012624D01*
X0336815Y0012528D01*
X0336679Y0012435D01*
X0336542Y0012345D01*
X0336402Y0012259D01*
X0336260Y0012177D01*
X0336116Y0012097D01*
X0335970Y0012022D01*
X0335823Y0011950D01*
X0335673Y0011881D01*
X0335522Y0011816D01*
X0335370Y0011755D01*
X0335216Y0011698D01*
X0335060Y0011645D01*
X0334904Y0011595D01*
X0334746Y0011549D01*
X0334587Y0011508D01*
X0334427Y0011470D01*
X0334267Y0011436D01*
X0334105Y0011406D01*
X0333943Y0011379D01*
X0333780Y0011357D01*
X0333617Y0011339D01*
X0333453Y0011325D01*
X0333289Y0011315D01*
X0333125Y0011309D01*
X0332961Y0011307D01*
X0332797Y0011309D01*
X0332633Y0011315D01*
X0332469Y0011325D01*
X0332305Y0011339D01*
X0332142Y0011357D01*
X0331979Y0011379D01*
X0331817Y0011406D01*
X0331655Y0011436D01*
X0331495Y0011470D01*
X0331335Y0011508D01*
X0331176Y0011549D01*
X0331018Y0011595D01*
X0330862Y0011645D01*
X0330706Y0011698D01*
X0330552Y0011755D01*
X0330400Y0011816D01*
X0330249Y0011881D01*
X0330099Y0011950D01*
X0329952Y0012022D01*
X0329806Y0012097D01*
X0329662Y0012177D01*
X0329520Y0012259D01*
X0329380Y0012345D01*
X0329243Y0012435D01*
X0329107Y0012528D01*
X0328974Y0012624D01*
X0328843Y0012724D01*
X0328715Y0012826D01*
X0328589Y0012932D01*
X0328466Y0013041D01*
X0328346Y0013153D01*
X0328228Y0013267D01*
X0328114Y0013385D01*
X0328002Y0013505D01*
X0327893Y0013628D01*
X0327787Y0013754D01*
X0327685Y0013882D01*
X0327585Y0014013D01*
X0327489Y0014146D01*
X0327396Y0014282D01*
X0327306Y0014419D01*
X0327220Y0014559D01*
X0327138Y0014701D01*
X0327058Y0014845D01*
X0326983Y0014991D01*
X0326911Y0015138D01*
X0326842Y0015288D01*
X0326777Y0015439D01*
X0326716Y0015591D01*
X0326659Y0015745D01*
X0326606Y0015901D01*
X0326556Y0016057D01*
X0326510Y0016215D01*
X0326469Y0016374D01*
X0326431Y0016534D01*
X0326397Y0016694D01*
X0326367Y0016856D01*
X0326340Y0017018D01*
X0326318Y0017181D01*
X0326300Y0017344D01*
X0326286Y0017508D01*
X0326276Y0017672D01*
X0326270Y0017836D01*
X0326268Y0018000D01*
D15*
X0333354Y0073357D02*
X0333354Y0074559D01*
X0333354Y0073958D02*
X0336957Y0073958D01*
X0336957Y0073357D02*
X0336957Y0074559D01*
X0336357Y0075813D02*
X0336957Y0076413D01*
X0336957Y0077614D01*
X0336357Y0078215D01*
X0336957Y0079496D02*
X0336957Y0081898D01*
X0336957Y0080697D02*
X0333354Y0080697D01*
X0334555Y0079496D01*
X0333955Y0078215D02*
X0333354Y0077614D01*
X0333354Y0076413D01*
X0333955Y0075813D01*
X0336357Y0075813D01*
X0154257Y0081458D02*
X0154257Y0082659D01*
X0153657Y0083260D01*
X0152456Y0083260D01*
X0152456Y0082059D01*
X0151255Y0083260D02*
X0150654Y0082659D01*
X0150654Y0081458D01*
X0151255Y0080857D01*
X0153657Y0080857D01*
X0154257Y0081458D01*
X0154257Y0084541D02*
X0150654Y0084541D01*
X0154257Y0086943D01*
X0150654Y0086943D01*
X0150654Y0088224D02*
X0150654Y0090025D01*
X0151255Y0090626D01*
X0153657Y0090626D01*
X0154257Y0090025D01*
X0154257Y0088224D01*
X0150654Y0088224D01*
D16*
X0114410Y0094158D02*
X0113659Y0093407D01*
X0112158Y0093407D01*
X0111407Y0094158D01*
X0111407Y0094909D01*
X0112158Y0095659D01*
X0113659Y0095659D01*
X0114410Y0094909D01*
X0114410Y0094158D01*
X0113659Y0095659D02*
X0114410Y0096410D01*
X0114410Y0097161D01*
X0113659Y0097911D01*
X0112158Y0097911D01*
X0111407Y0097161D01*
X0111407Y0096410D01*
X0112158Y0095659D01*
X0155953Y0126898D02*
X0155953Y0136898D01*
X0325953Y0136898D01*
X0325953Y0126898D01*
X0155953Y0126898D01*
X0225904Y0108805D02*
X0227405Y0107304D01*
X0225904Y0108805D02*
X0230407Y0108805D01*
X0230407Y0107304D02*
X0230407Y0110306D01*
X0228156Y0064806D02*
X0228156Y0061804D01*
X0225904Y0064055D01*
X0230407Y0064055D01*
X0155953Y0046898D02*
X0155953Y0036898D01*
X0325953Y0036898D01*
X0325953Y0046898D01*
X0155953Y0046898D01*
X0213157Y0022757D02*
X0213157Y0017757D01*
X0327257Y0041878D02*
X0327259Y0041972D01*
X0327265Y0042066D01*
X0327275Y0042160D01*
X0327289Y0042253D01*
X0327307Y0042346D01*
X0327328Y0042438D01*
X0327354Y0042528D01*
X0327383Y0042618D01*
X0327416Y0042706D01*
X0327453Y0042793D01*
X0327493Y0042878D01*
X0327537Y0042962D01*
X0327585Y0043043D01*
X0327635Y0043123D01*
X0327690Y0043200D01*
X0327747Y0043275D01*
X0327807Y0043347D01*
X0327871Y0043417D01*
X0327937Y0043484D01*
X0328006Y0043548D01*
X0328078Y0043609D01*
X0328152Y0043667D01*
X0328229Y0043722D01*
X0328308Y0043774D01*
X0328389Y0043822D01*
X0328472Y0043867D01*
X0328556Y0043908D01*
X0328643Y0043946D01*
X0328731Y0043980D01*
X0328820Y0044010D01*
X0328910Y0044037D01*
X0329002Y0044059D01*
X0329094Y0044078D01*
X0329188Y0044093D01*
X0329281Y0044104D01*
X0329375Y0044111D01*
X0329469Y0044114D01*
X0329564Y0044113D01*
X0329658Y0044108D01*
X0329752Y0044099D01*
X0329845Y0044086D01*
X0329938Y0044069D01*
X0330030Y0044049D01*
X0330121Y0044024D01*
X0330211Y0043996D01*
X0330299Y0043964D01*
X0330387Y0043928D01*
X0330472Y0043888D01*
X0330556Y0043845D01*
X0330638Y0043799D01*
X0330718Y0043749D01*
X0330796Y0043695D01*
X0330871Y0043639D01*
X0330944Y0043579D01*
X0331015Y0043516D01*
X0331082Y0043451D01*
X0331147Y0043382D01*
X0331209Y0043311D01*
X0331268Y0043238D01*
X0331324Y0043162D01*
X0331376Y0043083D01*
X0331425Y0043003D01*
X0331471Y0042920D01*
X0331513Y0042836D01*
X0331552Y0042750D01*
X0331587Y0042662D01*
X0331618Y0042573D01*
X0331646Y0042483D01*
X0331669Y0042392D01*
X0331689Y0042300D01*
X0331705Y0042207D01*
X0331717Y0042113D01*
X0331725Y0042019D01*
X0331729Y0041925D01*
X0331729Y0041831D01*
X0331725Y0041737D01*
X0331717Y0041643D01*
X0331705Y0041549D01*
X0331689Y0041456D01*
X0331669Y0041364D01*
X0331646Y0041273D01*
X0331618Y0041183D01*
X0331587Y0041094D01*
X0331552Y0041006D01*
X0331513Y0040920D01*
X0331471Y0040836D01*
X0331425Y0040753D01*
X0331376Y0040673D01*
X0331324Y0040594D01*
X0331268Y0040518D01*
X0331209Y0040445D01*
X0331147Y0040374D01*
X0331082Y0040305D01*
X0331015Y0040240D01*
X0330944Y0040177D01*
X0330871Y0040117D01*
X0330796Y0040061D01*
X0330718Y0040007D01*
X0330638Y0039957D01*
X0330556Y0039911D01*
X0330472Y0039868D01*
X0330387Y0039828D01*
X0330299Y0039792D01*
X0330211Y0039760D01*
X0330121Y0039732D01*
X0330030Y0039707D01*
X0329938Y0039687D01*
X0329845Y0039670D01*
X0329752Y0039657D01*
X0329658Y0039648D01*
X0329564Y0039643D01*
X0329469Y0039642D01*
X0329375Y0039645D01*
X0329281Y0039652D01*
X0329188Y0039663D01*
X0329094Y0039678D01*
X0329002Y0039697D01*
X0328910Y0039719D01*
X0328820Y0039746D01*
X0328731Y0039776D01*
X0328643Y0039810D01*
X0328556Y0039848D01*
X0328472Y0039889D01*
X0328389Y0039934D01*
X0328308Y0039982D01*
X0328229Y0040034D01*
X0328152Y0040089D01*
X0328078Y0040147D01*
X0328006Y0040208D01*
X0327937Y0040272D01*
X0327871Y0040339D01*
X0327807Y0040409D01*
X0327747Y0040481D01*
X0327690Y0040556D01*
X0327635Y0040633D01*
X0327585Y0040713D01*
X0327537Y0040794D01*
X0327493Y0040878D01*
X0327453Y0040963D01*
X0327416Y0041050D01*
X0327383Y0041138D01*
X0327354Y0041228D01*
X0327328Y0041318D01*
X0327307Y0041410D01*
X0327289Y0041503D01*
X0327275Y0041596D01*
X0327265Y0041690D01*
X0327259Y0041784D01*
X0327257Y0041878D01*
X0044410Y0093407D02*
X0041407Y0093407D01*
X0042909Y0093407D02*
X0042909Y0097911D01*
X0041407Y0096410D01*
D17*
X0234257Y0024458D02*
X0235725Y0024458D01*
X0234991Y0025192D02*
X0234991Y0023724D01*
X0236467Y0023724D02*
X0236834Y0023357D01*
X0237568Y0023357D01*
X0237935Y0023724D01*
X0237935Y0024091D01*
X0237568Y0024458D01*
X0237201Y0024458D01*
X0237568Y0024458D02*
X0237935Y0024825D01*
X0237935Y0025192D01*
X0237568Y0025559D01*
X0236834Y0025559D01*
X0236467Y0025192D01*
X0238677Y0024825D02*
X0239411Y0023357D01*
X0240145Y0024825D01*
X0240887Y0025192D02*
X0241254Y0025559D01*
X0241988Y0025559D01*
X0242355Y0025192D01*
X0242355Y0024825D01*
X0241988Y0024458D01*
X0242355Y0024091D01*
X0242355Y0023724D01*
X0241988Y0023357D01*
X0241254Y0023357D01*
X0240887Y0023724D01*
X0241621Y0024458D02*
X0241988Y0024458D01*
X0244757Y0025559D02*
X0246225Y0025559D01*
X0245491Y0025559D02*
X0245491Y0023357D01*
X0246967Y0023357D02*
X0248435Y0025559D01*
X0249177Y0025559D02*
X0250278Y0025559D01*
X0250645Y0025192D01*
X0250645Y0023724D01*
X0250278Y0023357D01*
X0249177Y0023357D01*
X0249177Y0025559D01*
X0246967Y0025559D02*
X0248435Y0023357D01*
X0254757Y0023357D02*
X0254757Y0025559D01*
X0255858Y0025559D01*
X0256225Y0025192D01*
X0256225Y0024458D01*
X0255858Y0024091D01*
X0254757Y0024091D01*
X0255491Y0024091D02*
X0256225Y0023357D01*
X0256967Y0023357D02*
X0258435Y0025559D01*
X0259177Y0025559D02*
X0260278Y0025559D01*
X0260645Y0025192D01*
X0260645Y0023724D01*
X0260278Y0023357D01*
X0259177Y0023357D01*
X0259177Y0025559D01*
X0256967Y0025559D02*
X0258435Y0023357D01*
D18*
X0228957Y0029957D03*
D19*
X0225207Y0029957D03*
X0245707Y0029957D03*
M02*
