%
M48
M72
T01C0.01969
T02C0.02362
T03C0.02756
T04C0.03200
T05C0.03543
T06C0.04000
T07C0.12992
%
T01
X128157Y25657
X133157Y18157
X128157Y35157
X148157Y40957
X175657Y23857
X220657Y67657
X235857Y87157
X218157Y111157
X193157Y111157
X255957Y113157
X285957Y113157
X298157Y108157
X306157Y102157
X321504Y104811
X326657Y112157
X336657Y93157
X293157Y88157
X334417Y69417
X318157Y53157
X278157Y18157
X148157Y68157
X98157Y79457
X68157Y79457
X68157Y94857
X98157Y94857
X133157Y138157
X213157Y148157
T02
X226157Y139657
X310157Y139657
X328157Y88157
X288157Y63157
X318157Y62157
X318157Y33157
T03
X333157Y48157
X308157Y88157
X298157Y98157
X333157Y108157
X236157Y109157
X236157Y63157
X138157Y43157
T04
X160957Y51957
X170957Y51957
X180957Y51957
X190957Y51957
X200957Y51957
X210957Y51957
X220957Y51957
X230957Y51957
X240957Y51957
X250957Y51957
X260957Y51957
X270957Y51957
X280957Y51957
X290957Y51957
X279357Y29657
X259357Y29657
X250457Y29957
X220457Y29957
X228157Y72157
X228157Y82157
X228157Y92157
X228157Y102157
X230937Y121957
X220937Y121957
X210937Y121957
X200937Y121957
X190937Y121957
X180937Y121957
X170937Y121957
X160937Y121957
X160157Y102157
X160157Y92157
X160157Y82157
X160157Y72157
X113157Y87157
X103157Y87157
X93157Y87157
X83157Y87157
X73157Y87157
X63157Y87157
X53157Y87157
X43157Y87157
X43157Y19157
X53157Y19157
X63157Y19157
X73157Y19157
X83157Y19157
X93157Y19157
X103157Y19157
X113157Y19157
X240937Y121957
X250937Y121957
X260937Y121957
X270937Y121957
X280937Y121957
X290937Y121957
X300937Y121957
X310937Y121957
X320937Y121957
X113157Y155157
X103157Y155157
X93157Y155157
X83157Y155157
X73157Y155157
X63157Y155157
X53157Y155157
X43157Y155157
T05
X160953Y131898
X170953Y131898
X180953Y131898
X190953Y131898
X200953Y131898
X210953Y131898
X220953Y131898
X230953Y131898
X240953Y131898
X250953Y131898
X260953Y131898
X270953Y131898
X280953Y131898
X290953Y131898
X300953Y131898
X310953Y131898
X320953Y131898
X320953Y41898
X310953Y41898
X300953Y41898
X290953Y41898
X280953Y41898
X270953Y41898
X260953Y41898
X250953Y41898
X240953Y41898
X230953Y41898
X220953Y41898
X210953Y41898
X200953Y41898
X190953Y41898
X180953Y41898
X170953Y41898
X160953Y41898
T06
X138157Y52157
X128157Y52157
X113157Y52157
X103157Y52157
X93157Y52157
X83157Y52157
X73157Y52157
X63157Y52157
X53157Y52157
X43157Y52157
X43157Y62157
X53157Y62157
X63157Y62157
X73157Y62157
X83157Y62157
X93157Y62157
X103157Y62157
X113157Y62157
X128157Y62157
X138157Y62157
X138157Y72157
X128157Y72157
X113157Y72157
X103157Y72157
X93157Y72157
X83157Y72157
X73157Y72157
X63157Y72157
X53157Y72157
X43157Y72157
X43157Y42157
X53157Y42157
X63157Y42157
X73157Y42157
X83157Y42157
X93157Y42157
X103157Y42157
X113157Y42157
X113157Y32157
X103157Y32157
X93157Y32157
X83157Y32157
X73157Y32157
X63157Y32157
X53157Y32157
X43157Y32157
X128157Y82157
X138157Y82157
X138157Y92157
X128157Y92157
X128157Y102157
X138157Y102157
X138157Y112157
X128157Y112157
X113157Y112157
X103157Y112157
X93157Y112157
X83157Y112157
X73157Y112157
X63157Y112157
X53157Y112157
X43157Y112157
X43157Y102157
X53157Y102157
X63157Y102157
X73157Y102157
X83157Y102157
X93157Y102157
X103157Y102157
X113157Y102157
X113157Y122157
X103157Y122157
X93157Y122157
X83157Y122157
X73157Y122157
X63157Y122157
X53157Y122157
X43157Y122157
X43157Y132157
X53157Y132157
X63157Y132157
X73157Y132157
X83157Y132157
X93157Y132157
X103157Y132157
X113157Y132157
X113157Y142157
X103157Y142157
X93157Y142157
X83157Y142157
X73157Y142157
X63157Y142157
X53157Y142157
X43157Y142157
X128157Y122157
X138157Y122157
X173157Y102157
X183157Y102157
X193157Y102157
X203157Y102157
X213157Y102157
X213157Y92157
X203157Y92157
X193157Y92157
X183157Y92157
X173157Y92157
X173157Y82157
X183157Y82157
X193157Y82157
X203157Y82157
X213157Y82157
X213157Y72157
X203157Y72157
X193157Y72157
X183157Y72157
X173157Y72157
X243157Y72157
X253157Y72157
X263157Y72157
X273157Y72157
X283157Y72157
X283157Y82157
X273157Y82157
X263157Y82157
X253157Y82157
X243157Y82157
X243157Y92157
X253157Y92157
X263157Y92157
X273157Y92157
X283157Y92157
X283157Y102157
X273157Y102157
X263157Y102157
X253157Y102157
X243157Y102157
X240961Y146257
X250961Y146257
X260961Y146257
X270961Y146257
X280961Y146257
X290961Y146257
X300961Y146257
X310961Y146257
X310961Y156257
X300961Y156257
X290961Y156257
X280961Y156257
X270961Y156257
X260961Y156257
X250961Y156257
X240961Y156257
X230961Y156257
X220961Y156257
X220961Y146257
X230961Y146257
X288157Y28157
X298157Y28157
X308157Y28157
X308157Y18157
X298157Y18157
X288157Y18157
X258157Y17757
X248157Y17757
X238157Y17757
X228157Y17757
X218157Y17757
T07
X18000Y18000
X155795Y18000
X195165Y18000
X332961Y18000
X332961Y155795
X195165Y155795
X155795Y155795
X18000Y155795
M30
